
<svg width="25" height="29" viewBox="0 0 25 29" fill="none" xmlns="http://www.w3.org/2000/svg">
<path d="M12.5039 13.9258C14.0995 13.9258 15.393 12.6323 15.393 11.0366C15.393 9.44099 14.0995 8.14746 12.5039 8.14746C10.9082 8.14746 9.61469 9.44099 9.61469 11.0366C9.61469 12.6323 10.9082 13.9258 12.5039 13.9258Z" stroke="#231F20" stroke-miterlimit="10" stroke-linejoin="round"/>
<path d="M19.364 17.6697C20.4988 16.1787 21.1102 14.3551 21.1035 12.4813C21.1035 10.2006 20.1975 8.01328 18.5848 6.40057C16.9721 4.78785 14.7848 3.88184 12.5041 3.88184C11.3741 3.88085 10.2551 4.10256 9.21086 4.53428C8.16665 4.966 7.21776 5.59926 6.41843 6.39789C5.61909 7.19652 4.98498 8.14487 4.55234 9.1887C4.1197 10.2325 3.89703 11.3514 3.89703 12.4813C3.89031 14.3551 4.50174 16.1787 5.63658 17.6697" stroke="#231F20" stroke-miterlimit="10" stroke-linecap="round" stroke-linejoin="round"/>
<path d="M19.7872 21.3907C21.1057 20.3138 22.1678 18.9569 22.8964 17.4184C23.6251 15.8799 24.0021 14.1985 24 12.4962C23.998 9.44785 22.7861 6.52491 20.6306 4.36939C18.4751 2.21387 15.5521 1.002 12.5038 1C9.4541 0.999999 6.52922 2.21097 4.37206 4.36671C2.2149 6.52245 1.00201 9.44654 1.00001 12.4962C0.997962 14.1974 1.375 15.8777 2.10372 17.415C2.83243 18.9522 3.89452 20.3078 5.21276 21.3831" stroke="#231F20" stroke-miterlimit="10" stroke-linecap="round" stroke-linejoin="round"/>
<path d="M19.7872 21.3912V21.3833" stroke="#231F20" stroke-miterlimit="10" stroke-linejoin="round"/>
<path d="M16.8601 20.3696C16.8601 19.7976 16.7474 19.2311 16.5285 18.7025C16.3095 18.174 15.9886 17.6937 15.5841 17.2892C15.1796 16.8846 14.6993 16.5637 14.1708 16.3448C13.6422 16.1259 13.0757 16.0132 12.5036 16.0132C11.9319 16.0132 11.3658 16.1259 10.8376 16.345C10.3095 16.564 9.82975 16.885 9.42581 17.2896C9.02188 17.6943 8.70171 18.1746 8.4836 18.7031C8.26549 19.2316 8.15374 19.7979 8.15473 20.3696C8.15473 22.7672 11.0666 27.5018 12.5036 27.5018C14.0541 27.5018 16.8601 22.7672 16.8601 20.3696Z" stroke="#231F20" stroke-miterlimit="10" stroke-linejoin="round"/>
</svg>
