
<svg width="26" height="26" viewBox="0 0 26 26" fill="none" xmlns="http://www.w3.org/2000/svg">
<rect x="0.0419922" width="25.958" height="25.958" rx="8" fill="#151719"/>
<path d="M20.5206 8.56289C20.0641 8.76876 19.5629 8.89408 19.0795 8.97464C19.3122 8.93883 19.6524 8.51813 19.7866 8.34806C19.9925 8.08848 20.1715 7.7931 20.27 7.47086C20.279 7.44401 20.2879 7.41716 20.27 7.39925C20.2342 7.3903 20.2163 7.3903 20.1894 7.4082C19.6434 7.70359 19.0795 7.90946 18.4798 8.06163C18.4261 8.07058 18.3903 8.06163 18.3634 8.03478C18.3097 7.98107 18.265 7.92737 18.2113 7.88261C17.9606 7.66779 17.6921 7.49771 17.3788 7.3724C16.976 7.21128 16.5374 7.13967 16.1078 7.16653C15.6871 7.19338 15.2753 7.30974 14.8994 7.50667C14.5234 7.70359 14.1922 7.97212 13.9237 8.30331C13.6462 8.64345 13.4493 9.04625 13.3419 9.46695C13.2434 9.87869 13.2524 10.2815 13.315 10.6932C13.324 10.7648 13.315 10.7738 13.2524 10.7648C10.8983 10.4158 8.95588 9.57436 7.37154 7.7752C7.29993 7.69464 7.26413 7.69464 7.21042 7.78415C6.52119 8.82247 6.85238 10.4874 7.72063 11.3109C7.837 11.4183 7.95336 11.5257 8.07868 11.6331C8.03392 11.6421 7.46105 11.5794 6.94189 11.3109C6.87028 11.2661 6.83448 11.293 6.83448 11.3735C6.82553 11.4899 6.83448 11.5883 6.85238 11.7137C6.98665 12.7609 7.71168 13.7366 8.7142 14.1215C8.83056 14.1752 8.96483 14.211 9.09014 14.2379C8.86637 14.2916 8.62469 14.3274 7.98021 14.2737C7.89965 14.2558 7.86385 14.3005 7.89965 14.3721C8.39196 15.7058 9.44818 16.0997 10.2359 16.3324C10.3433 16.3503 10.4507 16.3503 10.5581 16.3772C10.5492 16.3861 10.5492 16.3861 10.5402 16.3951C10.2806 16.7979 9.36762 17.0932 8.94692 17.2454C8.17713 17.5139 7.33573 17.6393 6.52119 17.5587C6.38692 17.5408 6.36008 17.5408 6.32427 17.5587C6.28847 17.5766 6.31531 17.6124 6.36007 17.6482C6.52119 17.7556 6.69126 17.8541 6.86133 17.9436C7.38049 18.2211 7.91755 18.4359 8.48147 18.5881C11.3995 19.3937 14.6756 18.8029 16.8686 16.6278C18.5872 14.9181 19.1869 12.564 19.1869 10.2099C19.1869 10.1204 19.2943 10.0667 19.357 10.0219C19.8045 9.68177 20.1626 9.28792 20.4938 8.83142C20.5654 8.73296 20.5654 8.64345 20.5654 8.60764C20.5654 8.59869 20.5654 8.59869 20.5654 8.59869C20.5833 8.52709 20.5833 8.53604 20.5206 8.56289Z" fill="white"/>
</svg>