
<svg width="26" height="23" viewBox="0 0 26 23" fill="none" xmlns="http://www.w3.org/2000/svg">
<path d="M8.82611 2.56522C8.82611 2.1501 8.99102 1.75198 9.28455 1.45844C9.57809 1.16491 9.97621 1 10.3913 1H23.4348C23.8499 1 24.248 1.16491 24.5416 1.45844C24.8351 1.75198 25 2.1501 25 2.56522V11.9565C25 12.3716 24.8351 12.7698 24.5416 13.0633C24.248 13.3568 23.8499 13.5217 23.4348 13.5217H21.3479V16.6522H20.8261L18.2174 13.5217H10.3913C9.97621 13.5217 9.57809 13.3568 9.28455 13.0633C8.99102 12.7698 8.82611 12.3716 8.82611 11.9565V2.56522Z" stroke="#151719" stroke-miterlimit="10" stroke-linejoin="round"/>
<path d="M8.82609 6.21729H2.56522C2.1501 6.21729 1.75198 6.38219 1.45844 6.67573C1.16491 6.96926 1 7.36738 1 7.7825V17.1738C1 17.5889 1.16491 17.987 1.45844 18.2806C1.75198 18.5741 2.1501 18.739 2.56522 18.739H4.65217V21.8695H5.17391L7.78261 18.739H15.6087C16.0238 18.739 16.4219 18.5741 16.7155 18.2806C17.009 17.987 17.1739 17.5889 17.1739 17.1738V13.5216" stroke="#151719" stroke-miterlimit="10"/>
<path d="M11.4348 5.17383H22.3913" stroke="#151719" stroke-miterlimit="10"/>
<path d="M11.4348 7.26074H22.3913" stroke="#151719" stroke-miterlimit="10"/>
<path d="M11.4348 9.34766H18.7391" stroke="#151719" stroke-miterlimit="10"/>
</svg>
