<svg width="505" height="501" viewBox="0 0 505 501" fill="none" xmlns="http://www.w3.org/2000/svg">
<g filter="url(#filter0_f_1395_47843)">
<circle cx="252.907" cy="249.937" r="92.4985" fill="#1FE290" fill-opacity="0.7"/>
</g>
<rect x="104" y="307" width="88.1257" height="88.1257" rx="10.6473" fill="#D2FAE6"/>
<rect x="207.937" y="203.976" width="88.1257" height="88.1257" rx="10.6473" fill="#1FE290"/>
<g clip-path="url(#clip0_1395_47843)">
<path d="M256.666 224.77H234.672V235.27C234.672 240.417 238.766 244.591 243.815 244.591V232.787H255.262C259.29 232.787 261.848 235.263 261.848 239.5C261.848 244.256 258.907 246.277 255.262 246.277H243.815C238.766 246.277 234.672 250.451 234.672 255.598V271.305H243.815V254.227H256.666C266.064 254.227 271.308 247.776 271.308 239.496C271.308 231.217 266.068 224.77 256.666 224.77Z" fill="black"/>
</g>
<rect x="208" y="103" width="88.1257" height="88.1257" rx="10.6473" fill="#D2FAE6"/>
<path d="M225 134V160.438H252.795L280 134.003H225V134Z" fill="url(#paint0_linear_1395_47843)"/>
<path d="M256.407 146.907H255.244V142.679H256.407C257.959 142.679 259.195 143.187 259.195 144.767C259.195 146.399 257.959 146.909 256.407 146.909V146.907ZM243.891 149.935C243.314 149.938 242.742 149.837 242.201 149.639L243.875 144.383H243.91L245.55 149.656C245.018 149.844 244.457 149.939 243.893 149.939L243.891 149.935ZM256.098 139.243H250.817V151.742L246.203 139.243H241.635L237.695 149.69C237.278 147.06 234.539 146.147 232.384 145.465C230.965 145.011 229.452 144.351 229.466 143.602C229.478 142.997 230.278 142.436 231.855 142.519C232.918 142.572 233.865 142.656 235.718 143.553L237.56 140.373C235.86 139.509 233.506 138.967 231.579 138.962H231.561C229.313 138.962 227.443 139.691 226.281 140.885C225.479 141.708 225.026 142.806 225.017 143.952C224.987 145.562 225.583 146.704 226.83 147.619C227.885 148.389 229.232 148.883 230.42 149.256C231.887 149.705 233.084 150.1 233.071 150.939C233.062 151.245 232.938 151.537 232.723 151.756C232.357 152.131 231.797 152.275 231.02 152.293C229.523 152.323 228.414 152.091 226.646 151.051L225.011 154.271C226.832 155.3 228.89 155.845 230.984 155.853H231.259C233.111 155.819 234.608 155.292 235.804 154.336L235.997 154.169L235.475 155.575H240.268L241.073 153.137C242.882 153.72 244.829 153.729 246.643 153.16L247.419 155.578H255.24V150.539H256.948C261.07 150.539 263.511 148.45 263.511 144.946C263.511 141.045 261.138 139.253 256.093 139.253" fill="#D2FAE6"/>
<rect x="312" y="103" width="88.1257" height="88.1257" rx="10.6473" fill="#D2FAE6"/>
<path d="M325 141.209H327.869L331.285 146.992C331.328 147.078 331.393 147.201 331.479 147.362C331.575 147.523 331.667 147.685 331.753 147.846C331.86 148.039 331.968 148.243 332.075 148.458H332.107C332.097 148.2 332.091 147.953 332.091 147.717C332.08 147.513 332.075 147.314 332.075 147.121C332.075 146.928 332.075 146.777 332.075 146.67V141.209H334.863V152.726H331.994L328.61 147.024C328.556 146.949 328.481 146.831 328.384 146.67C328.298 146.498 328.213 146.321 328.127 146.138C328.019 145.934 327.906 145.714 327.788 145.478H327.756C327.756 145.757 327.761 146.02 327.772 146.267C327.772 146.482 327.772 146.697 327.772 146.911C327.783 147.115 327.788 147.266 327.788 147.362V152.726H325V141.209ZM340.31 152.968C339.633 152.968 339.021 152.86 338.473 152.646C337.925 152.42 337.463 152.114 337.087 151.728C336.71 151.33 336.42 150.863 336.216 150.326C336.012 149.789 335.91 149.209 335.91 148.587C335.91 147.974 336.012 147.405 336.216 146.879C336.42 146.342 336.71 145.881 337.087 145.494C337.463 145.097 337.908 144.791 338.424 144.576C338.94 144.35 339.515 144.238 340.149 144.238C340.74 144.238 341.266 144.329 341.728 144.511C342.201 144.694 342.614 144.946 342.969 145.268C343.463 145.719 343.829 146.294 344.065 146.992C344.312 147.679 344.43 148.442 344.419 149.279H338.489C338.575 149.838 338.768 150.278 339.069 150.6C339.37 150.922 339.794 151.083 340.342 151.083C340.686 151.083 340.971 151.013 341.196 150.874C341.422 150.723 341.594 150.519 341.712 150.262H344.274C344.188 150.638 344.027 150.997 343.791 151.341C343.555 151.674 343.254 151.964 342.888 152.211C342.545 152.458 342.158 152.646 341.728 152.774C341.309 152.903 340.836 152.968 340.31 152.968ZM341.76 147.717C341.706 147.223 341.54 146.831 341.261 146.541C340.981 146.251 340.627 146.106 340.197 146.106C339.692 146.106 339.305 146.251 339.037 146.541C338.768 146.831 338.591 147.223 338.505 147.717H341.76ZM348.413 152.823C348.026 152.823 347.672 152.791 347.349 152.726C347.038 152.651 346.764 152.527 346.527 152.356C346.291 152.184 346.108 151.953 345.98 151.663C345.851 151.362 345.786 150.992 345.786 150.552V146.122H344.69V144.479H345.786V141.87H348.349V144.479H349.847V146.122H348.349V149.988C348.349 150.31 348.429 150.525 348.59 150.632C348.762 150.74 348.988 150.793 349.267 150.793C349.385 150.793 349.498 150.793 349.606 150.793C349.713 150.783 349.794 150.777 349.847 150.777V152.694C349.729 152.726 349.547 152.753 349.299 152.774C349.063 152.807 348.768 152.823 348.413 152.823ZM355.546 153C354.783 153 354.085 152.914 353.451 152.742C352.828 152.581 352.29 152.34 351.839 152.017C351.399 151.685 351.049 151.277 350.792 150.793C350.544 150.299 350.415 149.736 350.405 149.102H353.274C353.338 149.682 353.558 150.101 353.934 150.358C354.31 150.616 354.842 150.745 355.53 150.745C355.766 150.745 355.992 150.723 356.207 150.681C356.432 150.638 356.631 150.568 356.803 150.471C356.975 150.374 357.115 150.251 357.222 150.101C357.329 149.94 357.383 149.752 357.383 149.537C357.383 149.311 357.324 149.124 357.206 148.973C357.098 148.823 356.937 148.694 356.722 148.587C356.507 148.479 356.244 148.388 355.933 148.313C355.621 148.227 355.266 148.136 354.869 148.039C354.364 147.921 353.864 147.787 353.37 147.636C352.887 147.486 352.452 147.282 352.065 147.024C351.678 146.766 351.361 146.439 351.114 146.042C350.878 145.644 350.759 145.145 350.759 144.544C350.759 143.932 350.878 143.405 351.114 142.965C351.35 142.514 351.673 142.144 352.081 141.854C352.489 141.564 352.973 141.349 353.531 141.209C354.09 141.07 354.692 141 355.336 141C355.959 141 356.54 141.075 357.077 141.226C357.625 141.365 358.098 141.58 358.495 141.87C358.904 142.16 359.226 142.53 359.462 142.981C359.709 143.422 359.849 143.942 359.881 144.544H357.093C357.039 144.093 356.851 143.749 356.529 143.513C356.207 143.277 355.777 143.158 355.24 143.158C354.735 143.158 354.332 143.26 354.031 143.464C353.73 143.658 353.58 143.915 353.58 144.238C353.58 144.442 353.634 144.613 353.741 144.753C353.859 144.882 354.026 144.995 354.24 145.091C354.455 145.188 354.724 145.279 355.046 145.365C355.379 145.44 355.761 145.526 356.191 145.623C356.728 145.752 357.238 145.897 357.722 146.058C358.216 146.219 358.651 146.434 359.027 146.702C359.403 146.97 359.704 147.309 359.93 147.717C360.155 148.125 360.268 148.635 360.268 149.247C360.268 149.848 360.144 150.385 359.897 150.858C359.661 151.319 359.328 151.711 358.898 152.034C358.479 152.345 357.979 152.581 357.399 152.742C356.83 152.914 356.212 153 355.546 153ZM364.11 152.968C363.154 152.968 362.429 152.689 361.934 152.13C361.451 151.561 361.209 150.815 361.209 149.891V144.479H363.82V149.344C363.82 149.795 363.922 150.144 364.126 150.391C364.33 150.627 364.642 150.745 365.061 150.745C365.512 150.745 365.867 150.595 366.124 150.294C366.382 149.982 366.511 149.58 366.511 149.086V144.479H369.138V152.726H366.624V151.711H366.576C366.275 152.12 365.931 152.431 365.544 152.646C365.168 152.86 364.69 152.968 364.11 152.968ZM370.402 144.479H373.029V152.726H370.402V144.479ZM370.402 141.209H373.029V143.336H370.402V141.209ZM377.561 152.823C377.174 152.823 376.82 152.791 376.497 152.726C376.186 152.651 375.912 152.527 375.675 152.356C375.439 152.184 375.256 151.953 375.127 151.663C374.998 151.362 374.934 150.992 374.934 150.552V146.122H373.838V144.479H374.934V141.87H377.496V144.479H378.995V146.122H377.496V149.988C377.496 150.31 377.577 150.525 377.738 150.632C377.91 150.74 378.136 150.793 378.415 150.793C378.533 150.793 378.646 150.793 378.753 150.793C378.861 150.783 378.941 150.777 378.995 150.777V152.694C378.877 152.726 378.694 152.753 378.447 152.774C378.211 152.807 377.915 152.823 377.561 152.823ZM383.89 152.968C383.213 152.968 382.6 152.86 382.052 152.646C381.505 152.42 381.043 152.114 380.666 151.728C380.29 151.33 380 150.863 379.796 150.326C379.592 149.789 379.49 149.209 379.49 148.587C379.49 147.974 379.592 147.405 379.796 146.879C380 146.342 380.29 145.881 380.666 145.494C381.043 145.097 381.488 144.791 382.004 144.576C382.52 144.35 383.095 144.238 383.729 144.238C384.319 144.238 384.846 144.329 385.308 144.511C385.781 144.694 386.194 144.946 386.549 145.268C387.043 145.719 387.408 146.294 387.645 146.992C387.892 147.679 388.01 148.442 387.999 149.279H382.069C382.155 149.838 382.348 150.278 382.649 150.6C382.95 150.922 383.374 151.083 383.922 151.083C384.266 151.083 384.55 151.013 384.776 150.874C385.002 150.723 385.174 150.519 385.292 150.262H387.854C387.768 150.638 387.607 150.997 387.371 151.341C387.135 151.674 386.834 151.964 386.468 152.211C386.124 152.458 385.738 152.646 385.308 152.774C384.889 152.903 384.416 152.968 383.89 152.968ZM385.34 147.717C385.286 147.223 385.12 146.831 384.841 146.541C384.561 146.251 384.207 146.106 383.777 146.106C383.272 146.106 382.885 146.251 382.617 146.541C382.348 146.831 382.171 147.223 382.085 147.717H385.34Z" fill="black"/>
<rect x="312" y="206" width="88.1257" height="88.1257" rx="10.6473" fill="#D2FAE6"/>
<path d="M329 248.501V250.553H337.399V248.501H329ZM329 252.001V254.053H337.399V252.001H329ZM365.993 253.782H362.693C362.137 253.782 361.81 253.51 361.81 253.027C361.81 252.544 362.137 252.273 362.693 252.273H365.993V253.782ZM364.458 246.72H360.046V248.772H361.386H364.327C365.634 248.772 365.993 249.225 365.993 250.311H362.562C360.536 250.311 359.425 251.277 359.425 253.057C359.425 254.838 360.536 255.804 362.562 255.804H368.346V250.221C368.379 247.867 367.399 246.72 364.458 246.72ZM374.098 253.721C372.595 253.721 372.039 253.057 372.039 251.247C372.039 249.436 372.595 248.772 374.098 248.772H377.268V246.72H373.837C370.797 246.72 369.621 248.108 369.621 251.247C369.621 254.355 370.797 255.773 373.837 255.773H377.301V253.721H374.098ZM344.033 253.721C342.791 253.721 342.203 253.299 342.039 252.273H347.268V250.643V250.613V250.251H342.039C342.203 249.195 342.758 248.742 344.033 248.742H347.954V246.72H346.778H343.771C340.732 246.72 339.556 248.108 339.556 251.247C339.556 254.355 340.732 255.773 343.771 255.773H347.987V253.721H344.033ZM381.68 253.721C381.222 253.721 380.928 253.42 380.928 252.876V248.772H383.804V246.72H380.928V245H378.542V253.057C378.542 254.928 379.49 255.773 381.451 255.773H384V253.721H381.68ZM355.373 251.096L358.967 246.72H356.157L353.967 249.406L351.778 246.72H348.869L352.529 251.186L348.771 255.773H351.582L353.967 252.876L356.353 255.773H359.261L355.373 251.096Z" fill="black"/>
<rect x="104" y="204" width="88.1257" height="88.1257" rx="10.6473" fill="#D2FAE6"/>
<path fill-rule="evenodd" clip-rule="evenodd" d="M164.482 250.557C163.402 250.557 162.9 249.57 162.9 248.665C162.9 247.759 163.402 246.813 164.482 246.813C165.563 246.813 166.065 247.759 166.065 248.665C166.065 249.57 165.563 250.557 164.482 250.557ZM164.482 245.332C162.591 245.332 161.201 246.731 161.201 248.665C161.201 250.68 162.591 252.079 164.482 252.079C166.335 252.079 167.764 250.68 167.764 248.665C167.725 246.731 166.374 245.332 164.482 245.332ZM145.993 245.497H143.831L141.669 248.13H141.631V242H139.971V251.873H141.631V248.747H141.669L143.908 251.873H146.109L143.522 248.377L145.993 245.497ZM149.853 250.557C148.849 250.557 148.27 249.611 148.27 248.706C148.27 247.801 148.888 246.813 149.853 246.813C150.934 246.813 151.474 247.759 151.474 248.665C151.435 249.611 150.856 250.557 149.853 250.557ZM150.162 245.332C149.39 245.332 148.849 245.703 148.309 246.196H148.27V242H146.61V251.873H148.193V250.968H148.232C148.618 251.627 149.351 252.038 150.123 252.038C151.821 252.038 153.134 250.598 153.134 248.665C153.134 246.731 151.86 245.332 150.162 245.332ZM174.789 245.497H172.627L170.466 248.13H170.427V242H168.767V251.873H170.427V248.747H170.466L172.743 251.873H174.943L172.357 248.377L174.789 245.497ZM177.954 247.965C177.105 247.759 176.796 247.636 176.796 247.266C176.796 246.772 177.414 246.649 177.684 246.649C178.186 246.649 178.765 246.978 178.997 247.266L179.961 246.278C179.498 245.661 178.61 245.332 177.684 245.332C176.487 245.332 175.214 245.991 175.214 247.389C175.214 248.623 176.14 248.994 177.028 249.199C177.954 249.446 178.302 249.611 178.302 249.981C178.302 250.557 177.684 250.68 177.452 250.68C176.912 250.68 176.294 250.351 175.947 249.94L174.943 251.009C175.483 251.668 176.449 252.038 177.414 252.038C179.035 252.038 180 251.215 180 249.858C179.961 248.623 178.765 248.171 177.954 247.965ZM157.187 250.557C156.106 250.557 155.604 249.57 155.604 248.665C155.604 247.759 156.106 246.813 157.187 246.813C158.268 246.813 158.77 247.759 158.77 248.665C158.731 249.57 158.268 250.557 157.187 250.557ZM157.187 245.332C155.295 245.332 153.906 246.731 153.906 248.665C153.906 250.68 155.295 252.079 157.187 252.079C159.04 252.079 160.468 250.68 160.468 248.665C160.429 246.731 159.078 245.332 157.187 245.332ZM119.32 250.557C118.277 250.557 117.698 249.611 117.698 248.665C117.698 247.759 118.239 246.813 119.32 246.813C120.323 246.813 120.902 247.801 120.902 248.706C120.941 249.611 120.323 250.557 119.32 250.557ZM120.941 246.32C120.671 246.032 120.014 245.332 119.011 245.332C117.312 245.332 116 246.731 116 248.665C116 250.639 117.197 252.038 118.934 252.038C119.706 252.038 120.439 251.585 120.864 251.092H120.902V255H122.562V245.497H120.979V246.32H120.941ZM127.928 248.994C127.928 249.734 127.464 250.557 126.615 250.557C125.959 250.557 125.612 250.063 125.612 249.035V245.497H123.952V249.446C123.952 250.763 124.569 252.038 126.229 252.038C127.001 252.038 127.657 251.38 128.005 250.886H128.043V251.873H129.626V245.497H127.966V248.994H127.928ZM130.938 251.873H132.598V245.497H130.938V251.873ZM136.96 250.557C135.957 250.557 135.455 249.611 135.455 248.665C135.455 247.759 135.995 246.813 136.922 246.813C137.346 246.813 137.887 247.06 138.118 247.348L139.199 246.237C138.697 245.661 137.848 245.332 136.922 245.332C135.069 245.332 133.718 246.731 133.718 248.706C133.718 250.68 135.069 252.079 136.96 252.079C137.887 252.079 138.697 251.791 139.199 251.215L138.157 250.022C137.887 250.351 137.385 250.557 136.96 250.557Z" fill="black"/>
<rect x="208" y="308" width="88.1257" height="88.1257" rx="10.6473" fill="#D2FAE6"/>
<path d="M227.018 350.672C227.018 351.165 226.954 351.609 226.825 352.004C226.696 352.399 226.511 352.735 226.27 353.012C226.029 353.29 225.739 353.504 225.398 353.655C225.058 353.806 224.679 353.882 224.263 353.882H222V347.462H224.263C224.685 347.462 225.067 347.536 225.407 347.684C225.748 347.832 226.037 348.045 226.274 348.323C226.512 348.6 226.696 348.938 226.825 349.336C226.954 349.733 227.018 350.179 227.018 350.672ZM225.856 350.663C225.856 350.429 225.834 350.19 225.79 349.946C225.746 349.702 225.665 349.48 225.548 349.28C225.431 349.08 225.269 348.916 225.064 348.79C224.858 348.663 224.591 348.6 224.263 348.6H223.162V352.744H224.263C224.609 352.744 224.886 352.672 225.095 352.527C225.303 352.382 225.464 352.205 225.579 351.995C225.693 351.785 225.768 351.56 225.803 351.32C225.839 351.079 225.856 350.86 225.856 350.663ZM231.605 353.049L231.561 353.114C231.362 353.392 231.106 353.607 230.795 353.762C230.484 353.916 230.126 353.993 229.721 353.993C229.404 353.993 229.105 353.928 228.823 353.799C228.541 353.669 228.295 353.492 228.084 353.267C227.872 353.042 227.705 352.778 227.582 352.476C227.459 352.174 227.397 351.85 227.397 351.505C227.397 351.159 227.459 350.834 227.582 350.529C227.705 350.224 227.872 349.958 228.084 349.733C228.295 349.508 228.541 349.329 228.823 349.197C229.105 349.064 229.404 348.998 229.721 348.998C230.056 348.998 230.371 349.064 230.668 349.197C230.964 349.329 231.218 349.524 231.429 349.78C231.64 350.035 231.799 350.348 231.905 350.718C232.01 351.088 232.043 351.508 232.001 351.976H228.577C228.653 352.272 228.792 352.504 228.995 352.67C229.197 352.837 229.437 352.92 229.712 352.92C229.888 352.92 230.057 352.884 230.219 352.813C230.38 352.743 230.511 352.627 230.61 352.467L231.605 353.049ZM230.848 350.977C230.778 350.7 230.641 350.479 230.439 350.316C230.236 350.153 229.994 350.071 229.712 350.071C229.448 350.071 229.216 350.153 229.017 350.316C228.817 350.479 228.676 350.7 228.594 350.977H230.848ZM235.083 353.882H233.833L232.116 349.118H233.331L234.458 352.67L235.594 349.118H236.791L235.083 353.882ZM241.096 353.049L241.052 353.114C240.853 353.392 240.597 353.607 240.286 353.762C239.975 353.916 239.617 353.993 239.212 353.993C238.895 353.993 238.596 353.928 238.314 353.799C238.032 353.669 237.786 353.492 237.574 353.267C237.363 353.042 237.196 352.778 237.073 352.476C236.949 352.174 236.888 351.85 236.888 351.505C236.888 351.159 236.949 350.834 237.073 350.529C237.196 350.224 237.363 349.958 237.574 349.733C237.786 349.508 238.032 349.329 238.314 349.197C238.596 349.064 238.895 348.998 239.212 348.998C239.547 348.998 239.862 349.064 240.158 349.197C240.455 349.329 240.709 349.524 240.92 349.78C241.131 350.035 241.29 350.348 241.395 350.718C241.501 351.088 241.533 351.508 241.492 351.976H238.068C238.144 352.272 238.283 352.504 238.486 352.67C238.688 352.837 238.927 352.92 239.203 352.92C239.379 352.92 239.548 352.884 239.709 352.813C239.871 352.743 240.001 352.627 240.101 352.467L241.096 353.049ZM240.339 350.977C240.269 350.7 240.132 350.479 239.93 350.316C239.727 350.153 239.485 350.071 239.203 350.071C238.939 350.071 238.707 350.153 238.508 350.316C238.308 350.479 238.167 350.7 238.085 350.977H240.339ZM243.315 353.882H242.153V347H243.315V353.882ZM246.229 348.998C246.546 348.998 246.842 349.061 247.118 349.188C247.394 349.314 247.636 349.49 247.844 349.715C248.053 349.94 248.217 350.205 248.338 350.51C248.458 350.816 248.518 351.147 248.518 351.505C248.518 351.862 248.458 352.192 248.338 352.494C248.217 352.797 248.053 353.059 247.844 353.281C247.636 353.503 247.394 353.677 247.118 353.803C246.842 353.93 246.546 353.993 246.229 353.993C245.912 353.993 245.616 353.93 245.34 353.803C245.064 353.677 244.823 353.503 244.618 353.281C244.412 353.059 244.249 352.797 244.129 352.494C244.009 352.192 243.949 351.862 243.949 351.505C243.949 351.147 244.009 350.816 244.129 350.51C244.249 350.205 244.412 349.94 244.618 349.715C244.823 349.49 245.064 349.314 245.34 349.188C245.616 349.061 245.912 348.998 246.229 348.998ZM246.229 352.874C246.382 352.874 246.525 352.841 246.66 352.776C246.795 352.712 246.914 352.619 247.017 352.499C247.12 352.379 247.2 352.235 247.259 352.069C247.318 351.902 247.347 351.717 247.347 351.514C247.347 351.31 247.318 351.122 247.259 350.95C247.2 350.777 247.12 350.629 247.017 350.506C246.914 350.382 246.795 350.287 246.66 350.219C246.525 350.151 246.382 350.117 246.229 350.117C246.076 350.117 245.931 350.151 245.793 350.219C245.655 350.287 245.536 350.382 245.437 350.506C245.337 350.629 245.258 350.777 245.199 350.95C245.14 351.122 245.111 351.31 245.111 351.514C245.111 351.717 245.14 351.902 245.199 352.069C245.258 352.235 245.337 352.379 245.437 352.499C245.536 352.619 245.655 352.712 245.793 352.776C245.931 352.841 246.076 352.874 246.229 352.874ZM253.792 351.486C253.792 351.838 253.734 352.166 253.62 352.471C253.506 352.776 253.351 353.042 253.158 353.267C252.964 353.492 252.737 353.668 252.475 353.794C252.214 353.92 251.934 353.984 251.635 353.984C251.371 353.984 251.125 353.934 250.9 353.836C250.674 353.737 250.475 353.598 250.305 353.419V356H249.134V349.118H250.252V349.618C250.428 349.427 250.634 349.277 250.869 349.169C251.103 349.061 251.359 349.007 251.635 349.007C251.934 349.007 252.214 349.07 252.475 349.197C252.737 349.323 252.964 349.497 253.158 349.719C253.351 349.941 253.506 350.203 253.62 350.506C253.734 350.808 253.792 351.135 253.792 351.486ZM252.63 351.486C252.63 351.295 252.599 351.118 252.537 350.954C252.475 350.791 252.392 350.649 252.286 350.529C252.181 350.409 252.057 350.314 251.916 350.247C251.776 350.179 251.626 350.145 251.467 350.145C251.309 350.145 251.159 350.18 251.018 350.251C250.877 350.322 250.754 350.418 250.649 350.538C250.543 350.658 250.459 350.8 250.398 350.964C250.336 351.127 250.305 351.301 250.305 351.486C250.305 351.671 250.336 351.847 250.398 352.013C250.459 352.18 250.543 352.325 250.649 352.448C250.754 352.571 250.877 352.669 251.018 352.739C251.159 352.81 251.309 352.846 251.467 352.846C251.626 352.846 251.776 352.812 251.916 352.744C252.057 352.676 252.181 352.581 252.286 352.457C252.392 352.334 252.475 352.191 252.537 352.027C252.599 351.864 252.63 351.683 252.63 351.486ZM258.352 353.049L258.308 353.114C258.109 353.392 257.853 353.607 257.542 353.762C257.231 353.916 256.873 353.993 256.468 353.993C256.151 353.993 255.852 353.928 255.57 353.799C255.288 353.669 255.042 353.492 254.831 353.267C254.619 353.042 254.452 352.778 254.329 352.476C254.205 352.174 254.144 351.85 254.144 351.505C254.144 351.159 254.205 350.834 254.329 350.529C254.452 350.224 254.619 349.958 254.831 349.733C255.042 349.508 255.288 349.329 255.57 349.197C255.852 349.064 256.151 348.998 256.468 348.998C256.803 348.998 257.118 349.064 257.415 349.197C257.711 349.329 257.965 349.524 258.176 349.78C258.387 350.035 258.546 350.348 258.652 350.718C258.757 351.088 258.789 351.508 258.748 351.976H255.324C255.4 352.272 255.539 352.504 255.742 352.67C255.944 352.837 256.183 352.92 256.459 352.92C256.635 352.92 256.804 352.884 256.966 352.813C257.127 352.743 257.258 352.627 257.357 352.467L258.352 353.049ZM257.595 350.977C257.525 350.7 257.388 350.479 257.186 350.316C256.983 350.153 256.741 350.071 256.459 350.071C256.195 350.071 255.963 350.153 255.764 350.316C255.564 350.479 255.423 350.7 255.341 350.977H257.595ZM261.953 350.21C261.718 350.179 261.507 350.183 261.319 350.224C261.131 350.264 260.97 350.358 260.835 350.506C260.712 350.641 260.632 350.8 260.597 350.982C260.562 351.164 260.544 351.35 260.544 351.542V353.882H259.382V349.118H260.492V349.59C260.679 349.349 260.901 349.183 261.156 349.09C261.412 348.998 261.677 348.976 261.953 349.026V350.21ZM266.293 352.596L265.88 353.882H264.647L266.778 347.462H268.248L270.379 353.882H269.146L268.732 352.596H266.293ZM267.508 348.822L266.654 351.458H268.362L267.508 348.822ZM275.441 349.534C275.441 349.83 275.394 350.105 275.3 350.358C275.206 350.61 275.073 350.828 274.899 351.01C274.727 351.192 274.517 351.334 274.27 351.435C274.024 351.537 273.751 351.588 273.451 351.588H272.016V353.882H270.854V347.462H273.425C273.742 347.462 274.026 347.512 274.279 347.61C274.531 347.709 274.743 347.848 274.913 348.027C275.083 348.206 275.213 348.423 275.304 348.679C275.395 348.935 275.441 349.22 275.441 349.534ZM272.016 348.6V350.469H273.416C273.686 350.469 273.897 350.395 274.05 350.247C274.203 350.099 274.279 349.861 274.279 349.534C274.279 349.208 274.203 348.97 274.05 348.822C273.897 348.674 273.686 348.6 273.416 348.6H272.016ZM277.237 353.882H276.075V347.462H277.237V353.882ZM282 352.383C282 352.618 281.95 352.833 281.851 353.031C281.751 353.228 281.613 353.398 281.437 353.54C281.26 353.681 281.051 353.792 280.807 353.873C280.564 353.953 280.298 353.993 280.01 353.993C279.746 353.993 279.498 353.96 279.266 353.896C279.035 353.831 278.828 353.737 278.646 353.614C278.464 353.49 278.309 353.341 278.183 353.165C278.057 352.989 277.965 352.79 277.906 352.568L279.051 352.356C279.092 352.454 279.149 352.537 279.222 352.605C279.296 352.673 279.377 352.727 279.464 352.767C279.552 352.807 279.645 352.837 279.742 352.855C279.838 352.874 279.928 352.883 280.01 352.883C280.245 352.883 280.44 352.847 280.596 352.776C280.751 352.706 280.829 352.599 280.829 352.457C280.829 352.39 280.818 352.331 280.794 352.282C280.771 352.232 280.723 352.189 280.653 352.152C280.583 352.115 280.486 352.08 280.362 352.046C280.239 352.012 280.078 351.979 279.878 351.949C279.673 351.918 279.46 351.876 279.24 351.824C279.02 351.771 278.816 351.693 278.628 351.588C278.44 351.483 278.286 351.346 278.166 351.176C278.046 351.007 277.985 350.789 277.985 350.524C277.985 350.339 278.025 350.154 278.104 349.969C278.183 349.784 278.302 349.621 278.461 349.479C278.619 349.337 278.821 349.221 279.064 349.132C279.307 349.043 279.594 348.998 279.922 348.998C280.398 348.998 280.806 349.112 281.146 349.34C281.486 349.568 281.716 349.877 281.833 350.265L280.671 350.469C280.629 350.364 280.546 350.274 280.42 350.2C280.294 350.126 280.128 350.089 279.922 350.089C279.652 350.089 279.459 350.131 279.341 350.214C279.224 350.298 279.165 350.382 279.165 350.469C279.165 350.592 279.244 350.681 279.403 350.737C279.561 350.792 279.782 350.845 280.063 350.894C280.345 350.943 280.604 351.001 280.842 351.065C281.08 351.13 281.284 351.216 281.454 351.324C281.624 351.432 281.758 351.571 281.855 351.74C281.951 351.91 282 352.124 282 352.383Z" fill="black"/>
<rect x="104" y="412" width="88.1257" height="88.1257" rx="10.6473" fill="#D2FAE6"/>
<path fill-rule="evenodd" clip-rule="evenodd" d="M169.298 470.177H152.706L152.679 467.43H156.675V464.233H152.648L152.629 462.342H156.675V459.145H152.598L152.579 457.254H156.675V454.057H152.566V452.166H156.675V448.969H152.566V447.078H156.675V443.88H152.566V440.975H169.298V470.177ZM169.04 439.471H152.761V436L126 439.736V472.477L152.761 476.645V471.504H169.04C170.123 471.504 171 470.791 171 469.911V441.063C171 440.184 170.123 439.471 169.04 439.471ZM132.483 448.526L136.056 448.35L138.303 453.676L140.957 448.13L144.53 447.954L140.191 455.516L144.53 463.096L140.753 462.876L138.2 457.098L135.648 462.656L132.177 462.392L136.21 455.696L132.483 448.526ZM165.704 447.157H158.645V443.969H165.704V447.157ZM165.704 451.939H158.645V448.752H165.704V451.939ZM158.645 457.518H165.704V454.33H158.645V457.518ZM165.704 462.299H158.645V459.111H165.704V462.299ZM158.645 467.082H165.704V463.894H158.645V467.082Z" fill="black"/>
<rect x="416" y="103" width="88.1257" height="88.1257" rx="10.6473" fill="#D2FAE6"/>
<path fill-rule="evenodd" clip-rule="evenodd" d="M478.833 141.803C476.911 141.803 475.129 142.626 475.129 144.329H482.486C482.486 142.64 480.754 141.803 478.833 141.803ZM472.013 145.153C472.013 141.945 474.577 140 478.493 140C486.549 140 484.851 146.048 484.851 146.048H475.124C475.124 147.313 476.596 148.237 478.778 148.237C480.431 148.237 481.542 147.865 482.499 147.243L484.303 148.552C484.303 148.552 482.281 150.278 478.734 150.278C475.934 150.278 472.013 149.136 472.013 145.153ZM442.301 144.108C442.635 144.123 442.928 144.137 443.146 144.157C445.962 144.419 447.337 145.324 447.337 146.844C447.337 149.138 444.796 150.278 441.321 150.278C439.076 150.278 436.798 149.71 435 148.419L436.961 146.96C438.175 147.772 439.417 148.278 441.489 148.278C442.761 148.278 444.403 147.835 444.403 147.038C444.403 146.198 443.371 146.124 442.223 146.041L442.153 146.036C441.983 146.023 441.792 146.012 441.585 146C439.432 145.873 435.561 145.644 435.561 143.031C435.561 141.164 438.256 140 441.251 140C444.539 140 446.547 141.053 447.086 141.377L445.264 142.731C444.849 142.517 443.42 141.872 441.251 141.872C439.894 141.872 438.422 142.252 438.422 142.957C438.422 143.932 440.783 144.039 442.301 144.108ZM456.256 146.486C456.256 148.297 454.598 148.292 453.029 148.288C452.949 148.287 452.869 148.287 452.79 148.287C451.134 148.287 450.077 147.961 450.077 147.107C450.077 146.312 450.938 146.048 452.717 146.048H456.256V146.486ZM453.196 140C450.164 140 448.198 141.144 447.832 141.374L449.67 142.736C450.036 142.521 451.284 141.884 453.219 141.884C455.542 141.884 456.235 142.57 456.235 143.346V144.312L452.095 144.314C450.564 144.314 447.553 144.6 447.553 147.095C447.553 148.929 448.972 150.278 452.361 150.278C454.062 150.278 455.348 149.87 456.235 149.082V150.077H459.241V143.493C459.241 141.191 457.335 140 453.196 140ZM468.566 146.552C468.652 146.272 468.669 145.721 468.669 144.977C468.669 144.233 468.645 143.607 468.572 143.325C468.468 142.917 467.757 141.861 465.543 141.861C463.735 141.861 462.694 142.681 462.533 143.238C462.452 143.519 462.387 143.871 462.387 144.977C462.387 145.721 462.427 146.098 462.48 146.382C462.742 147.803 465.086 147.986 465.543 147.986C467.37 147.986 468.377 147.172 468.566 146.552ZM468.669 141.276V140.205H471.795V149.129C471.795 150.49 471.013 151.774 469.773 152.456C468.477 153.169 466.998 153.559 465.16 153.548C463.426 153.538 461.819 153.019 460.475 152.256L462.548 150.805C463.105 151.076 464.082 151.465 465.102 151.465C466.225 151.465 467.035 151.241 467.68 150.874C468.324 150.508 468.669 150.045 468.669 149.341V148.741C467.701 149.518 466.301 149.965 464.652 149.965C462.951 149.965 460.913 149.305 460.074 148.123C459.474 147.279 459.458 146.18 459.458 144.973C459.458 143.691 459.523 142.824 459.713 142.37C460.223 141.148 461.728 140 464.652 140C466.365 140 467.619 140.422 468.669 141.276Z" fill="black"/>
<rect x="312" width="88.1257" height="88.1257" rx="10.6473" fill="#D2FAE6"/>
<path d="M333.544 34.3213C333.633 34.3213 333.742 34.3213 333.872 34.3213C333.872 38.3111 333.872 42.2804 333.872 46.2839C332.214 46.3862 330.637 46.7681 329.15 47.5047C330.774 46.9181 332.446 46.5635 334.213 46.6453C334.22 46.5021 334.234 46.3793 334.234 46.2634C334.234 45.1858 334.227 44.1014 334.24 43.0238C334.24 42.867 334.322 42.6692 334.432 42.5532C335.981 40.971 337.202 39.1909 337.898 37.0766C337.987 36.8038 338.137 36.8311 338.356 36.8789C338.356 40.4253 338.356 43.965 338.356 47.4706C336.888 47.4024 335.435 47.2796 333.988 47.2728C332.555 47.266 331.122 47.3887 329.723 47.7775C332.712 47.2796 335.694 47.4706 338.71 47.9616C338.717 47.7979 338.731 47.6684 338.731 47.5388C338.731 45.9497 338.738 44.3538 338.724 42.7647C338.724 42.485 338.792 42.3145 339.024 42.1508C340.034 41.4279 340.962 40.6095 341.706 39.6001C341.788 39.4842 341.986 39.4569 342.191 39.3614C342.191 42.7919 342.191 46.1202 342.191 49.4689C336.82 48.0639 331.443 47.4569 326.004 49.3666C326.024 48.7323 325.881 48.1662 326.399 47.5933C329.15 44.5788 331.333 41.196 332.678 37.3153C333.026 36.3537 333.258 35.3443 333.544 34.3213Z" fill="black"/>
<path d="M346.873 35.7123C346.873 37.656 346.873 39.5725 346.873 41.5026C346.62 41.5026 346.388 41.5026 346.129 41.5026C346.129 39.1769 346.129 36.8649 346.129 34.5119C346.45 34.5119 346.764 34.4915 347.078 34.5256C347.16 34.5324 347.262 34.6756 347.303 34.7779C348.101 36.5853 348.893 38.3926 349.712 40.2409C349.801 40.0226 349.876 39.8249 349.958 39.6339C350.695 37.9971 351.425 36.3602 352.175 34.737C352.223 34.6347 352.38 34.546 352.496 34.5256C352.742 34.4915 352.988 34.5188 353.261 34.5188C353.261 36.8717 353.261 39.1838 353.261 41.5163C353.008 41.5163 352.776 41.5163 352.51 41.5163C352.51 39.5793 352.51 37.6492 352.51 35.6782C351.752 37.3764 351.015 39.0405 350.271 40.7047C350.183 40.9024 350.115 41.1071 349.999 41.2912C349.937 41.3935 349.801 41.5163 349.698 41.5163C349.596 41.5163 349.439 41.4003 349.398 41.2912C348.586 39.4702 347.781 37.6424 346.975 35.8146C346.955 35.7737 346.921 35.76 346.873 35.7123Z" fill="black"/>
<path d="M345.863 43.9995C346.975 44.0745 348.087 44.0541 349.159 44.2382C350.544 44.4769 351.233 45.3772 351.452 46.9185C351.697 48.6236 350.919 50.1581 349.452 50.7583C349.029 50.9288 348.558 51.0311 348.101 51.0652C347.364 51.113 346.627 51.0788 345.863 51.0788C345.863 48.7464 345.863 46.4343 345.863 43.9995ZM346.654 44.7429C346.654 46.673 346.654 48.494 346.654 50.3968C347.343 50.3491 348.019 50.3627 348.667 50.24C349.534 50.0695 350.148 49.5239 350.448 48.6713C350.667 48.0439 350.674 47.4028 350.558 46.7549C350.38 45.7728 349.807 45.118 348.817 44.9339C348.121 44.8043 347.405 44.8043 346.654 44.7429Z" fill="black"/>
<path d="M367.857 51.0646C367.857 49.3937 367.857 47.7637 367.857 46.1132C368.11 46.1132 368.342 46.1132 368.601 46.1132C368.615 46.3451 368.629 46.5633 368.635 46.802C369.939 45.6289 370.867 45.6699 371.652 46.9316C371.706 46.8702 371.754 46.8157 371.795 46.7611C372.245 46.1132 372.88 45.8949 373.638 45.9904C374.388 46.0859 374.873 46.5633 374.921 47.4704C374.989 48.6571 374.934 49.8506 374.934 51.0646C374.689 51.0646 374.456 51.0646 374.17 51.0646C374.17 50.9282 374.17 50.7986 374.17 50.6622C374.163 49.7074 374.177 48.7526 374.149 47.7978C374.122 46.9521 373.61 46.5156 372.86 46.6383C372.327 46.727 371.843 47.3135 371.815 48.0024C371.781 48.8753 371.802 49.7483 371.795 50.6281C371.795 50.7645 371.795 50.8941 371.795 51.0578C371.529 51.0578 371.297 51.0578 371.024 51.0578C371.017 50.9419 371.01 50.8259 371.01 50.7032C371.01 49.8506 371.017 48.9981 371.003 48.1456C371.003 47.9205 370.976 47.6886 370.928 47.4704C370.833 47.0544 370.594 46.7475 370.157 46.652C369.7 46.5565 369.297 46.6656 368.997 47.0407C368.704 47.4022 368.622 47.8319 368.615 48.2888C368.608 49.0868 368.615 49.8779 368.615 50.6759C368.615 50.7986 368.615 50.9214 368.615 51.0646C368.349 51.0646 368.117 51.0646 367.857 51.0646Z" fill="black"/>
<path d="M364.329 39.0401C364.322 37.6078 365.012 36.6735 366.295 36.462C368.192 36.1483 369.215 37.2532 369.243 38.8627C369.25 39.4152 369.195 39.954 368.929 40.445C368.403 41.4203 367.305 41.8568 366.076 41.584C365.1 41.3657 364.397 40.5132 364.329 39.4493C364.322 39.3129 364.329 39.1696 364.329 39.0401ZM365.087 39.1014C365.141 39.3538 365.175 39.688 365.285 39.9881C365.537 40.6701 366.165 41.0316 366.936 40.9838C367.632 40.9429 368.171 40.5405 368.315 39.838C368.41 39.3811 368.424 38.89 368.356 38.4262C368.233 37.5533 367.687 37.0963 366.875 37.069C366.008 37.0417 365.407 37.4987 365.196 38.3512C365.148 38.5695 365.134 38.8014 365.087 39.1014Z" fill="black"/>
<path d="M378.995 39.0195C378.995 40.3085 378.388 41.2292 377.323 41.5429C375.556 42.0681 374.089 40.9837 374.075 39.1491C374.068 38.3306 374.211 37.5668 374.86 37.0212C375.713 36.2914 376.702 36.2369 377.712 36.6256C378.572 36.9598 378.995 37.8123 378.995 39.0195ZM378.21 39.0195C378.183 38.7944 378.163 38.5489 378.115 38.3034C377.958 37.5804 377.446 37.1235 376.757 37.0757C375.911 37.0144 375.256 37.369 375.051 38.1124C374.921 38.5898 374.88 39.1286 374.948 39.6128C375.071 40.4858 375.74 40.9905 376.586 40.9837C377.446 40.9769 377.972 40.5063 378.142 39.5787C378.176 39.4082 378.183 39.2309 378.21 39.0195Z" fill="black"/>
<path d="M366.52 51.0648C366.247 51.0648 366.022 51.0648 365.769 51.0648C365.756 50.8397 365.749 50.6283 365.735 50.4169C365.708 50.3964 365.674 50.3691 365.646 50.3487C365.612 50.4169 365.592 50.4919 365.544 50.5533C365.012 51.1944 364.152 51.399 363.388 51.0716C362.821 50.8261 362.569 50.3691 362.562 49.7758C362.555 49.1347 362.794 48.5891 363.429 48.364C363.934 48.1867 364.486 48.1253 365.019 48.0162C365.094 48.0025 365.176 48.0025 365.257 47.9889C365.81 47.9002 365.838 47.8388 365.653 47.2864C365.503 46.8499 365.223 46.6521 364.766 46.6317C364.145 46.6044 363.613 46.8226 363.121 47.1841C362.937 46.5157 363.012 46.3793 363.62 46.1611C364.166 45.9633 364.725 45.9019 365.298 46.0178C366.001 46.1611 366.404 46.6044 366.5 47.3205C366.527 47.4978 366.52 47.682 366.527 47.8661C366.52 48.9164 366.52 49.9667 366.52 51.0648ZM365.687 48.5345C365.114 48.6368 364.534 48.7118 363.968 48.855C363.517 48.971 363.319 49.3461 363.381 49.7962C363.435 50.2123 363.777 50.5123 364.227 50.5396C365.257 50.6078 365.96 49.6735 365.687 48.5345Z" fill="black"/>
<path d="M356.686 46.0863C356.645 46.2296 356.618 46.325 356.583 46.4205C355.853 48.262 355.123 50.1102 354.379 51.9449C354.256 52.245 354.093 52.5382 353.902 52.8042C353.588 53.2407 353.151 53.4794 352.591 53.459C352.175 53.4453 352.155 53.4317 352.168 53.0088C352.168 52.9202 352.182 52.8315 352.195 52.7428C353.049 52.8179 353.24 52.6678 353.622 51.8971C353.895 51.3515 353.908 50.8741 353.656 50.3012C353.11 49.0531 352.653 47.7777 352.155 46.5092C352.107 46.3864 352.066 46.2568 352.004 46.0863C352.223 46.0863 352.407 46.1 352.584 46.0795C352.803 46.0591 352.905 46.1545 352.973 46.3592C353.397 47.6004 353.84 48.8417 354.27 50.083C354.284 50.1307 354.304 50.1784 354.345 50.2876C354.618 49.551 354.871 48.8758 355.116 48.2006C355.328 47.6277 355.553 47.0548 355.737 46.4751C355.84 46.1614 355.997 46.0318 356.317 46.0863C356.427 46.1 356.543 46.0863 356.686 46.0863Z" fill="black"/>
<path d="M358.255 51.0508C357.457 51.1395 357.457 51.1395 357.457 50.4233C357.457 49.1412 357.457 47.8521 357.457 46.57C357.457 46.0721 357.457 46.0721 357.955 46.0857C358.037 46.0857 358.112 46.0994 358.235 46.1062C358.248 46.3312 358.255 46.5495 358.275 46.8632C358.398 46.7268 358.467 46.6382 358.548 46.5563C359.094 45.9698 359.777 45.8402 360.514 46.0448C361.217 46.2426 361.551 46.8018 361.578 47.477C361.626 48.6637 361.592 49.8573 361.592 51.0644C361.36 51.0644 361.128 51.0644 360.848 51.0644C360.848 50.9008 360.848 50.7575 360.848 50.6143C360.835 49.6731 360.869 48.7251 360.8 47.7908C360.739 47.0133 360.35 46.6518 359.749 46.6313C359.053 46.6041 358.48 47.0474 358.323 47.743C358.282 47.9203 358.269 48.1045 358.269 48.2818C358.262 49.0798 358.269 49.8709 358.269 50.6689C358.255 50.7916 358.255 50.9144 358.255 51.0508Z" fill="black"/>
<path d="M380.325 37.1992C380.024 37.1992 379.772 37.1992 379.492 37.1992C379.492 36.9741 379.492 36.7831 379.492 36.5512C379.758 36.5376 380.024 36.524 380.325 36.5103C380.325 36.2239 380.325 35.9647 380.325 35.7055C380.332 34.6007 380.98 33.98 382.079 34.0005C382.399 34.0073 382.543 34.1096 382.495 34.437C382.481 34.5256 382.481 34.6143 382.481 34.6961C382.447 34.7098 382.427 34.7302 382.413 34.7302C381.519 34.5256 381.116 34.8394 381.116 35.7601C381.116 35.9988 381.116 36.2307 381.116 36.5103C381.505 36.5103 381.867 36.5103 382.256 36.5103C382.256 36.749 382.256 36.94 382.256 37.1855C381.888 37.1855 381.519 37.1855 381.123 37.1855C381.123 38.6382 381.123 40.0432 381.123 41.4822C380.85 41.4822 380.611 41.4822 380.325 41.4822C380.325 40.0704 380.325 38.6587 380.325 37.1992Z" fill="black"/>
<path d="M369.999 40.5203C370.531 40.8545 371.036 41.0318 371.603 40.9909C371.739 40.9772 371.876 40.9568 372.005 40.9227C372.278 40.8476 372.469 40.684 372.517 40.3907C372.565 40.1042 372.449 39.8724 372.217 39.7155C372.06 39.6064 371.883 39.5314 371.705 39.4495C371.384 39.2995 371.057 39.1767 370.743 39.0198C370.265 38.7811 370.013 38.3856 370.019 37.84C370.033 37.3012 370.313 36.9124 370.784 36.6737C371.466 36.3327 372.19 36.3327 372.906 36.5646C372.995 36.5919 373.077 36.7283 373.097 36.8237C373.131 36.9942 373.104 37.1784 373.104 37.2875C372.599 37.2193 372.121 37.1102 371.65 37.1102C371.425 37.1102 371.145 37.2671 370.975 37.4376C370.681 37.7376 370.832 38.2287 371.268 38.4538C371.65 38.6516 372.067 38.788 372.456 38.9721C372.94 39.204 373.309 39.5314 373.336 40.1247C373.363 40.7112 373.111 41.1477 372.592 41.3933C371.801 41.7752 370.989 41.7547 370.176 41.4478C370.101 41.4205 370.019 41.291 370.013 41.2023C369.985 40.9841 369.999 40.7794 369.999 40.5203Z" fill="black"/>
<path d="M382.646 50.0689C383.185 50.4168 383.697 50.5804 384.257 50.5327C384.4 50.5191 384.55 50.5054 384.687 50.4577C385.226 50.2667 385.335 49.6597 384.891 49.2983C384.748 49.1755 384.564 49.0937 384.393 49.0186C384.045 48.8549 383.67 48.7322 383.342 48.5412C382.428 48.0092 382.414 46.8362 383.322 46.2906C384.045 45.8609 384.816 45.8813 385.594 46.1269C385.656 46.1473 385.731 46.2496 385.738 46.3178C385.758 46.5156 385.745 46.7202 385.745 46.8635C385.287 46.7816 384.851 46.6929 384.407 46.6384C384.25 46.6179 384.066 46.6793 383.916 46.7407C383.37 46.9794 383.315 47.6 383.813 47.9342C383.998 48.057 384.223 48.132 384.427 48.2275C384.755 48.3844 385.103 48.5003 385.403 48.6981C386.174 49.2028 386.209 50.2735 385.444 50.7919C384.619 51.3579 383.711 51.3102 382.803 50.976C382.735 50.9487 382.66 50.8328 382.653 50.7441C382.633 50.5532 382.646 50.3486 382.646 50.0689Z" fill="black"/>
<path d="M383.602 37.1924C383.294 37.1924 383.035 37.1924 382.762 37.1924C382.762 36.9673 382.762 36.7763 382.762 36.5717C382.83 36.5581 382.885 36.5444 382.94 36.5376C383.602 36.5103 383.602 36.5103 383.602 35.8624C383.602 35.2077 383.602 35.2077 384.386 35.0713C384.386 35.4737 384.393 35.8624 384.38 36.258C384.373 36.4626 384.448 36.5444 384.653 36.5376C384.98 36.524 385.308 36.5376 385.649 36.5376C385.649 36.7695 385.649 36.9537 385.649 37.1992C385.239 37.1992 384.83 37.1992 384.38 37.1992C384.38 37.9153 384.38 38.5837 384.38 39.2521C384.38 39.5931 384.366 39.9341 384.407 40.2751C384.475 40.8753 384.864 41.114 385.444 40.9366C385.506 40.9162 385.574 40.8957 385.635 40.8753C385.649 40.9025 385.669 40.923 385.669 40.9366C385.697 41.5709 385.642 41.6255 385.014 41.6528C384.188 41.6869 383.697 41.3117 383.643 40.4865C383.581 39.5931 383.608 38.6928 383.602 37.7994C383.595 37.6152 383.602 37.4379 383.602 37.1924Z" fill="black"/>
<path d="M360.37 37.3764C358.93 36.9399 358.295 37.049 357.777 37.7993C357.285 38.5222 357.292 39.7157 357.804 40.3705C358.336 41.0525 359.025 41.1275 360.336 40.6365C360.438 41.4003 360.424 41.4003 359.687 41.5708C357.599 42.0482 356.139 40.3841 356.726 38.2358C357.21 36.4761 358.923 36.1624 360.172 36.5648C360.254 36.5921 360.343 36.708 360.356 36.7967C360.39 36.9877 360.37 37.1786 360.37 37.3764Z" fill="black"/>
<path d="M381.847 46.9384C380.653 46.461 379.909 46.5633 379.356 47.2658C378.81 47.9614 378.776 49.1754 379.295 49.8915C379.8 50.6008 380.496 50.6827 381.84 50.1985C381.95 50.8532 381.861 51.0032 381.219 51.126C380.223 51.3238 379.288 51.2078 378.64 50.3349C377.944 49.4005 377.957 48.3502 378.415 47.3272C378.845 46.3723 379.67 45.9631 380.701 45.9563C380.851 45.9563 381.001 45.9427 381.144 45.9768C381.977 46.1677 381.902 46.0654 381.847 46.9384Z" fill="black"/>
<path d="M363.899 36.4972C363.899 36.77 363.899 37.0087 363.899 37.1587C363.523 37.2065 363.134 37.1724 362.827 37.3224C362.575 37.4452 362.37 37.7657 362.254 38.0453C362.124 38.3591 362.097 38.7274 362.083 39.0752C362.056 39.7572 362.077 40.4392 362.077 41.1144C362.077 41.2372 362.077 41.3599 362.077 41.5032C361.817 41.5032 361.592 41.5032 361.34 41.5032C361.34 39.8663 361.34 38.2295 361.34 36.5722C361.572 36.5722 361.804 36.5722 362.077 36.5722C362.077 36.8655 362.077 37.1383 362.077 37.4111C362.5 36.6949 363.018 36.2721 363.899 36.4972Z" fill="black"/>
<path d="M355.531 41.5169C355.279 41.5169 355.047 41.5169 354.794 41.5169C354.794 39.8596 354.794 38.2227 354.794 36.5654C355.047 36.5654 355.279 36.5654 355.531 36.5654C355.531 38.2159 355.531 39.8528 355.531 41.5169Z" fill="black"/>
<path d="M377.048 51.0857C376.864 51.0857 376.707 51.0857 376.55 51.0857C376.475 51.0857 376.393 51.0721 376.298 51.0584C376.298 49.4147 376.298 47.7847 376.298 46.1206C376.536 46.1206 376.782 46.1206 377.048 46.1206C377.048 47.7506 377.048 49.3943 377.048 51.0857Z" fill="black"/>
<path d="M377.206 44.265C377.206 44.5446 376.968 44.7833 376.688 44.7833C376.401 44.7901 376.169 44.5582 376.162 44.2718C376.155 43.9853 376.381 43.7671 376.681 43.7671C376.988 43.7671 377.206 43.9785 377.206 44.265Z" fill="black"/>
<path d="M355.191 35.2355C354.912 35.2492 354.666 35.0105 354.659 34.7308C354.652 34.4444 354.884 34.2057 355.164 34.192C355.444 34.1852 355.69 34.4171 355.703 34.6967C355.71 34.9695 355.471 35.2287 355.191 35.2355Z" fill="black"/>
<rect y="307" width="88.1257" height="88.1257" rx="10.6473" fill="#D2FAE6"/>
<path d="M25.2875 347.225C21.8125 347.225 19 350.038 19 353.513C19 356.988 21.8125 359.8 25.2875 359.8C28.7625 359.8 31.575 356.988 31.575 353.513C31.575 350.038 28.7625 347.225 25.2875 347.225V347.225ZM25.2875 356.663C23.55 356.663 22.1375 355.25 22.1375 353.513C22.1375 351.775 23.55 350.363 25.2875 350.363C27.025 350.363 28.4375 351.775 28.4375 353.513C28.4375 355.25 27.025 356.663 25.2875 356.663Z" fill="black"/>
<path d="M36.3375 355.625C36.3375 355.125 36.9375 354.888 37.2875 355.238C38.8625 356.838 41.4625 359.588 41.475 359.6C41.5125 359.638 41.55 359.7 41.7 359.75C41.7625 359.775 41.8625 359.775 41.975 359.775H44.8125C45.325 359.775 45.475 359.187 45.2375 358.887L40.5375 354.075L40.2875 353.825C39.75 353.187 39.8125 352.938 40.425 352.288L44.15 348.125C44.3875 347.825 44.2375 347.25 43.7125 347.25H41.1375C41.0375 347.25 40.9625 347.25 40.8875 347.275C40.7375 347.325 40.675 347.375 40.6375 347.425C40.625 347.438 38.5625 349.662 37.2875 351.025C36.9375 351.4 36.3125 351.15 36.3125 350.637V343.5C36.3125 343.137 36.0125 343 35.775 343H33.675C33.3125 343 33.1375 343.237 33.1375 343.45V359.275C33.1375 359.637 33.4375 359.737 33.6875 359.737H35.7875C36.1125 359.737 36.325 359.5 36.325 359.263V355.625H36.3375V355.625Z" fill="black"/>
<path d="M53.4875 359.2L53.2625 357.1C53.2375 356.813 52.9625 356.613 52.675 356.663C52.5125 356.688 52.35 356.7 52.1875 356.7C50.5125 356.7 49.15 355.388 49.05 353.725V350.975C49.05 350.637 49.3 350.363 49.6375 350.363H52.45C52.65 350.363 52.95 350.187 52.95 349.825V347.838C52.95 347.45 52.7 347.25 52.475 347.25H49.6375C49.3125 347.25 49.05 347.012 49.0375 346.688V343.5C49.0375 343.3 48.8875 343 48.5 343H46.4125C46.15 343 45.9 343.163 45.9 343.488V353.725C45.9875 357.125 48.775 359.837 52.1875 359.837C52.475 359.837 52.75 359.812 53.025 359.775C53.325 359.737 53.525 359.488 53.4875 359.2Z" fill="black"/>
<path d="M68.6375 356.562C66.8625 356.562 66.5875 355.925 66.5875 353.537V347.775C66.5875 347.575 66.4375 347.237 66.0375 347.237H63.9375C63.675 347.237 63.3875 347.45 63.3875 347.775V348.037C62.475 347.512 61.4125 347.212 60.2875 347.212C56.8125 347.212 54 350.025 54 353.5C54 356.975 56.8125 359.787 60.2875 359.787C61.85 359.787 63.275 359.212 64.375 358.275C64.9625 359.175 65.9125 359.775 67.4 359.787C67.65 359.787 69 359.837 69 359.2V356.962C69 356.775 68.85 356.562 68.6375 356.562V356.562ZM60.3 356.662C58.5625 356.662 57.15 355.25 57.15 353.512C57.15 351.775 58.5625 350.362 60.3 350.362C62.0375 350.362 63.45 351.775 63.45 353.512C63.4375 355.25 62.025 356.662 60.3 356.662Z" fill="black"/>
<path d="M128.325 358.362C131.191 357.856 133.56 357.437 133.586 357.43L133.636 357.42L130.928 354.2C129.439 352.43 128.221 350.973 128.221 350.965C128.221 350.949 131.016 343.253 131.032 343.225C131.037 343.215 132.939 346.499 135.643 351.186C138.174 355.573 140.26 359.189 140.28 359.224L140.314 359.284H131.712L123.111 359.283L128.323 358.362H128.325ZM161.314 357.583C160.004 357.499 159.243 356.753 159.04 355.357C158.986 354.986 158.986 354.976 158.981 352.566L158.976 350.234H160.135L160.14 352.491C160.145 354.524 160.147 354.762 160.166 354.905C160.245 355.486 160.403 355.877 160.669 356.156C160.883 356.38 161.135 356.511 161.481 356.582C161.646 356.615 162.111 356.615 162.259 356.582C162.611 356.505 162.892 356.352 163.142 356.104C163.424 355.821 163.635 355.418 163.737 354.965L163.771 354.812L163.775 352.537L163.778 350.262H164.961V357.415H163.791V356.848C163.791 356.462 163.786 356.283 163.778 356.285C163.771 356.286 163.74 356.332 163.71 356.386C163.508 356.755 163.173 357.092 162.805 357.294C162.363 357.537 161.92 357.623 161.315 357.585L161.314 357.583ZM174.606 357.577C174.144 357.542 173.657 357.383 173.259 357.136C172.421 356.617 171.924 355.762 171.78 354.587C171.729 354.179 171.724 353.633 171.765 353.286C171.859 352.514 172.163 351.754 172.595 351.213C172.705 351.075 172.957 350.822 173.097 350.712C173.471 350.413 173.91 350.203 174.375 350.102C174.647 350.043 175.125 350.015 175.413 350.041C176.138 350.109 176.8 350.449 177.252 350.987C177.711 351.532 177.962 352.293 177.995 353.232C178 353.378 178.002 353.636 177.998 353.804L177.992 354.11L175.455 354.113L172.919 354.116V354.23C172.919 354.575 173.003 354.966 173.147 355.302C173.272 355.589 173.488 355.903 173.664 356.056C174.025 356.368 174.466 356.554 174.949 356.6C175.128 356.617 175.585 356.6 175.789 356.567C176.371 356.479 176.925 356.248 177.374 355.913C177.426 355.874 177.477 355.837 177.485 355.831C177.499 355.823 177.502 355.926 177.502 356.359V356.898L177.382 356.972C176.876 357.284 176.295 357.486 175.682 357.56C175.5 357.583 174.827 357.593 174.607 357.577H174.606ZM176.813 353.035C176.813 352.458 176.57 351.817 176.226 351.486C175.981 351.251 175.684 351.107 175.33 351.052C175.163 351.026 174.811 351.036 174.635 351.072C174.264 351.148 173.955 351.31 173.687 351.577C173.404 351.856 173.192 352.195 173.059 352.581C173.011 352.721 172.955 352.948 172.937 353.076L172.929 353.137H176.813V353.036V353.035ZM142.407 357.397C142.41 357.389 143.272 355.126 144.32 352.369L146.229 347.357H146.842H147.455L147.506 347.487C147.662 347.886 151.326 357.402 151.326 357.407C151.326 357.411 151.032 357.414 150.674 357.414H150.021L149.493 356.007L148.966 354.6H146.839H144.712L144.693 354.647C144.684 354.674 144.458 355.307 144.192 356.054L143.709 357.414H143.055C142.537 357.414 142.402 357.411 142.407 357.399V357.397ZM148.578 353.526C148.578 353.526 148.223 352.56 147.787 351.384C146.973 349.185 146.929 349.052 146.865 348.698C146.835 348.532 146.819 348.528 146.802 348.679C146.789 348.787 146.735 349.029 146.692 349.162C146.671 349.228 146.304 350.234 145.879 351.394C145.453 352.555 145.104 353.511 145.104 353.516C145.104 353.521 145.887 353.528 146.842 353.528C147.797 353.528 148.579 353.526 148.579 353.525L148.578 353.526ZM151.722 357.23V357.047L153.841 354.134L155.96 351.222L154.042 351.215L152.123 351.209L152.12 350.722L152.117 350.235H157.668V350.564L155.549 353.493C154.384 355.104 153.43 356.426 153.43 356.429C153.43 356.432 154.372 356.436 155.524 356.436H157.619V357.415H151.724V357.233L151.722 357.23ZM167.274 357.404C167.274 357.404 167.266 355.783 167.266 353.814V350.232H168.425V350.97C168.425 351.376 168.43 351.708 168.436 351.708C168.443 351.708 168.471 351.642 168.499 351.56C168.629 351.189 168.856 350.84 169.146 350.564C169.408 350.314 169.709 350.166 170.062 350.109C170.161 350.092 170.246 350.089 170.443 350.096C170.693 350.102 170.823 350.12 170.974 350.17L171.022 350.184V351.388L170.886 351.319C170.644 351.197 170.406 351.149 170.118 351.164C169.931 351.174 169.809 351.197 169.659 351.255C169.352 351.37 169.104 351.573 168.93 351.851C168.678 352.252 168.499 352.77 168.445 353.244C168.435 353.329 168.43 354.023 168.427 355.39L168.423 357.411H167.853C167.539 357.411 167.279 357.407 167.274 357.402V357.404ZM118 357.381C118 357.381 119.276 355.162 120.834 352.461L123.668 347.549L126.97 344.778C128.788 343.251 130.279 342.002 130.286 342C130.292 341.998 130.268 342.058 130.233 342.133C130.199 342.209 128.584 345.671 126.646 349.826L123.124 357.381L120.563 357.384C119.154 357.386 118.002 357.384 118.002 357.379L118 357.381Z" fill="black"/>
<defs>
<filter id="filter0_f_1395_47843" x="27.3173" y="24.3466" width="451.18" height="451.18" filterUnits="userSpaceOnUse" color-interpolation-filters="sRGB">
<feFlood flood-opacity="0" result="BackgroundImageFix"/>
<feBlend mode="normal" in="SourceGraphic" in2="BackgroundImageFix" result="shape"/>
<feGaussianBlur stdDeviation="66.5457" result="effect1_foregroundBlur_1395_47843"/>
</filter>
<linearGradient id="paint0_linear_1395_47843" x1="252.224" y1="134.084" x2="252.224" y2="160.767" gradientUnits="userSpaceOnUse">
<stop/>
</linearGradient>
<clipPath id="clip0_1395_47843">
<rect width="36.6365" height="46.5383" fill="white" transform="translate(234.672 224.77)"/>
</clipPath>
</defs>
</svg>
