<svg width="100" height="31" viewBox="0 0 100 31" fill="none" xmlns="http://www.w3.org/2000/svg">
<path d="M15.1765 23.3321C13.3657 23.3321 11.5868 23.3321 9.78742 23.3321C9.78742 23.2484 9.78742 23.1749 9.78742 23.1015C9.78742 20.427 9.7897 17.7514 9.78629 15.0769C9.78515 14.4394 9.72941 13.8087 9.43482 13.2265C9.11407 12.5935 8.58632 12.2702 7.87998 12.2205C6.61518 12.1323 5.68023 12.9349 5.46526 14.2009C5.40498 14.5581 5.3845 14.9243 5.38337 15.2872C5.37654 17.8871 5.37995 20.4858 5.37995 23.0856C5.37995 23.1603 5.37995 23.2349 5.37995 23.3264C3.58512 23.3264 1.80166 23.3264 0 23.3264C0 15.5574 0 7.78376 0 0C1.78801 0 3.56692 0 5.37199 0C5.37199 3.18427 5.37199 6.36853 5.37199 9.60367C5.53009 9.39794 5.64156 9.22612 5.77805 9.07691C6.51054 8.28 7.43412 7.81315 8.48167 7.58482C9.64297 7.33161 10.7997 7.38474 11.9132 7.79959C13.3487 8.33539 14.2176 9.41829 14.709 10.8279C15.0752 11.8791 15.1753 12.9688 15.1765 14.072C15.1765 17.0924 15.1765 20.1128 15.1765 23.132C15.1765 23.1942 15.1765 23.2552 15.1765 23.3321Z" fill="#777777"/>
<path d="M80.4069 9.82861C80.4433 9.20125 80.4751 8.63268 80.5081 8.05279C82.2051 8.05279 83.8896 8.05279 85.5889 8.05279C85.5889 13.1406 85.5889 18.2284 85.5889 23.3298C83.9022 23.3298 82.2176 23.3298 80.5093 23.3298C80.4763 22.759 80.4433 22.187 80.4069 21.5574C80.3284 21.6557 80.2772 21.7202 80.2272 21.7857C79.5766 22.6425 78.7406 23.2484 77.7135 23.5785C76.9844 23.8136 76.2269 23.8622 75.466 23.8249C74.6266 23.7842 73.8144 23.6056 73.0512 23.2507C71.5612 22.5566 70.4932 21.4511 69.8016 19.9681C69.2705 18.8298 69.0032 17.6361 68.9293 16.3904C68.853 15.1052 68.9691 13.8437 69.391 12.6218C69.9495 11.0053 70.8879 9.64436 72.3005 8.65754C73.3515 7.9228 74.5538 7.57578 75.8447 7.55091C76.973 7.52943 78.0217 7.78942 78.9692 8.41225C79.4594 8.73441 79.87 9.14021 80.2283 9.59915C80.2749 9.66132 80.325 9.72349 80.4069 9.82861ZM80.4023 15.4488C80.3853 14.8294 80.2363 14.2484 79.9292 13.7047C78.7883 11.6858 76.0517 11.5468 74.7187 13.4402C74.3024 14.0313 74.125 14.696 74.1045 15.4048C74.0613 16.8968 74.5924 18.0837 76.0017 18.7586C77.0219 19.248 78.032 19.1926 78.9919 18.5845C79.4094 18.32 79.6482 17.895 79.8859 17.4812C80.2465 16.8528 80.4308 16.1768 80.4023 15.4488Z" fill="#777777"/>
<path d="M32.4958 30.0974C32.9952 28.6742 33.4911 27.2613 33.9915 25.8347C34.5739 26.0472 35.1665 26.0371 35.7602 26.0235C36.6588 26.002 37.3401 25.5906 37.7768 24.8276C38.1226 24.2251 38.3774 23.5706 38.7243 22.9681C38.9768 22.5295 38.929 22.1621 38.7402 21.7111C36.8396 17.1953 34.9629 12.6681 33.0793 8.14548C33.0555 8.08896 33.0373 8.03018 33.0077 7.95105C33.0862 7.94653 33.1453 7.94088 33.2056 7.94088C34.9686 7.94088 36.7316 7.94314 38.4945 7.93636C38.6515 7.93523 38.7084 7.99062 38.7573 8.12965C39.773 11.0098 40.7944 13.8889 41.8146 16.768C41.834 16.8234 41.8567 16.8788 41.8943 16.976C41.9318 16.8652 41.9557 16.7962 41.9773 16.7262C42.8633 13.8629 43.7505 10.9997 44.6354 8.1353C44.673 8.01322 44.7082 7.93523 44.8709 7.93636C46.6532 7.94314 48.4344 7.94088 50.2167 7.94088C50.2611 7.94088 50.3043 7.94088 50.3782 7.94088C50.3509 8.02001 50.3339 8.08218 50.3088 8.14209C48.175 13.3961 46.0447 18.6523 43.9018 23.9029C43.3274 25.3091 42.6927 26.6915 41.8545 27.9677C41.2391 28.9048 40.4953 29.7119 39.4864 30.2488C38.7289 30.6513 37.9065 30.7982 37.0648 30.8649C35.5998 30.9813 34.1826 30.7632 32.8132 30.2375C32.7427 30.2104 32.6733 30.181 32.6039 30.1505C32.5732 30.1381 32.547 30.1222 32.4958 30.0974Z" fill="#777777"/>
<path d="M32.4787 17.0822C29.1165 17.0822 25.7634 17.0822 22.3921 17.0822C22.6492 17.965 23.0689 18.6749 23.9515 19.0626C24.9547 19.5035 25.992 19.6968 27.0817 19.664C28.5842 19.6188 30.0378 19.3362 31.4414 18.8004C31.4527 18.7959 31.4653 18.7993 31.4937 18.797C31.9214 20.0088 32.3502 21.2239 32.7892 22.4662C32.4036 22.6211 32.0396 22.7759 31.67 22.915C30.2835 23.4361 28.8447 23.7062 27.3672 23.7944C26.3628 23.8543 25.3596 23.8611 24.3587 23.7367C23.2759 23.6033 22.267 23.2371 21.2934 22.7578C19.0015 21.6275 17.6855 19.7714 17.2306 17.306C16.9576 15.8252 16.9815 14.323 17.4933 12.8964C18.5773 9.87041 20.7258 8.07424 23.9561 7.63001C25.3323 7.44123 26.7018 7.52149 28.0166 7.97251C30.2914 8.75247 31.7382 10.3293 32.374 12.633C32.7471 13.9861 32.7755 15.5573 32.4787 17.0822ZM27.6868 13.7951C27.589 13.0524 27.3239 12.4002 26.8303 11.852C26.4447 11.4235 25.9306 11.2755 25.3756 11.2257C23.7684 11.0833 22.6287 12.0419 22.3057 13.7951C24.0903 13.7951 25.8737 13.7951 27.6868 13.7951Z" fill="#777777"/>
<path d="M68.008 22.69C67.4518 22.872 66.9206 23.0698 66.3769 23.2179C65.1008 23.5661 63.7939 23.6972 62.4756 23.6282C60.9299 23.5468 59.4615 23.1456 58.1079 22.3905C56.8511 21.6896 55.9628 20.6339 55.3292 19.3622C54.6525 18.0012 54.4432 16.5487 54.5103 15.0453C54.5569 14.002 54.7355 12.9846 55.1825 12.034C56.0413 10.2062 57.4392 8.93335 59.3045 8.15678C60.7308 7.56334 62.2186 7.37569 63.7529 7.46499C65.0018 7.53734 66.2211 7.74759 67.3926 8.19295C67.6224 8.27999 67.8431 8.38964 68.0717 8.48007C68.1729 8.52076 68.182 8.5705 68.1468 8.66771C67.677 9.96538 67.2084 11.2631 66.7477 12.563C66.6954 12.7099 66.6215 12.6772 66.518 12.6489C65.4738 12.355 64.4126 12.173 63.323 12.225C62.5814 12.26 61.8785 12.4364 61.2461 12.8467C60.6012 13.2649 60.1917 13.8426 60.0108 14.5841C59.8357 15.3008 59.8436 16.0185 60.0336 16.7262C60.2918 17.687 60.9538 18.2895 61.8614 18.6433C62.7725 18.9971 63.7199 19.04 64.6776 18.9123C65.3146 18.8275 65.947 18.71 66.6033 18.6037C67.0628 19.9353 67.5246 21.2804 68.008 22.69Z" fill="#777777"/>
<path d="M94.0003 23.3332C92.1918 23.3332 90.4117 23.3332 88.6215 23.3332C88.6215 18.2036 88.6215 13.083 88.6215 7.95108C90.3435 7.95108 92.0587 7.95108 93.8001 7.95108C93.8342 8.68696 93.8672 9.42057 93.9013 10.1553C93.9172 10.1632 93.9332 10.1711 93.9491 10.1791C94.5144 8.88703 95.5233 8.12516 96.8529 7.76231C97.7389 7.52041 99.0242 7.68771 99.999 8.15229C99.5702 9.7269 99.1402 11.3072 98.7103 12.8852C97.8959 12.6455 97.0883 12.6455 96.2796 12.788C95.4027 12.9417 94.8351 13.4786 94.4746 14.2665C94.0935 15.0973 94.0014 15.979 94.0003 16.8754C93.9969 18.9417 93.9991 21.0069 93.9991 23.0732C94.0003 23.1524 94.0003 23.2337 94.0003 23.3332Z" fill="#777777"/>
</svg>
