<svg width="185" height="40" viewBox="0 0 185 40" fill="none" xmlns="http://www.w3.org/2000/svg">
<g clip-path="url(#clip0_251_19247)">
<path d="M172.92 20.15C172.75 19.77 172.43 19.76 172.18 19.9C171.09 20.51 170.02 20.89 168.76 20.89C166.26 20.89 164.96 19.03 164.96 16.32C164.96 14.05 166.34 11.77 168.9 11.77C169.73 11.77 170.9 12.11 171.89 12.7C172.27 12.92 172.54 12.84 172.7 12.5L173.36 11.03C173.49 10.74 173.48 10.44 173.24 10.25C172.94 10.01 171.32 8.79999 168.7 8.79999C164.24 8.79999 161.26 11.99 161.26 16.47C161.26 20.95 164.14 23.89 168.42 23.89C170.97 23.89 172.77 22.87 173.39 22.41C173.63 22.23 173.72 21.96 173.57 21.63L172.91 20.16L172.92 20.15Z" fill="#777777"/>
<path d="M153.25 8.79999C149.24 8.79999 146.34 12.04 146.34 16.47C146.34 20.9 149.33 23.89 153.62 23.89C155.37 23.89 157.09 23.41 158.59 22.51C158.71 22.44 158.8 22.33 158.84 22.2C158.88 22.07 158.86 21.92 158.8 21.8L158.12 20.29C157.96 19.94 157.68 19.89 157.38 20.04C156.22 20.63 155 20.98 153.87 20.98C151.32 20.98 149.92 19.04 149.85 17.39H159.09C159.7 17.39 159.68 16.72 159.68 16.19C159.68 11.7 157.15 8.79999 153.25 8.79999ZM149.87 14.9C150.16 12.96 151.52 11.71 153.31 11.71C155.43 11.71 156.24 13.54 156.29 14.9H149.88H149.87Z" fill="#777777"/>
<path d="M44.19 20.18H36.76V3.83C36.76 3.27 36.55 3.06 36.03 3.06H33.68C33.21 3.06 32.98 3.33 32.98 3.8V22.7C32.98 23.35 33.21 23.53 33.74 23.53H44.2C44.64 23.53 44.9 23.35 44.9 22.82V20.86C44.9 20.42 44.69 20.18 44.2 20.18H44.19Z" fill="#777777"/>
<path d="M49.99 2.37999L47.61 2.70999C47.23 2.75999 47.02 2.91999 47.02 3.41999V22.82C47.02 23.32 47.28 23.53 47.7 23.53H49.93C50.34 23.53 50.58 23.29 50.58 22.79V2.96999C50.58 2.49999 50.34 2.32999 49.99 2.37999Z" fill="#777777"/>
<path d="M60.28 8.79999C55.7 8.79999 53.11 12.05 53.11 16.31C53.11 20.57 55.31 23.88 60.1 23.88C64.89 23.88 67.27 20.6 67.27 16.34C67.27 12.08 65.07 8.79999 60.28 8.79999ZM60.13 20.9C57.52 20.9 56.78 18.68 56.78 16.26C56.78 13.84 57.63 11.8 60.25 11.8C62.87 11.8 63.6 13.93 63.6 16.35C63.6 18.78 62.72 20.9 60.13 20.9Z" fill="#777777"/>
<path d="M102.46 12.91C102.46 12.23 103.08 11.73 104.31 11.73C105.25 11.73 106.51 12.06 107.48 12.44C107.8 12.57 108.09 12.52 108.19 12.17L108.69 10.39C108.79 10.04 108.76 9.83998 108.4 9.67998C107.06 9.07998 105.61 8.77998 104.14 8.78998C101.53 8.78998 98.82 10.12 98.82 13.02C98.82 17.95 105.93 17.08 105.93 19.59C105.93 20.57 105.05 20.98 103.76 20.98C102.73 20.98 101.35 20.6 100.06 20.06C99.71 19.91 99.44 20.01 99.33 20.41L98.86 22.1C98.75 22.51 98.82 22.69 99.15 22.84C100.47 23.43 102.15 23.88 103.67 23.88C106.67 23.88 109.34 22.4 109.34 19.29C109.34 14.44 102.47 15.17 102.47 12.9L102.46 12.91Z" fill="#777777"/>
<path d="M134.22 9.17999H132.16C131.69 9.17999 131.4 9.35999 131.4 9.85999V22.79C131.4 23.32 131.64 23.53 132.16 23.53H134.22C134.72 23.53 134.95 23.32 134.95 22.79V9.85999C134.95 9.32999 134.69 9.17999 134.22 9.17999Z" fill="#777777"/>
<path d="M133.18 3.59998C132.13 3.59998 131.14 4.35998 131.14 5.62998C131.14 6.89998 132.19 7.59998 133.18 7.59998C134.17 7.59998 135.19 6.83998 135.19 5.59998C135.19 4.35998 134.2 3.59998 133.18 3.59998Z" fill="#777777"/>
<path d="M117.02 3.06H112.85C112.12 3.06 111.94 3.33 111.94 3.95V22.7C111.94 23.38 112.2 23.53 112.79 23.53H118.34C124.64 23.53 128.71 20.1 128.71 13.38C128.71 6.34 125.1 3.06 117.02 3.06ZM117.96 20.21H115.7V6.41H117.84C121.39 6.41 124.77 7.52 124.77 13.36C124.77 19.2 121.38 20.22 117.96 20.22V20.21Z" fill="#777777"/>
<path d="M81.85 9.17998H79.29C78.79 9.17998 78.56 9.38998 78.41 9.85998L75.33 19.47L72.07 9.67998C71.97 9.37998 71.75 9.17998 71.34 9.17998H68.52C68.11 9.17998 68 9.47998 68.14 9.82998L73.49 23.7C72.62 26.12 71.12 26.85 68.85 26.56C68.52 26.52 68.31 26.7 68.27 27.09L68.06 28.81C68 29.33 68.06 29.49 68.47 29.58C69.04 29.68 69.62 29.73 70.21 29.73C72.74 29.73 75.16 28.73 77.05 23.72L82.28 9.87998C82.4 9.54998 82.35 9.16998 81.87 9.16998L81.85 9.17998Z" fill="#777777"/>
<path d="M146.21 9.35999C146.27 8.93999 145.77 8.79999 145.1 8.79999C143.45 8.79999 142.46 9.53999 141.55 10.69L141.52 9.73999C141.52 9.32999 141.26 9.17999 140.79 9.17999H138.91C138.47 9.17999 138.18 9.32999 138.18 9.91999V22.79C138.18 23.29 138.42 23.53 138.89 23.53H141.03C141.53 23.53 141.74 23.26 141.74 22.79V15.46C141.74 12.94 142.76 12.14 144.56 12.14C144.83 12.14 145.09 12.17 145.35 12.23C145.64 12.29 145.83 12.2 145.88 11.85L146.23 9.35999H146.21Z" fill="#777777"/>
<path d="M96.28 2.96999C96.28 2.49999 96.04 2.32999 95.69 2.37999L93.31 2.70999C92.92 2.75999 92.72 2.91999 92.72 3.41999V9.47999C91.91 9.03999 90.84 8.79999 89.53 8.79999C85.39 8.79999 82.77 12.14 82.77 16.52C82.77 20.48 84.71 23.89 88.97 23.89C90.5 23.89 92.03 23.09 92.85 22.14V22.94C92.85 23.29 93.03 23.53 93.5 23.53H95.63C95.98 23.53 96.28 23.29 96.28 22.79V2.96999ZM92.73 19.32C92.14 20.06 91.11 20.89 89.73 20.89C87.35 20.89 86.47 18.73 86.47 16.31C86.47 13.89 87.53 11.76 89.91 11.76C91.12 11.76 91.94 12.06 92.73 12.55V19.32Z" fill="#777777"/>
<path d="M184.33 22.53L183.85 20.95C183.83 20.88 183.8 20.81 183.75 20.75C183.7 20.69 183.65 20.64 183.58 20.61C183.51 20.58 183.44 20.56 183.37 20.55C183.3 20.55 183.22 20.55 183.15 20.59C182.68 20.76 182.18 20.84 181.68 20.84C180.22 20.84 179.93 20.07 179.93 18.63V12.08H183.29C183.43 12.08 183.57 12.02 183.67 11.92C183.77 11.82 183.83 11.68 183.83 11.53V9.72997C183.83 9.57997 183.77 9.44997 183.67 9.33997C183.57 9.23997 183.43 9.17997 183.29 9.17997H179.93V5.44997C179.93 4.97997 179.69 4.80997 179.34 4.85997L176.96 5.18997C176.58 5.23997 176.37 5.39997 176.37 5.89997V9.18997H175.31C175.17 9.18997 175.03 9.24997 174.93 9.34997C174.83 9.44997 174.77 9.58997 174.77 9.73997V11.54C174.77 11.69 174.83 11.82 174.93 11.93C175.03 12.03 175.17 12.09 175.31 12.09H176.37V18.49C176.37 22.85 178.25 23.9 180.97 23.9C182.04 23.91 183.1 23.67 184.05 23.18C184.17 23.13 184.26 23.03 184.31 22.91C184.36 22.79 184.36 22.66 184.32 22.54L184.33 22.53Z" fill="#777777"/>
<path d="M88.52 32.12C88.11 31.73 87.57 31.53 87.01 31.54C86.49 31.54 85.99 31.71 85.58 32.03V29.24C85.58 29.05 85.48 28.96 85.25 28.99L84.1 29.14C83.88 29.18 83.82 29.29 83.82 29.51V37.09C83.82 37.33 83.9 37.44 84.15 37.44H84.98C85.3 37.44 85.38 37.24 85.4 36.98C85.83 37.38 86.39 37.6 86.98 37.59C88.49 37.59 89.41 36.22 89.41 34.59C89.41 33.6 89.13 32.68 88.51 32.12H88.52ZM86.53 36.14C86.19 36.14 85.83 35.93 85.58 35.72V33.43C85.86 33.19 86.2 33.06 86.56 33.05C87.43 33.05 87.59 33.89 87.59 34.59C87.59 35.33 87.43 36.13 86.53 36.13V36.14Z" fill="#777777"/>
<path d="M95.66 31.71H94.37C94.14 31.71 94.01 31.82 93.94 32.05L92.92 35.43H92.88L91.79 31.94C91.77 31.87 91.72 31.8 91.66 31.76C91.6 31.72 91.52 31.7 91.44 31.71H90.06C90.06 31.71 89.98 31.71 89.94 31.74C89.9 31.76 89.87 31.79 89.85 31.83C89.83 31.87 89.82 31.91 89.82 31.95C89.82 31.99 89.82 32.03 89.85 32.07L92.01 37.49L91.87 37.86C91.67 38.38 91.37 38.6 90.68 38.6C90.39 38.6 90.22 38.56 90.11 38.56C90 38.56 89.91 38.58 89.88 38.82L89.77 39.56C89.75 39.75 89.75 39.89 89.97 39.94C90.2 39.99 90.44 40.01 90.67 40.01C92.19 40.01 92.97 39.5 93.51 38.1L95.83 32.04C95.89 31.89 95.85 31.71 95.65 31.71H95.66Z" fill="#777777"/>
<path d="M103.26 35.86H100.29V29.62C100.29 29.35 100.2 29.27 99.94 29.27H98.76C98.76 29.27 98.67 29.27 98.63 29.28C98.59 29.29 98.55 29.32 98.52 29.35C98.49 29.38 98.46 29.42 98.45 29.46C98.44 29.5 98.43 29.55 98.44 29.59V37.06C98.44 37.38 98.57 37.44 98.81 37.44H103.25C103.45 37.44 103.6 37.36 103.6 37.1V36.2C103.6 35.98 103.49 35.86 103.26 35.86Z" fill="#777777"/>
<path d="M105.87 29L104.72 29.15C104.5 29.19 104.44 29.3 104.44 29.52V37.13C104.44 37.13 104.44 37.22 104.46 37.26C104.47 37.3 104.5 37.34 104.53 37.37C104.56 37.4 104.6 37.42 104.64 37.44C104.68 37.45 104.72 37.46 104.77 37.46H105.9C106.09 37.46 106.21 37.35 106.21 37.13V29.26C106.21 29.07 106.1 28.98 105.88 29.01L105.87 29Z" fill="#777777"/>
<path d="M110.23 31.54C108.33 31.54 107.25 32.82 107.25 34.56C107.25 36.3 108.17 37.6 110.15 37.6C112.13 37.6 113.13 36.32 113.13 34.58C113.13 32.84 112.21 31.54 110.23 31.54ZM110.17 36.21C109.3 36.21 109.06 35.42 109.06 34.55C109.06 33.68 109.34 32.94 110.21 32.94C111.08 32.94 111.32 33.71 111.32 34.58C111.32 35.45 111.04 36.22 110.17 36.22V36.21Z" fill="#777777"/>
<path d="M119.36 31.71H118.07C117.84 31.71 117.71 31.82 117.64 32.05L116.62 35.43H116.59L115.5 31.94C115.48 31.87 115.43 31.8 115.37 31.76C115.31 31.72 115.23 31.7 115.15 31.71H113.77C113.77 31.71 113.69 31.71 113.65 31.74C113.61 31.76 113.58 31.79 113.56 31.83C113.54 31.87 113.53 31.91 113.53 31.95C113.53 31.99 113.53 32.03 113.56 32.07L115.72 37.49L115.58 37.86C115.38 38.38 115.08 38.6 114.39 38.6C114.1 38.6 113.93 38.56 113.82 38.56C113.71 38.56 113.62 38.58 113.58 38.82L113.48 39.56C113.46 39.75 113.46 39.89 113.68 39.94C113.91 39.99 114.15 40.01 114.38 40.01C115.9 40.01 116.68 39.5 117.22 38.1L119.54 32.04C119.6 31.89 119.56 31.71 119.36 31.71Z" fill="#777777"/>
<path d="M125.04 29L123.89 29.15C123.67 29.19 123.61 29.3 123.61 29.52V32.02C123.25 31.71 122.78 31.54 122.3 31.55C120.57 31.55 119.74 33.12 119.74 34.68C119.74 36.24 120.56 37.6 122.2 37.6C122.82 37.6 123.42 37.33 123.74 36.96L123.76 37.21C123.77 37.34 123.86 37.45 124.06 37.45H125.04C125.04 37.45 125.13 37.45 125.17 37.43C125.21 37.41 125.25 37.39 125.28 37.36C125.31 37.33 125.33 37.29 125.35 37.25C125.36 37.21 125.37 37.16 125.36 37.12V29.25C125.36 29.06 125.26 28.97 125.03 29H125.04ZM123.61 35.74C123.35 35.99 123.01 36.14 122.65 36.16C121.76 36.16 121.56 35.3 121.56 34.57C121.56 33.84 121.83 32.97 122.68 32.97C123.02 32.98 123.35 33.12 123.6 33.35V35.74H123.61Z" fill="#777777"/>
<path d="M129.51 34.08L128.52 33.68C128.12 33.53 128.08 33.37 128.08 33.23C128.08 33.04 128.26 32.85 128.64 32.85C129.12 32.85 129.49 32.98 130 33.16C130.13 33.21 130.28 33.2 130.33 33.04L130.57 32.24C130.57 32.24 130.59 32.18 130.59 32.14C130.59 32.11 130.59 32.07 130.57 32.04C130.55 32.01 130.54 31.98 130.51 31.96C130.49 31.94 130.46 31.92 130.42 31.91C129.85 31.65 129.23 31.52 128.61 31.53C127.57 31.53 126.38 32.1 126.38 33.27C126.38 34.12 126.91 34.68 127.7 34.98L128.58 35.31C129.01 35.47 129.13 35.59 129.13 35.82C129.13 36.08 128.91 36.23 128.5 36.23C128.06 36.23 127.54 36.1 126.97 35.86C126.75 35.77 126.65 35.86 126.61 36.03L126.38 36.8C126.33 36.95 126.36 37.08 126.52 37.15C127.14 37.42 127.8 37.57 128.47 37.59C129.7 37.59 130.82 37.05 130.82 35.69C130.82 34.9 130.35 34.41 129.52 34.08H129.51Z" fill="#777777"/>
<path d="M134.06 29.27H132.24C131.97 29.27 131.89 29.34 131.89 29.64V37.15C131.89 37.41 132.02 37.46 132.23 37.46H133.4C133.67 37.46 133.75 37.34 133.75 37.14V34.75H134.4C136.14 34.75 137.58 33.8 137.58 31.92C137.58 31.28 137.36 30.66 136.95 30.18C136.35 29.52 135.42 29.28 134.06 29.28V29.27ZM134.24 33.3H133.75V30.72H134.32C135.2 30.72 135.71 31.1 135.71 31.99C135.71 32.97 135.08 33.3 134.24 33.3Z" fill="#777777"/>
<path d="M142.09 31.54C141.5 31.54 140.76 31.74 140.3 32.13V29.24C140.3 29.05 140.2 28.96 139.97 28.99L138.82 29.14C138.6 29.18 138.54 29.29 138.54 29.51V37.1C138.54 37.36 138.66 37.44 138.9 37.44H139.95C140.18 37.44 140.29 37.33 140.29 37.1V33.59C140.64 33.31 141.06 33.15 141.51 33.13C142.04 33.13 142.18 33.46 142.18 33.95V37.1C142.18 37.36 142.3 37.44 142.54 37.44H143.59C143.82 37.44 143.93 37.33 143.93 37.1V33.64C143.93 32.37 143.36 31.54 142.08 31.54H142.09Z" fill="#777777"/>
<path d="M150.89 36.25H150.8C150.67 36.25 150.62 36.17 150.62 36.05V31.99C150.62 31.99 150.62 31.91 150.61 31.88C150.6 31.85 150.58 31.81 150.55 31.78C150.52 31.75 150.49 31.73 150.45 31.72C150.41 31.71 150.38 31.7 150.34 31.71H149.29C149.29 31.71 149.22 31.71 149.19 31.72C149.16 31.73 149.13 31.75 149.1 31.77C149.07 31.79 149.06 31.82 149.04 31.85C149.03 31.88 149.02 31.91 149.01 31.95L148.97 32.21C148.72 31.86 148.2 31.55 147.54 31.55C146.25 31.55 144.97 32.61 144.97 34.7C144.97 36.27 145.75 37.61 147.44 37.61C148.01 37.61 148.76 37.28 149.08 36.91C149.23 37.25 149.54 37.45 150.23 37.45H150.85C150.85 37.45 150.92 37.45 150.96 37.44C150.99 37.43 151.03 37.41 151.05 37.38C151.08 37.35 151.1 37.32 151.11 37.29C151.12 37.26 151.13 37.22 151.13 37.18V36.5C151.13 36.32 151.05 36.26 150.88 36.26L150.89 36.25ZM148.87 35.67C148.73 35.85 148.31 36.16 147.89 36.16C147 36.16 146.81 35.29 146.81 34.56C146.81 33.46 147.35 32.99 147.92 32.99C148.27 33.01 148.6 33.16 148.87 33.39V35.66V35.67Z" fill="#777777"/>
<path d="M155.19 31.54C154.55 31.54 154.14 31.79 153.72 32.29L153.7 31.94C153.69 31.76 153.58 31.7 153.36 31.7H152.41C152.21 31.7 152.07 31.76 152.07 32.04V37.11C152.07 37.11 152.07 37.2 152.08 37.24C152.09 37.28 152.12 37.32 152.15 37.35C152.18 37.38 152.22 37.41 152.26 37.42C152.3 37.43 152.35 37.44 152.39 37.43H153.49C153.72 37.43 153.82 37.31 153.82 37.1V33.58C154.11 33.29 154.49 33.13 154.9 33.13C155.1 33.13 155.16 33.15 155.28 33.15C155.39 33.15 155.44 33.09 155.47 32.96L155.64 31.84C155.68 31.59 155.55 31.52 155.2 31.52L155.19 31.54Z" fill="#777777"/>
<path d="M163.22 31.54C162.48 31.54 161.71 31.8 161.18 32.33C160.94 31.93 160.5 31.54 159.72 31.54C159.11 31.54 158.51 31.77 158.05 32.18L158.03 31.96C158.01 31.77 157.89 31.71 157.69 31.71H156.73C156.53 31.71 156.4 31.8 156.4 32.02V37.11C156.4 37.37 156.52 37.45 156.76 37.45H157.81C158.04 37.45 158.15 37.36 158.15 37.11V33.6C158.48 33.31 158.88 33.1 159.26 33.1C159.79 33.1 159.89 33.48 159.89 33.95V37.11C159.89 37.37 160.01 37.45 160.25 37.45H161.21C161.44 37.45 161.55 37.36 161.55 37.11V33.6C161.87 33.33 162.35 33.1 162.76 33.1C163.29 33.1 163.39 33.48 163.39 33.95V37.11C163.39 37.37 163.51 37.45 163.75 37.45H164.8C165.04 37.45 165.14 37.36 165.14 37.11V34.39C165.14 33.55 165.12 33.02 164.91 32.55C164.7 32.07 164.13 31.55 163.21 31.55L163.22 31.54Z" fill="#777777"/>
<path d="M172.08 36.25H171.99C171.86 36.25 171.81 36.17 171.81 36.05V31.99C171.81 31.99 171.81 31.91 171.8 31.88C171.79 31.85 171.77 31.81 171.74 31.78C171.71 31.75 171.68 31.73 171.64 31.72C171.6 31.71 171.57 31.7 171.53 31.71H170.48C170.48 31.71 170.41 31.71 170.38 31.72C170.35 31.73 170.32 31.75 170.29 31.77C170.26 31.79 170.25 31.82 170.23 31.85C170.22 31.88 170.21 31.91 170.21 31.95L170.17 32.21C169.92 31.86 169.4 31.55 168.74 31.55C167.45 31.55 166.17 32.61 166.17 34.7C166.17 36.27 166.95 37.61 168.64 37.61C169.21 37.61 169.96 37.28 170.28 36.91C170.43 37.25 170.74 37.45 171.43 37.45H172.05C172.05 37.45 172.12 37.45 172.16 37.44C172.19 37.43 172.23 37.41 172.25 37.38C172.28 37.35 172.3 37.32 172.31 37.29C172.32 37.26 172.33 37.22 172.33 37.18V36.5C172.33 36.32 172.25 36.26 172.08 36.26V36.25ZM170.06 35.67C169.92 35.85 169.5 36.16 169.08 36.16C168.19 36.16 168 35.29 168 34.56C168 33.46 168.54 32.99 169.11 32.99C169.46 33.01 169.79 33.16 170.06 33.39V35.66V35.67Z" fill="#777777"/>
<path d="M177.43 36.1C177.38 35.92 177.27 35.95 177.14 35.99C176.81 36.13 176.46 36.2 176.11 36.2C175.16 36.2 174.65 35.71 174.65 34.56C174.65 33.55 175.14 32.93 176.05 32.93C176.4 32.93 176.75 33.01 177.08 33.15C177.23 33.21 177.35 33.22 177.4 33.03L177.59 32.18C177.63 32.01 177.63 31.91 177.46 31.84C176.95 31.62 176.39 31.51 175.84 31.52C173.98 31.52 172.85 32.73 172.85 34.64C172.85 36.55 174.04 37.57 175.74 37.57C176.35 37.57 176.95 37.46 177.52 37.23C177.67 37.16 177.74 37.1 177.67 36.86L177.45 36.07L177.43 36.1Z" fill="#777777"/>
<path d="M183.97 31.71H182.68C182.45 31.71 182.32 31.82 182.25 32.05L181.23 35.43H181.2L180.11 31.94C180.09 31.87 180.04 31.8 179.98 31.76C179.92 31.72 179.84 31.7 179.76 31.71H178.38C178.38 31.71 178.3 31.71 178.26 31.74C178.22 31.76 178.19 31.79 178.17 31.83C178.15 31.87 178.14 31.91 178.14 31.95C178.14 31.99 178.15 32.03 178.17 32.07L180.33 37.49L180.19 37.85C179.99 38.37 179.69 38.59 179 38.59C178.71 38.59 178.54 38.55 178.43 38.55C178.32 38.55 178.23 38.57 178.19 38.81L178.08 39.55C178.06 39.74 178.06 39.88 178.28 39.93C178.51 39.98 178.75 40 178.98 40C180.5 40 181.28 39.49 181.82 38.09L184.14 32.03C184.2 31.88 184.16 31.7 183.96 31.7L183.97 31.71Z" fill="#777777"/>
<path d="M16.65 2.13C16.69 2.2 16.71 2.29 16.7 2.38C16.69 2.47 16.65 2.54 16.58 2.6L15.72 3.39C15.72 3.39 15.63 3.45 15.58 3.47C15.53 3.49 15.47 3.49 15.42 3.49C15.37 3.49 15.32 3.47 15.27 3.44C15.22 3.41 15.18 3.37 15.15 3.33C14.63 2.54 13.88 2.05 13.18 2.05C12.68 2.05 12.2 2.25 11.85 2.61C11.5 2.97 11.3 3.45 11.3 3.95C11.3 4.5 11.46 5.62 11.46 6.21C11.46 7.87 10.63 8.9 9.17 9.78C9.09 9.83 9 9.84 8.9 9.83C8.81 9.81 8.73 9.76 8.67 9.68L7.92 8.66C7.92 8.66 7.87 8.57 7.86 8.52C7.85 8.47 7.85 8.42 7.86 8.37C7.86 8.32 7.89 8.27 7.92 8.23C7.95 8.19 7.99 8.15 8.03 8.12C9.03 7.46 9.43 6.89 9.43 6.16C9.43 5.69 9.29 4.57 9.29 3.94C9.29 2.9 9.7 1.9 10.43 1.16C11.16 0.42 12.15 0 13.19 0C14.56 0 15.86 0.81 16.65 2.13ZM3.86 3.89C3.13 4.63 2.72 5.63 2.72 6.67C2.72 7.71 3.13 8.71 3.87 9.45C4.31 9.89 5.2 10.58 5.53 10.92C6.04 11.44 6.16 12.12 5.91 13.3C5.9 13.35 5.9 13.4 5.91 13.45C5.91 13.5 5.94 13.55 5.97 13.59C6 13.63 6.04 13.67 6.08 13.7C6.12 13.73 6.17 13.75 6.22 13.75L7.47 13.94C7.56 13.95 7.66 13.94 7.73 13.88C7.81 13.83 7.86 13.75 7.89 13.66C8.3 12 8.17 10.68 7 9.5C6.58 9.08 5.69 8.4 5.3 8.01C4.95 7.65 4.75 7.17 4.75 6.67C4.75 6.17 4.95 5.68 5.3 5.33C5.8 4.83 6.67 4.65 7.59 4.83C7.64 4.84 7.7 4.84 7.75 4.83C7.8 4.82 7.85 4.79 7.9 4.76C7.94 4.73 7.98 4.68 8 4.64C8.03 4.59 8.04 4.54 8.04 4.48L8.09 3.31C8.09 3.22 8.07 3.14 8.02 3.07C7.97 3 7.9 2.95 7.81 2.93C6.32 2.56 4.84 2.92 3.87 3.89H3.86ZM1.22003e-06 13.28C1.22003e-06 14.32 0.420001 15.32 1.15 16.06C1.88 16.8 2.88 17.21 3.91 17.21C4.53 17.21 5.65 17.07 6.11 17.07C6.84 17.07 7.4 17.47 8.05 18.48C8.08 18.52 8.11 18.56 8.16 18.59C8.2 18.62 8.25 18.64 8.3 18.65C8.35 18.65 8.4 18.65 8.45 18.65C8.5 18.64 8.55 18.62 8.59 18.59L9.6 17.84C9.67 17.78 9.73 17.7 9.74 17.61C9.76 17.52 9.74 17.42 9.69 17.34C8.82 15.87 7.79 15.03 6.14 15.03C5.55 15.03 4.44 15.19 3.89 15.19C3.39 15.19 2.91 14.99 2.56 14.63C2.21 14.27 2.01 13.79 2.01 13.29C2.01 12.58 2.5 11.83 3.28 11.31C3.32 11.28 3.36 11.24 3.39 11.19C3.42 11.14 3.44 11.09 3.44 11.04C3.44 10.99 3.44 10.93 3.42 10.88C3.4 10.83 3.38 10.78 3.34 10.74L2.55 9.88C2.49 9.82 2.41 9.77 2.33 9.76C2.24 9.75 2.16 9.76 2.08 9.81C0.770001 10.61 -0.0299988 11.92 -0.0299988 13.3L1.22003e-06 13.28ZM3.86 22.67C4.59 23.41 5.59 23.82 6.62 23.82C7.65 23.82 8.65 23.4 9.38 22.67C9.82 22.23 10.51 21.33 10.84 21C11.35 20.48 12.04 20.37 13.21 20.62C13.26 20.63 13.31 20.63 13.36 20.62C13.41 20.61 13.46 20.59 13.5 20.56C13.54 20.53 13.58 20.49 13.6 20.45C13.63 20.41 13.65 20.36 13.65 20.31L13.84 19.06C13.85 18.97 13.84 18.87 13.78 18.79C13.73 18.71 13.65 18.66 13.56 18.63C11.91 18.22 10.6 18.35 9.43 19.53C9.01 19.95 8.34 20.85 7.95 21.24C7.6 21.6 7.12 21.79 6.62 21.79C6.12 21.79 5.64 21.59 5.29 21.23C4.79 20.73 4.61 19.85 4.8 18.93C4.81 18.88 4.81 18.82 4.8 18.77C4.79 18.72 4.76 18.67 4.73 18.62C4.7 18.58 4.65 18.54 4.61 18.52C4.56 18.49 4.51 18.48 4.45 18.48L3.28 18.43C3.19 18.43 3.11 18.45 3.04 18.5C2.97 18.55 2.92 18.63 2.9 18.71C2.53 20.21 2.89 21.7 3.85 22.68L3.86 22.67ZM13.18 26.56C14.21 26.56 15.21 26.14 15.94 25.4C16.67 24.66 17.08 23.66 17.08 22.62C17.08 21.99 16.94 20.87 16.94 20.4C16.94 19.67 17.34 19.1 18.34 18.44C18.38 18.41 18.42 18.38 18.45 18.33C18.48 18.29 18.5 18.24 18.51 18.19C18.51 18.14 18.51 18.09 18.51 18.04C18.5 17.99 18.48 17.94 18.45 17.9L17.7 16.88C17.64 16.8 17.56 16.75 17.47 16.73C17.38 16.71 17.28 16.73 17.2 16.78C15.75 17.66 14.91 18.69 14.91 20.35C14.91 20.94 15.07 22.06 15.07 22.61C15.07 23.11 14.87 23.6 14.52 23.95C14.17 24.31 13.69 24.51 13.19 24.51C12.49 24.51 11.74 24.02 11.22 23.23C11.19 23.18 11.15 23.15 11.1 23.12C11.05 23.09 11 23.07 10.95 23.07C10.9 23.07 10.84 23.07 10.79 23.09C10.74 23.11 10.69 23.13 10.65 23.17L9.79 23.96C9.73 24.02 9.68 24.1 9.67 24.18C9.66 24.27 9.67 24.35 9.72 24.43C10.51 25.75 11.81 26.56 13.18 26.56ZM22.5 22.67C23.23 21.93 23.64 20.93 23.64 19.89C23.64 18.85 23.23 17.85 22.49 17.11C22.05 16.67 21.16 15.98 20.83 15.64C20.32 15.12 20.2 14.44 20.45 13.26C20.46 13.21 20.46 13.16 20.45 13.11C20.44 13.06 20.42 13.01 20.39 12.97C20.36 12.93 20.32 12.89 20.28 12.86C20.24 12.83 20.19 12.81 20.14 12.81L18.89 12.62C18.8 12.61 18.7 12.62 18.63 12.68C18.56 12.74 18.5 12.81 18.47 12.9C18.06 14.56 18.2 15.88 19.36 17.06C19.78 17.48 20.67 18.16 21.06 18.55C21.41 18.91 21.61 19.39 21.61 19.89C21.61 20.39 21.41 20.88 21.06 21.23C20.56 21.73 19.69 21.91 18.77 21.73C18.72 21.72 18.66 21.72 18.61 21.73C18.56 21.74 18.51 21.77 18.46 21.8C18.42 21.83 18.38 21.88 18.36 21.92C18.33 21.97 18.32 22.02 18.32 22.08L18.27 23.25C18.27 23.34 18.29 23.42 18.34 23.49C18.39 23.56 18.46 23.61 18.55 23.63C20.04 24 21.52 23.64 22.49 22.67H22.5ZM26.36 13.28C26.36 12.24 25.94 11.24 25.21 10.5C24.48 9.76 23.48 9.35 22.45 9.35C21.83 9.35 20.71 9.49 20.25 9.49C19.52 9.49 18.96 9.09 18.31 8.08C18.28 8.04 18.25 8 18.2 7.97C18.16 7.94 18.11 7.92 18.06 7.91C18.01 7.91 17.96 7.91 17.91 7.91C17.86 7.92 17.81 7.94 17.77 7.97L16.76 8.72C16.69 8.78 16.63 8.86 16.62 8.95C16.6 9.04 16.62 9.14 16.67 9.22C17.54 10.68 18.57 11.53 20.22 11.53C20.81 11.53 21.92 11.37 22.47 11.37C22.97 11.37 23.45 11.57 23.8 11.93C24.15 12.29 24.35 12.77 24.35 13.27C24.35 13.98 23.86 14.73 23.08 15.25C23.04 15.28 23 15.32 22.97 15.37C22.94 15.42 22.92 15.47 22.92 15.52C22.92 15.57 22.92 15.63 22.94 15.68C22.96 15.73 22.98 15.78 23.02 15.82L23.81 16.68C23.87 16.74 23.95 16.79 24.03 16.8C24.12 16.81 24.2 16.8 24.28 16.75C25.59 15.95 26.39 14.64 26.39 13.26L26.36 13.28ZM22.5 3.89C21.77 3.15 20.77 2.74 19.74 2.74C18.71 2.74 17.71 3.16 16.98 3.89C16.54 4.33 15.85 5.23 15.52 5.56C15.01 6.08 14.32 6.19 13.15 5.94C13.1 5.93 13.05 5.93 13 5.94C12.95 5.95 12.9 5.97 12.86 6C12.82 6.03 12.78 6.07 12.76 6.11C12.73 6.15 12.71 6.2 12.71 6.25L12.52 7.5C12.51 7.59 12.52 7.69 12.58 7.77C12.63 7.85 12.71 7.9 12.8 7.93C14.45 8.34 15.76 8.21 16.93 7.03C17.35 6.61 18.02 5.71 18.41 5.32C18.76 4.96 19.24 4.77 19.74 4.77C20.24 4.77 20.72 4.97 21.07 5.33C21.57 5.83 21.75 6.71 21.56 7.63C21.55 7.68 21.55 7.74 21.56 7.79C21.57 7.84 21.6 7.89 21.63 7.94C21.66 7.98 21.71 8.02 21.75 8.04C21.8 8.07 21.85 8.08 21.91 8.08L23.08 8.13C23.17 8.13 23.25 8.11 23.32 8.06C23.39 8.01 23.44 7.93 23.46 7.85C23.83 6.35 23.47 4.86 22.51 3.88L22.5 3.89Z" fill="url(#paint0_linear_251_19247)"/>
</g>
<defs>
<linearGradient id="paint0_linear_251_19247" x1="13.19" y1="26.56" x2="13.19" y2="0" gradientUnits="userSpaceOnUse">
<stop stop-color="#777777"/>
<stop offset="1" stop-color="#777777"/>
</linearGradient>
<clipPath id="clip0_251_19247">
<rect width="184.36" height="40" fill="white"/>
</clipPath>
</defs>
</svg>
