<svg width="191" height="21" viewBox="0 0 191 21" fill="none" xmlns="http://www.w3.org/2000/svg">
<g clip-path="url(#clip0_251_19235)">
<path d="M3.48292 9.10973C4.86021 9.44985 5.88438 10.1148 7.77528 11.7137C9.66695 13.3119 10.7416 13.5886 11.5181 13.8744C11.5189 13.8721 10.7118 15.64 9.09525 19.178C8.96417 19.4141 8.8009 19.6045 8.57832 19.6479L8.47921 19.6572H8.25833C8.03209 19.6526 7.76917 19.5372 7.60637 19.165C4.85868 12.4643 3.48368 9.11279 3.48292 9.10973ZM25.7541 9.09735C25.7526 9.10041 24.3784 12.4519 21.6307 19.1526C21.486 19.4835 21.2622 19.6114 21.0553 19.639L20.9787 19.6448H20.7579C20.4827 19.6456 20.2909 19.4354 20.1411 19.1648C18.6176 15.8297 17.8131 14.0676 17.7267 13.879L17.719 13.8621C18.4955 13.5754 19.5693 13.2995 21.461 11.7006C23.3527 10.1024 24.3761 9.4367 25.7541 9.09735ZM14.7566 0.00779596C15.0386 0.00779596 15.313 0.167537 15.4208 0.487018C18.2342 6.63283 19.6405 9.70459 19.6397 9.70383C18.5995 10.5583 17.7282 11.0551 16.5886 11.338C16.5879 11.3364 15.9435 9.9935 14.6541 7.30695C14.6305 7.2588 14.6075 7.23434 14.5838 7.23434C14.5601 7.23434 14.5364 7.2588 14.5135 7.30695C13.2486 10.0011 12.618 11.3448 12.6203 11.338C11.149 10.9649 10.3526 10.2969 9.58524 9.70536C9.58372 9.70765 10.9755 6.63513 13.7584 0.487018C13.8661 0.167537 14.1237 0.00779596 14.4057 0.00779596H14.7566ZM3.66773 0.00611448C3.8932 0.00611448 4.11867 0.201013 4.17523 0.395912C6.06002 5.24469 7.00241 7.66909 7.00241 7.66832C5.04578 6.43167 3.34748 6.23983 2.27974 6.16492C2.27974 6.16569 1.52995 4.33517 0.0288504 0.674121C-0.0748605 0.314308 0.109279 0.0495761 0.449017 0.0109773L0.537116 0.00611448H3.66773ZM28.704 0C29.0991 0 29.3246 0.278209 29.2115 0.668007C27.7112 4.32905 26.9606 6.15957 26.9606 6.15881C25.8929 6.23371 24.1953 6.42555 22.2387 7.66144C22.2379 7.66297 23.1803 5.23858 25.0651 0.389798C25.1146 0.219261 25.2934 0.0487247 25.4889 0.00875523L25.5734 0L28.704 0Z" fill="#777777"/>
</g>
<path d="M52.8725 13.707L57.054 2.46918H59.8813L53.0863 19.9317H52.7537L48.002 8.62264L43.2741 19.9079H42.9415L36.1465 2.46918H38.9738L43.1553 13.707L47.9545 2.37414H48.0971L52.8725 13.707ZM66.7616 2.44542L75.1721 19.9317H72.1073L70.6105 16.5105H62.6039L61.1071 19.9317H58.1373L66.5003 2.44542H66.7616ZM65.5737 9.88184L63.673 14.1109H69.5651L67.6882 9.9056L66.6666 7.50599H66.6191L65.5737 9.88184ZM84.0649 20.1693C82.3384 20.1693 80.7941 19.7733 79.432 18.9814C78.0698 18.1894 77.0007 17.1044 76.2246 15.7264C75.4643 14.3326 75.0842 12.7725 75.0842 11.046C75.0842 9.36707 75.4722 7.85444 76.2483 6.50813C77.0244 5.16181 78.1015 4.10852 79.4795 3.34824C80.8575 2.58797 82.4097 2.20783 84.1362 2.20783C85.0707 2.20783 85.9101 2.29495 86.6546 2.46918C87.4148 2.62757 88.0326 2.81763 88.5077 3.03938C88.9829 3.24529 89.3076 3.42744 89.4818 3.58583L88.4365 5.81913C87.4544 5.02718 86.0052 4.6312 84.0886 4.6312C82.8215 4.6312 81.7207 4.90839 80.7862 5.46275C79.8517 6.01712 79.1389 6.76947 78.6479 7.71981C78.1569 8.67015 77.9114 9.73137 77.9114 10.9035C77.9114 12.2339 78.1728 13.4219 78.6955 14.4672C79.234 15.5126 79.9705 16.3283 80.905 16.9144C81.8553 17.4846 82.9245 17.7697 84.1124 17.7697C84.8568 17.7697 85.5696 17.6826 86.2507 17.5083C86.9317 17.3183 87.5099 17.0252 87.985 16.6293V13.2556H84.3975V10.8084H90.6222V17.6509C90.052 18.3636 89.1888 18.9655 88.0326 19.4565C86.8921 19.9317 85.5696 20.1693 84.0649 20.1693ZM93.5716 2.46918H101.222V4.79751H96.2088V9.6205H100.248V11.9963H96.2088V17.5796H102.006V19.9317H93.5716V2.46918ZM108.701 20.1693C107.751 20.1693 106.808 20.003 105.874 19.6704C104.939 19.3377 104.266 18.9655 103.854 18.5537L105.113 16.2966C105.446 16.5976 105.961 16.9144 106.658 17.247C107.371 17.5638 108.052 17.7222 108.701 17.7222C109.54 17.7222 110.222 17.5242 110.744 17.1282C111.283 16.7322 111.552 16.1858 111.552 15.4889C111.552 14.9503 111.409 14.4831 111.124 14.0871C110.839 13.6911 110.491 13.3664 110.079 13.113C109.667 12.8437 109.081 12.519 108.321 12.1389C107.418 11.6954 106.8 11.3628 106.468 11.141C104.931 10.1115 104.163 8.68599 104.163 6.86451C104.163 5.3598 104.662 4.21147 105.66 3.41952C106.658 2.61173 107.917 2.20783 109.438 2.20783C111.069 2.20783 112.455 2.67508 113.595 3.60959L112.336 5.77161C112.035 5.45483 111.607 5.18557 111.053 4.96382C110.515 4.72624 109.936 4.60744 109.319 4.60744C108.527 4.60744 107.901 4.78959 107.442 5.15389C106.998 5.50235 106.777 6.02504 106.777 6.72195C106.777 7.21296 106.919 7.65646 107.204 8.05243C107.489 8.43257 107.846 8.76519 108.273 9.05029C108.717 9.33539 109.311 9.68385 110.055 10.0957C110.768 10.4916 111.314 10.8084 111.695 11.046C112.075 11.2678 112.431 11.537 112.764 11.8538C113.223 12.2656 113.595 12.7566 113.88 13.3268C114.165 13.897 114.308 14.5227 114.308 15.2038C114.308 16.265 114.063 17.1678 113.572 17.9122C113.096 18.6567 112.431 19.2189 111.576 19.5991C110.736 19.9792 109.778 20.1693 108.701 20.1693ZM119.775 4.79751H115.309V2.46918H126.927V4.79751H122.412V19.9317H119.775V4.79751ZM138.208 19.9317L134.692 13.3268C133.963 13.3585 133.314 13.3743 132.743 13.3743H132.078V19.9317H129.488V2.46918H133.456C135.468 2.46918 137.123 2.88891 138.422 3.72838C139.72 4.55201 140.37 5.89832 140.37 7.76733C140.37 8.93942 140.093 9.95312 139.538 10.8084C139 11.6479 138.192 12.2973 137.115 12.7566L141.273 19.9317H138.208ZM133.765 11.2123C135.317 11.2123 136.378 10.8797 136.949 10.2145C137.535 9.53338 137.828 8.72559 137.828 7.79109C137.828 5.71618 136.442 4.67872 133.67 4.67872H132.078V11.2123H133.765ZM143.966 2.46918H151.616V4.79751H146.603V9.6205H150.642V11.9963H146.603V17.5796H152.4V19.9317H143.966V2.46918ZM161.471 2.44542L169.881 19.9317H166.817L165.32 16.5105H157.313L155.816 19.9317H152.847L161.21 2.44542H161.471ZM160.283 9.88184L158.382 14.1109H164.274L162.398 9.9056L161.376 7.50599H161.328L160.283 9.88184ZM175.835 11.7825L174.742 9.31163L174.243 11.7825L172.627 19.9317H169.99L173.601 2.46918H173.886L178.686 11.9013L180.111 15.0612L181.537 11.9013L186.241 2.46918H186.502L190.256 19.9317H187.643L185.885 11.7825L185.362 9.31163L184.411 11.7825L180.182 19.9317H180.04L175.835 11.7825Z" fill="#777777"/>
<defs>
<clipPath id="clip0_251_19235">
<rect width="29.8146" height="20.4976" fill="white"/>
</clipPath>
</defs>
</svg>
