<svg width="18" height="22" viewBox="0 0 18 22" fill="none" xmlns="http://www.w3.org/2000/svg">
<path d="M1.00557 7.03364L1.00557 3.79932C1.00557 4.7674 4.54599 5.55293 8.91252 5.55293C13.279 5.55293 16.8176 4.7674 16.8176 3.79932L16.8176 7.03364" stroke="#151719" stroke-width="2" stroke-miterlimit="10" stroke-linecap="round" stroke-linejoin="round"/>
<path d="M1.00006 11.8056L1.00006 8.57129C1.00006 9.53937 4.54049 10.3249 8.90701 10.3249C13.2735 10.3249 16.814 9.53937 16.814 8.57129L16.814 11.8056" stroke="#151719" stroke-width="2" stroke-miterlimit="10" stroke-linecap="round" stroke-linejoin="round"/>
<path d="M1.00556 16.7363L1.00556 13.502C1.00556 14.47 4.54598 15.2556 8.91251 15.2556C13.279 15.2556 16.8195 14.47 16.8195 13.502L16.8195 16.7363" stroke="#151719" stroke-width="2" stroke-miterlimit="10" stroke-linecap="round" stroke-linejoin="round"/>
<path d="M1.00556 18.4199C1.00556 19.388 4.54598 20.1735 8.91251 20.1735C13.279 20.1735 16.8195 19.388 16.8195 18.4199" stroke="#151719" stroke-width="2" stroke-miterlimit="10" stroke-linecap="round" stroke-linejoin="round"/>
<path d="M1.86303 2.56369C1.86303 1.70071 5.01806 1 8.91253 1C12.807 1 15.962 1.70071 15.962 2.56369" stroke="#151719" stroke-width="2" stroke-miterlimit="10" stroke-linecap="round" stroke-linejoin="round"/>
</svg>
