<svg width="22" height="22" viewBox="0 0 22 22" fill="none" xmlns="http://www.w3.org/2000/svg">
<path d="M15.5654 17.8229L15.5654 20.1411L12.1599 20.1411L12.1599 17.8248L8.63449 17.8248L8.63449 20.1411L5.33088 20.1411L5.33088 17.8248L3.11453 15.5084L1 15.5084L1 9.86846L2.71271 9.86846L4.52543 7.25757L3.90725 4.16304C3.77634 3.50668 4.53998 3.04487 5.05997 3.4685C5.05997 3.4685 6.59087 3.97032 8.10177 5.94121L10.9054 5.94121L12.6417 5.94121C15.9017 5.94121 18.6817 8.60847 18.6635 11.8684C18.6562 13.0757 18.2872 14.1975 17.6581 15.1284" stroke="#151719" stroke-width="2" stroke-miterlimit="10" stroke-linecap="round" stroke-linejoin="round"/>
<path d="M8 10C8 9.44772 7.55228 9 7 9C6.44772 9 6 9.44772 6 10C6 10.5523 6.44772 11 7 11C7.55228 11 8 10.5523 8 10Z" fill="#151719"/>
<path d="M18.6598 11.3774C19.698 11.3774 20.538 10.5356 20.538 9.49927L20.538 8.65928" stroke="#151719" stroke-width="2" stroke-miterlimit="10" stroke-linecap="round" stroke-linejoin="round"/>
<path d="M13.7289 3.28711C13.7289 2.02348 12.7053 0.999852 11.4417 0.999852C10.178 0.999852 9.15442 2.02348 9.15442 3.28711" stroke="#151719" stroke-width="2" stroke-miterlimit="10" stroke-linecap="round" stroke-linejoin="round"/>
</svg>
