<?xml version="1.0" encoding="utf-8"?>
<svg width="60" height="60" viewBox="0 0 60 60" fill="none" xmlns="http://www.w3.org/2000/svg">
<path d="M26.3816 9.64778C26.3816 8.30715 25.041 8.97278 25.041 4.96028C25.041 3.89361 25.4647 2.87061 26.219 2.11636C26.9732 1.36211 27.9962 0.938393 29.0629 0.938393C29.6014 0.897701 30.1424 0.973826 30.6489 1.16155C31.1553 1.34928 31.6152 1.64419 31.9971 2.0261C32.379 2.408 32.6738 2.86788 32.8616 3.3743C33.0493 3.88072 33.1254 4.42172 33.0847 4.96028C33.0847 9.64778 30.4035 8.30714 30.4035 10.3134" stroke="#22E297" stroke-width="1.5" stroke-linecap="round" stroke-linejoin="round"/>
<path d="M22.5 18.75V28.125L19.6875 34.6875L14.0625 42.1875" stroke="#22E297" stroke-width="1.5" stroke-linecap="round" stroke-linejoin="round"/>
<path d="M23.4371 12.1875L16.4809 14.7937C16.1245 14.9272 15.8171 15.1659 15.5996 15.4781L10.6965 22.5C10.3401 23.0045 10.1956 23.6285 10.2937 24.2383C10.3918 24.8481 10.7248 25.3953 11.2215 25.7625V25.7625C11.7266 26.1395 12.3605 26.3008 12.9844 26.2112C13.6082 26.1216 14.1711 25.7883 14.5496 25.2844L18.7496 19.6594L23.4371 17.7844" stroke="#22E297" stroke-width="1.5" stroke-linecap="round" stroke-linejoin="round"/>
<path d="M27.1875 28.125L34.6875 31.875L39.375 38.4375" stroke="#22E297" stroke-width="1.5" stroke-linecap="round" stroke-linejoin="round"/>
<path d="M19.6875 43.125L24.0375 37.9031C24.2619 37.6365 24.4481 37.3399 24.5906 37.0219L28.125 29.0625" stroke="#22E297" stroke-width="1.5" stroke-linecap="round" stroke-linejoin="round"/>
<path d="M31.875 16.8765L38.8218 15.1421C39.181 15.0464 39.5059 14.8514 39.7593 14.5796L46.1156 7.51084C46.3312 7.27208 46.4946 6.99102 46.5955 6.68561C46.6964 6.38019 46.7325 6.05712 46.7017 5.73695C46.6708 5.41678 46.5736 5.10654 46.4162 4.82603C46.2588 4.54552 46.0447 4.30089 45.7875 4.10771V4.10771C45.3195 3.75974 44.7379 3.60033 44.1579 3.6611C43.5779 3.72188 43.0419 3.99842 42.6562 4.43584L37.5 10.314L34.6875 11.2515" stroke="#22E297" stroke-width="1.5" stroke-linecap="round" stroke-linejoin="round"/>
<path d="M45 37.5L39.0562 28.125C38.651 27.4879 38.0628 26.988 37.3687 26.6906L31.875 24.375V16.875" stroke="#22E297" stroke-width="1.5" stroke-linecap="round" stroke-linejoin="round"/>
<path d="M0.9375 59.0625V54.375H19.6875V48.75H38.4375V43.125H59.0625V59.0625" stroke="#22E297" stroke-width="1.5" stroke-linecap="square" stroke-linejoin="round"/>
<path d="M38.4375 50.625V47.8125" stroke="#22E297" stroke-width="1.5" stroke-linecap="round" stroke-linejoin="round"/>
<path d="M19.6875 56.25V54.375" stroke="#22E297" stroke-width="1.5" stroke-linecap="round" stroke-linejoin="round"/>
</svg>
