<?xml version="1.0" encoding="utf-8"?>
<svg width="64" height="64" viewBox="0 0 64 64" fill="none" xmlns="http://www.w3.org/2000/svg">
<path d="M19.8125 56.375C18.3272 56.9939 16.7341 57.3125 15.125 57.3125C13.5159 57.3125 11.9228 56.9939 10.4375 56.375L5.75 58.25C4.59009 58.935 3.62252 59.9026 2.9375 61.0625" stroke="#22E297" stroke-width="1.5" stroke-linecap="round" stroke-linejoin="round"/>
<path d="M17.9381 53.5624C20.5537 51.8187 20.3099 50.703 20.6193 48.1718C20.8896 46.793 20.736 45.3647 20.1787 44.0749C19.5376 42.9478 18.492 42.1066 17.2537 41.7218C15.8726 41.2594 14.3785 41.2594 12.9974 41.7218C11.7592 42.1066 10.7135 42.9478 10.0724 44.0749C9.5152 45.3647 9.36161 46.793 9.63184 48.1718C9.94122 50.703 9.69746 51.8187 12.3131 53.5624" stroke="#22E297" stroke-width="1.5" stroke-linecap="round" stroke-linejoin="round"/>
<path d="M44.1875 61.0625C43.5025 59.9026 42.5349 58.935 41.375 58.25L36.6875 56.375C35.2022 56.9939 33.6091 57.3125 32 57.3125C30.3909 57.3125 28.7978 56.9939 27.3125 56.375L22.625 58.25C21.4651 58.935 20.4975 59.9026 19.8125 61.0625" stroke="#22E297" stroke-width="1.5" stroke-linecap="round" stroke-linejoin="round"/>
<path d="M34.8131 53.5624C37.4287 51.8187 37.1849 50.703 37.4943 48.1718C37.7646 46.793 37.611 45.3647 37.0537 44.0749C36.4126 42.9478 35.367 42.1066 34.1287 41.7218C32.7476 41.2594 31.2535 41.2594 29.8724 41.7218C28.6342 42.1066 27.5885 42.9478 26.9474 44.0749C26.3902 45.3647 26.2366 46.793 26.5068 48.1718C26.8162 50.703 26.5725 51.8187 29.1881 53.5624" stroke="#22E297" stroke-width="1.5" stroke-linecap="round" stroke-linejoin="round"/>
<path d="M61.0625 61.0625C60.3775 59.9026 59.4099 58.935 58.25 58.25L53.5625 56.375C52.0772 56.9939 50.4841 57.3125 48.875 57.3125C47.2659 57.3125 45.6728 56.9939 44.1875 56.375" stroke="#22E297" stroke-width="1.5" stroke-linecap="round" stroke-linejoin="round"/>
<path d="M51.6881 53.5624C54.3037 51.8187 54.0599 50.703 54.3693 48.1718C54.6396 46.793 54.486 45.3647 53.9287 44.0749C53.2876 42.9478 52.242 42.1066 51.0037 41.7218C49.6226 41.2594 48.1285 41.2594 46.7474 41.7218C45.5092 42.1066 44.4635 42.9478 43.8224 44.0749C43.2652 45.3647 43.1116 46.793 43.3818 48.1718C43.6912 50.703 43.4475 51.8187 46.0631 53.5624" stroke="#22E297" stroke-width="1.5" stroke-linecap="round" stroke-linejoin="round"/>
<path d="M23.5618 13.25C23.5618 11.5095 22.8704 9.84033 21.6397 8.60962C20.409 7.37891 18.7398 6.6875 16.9993 6.6875C15.2588 6.6875 13.5896 7.37891 12.3589 8.60962C11.1282 9.84033 10.4368 11.5095 10.4368 13.25C10.4386 13.5639 10.4636 13.8773 10.5118 14.1875H10.4368C9.53642 14.1835 8.65398 14.4389 7.89493 14.9232C7.13587 15.4074 6.53231 16.1 6.15645 16.9182C5.7806 17.7363 5.64836 18.6454 5.77548 19.5368C5.9026 20.4281 6.28373 21.264 6.87331 21.9445C7.4629 22.625 8.236 23.1212 9.10016 23.374C9.96432 23.6267 10.883 23.6252 11.7463 23.3697C12.6097 23.1142 13.3811 22.6155 13.9685 21.9331C14.5559 21.2507 14.9344 20.4136 15.0586 19.5219" stroke="#22E297" stroke-width="1.5" stroke-linecap="round" stroke-linejoin="round"/>
<path d="M40.4375 13.25C40.4375 11.5095 41.1289 9.84033 42.3596 8.60962C43.5903 7.37891 45.2595 6.6875 47 6.6875C48.7405 6.6875 50.4097 7.37891 51.6404 8.60962C52.8711 9.84033 53.5625 11.5095 53.5625 13.25C53.5607 13.5639 53.5356 13.8773 53.4875 14.1875H53.5625C54.4629 14.1835 55.3453 14.4389 56.1043 14.9232C56.8634 15.4074 57.467 16.1 57.8428 16.9182C58.2187 17.7363 58.3509 18.6454 58.2238 19.5368C58.0967 20.4281 57.7155 21.264 57.126 21.9445C56.5364 22.625 55.7633 23.1212 54.8991 23.374C54.035 23.6267 53.1163 23.6252 52.253 23.3697C51.3896 23.1142 50.6181 22.6155 50.0307 21.9331C49.4433 21.2507 49.0649 20.4136 48.9406 19.5219" stroke="#22E297" stroke-width="1.5" stroke-linecap="round" stroke-linejoin="round"/>
<path d="M58.25 21.5098C59.1043 22.003 59.8138 22.7121 60.3075 23.5662C60.8011 24.4202 61.0615 25.389 61.0625 26.3754C61.0625 27.8672 60.4698 29.298 59.415 30.3529C58.3601 31.4078 56.9293 32.0004 55.4375 32.0004H51.6875L48.875 37.6254L43.25 32.0004H36.6875L32 37.6254L27.3125 32.0004H20.75L15.125 37.6254L12.3125 32.0004H8.5625C7.07066 32.0004 5.63994 31.4078 4.58505 30.3529C3.53016 29.298 2.9375 27.8672 2.9375 26.3754C2.93851 25.389 3.19888 24.4202 3.69252 23.5662C4.18617 22.7121 4.89574 22.003 5.75 21.5098" stroke="#22E297" stroke-width="1.5" stroke-linecap="round" stroke-linejoin="round"/>
<path d="M20.8242 7.62579C21.0543 6.23035 21.8017 4.97281 22.9173 4.10364C24.033 3.23448 25.4352 2.81748 26.8445 2.93572C28.2538 3.05395 29.5669 3.69872 30.5222 4.74162C31.4774 5.78453 32.0048 7.14902 31.9992 8.56329C31.9936 7.14902 32.521 5.78453 33.4762 4.74162C34.4315 3.69872 35.7446 3.05395 37.1539 2.93572C38.5632 2.81748 39.9654 3.23448 41.0811 4.10364C42.1968 4.97281 42.9441 6.23035 43.1742 7.62579" stroke="#22E297" stroke-width="1.5" stroke-linecap="round" stroke-linejoin="round"/>
</svg>
