<?xml version="1.0" encoding="utf-8"?>
<svg width="62" height="62" viewBox="0 0 62 62" fill="none" xmlns="http://www.w3.org/2000/svg">
<path d="M29.0615 17.4531C28.0938 18.4209 28.5196 21.208 29.0615 22.2918C28.5737 23.8673 28.2494 25.4887 28.0938 27.1305L29.0615 33.9047L30.997 36.808L32.9325 33.9047L33.9002 27.1305C33.7445 25.4887 33.4202 23.8673 32.9325 22.2918C33.4744 21.208 33.9002 18.4209 32.9325 17.4531" stroke="#22E297" stroke-width="1.5" stroke-linecap="round" stroke-linejoin="round"/>
<path d="M33.9016 13.5806C36.6016 11.7806 36.35 10.629 36.6693 8.01605C36.9483 6.59279 36.7898 5.11842 36.2145 3.78702C35.5528 2.62354 34.4734 1.75519 33.1952 1.35798C31.7695 0.880674 30.2273 0.880674 28.8016 1.35798C27.5234 1.75519 26.444 2.62354 25.7823 3.78702C25.207 5.11842 25.0485 6.59279 25.3274 8.01605C25.6468 10.629 25.3952 11.7806 28.0952 13.5806" stroke="#22E297" stroke-width="1.5" stroke-linecap="round" stroke-linejoin="round"/>
<path d="M39.7073 41.6457C40.4773 41.6457 41.2157 41.3398 41.7602 40.7953C42.3046 40.2509 42.6105 39.5124 42.6105 38.7424L44.546 23.2586C44.546 20.3553 41.8944 18.9811 40.675 18.4199L35.8363 16.4844C34.3031 17.1232 32.6586 17.4521 30.9976 17.4521C29.3366 17.4521 27.6921 17.1232 26.1589 16.4844L21.3202 18.4199C20.1008 18.9811 17.4492 20.3553 17.4492 23.2586L19.3847 38.7424C19.3847 39.5124 19.6906 40.2509 20.2351 40.7953C20.7795 41.3398 21.5179 41.6457 22.2879 41.6457" stroke="#22E297" stroke-width="1.5" stroke-linecap="round" stroke-linejoin="round"/>
<path d="M23.2539 31.9688L26.1571 50.3558" stroke="#22E297" stroke-width="1.5" stroke-linecap="round" stroke-linejoin="round"/>
<path d="M38.7392 31.9688L35.8359 50.3558" stroke="#22E297" stroke-width="1.5" stroke-linecap="round" stroke-linejoin="round"/>
<path d="M1 33.9023C4.59326 33.9023 8.03935 35.3297 10.5802 37.8706C13.121 40.4114 14.5484 43.8575 14.5484 47.4507C15.3629 46.5676 16.3514 45.8624 17.4516 45.3797" stroke="#22E297" stroke-width="1.5" stroke-linecap="round" stroke-linejoin="round"/>
<path d="M60.9985 33.9023C57.4052 33.9023 53.9591 35.3297 51.4183 37.8706C48.8775 40.4114 47.4501 43.8575 47.4501 47.4507C46.6356 46.5676 45.6471 45.8624 44.5469 45.3797" stroke="#22E297" stroke-width="1.5" stroke-linecap="round" stroke-linejoin="round"/>
<path d="M21.3226 59.0638C21.3196 58.1236 21.0427 57.2047 20.5259 56.4193C20.009 55.6339 19.2745 55.0161 18.4122 54.6414C17.5499 54.2668 16.5972 54.1514 15.6704 54.3095C14.7436 54.4675 13.8829 54.8922 13.1936 55.5315C12.8216 54.3254 12.1919 53.2146 11.3482 52.2759C10.5044 51.3372 9.46674 50.5932 8.30697 50.0952C7.14721 49.5972 5.89307 49.3573 4.6314 49.392C3.36972 49.4266 2.13066 49.7351 1 50.296" stroke="#22E297" stroke-width="1.5" stroke-linecap="round" stroke-linejoin="round"/>
<path d="M40.6758 59.0638C40.6788 58.1236 40.9556 57.2047 41.4725 56.4193C41.9893 55.6339 42.7238 55.0161 43.5861 54.6414C44.4484 54.2668 45.4012 54.1514 46.328 54.3095C47.2548 54.4675 48.1155 54.8922 48.8048 55.5315C49.1768 54.3254 49.8064 53.2146 50.6502 52.2759C51.4939 51.3372 52.5316 50.5932 53.6914 50.0952C54.8512 49.5972 56.1053 49.3573 57.367 49.392C58.6286 49.4266 59.8677 49.7351 60.9984 50.296" stroke="#22E297" stroke-width="1.5" stroke-linecap="round" stroke-linejoin="round"/>
<path d="M20.4414 61.0015C21.3676 58.9795 22.8549 57.266 24.7265 56.0646C26.5982 54.8633 28.7754 54.2246 30.9995 54.2246C33.2235 54.2246 35.4008 54.8633 37.2724 56.0646C39.1441 57.266 40.6314 58.9795 41.5575 61.0015" stroke="#22E297" stroke-width="1.5" stroke-linecap="round" stroke-linejoin="round"/>
</svg>
