<svg width="608" height="430" viewBox="0 0 608 430" fill="none" xmlns="http://www.w3.org/2000/svg">
<rect width="608" height="430" rx="20" fill="#F7F6F7"/>
<g filter="url(#filter0_dd_623_45558)">
<rect x="141.619" y="176.256" width="325.763" height="196.35" rx="7.80937" fill="white"/>
</g>
<path d="M159.469 62.4625C159.469 59.9979 161.467 58 163.931 58H266.169C268.633 58 270.631 59.9979 270.631 62.4625V93.85H159.469V62.4625Z" fill="#E8FCF3"/>
<path d="M179.713 80.925H177.674L181.387 70.3773H183.746L187.464 80.925H185.425L182.608 72.5404H182.525L179.713 80.925ZM179.78 76.7894H185.342V78.3242H179.78V76.7894ZM191.981 81.0796C191.191 81.0796 190.513 80.9062 189.947 80.5594C189.384 80.2126 188.949 79.7336 188.644 79.1225C188.342 78.5079 188.191 77.8006 188.191 77.0006C188.191 76.1971 188.345 75.4881 188.654 74.8735C188.963 74.2555 189.399 73.7748 189.962 73.4314C190.529 73.0846 191.198 72.9112 191.971 72.9112C192.613 72.9112 193.181 73.0297 193.676 73.2666C194.173 73.5001 194.57 73.8314 194.865 74.2606C195.161 74.6864 195.329 75.1842 195.37 75.7542H193.588C193.516 75.3731 193.344 75.0555 193.073 74.8014C192.805 74.5439 192.446 74.4151 191.997 74.4151C191.615 74.4151 191.281 74.5181 190.992 74.7241C190.704 74.9267 190.479 75.2186 190.318 75.5997C190.16 75.9808 190.081 76.4375 190.081 76.9697C190.081 77.5087 190.16 77.9722 190.318 78.3602C190.476 78.7448 190.697 79.0418 190.982 79.2512C191.27 79.4572 191.609 79.5602 191.997 79.5602C192.271 79.5602 192.517 79.5087 192.733 79.4057C192.953 79.2993 193.137 79.1465 193.284 78.9473C193.432 78.7482 193.533 78.5061 193.588 78.2212H195.37C195.325 78.7808 195.161 79.277 194.876 79.7096C194.591 80.1388 194.203 80.4753 193.712 80.719C193.221 80.9594 192.644 81.0796 191.981 81.0796ZM200.851 73.0143V74.4563H196.303V73.0143H200.851ZM197.426 71.119H199.291V78.5456C199.291 78.7963 199.328 78.9886 199.404 79.1225C199.483 79.2529 199.586 79.3422 199.713 79.3903C199.84 79.4383 199.981 79.4624 200.135 79.4624C200.252 79.4624 200.358 79.4538 200.455 79.4366C200.554 79.4195 200.63 79.404 200.681 79.3903L200.995 80.8478C200.896 80.8821 200.753 80.9199 200.568 80.9611C200.386 81.0023 200.163 81.0263 199.898 81.0332C199.431 81.0469 199.011 80.9766 198.637 80.822C198.262 80.6641 197.965 80.4203 197.746 80.0907C197.529 79.7611 197.423 79.3491 197.426 78.8546V71.119ZM202.41 80.925V73.0143H204.275V80.925H202.41ZM203.348 71.8915C203.052 71.8915 202.798 71.7936 202.586 71.5979C202.373 71.3988 202.266 71.1602 202.266 70.882C202.266 70.6005 202.373 70.3619 202.586 70.1662C202.798 69.967 203.052 69.8674 203.348 69.8674C203.646 69.8674 203.901 69.967 204.11 70.1662C204.323 70.3619 204.429 70.6005 204.429 70.882C204.429 71.1602 204.323 71.3988 204.11 71.5979C203.901 71.7936 203.646 71.8915 203.348 71.8915ZM213.258 73.0143L210.441 80.925H208.381L205.564 73.0143H207.552L209.37 78.8907H209.452L211.275 73.0143H213.258ZM217.781 81.0796C216.988 81.0796 216.303 80.9147 215.726 80.5851C215.153 80.2521 214.712 79.7817 214.403 79.174C214.094 78.5628 213.939 77.8435 213.939 77.016C213.939 76.2023 214.094 75.4881 214.403 74.8735C214.715 74.2555 215.151 73.7748 215.711 73.4314C216.271 73.0846 216.928 72.9112 217.684 72.9112C218.171 72.9112 218.631 72.9902 219.064 73.1482C219.5 73.3027 219.884 73.543 220.217 73.8692C220.554 74.1954 220.818 74.6108 221.011 75.1156C221.203 75.6169 221.299 76.2143 221.299 76.9078V77.4795H214.815V76.2229H219.512C219.508 75.8658 219.431 75.5482 219.28 75.2701C219.129 74.9885 218.918 74.7671 218.647 74.6057C218.379 74.4443 218.066 74.3636 217.709 74.3636C217.328 74.3636 216.993 74.4563 216.705 74.6417C216.417 74.8237 216.192 75.0641 216.03 75.3628C215.872 75.6581 215.792 75.9825 215.788 76.3362V77.4332C215.788 77.8933 215.872 78.2881 216.041 78.6177C216.209 78.9439 216.444 79.1946 216.746 79.3697C217.048 79.5413 217.402 79.6272 217.807 79.6272C218.078 79.6272 218.324 79.5894 218.544 79.5139C218.763 79.4349 218.954 79.3199 219.115 79.1688C219.277 79.0177 219.399 78.8306 219.481 78.6074L221.222 78.8031C221.112 79.2632 220.902 79.665 220.593 80.0083C220.288 80.3482 219.896 80.6126 219.419 80.8014C218.942 80.9869 218.396 81.0796 217.781 81.0796Z" fill="black"/>
<path d="M228.326 76.4752C228.326 75.1774 228.495 73.9842 228.831 72.8958C229.171 71.8039 229.655 70.7996 230.283 69.8829H231.355C231.107 70.2228 230.876 70.6417 230.659 71.1396C230.447 71.634 230.259 72.1782 230.098 72.7722C229.937 73.3628 229.81 73.9739 229.717 74.6057C229.628 75.2374 229.583 75.8606 229.583 76.4752C229.583 77.2924 229.662 78.1216 229.82 78.9628C229.978 79.804 230.191 80.5851 230.459 81.3062C230.726 82.0272 231.025 82.6143 231.355 83.0676H230.283C229.655 82.1508 229.171 81.1482 228.831 80.0598C228.495 78.968 228.326 77.7731 228.326 76.4752ZM236.506 70.3773V80.925H235.229V72.2314H235.147C235.098 72.3276 234.975 72.4374 234.776 72.561C234.577 72.6812 234.319 72.7876 234.003 72.8803C233.687 72.9696 233.327 73.0143 232.922 73.0143V71.943C233.33 71.943 233.684 71.8692 233.983 71.7215C234.281 71.5739 234.53 71.4005 234.729 71.2014C234.932 71.0022 235.085 70.822 235.188 70.6606C235.294 70.4992 235.356 70.4048 235.373 70.3773H236.506ZM242.826 81.0693C242.221 81.0693 241.677 80.9491 241.193 80.7087C240.709 80.4684 240.321 80.1388 240.029 79.7199C239.737 79.301 239.577 78.8237 239.55 78.2881H240.786C240.834 78.7654 241.05 79.1602 241.435 79.4727C241.823 79.7817 242.287 79.9362 242.826 79.9362C243.258 79.9362 243.643 79.8349 243.979 79.6323C244.319 79.4298 244.585 79.1516 244.778 78.798C244.973 78.4409 245.071 78.0375 245.071 77.5877C245.071 77.1276 244.97 76.7173 244.767 76.3568C244.568 75.9928 244.293 75.7061 243.943 75.4967C243.593 75.2872 243.193 75.1808 242.743 75.1774C242.42 75.1739 242.089 75.2237 241.749 75.3267C241.409 75.4263 241.129 75.555 240.91 75.713L239.715 75.5688L240.353 70.3773H245.833V71.5104H241.425L241.054 74.6211H241.116C241.332 74.4495 241.603 74.307 241.929 74.1937C242.256 74.0804 242.596 74.0237 242.949 74.0237C243.595 74.0237 244.17 74.1782 244.675 74.4872C245.183 74.7928 245.581 75.2117 245.869 75.7439C246.161 76.2761 246.307 76.8838 246.307 77.5671C246.307 78.24 246.156 78.8409 245.854 79.3697C245.555 79.895 245.143 80.3105 244.618 80.616C244.093 80.9182 243.495 81.0693 242.826 81.0693ZM250.969 76.4752C250.969 77.7731 250.799 78.968 250.46 80.0598C250.123 81.1482 249.641 82.1508 249.012 83.0676H247.941C248.188 82.7276 248.418 82.3088 248.631 81.8109C248.848 81.3165 249.036 80.774 249.198 80.1834C249.359 79.5894 249.484 78.9765 249.574 78.3448C249.666 77.7096 249.713 77.0864 249.713 76.4752C249.713 75.6581 249.634 74.8289 249.476 73.9877C249.318 73.1464 249.105 72.3653 248.837 71.6443C248.569 70.9232 248.271 70.3361 247.941 69.8829H249.012C249.641 70.7996 250.123 71.8039 250.46 72.8958C250.799 73.9842 250.969 75.1774 250.969 76.4752Z" fill="black"/>
<g filter="url(#filter1_dd_623_45558)">
<rect x="126" y="93.7002" width="357" height="102.637" rx="7.80937" fill="white"/>
</g>
<path d="M146.857 119.798V118.174H155.393V119.798H152.086V128.872H150.163V119.798H146.857ZM166.124 123.523C166.124 124.676 165.908 125.663 165.476 126.485C165.048 127.303 164.463 127.93 163.721 128.366C162.983 128.801 162.145 129.019 161.208 129.019C160.271 129.019 159.432 128.801 158.69 128.366C157.952 127.927 157.367 127.298 156.935 126.48C156.507 125.658 156.292 124.672 156.292 123.523C156.292 122.37 156.507 121.385 156.935 120.566C157.367 119.744 157.952 119.116 158.69 118.68C159.432 118.245 160.271 118.027 161.208 118.027C162.145 118.027 162.983 118.245 163.721 118.68C164.463 119.116 165.048 119.744 165.476 120.566C165.908 121.385 166.124 122.37 166.124 123.523ZM164.175 123.523C164.175 122.711 164.048 122.027 163.794 121.47C163.543 120.909 163.195 120.486 162.749 120.2C162.303 119.911 161.79 119.767 161.208 119.767C160.627 119.767 160.113 119.911 159.667 120.2C159.221 120.486 158.871 120.909 158.617 121.47C158.366 122.027 158.241 122.711 158.241 123.523C158.241 124.334 158.366 125.02 158.617 125.581C158.871 126.138 159.221 126.562 159.667 126.851C160.113 127.136 160.627 127.279 161.208 127.279C161.79 127.279 162.303 127.136 162.749 126.851C163.195 126.562 163.543 126.138 163.794 125.581C164.048 125.02 164.175 124.334 164.175 123.523ZM167.012 119.798V118.174H175.548V119.798H172.241V128.872H170.319V119.798H167.012ZM177.275 128.872H175.206L178.972 118.174H181.365L185.137 128.872H183.068L180.21 120.368H180.127L177.275 128.872ZM177.342 124.677H182.984V126.234H177.342V124.677ZM186.546 128.872V118.174H188.484V127.248H193.196V128.872H186.546ZM207.685 121.783H205.731C205.675 121.463 205.573 121.179 205.423 120.932C205.273 120.681 205.087 120.469 204.864 120.295C204.641 120.12 204.387 119.99 204.101 119.903C203.819 119.812 203.514 119.767 203.187 119.767C202.605 119.767 202.09 119.913 201.641 120.206C201.191 120.495 200.84 120.92 200.585 121.48C200.331 122.038 200.204 122.718 200.204 123.523C200.204 124.341 200.331 125.031 200.585 125.592C200.843 126.149 201.195 126.57 201.641 126.856C202.09 127.138 202.604 127.279 203.182 127.279C203.502 127.279 203.802 127.237 204.08 127.154C204.362 127.067 204.615 126.939 204.838 126.772C205.064 126.605 205.254 126.4 205.407 126.156C205.564 125.912 205.672 125.633 205.731 125.32L207.685 125.33C207.612 125.839 207.453 126.316 207.209 126.762C206.969 127.208 206.654 127.601 206.264 127.942C205.874 128.28 205.418 128.545 204.895 128.736C204.373 128.925 203.793 129.019 203.156 129.019C202.215 129.019 201.376 128.801 200.638 128.366C199.899 127.93 199.318 127.302 198.893 126.48C198.468 125.658 198.255 124.672 198.255 123.523C198.255 122.37 198.47 121.385 198.898 120.566C199.326 119.744 199.91 119.116 200.648 118.68C201.386 118.245 202.222 118.027 203.156 118.027C203.751 118.027 204.305 118.111 204.817 118.278C205.329 118.445 205.785 118.691 206.185 119.015C206.586 119.335 206.915 119.729 207.173 120.195C207.434 120.658 207.605 121.188 207.685 121.783ZM219.019 123.523C219.019 124.676 218.804 125.663 218.372 126.485C217.943 127.303 217.358 127.93 216.616 128.366C215.878 128.801 215.041 129.019 214.104 129.019C213.167 129.019 212.328 128.801 211.586 128.366C210.847 127.927 210.262 127.298 209.83 126.48C209.402 125.658 209.188 124.672 209.188 123.523C209.188 122.37 209.402 121.385 209.83 120.566C210.262 119.744 210.847 119.116 211.586 118.68C212.328 118.245 213.167 118.027 214.104 118.027C215.041 118.027 215.878 118.245 216.616 118.68C217.358 119.116 217.943 119.744 218.372 120.566C218.804 121.385 219.019 122.37 219.019 123.523ZM217.071 123.523C217.071 122.711 216.944 122.027 216.69 121.47C216.439 120.909 216.091 120.486 215.645 120.2C215.199 119.911 214.685 119.767 214.104 119.767C213.522 119.767 213.008 119.911 212.563 120.2C212.117 120.486 211.767 120.909 211.513 121.47C211.262 122.027 211.136 122.711 211.136 123.523C211.136 124.334 211.262 125.02 211.513 125.581C211.767 126.138 212.117 126.562 212.563 126.851C213.008 127.136 213.522 127.279 214.104 127.279C214.685 127.279 215.199 127.136 215.645 126.851C216.091 126.562 216.439 126.138 216.69 125.581C216.944 125.02 217.071 124.334 217.071 123.523ZM227.596 118.174H229.534V125.163C229.534 125.929 229.353 126.603 228.991 127.185C228.632 127.767 228.127 128.221 227.476 128.548C226.825 128.872 226.064 129.034 225.193 129.034C224.319 129.034 223.556 128.872 222.905 128.548C222.254 128.221 221.749 127.767 221.39 127.185C221.031 126.603 220.852 125.929 220.852 125.163V118.174H222.79V125.001C222.79 125.447 222.887 125.844 223.082 126.192C223.281 126.541 223.56 126.814 223.918 127.013C224.277 127.208 224.702 127.305 225.193 127.305C225.684 127.305 226.109 127.208 226.468 127.013C226.83 126.814 227.108 126.541 227.303 126.192C227.498 125.844 227.596 125.447 227.596 125.001V118.174ZM240.433 118.174V128.872H238.709L233.668 121.585H233.579V128.872H231.641V118.174H233.375L238.411 125.466H238.505V118.174H240.433ZM242.074 119.798V118.174H250.61V119.798H247.304V128.872H245.381V119.798H242.074Z" fill="#89949F"/>
<path d="M147.34 148.904H150.011C150.045 149.313 150.182 149.664 150.425 149.959C150.667 150.248 150.985 150.472 151.379 150.628C151.773 150.78 152.213 150.856 152.697 150.856C153.21 150.856 153.668 150.768 154.072 150.593C154.476 150.412 154.791 150.156 155.019 149.823C155.252 149.486 155.368 149.078 155.368 148.598C155.368 148.156 155.257 147.755 155.034 147.394C154.815 147.029 154.48 146.739 154.029 146.525C153.578 146.307 153.001 146.197 152.298 146.197H150.852V144.295L154.229 140.591V140.491H148.06V138.283H157.562V140.192L153.644 144.409V144.523C154.366 144.58 155.003 144.732 155.554 144.979C156.109 145.226 156.575 145.542 156.95 145.927C157.325 146.311 157.608 146.744 157.798 147.223C157.987 147.703 158.082 148.206 158.082 148.733C158.082 149.588 157.847 150.341 157.377 150.992C156.912 151.642 156.271 152.153 155.454 152.523C154.642 152.889 153.716 153.072 152.676 153.072C151.678 153.072 150.783 152.901 149.99 152.559C149.202 152.217 148.572 151.735 148.102 151.113C147.632 150.486 147.378 149.75 147.34 148.904ZM160.173 150.165V148.064L165.75 138.283H168.308L162.858 147.879V147.993H171.521V150.165H160.173ZM167.132 152.872V149.546L167.189 148.584V143.754H169.619V152.872H167.132Z" fill="black"/>
<path d="M150.922 173.074V165.552H152.198V173.074H150.922ZM147.799 169.951V168.675H155.321V169.951H147.799ZM161.797 162.201V173.872H160.383V164.253H160.292C160.239 164.359 160.102 164.481 159.882 164.617C159.662 164.75 159.377 164.868 159.027 164.971C158.678 165.069 158.279 165.119 157.83 165.119V163.933C158.282 163.933 158.674 163.852 159.004 163.688C159.335 163.525 159.61 163.333 159.831 163.113C160.055 162.892 160.224 162.693 160.338 162.514C160.456 162.336 160.524 162.231 160.543 162.201H161.797ZM175.879 167.079L174.671 167.421C174.595 167.22 174.482 167.024 174.334 166.834C174.19 166.64 173.992 166.481 173.742 166.355C173.491 166.23 173.17 166.167 172.778 166.167C172.243 166.167 171.796 166.291 171.439 166.538C171.086 166.781 170.909 167.091 170.909 167.467C170.909 167.801 171.031 168.065 171.274 168.259C171.517 168.453 171.897 168.614 172.414 168.743L173.713 169.062C174.496 169.252 175.079 169.543 175.463 169.934C175.846 170.322 176.038 170.822 176.038 171.433C176.038 171.935 175.894 172.383 175.605 172.778C175.32 173.173 174.921 173.485 174.408 173.713C173.895 173.941 173.299 174.055 172.619 174.055C171.726 174.055 170.987 173.861 170.402 173.473C169.817 173.086 169.447 172.52 169.291 171.775L170.567 171.456C170.689 171.927 170.919 172.28 171.257 172.516C171.599 172.752 172.045 172.869 172.596 172.869C173.223 172.869 173.721 172.736 174.089 172.47C174.462 172.201 174.648 171.878 174.648 171.502C174.648 171.198 174.541 170.943 174.329 170.738C174.116 170.529 173.789 170.373 173.348 170.271L171.889 169.929C171.088 169.739 170.499 169.444 170.123 169.045C169.75 168.643 169.564 168.139 169.564 167.535C169.564 167.041 169.703 166.604 169.98 166.224C170.261 165.844 170.643 165.546 171.126 165.33C171.612 165.113 172.163 165.005 172.778 165.005C173.645 165.005 174.325 165.195 174.819 165.575C175.316 165.955 175.67 166.456 175.879 167.079ZM178.063 173.872V165.119H179.408V173.872H178.063ZM178.747 163.66C178.485 163.66 178.258 163.571 178.069 163.392C177.882 163.213 177.789 162.999 177.789 162.748C177.789 162.497 177.882 162.283 178.069 162.104C178.258 161.926 178.485 161.836 178.747 161.836C179.009 161.836 179.233 161.926 179.419 162.104C179.609 162.283 179.704 162.497 179.704 162.748C179.704 162.999 179.609 163.213 179.419 163.392C179.233 163.571 179.009 163.66 178.747 163.66ZM183.216 168.607V173.872H181.871V165.119H183.17V166.487H183.284C183.49 166.042 183.801 165.685 184.219 165.415C184.637 165.142 185.176 165.005 185.838 165.005C186.43 165.005 186.949 165.126 187.393 165.37C187.838 165.609 188.184 165.974 188.431 166.464C188.677 166.95 188.801 167.566 188.801 168.31V173.872H187.456V168.401C187.456 167.714 187.277 167.178 186.92 166.794C186.563 166.407 186.073 166.213 185.45 166.213C185.021 166.213 184.637 166.306 184.299 166.492C183.964 166.678 183.7 166.95 183.507 167.307C183.313 167.664 183.216 168.097 183.216 168.607ZM194.815 174.055C193.994 174.055 193.287 173.861 192.695 173.473C192.102 173.086 191.646 172.552 191.327 171.872C191.008 171.192 190.848 170.415 190.848 169.541C190.848 168.652 191.012 167.868 191.338 167.188C191.669 166.504 192.129 165.97 192.718 165.586C193.31 165.199 194.002 165.005 194.792 165.005C195.407 165.005 195.962 165.119 196.456 165.347C196.95 165.575 197.355 165.894 197.67 166.304C197.985 166.714 198.181 167.193 198.257 167.74H196.912C196.809 167.341 196.581 166.988 196.228 166.68C195.879 166.369 195.407 166.213 194.815 166.213C194.29 166.213 193.831 166.35 193.436 166.623C193.044 166.893 192.738 167.275 192.518 167.769C192.302 168.259 192.193 168.834 192.193 169.496C192.193 170.172 192.3 170.761 192.512 171.262C192.729 171.764 193.033 172.153 193.424 172.43C193.819 172.708 194.283 172.847 194.815 172.847C195.164 172.847 195.481 172.786 195.766 172.664C196.051 172.543 196.293 172.368 196.49 172.14C196.688 171.912 196.828 171.638 196.912 171.319H198.257C198.181 171.836 197.993 172.301 197.693 172.715C197.396 173.126 197.003 173.452 196.513 173.696C196.027 173.935 195.461 174.055 194.815 174.055ZM203.893 174.055C203.05 174.055 202.322 173.869 201.71 173.496C201.103 173.12 200.633 172.596 200.303 171.923C199.976 171.247 199.813 170.461 199.813 169.564C199.813 168.667 199.976 167.877 200.303 167.193C200.633 166.506 201.093 165.97 201.682 165.586C202.275 165.199 202.966 165.005 203.756 165.005C204.212 165.005 204.662 165.081 205.107 165.233C205.551 165.385 205.956 165.632 206.321 165.974C206.686 166.312 206.976 166.76 207.193 167.319C207.409 167.877 207.518 168.565 207.518 169.382V169.951H200.77V168.789H206.15C206.15 168.295 206.051 167.854 205.853 167.467C205.66 167.079 205.382 166.773 205.021 166.549C204.664 166.325 204.243 166.213 203.756 166.213C203.221 166.213 202.757 166.346 202.366 166.612C201.978 166.874 201.68 167.216 201.471 167.638C201.262 168.059 201.158 168.512 201.158 168.994V169.769C201.158 170.43 201.272 170.991 201.5 171.45C201.731 171.906 202.052 172.254 202.463 172.493C202.873 172.729 203.35 172.847 203.893 172.847C204.246 172.847 204.566 172.797 204.85 172.698C205.139 172.596 205.388 172.444 205.597 172.242C205.806 172.037 205.967 171.783 206.081 171.479L207.381 171.844C207.244 172.284 207.014 172.672 206.691 173.006C206.368 173.337 205.969 173.595 205.494 173.781C205.02 173.963 204.486 174.055 203.893 174.055ZM214.077 162.201H215.422V171.593C215.422 172.018 215.469 172.317 215.564 172.487C215.659 172.658 215.855 172.74 216.151 172.733C216.311 172.725 216.429 172.714 216.505 172.698C216.585 172.679 216.657 172.66 216.721 172.641L216.995 173.804C216.877 173.838 216.729 173.869 216.55 173.895C216.372 173.926 216.186 173.941 215.992 173.941C215.354 173.941 214.875 173.766 214.556 173.416C214.237 173.067 214.077 172.581 214.077 171.957V162.201ZM221.535 174.055C220.806 174.055 220.162 173.87 219.604 173.502C219.045 173.13 218.608 172.605 218.293 171.929C217.977 171.249 217.82 170.445 217.82 169.518C217.82 168.599 217.977 167.801 218.293 167.125C218.608 166.449 219.047 165.926 219.609 165.558C220.172 165.189 220.821 165.005 221.558 165.005C222.128 165.005 222.578 165.1 222.909 165.29C223.243 165.476 223.498 165.689 223.673 165.928C223.851 166.164 223.99 166.357 224.089 166.509H224.203V165.119H225.547V173.872H224.248V172.527H224.089C223.99 172.687 223.849 172.888 223.667 173.131C223.484 173.371 223.224 173.585 222.886 173.775C222.548 173.962 222.098 174.055 221.535 174.055ZM221.718 172.847C222.257 172.847 222.713 172.706 223.086 172.425C223.458 172.14 223.741 171.747 223.935 171.245C224.128 170.74 224.225 170.157 224.225 169.496C224.225 168.842 224.13 168.27 223.94 167.78C223.75 167.286 223.469 166.903 223.097 166.629C222.725 166.352 222.265 166.213 221.718 166.213C221.148 166.213 220.673 166.359 220.293 166.652C219.917 166.941 219.634 167.334 219.444 167.831C219.258 168.325 219.165 168.88 219.165 169.496C219.165 170.119 219.26 170.685 219.45 171.194C219.643 171.699 219.928 172.102 220.304 172.402C220.684 172.698 221.156 172.847 221.718 172.847ZM234.398 167.079L233.19 167.421C233.114 167.22 233.002 167.024 232.853 166.834C232.709 166.64 232.512 166.481 232.261 166.355C232.01 166.23 231.689 166.167 231.298 166.167C230.762 166.167 230.316 166.291 229.958 166.538C229.605 166.781 229.428 167.091 229.428 167.467C229.428 167.801 229.55 168.065 229.793 168.259C230.036 168.453 230.416 168.614 230.933 168.743L232.232 169.062C233.015 169.252 233.598 169.543 233.982 169.934C234.366 170.322 234.557 170.822 234.557 171.433C234.557 171.935 234.413 172.383 234.124 172.778C233.839 173.173 233.44 173.485 232.928 173.713C232.415 173.941 231.818 174.055 231.138 174.055C230.245 174.055 229.506 173.861 228.921 173.473C228.336 173.086 227.966 172.52 227.81 171.775L229.086 171.456C229.208 171.927 229.438 172.28 229.776 172.516C230.118 172.752 230.564 172.869 231.115 172.869C231.742 172.869 232.24 172.736 232.608 172.47C232.981 172.201 233.167 171.878 233.167 171.502C233.167 171.198 233.061 170.943 232.848 170.738C232.635 170.529 232.308 170.373 231.868 170.271L230.409 169.929C229.607 169.739 229.018 169.444 228.642 169.045C228.27 168.643 228.083 168.139 228.083 167.535C228.083 167.041 228.222 166.604 228.5 166.224C228.781 165.844 229.162 165.546 229.645 165.33C230.131 165.113 230.682 165.005 231.298 165.005C232.164 165.005 232.844 165.195 233.338 165.575C233.836 165.955 234.189 166.456 234.398 167.079ZM240.389 165.119V166.259H235.853V165.119H240.389ZM237.175 163.022H238.52V171.365C238.52 171.745 238.575 172.03 238.685 172.22C238.799 172.406 238.943 172.531 239.118 172.596C239.297 172.657 239.485 172.687 239.682 172.687C239.83 172.687 239.952 172.679 240.047 172.664C240.142 172.645 240.218 172.63 240.275 172.619L240.548 173.827C240.457 173.861 240.33 173.895 240.167 173.929C240.003 173.967 239.796 173.986 239.545 173.986C239.165 173.986 238.793 173.905 238.428 173.741C238.067 173.578 237.767 173.329 237.528 172.995C237.292 172.66 237.175 172.239 237.175 171.73V163.022ZM246.925 173.872V165.119H248.225V166.487H248.339C248.521 166.019 248.816 165.656 249.222 165.398C249.629 165.136 250.117 165.005 250.687 165.005C251.264 165.005 251.745 165.136 252.129 165.398C252.516 165.656 252.818 166.019 253.035 166.487H253.126C253.35 166.034 253.686 165.675 254.135 165.409C254.583 165.14 255.12 165.005 255.747 165.005C256.53 165.005 257.17 165.25 257.668 165.74C258.166 166.226 258.414 166.984 258.414 168.014V173.872H257.07V168.014C257.07 167.368 256.893 166.906 256.54 166.629C256.186 166.352 255.77 166.213 255.291 166.213C254.676 166.213 254.199 166.399 253.861 166.771C253.523 167.14 253.354 167.607 253.354 168.173V173.872H251.986V167.877C251.986 167.379 251.825 166.979 251.502 166.675C251.179 166.367 250.763 166.213 250.254 166.213C249.904 166.213 249.577 166.306 249.273 166.492C248.973 166.678 248.73 166.937 248.544 167.267C248.362 167.594 248.27 167.972 248.27 168.401V173.872H246.925ZM264.43 174.055C263.639 174.055 262.946 173.867 262.35 173.49C261.757 173.114 261.293 172.588 260.959 171.912C260.628 171.236 260.463 170.445 260.463 169.541C260.463 168.629 260.628 167.833 260.959 167.153C261.293 166.473 261.757 165.945 262.35 165.569C262.946 165.193 263.639 165.005 264.43 165.005C265.22 165.005 265.911 165.193 266.504 165.569C267.101 165.945 267.564 166.473 267.895 167.153C268.229 167.833 268.396 168.629 268.396 169.541C268.396 170.445 268.229 171.236 267.895 171.912C267.564 172.588 267.101 173.114 266.504 173.49C265.911 173.867 265.22 174.055 264.43 174.055ZM264.43 172.847C265.03 172.847 265.524 172.693 265.911 172.385C266.299 172.077 266.586 171.673 266.772 171.171C266.958 170.67 267.051 170.126 267.051 169.541C267.051 168.956 266.958 168.411 266.772 167.906C266.586 167.4 266.299 166.992 265.911 166.68C265.524 166.369 265.03 166.213 264.43 166.213C263.829 166.213 263.335 166.369 262.948 166.68C262.56 166.992 262.274 167.4 262.087 167.906C261.901 168.411 261.808 168.956 261.808 169.541C261.808 170.126 261.901 170.67 262.087 171.171C262.274 171.673 262.56 172.077 262.948 172.385C263.335 172.693 263.829 172.847 264.43 172.847ZM271.794 168.607V173.872H270.449V165.119H271.748V166.487H271.862C272.068 166.042 272.379 165.685 272.797 165.415C273.215 165.142 273.754 165.005 274.416 165.005C275.008 165.005 275.527 165.126 275.971 165.37C276.416 165.609 276.762 165.974 277.009 166.464C277.256 166.95 277.379 167.566 277.379 168.31V173.872H276.034V168.401C276.034 167.714 275.855 167.178 275.498 166.794C275.141 166.407 274.651 166.213 274.028 166.213C273.599 166.213 273.215 166.306 272.877 166.492C272.543 166.678 272.278 166.95 272.085 167.307C271.891 167.664 271.794 168.097 271.794 168.607ZM283.643 165.119V166.259H279.107V165.119H283.643ZM280.429 163.022H281.774V171.365C281.774 171.745 281.829 172.03 281.94 172.22C282.054 172.406 282.198 172.531 282.373 172.596C282.551 172.657 282.739 172.687 282.937 172.687C283.085 172.687 283.207 172.679 283.302 172.664C283.397 172.645 283.473 172.63 283.53 172.619L283.803 173.827C283.712 173.861 283.585 173.895 283.421 173.929C283.258 173.967 283.051 173.986 282.8 173.986C282.42 173.986 282.048 173.905 281.683 173.741C281.322 173.578 281.022 173.329 280.783 172.995C280.547 172.66 280.429 172.239 280.429 171.73V163.022ZM287.2 168.607V173.872H285.855V162.201H287.2V166.487H287.314C287.519 166.034 287.826 165.675 288.237 165.409C288.651 165.14 289.202 165.005 289.889 165.005C290.486 165.005 291.008 165.125 291.457 165.364C291.905 165.599 292.253 165.962 292.5 166.452C292.75 166.939 292.876 167.558 292.876 168.31V173.872H291.531V168.401C291.531 167.706 291.35 167.169 290.989 166.789C290.632 166.405 290.136 166.213 289.502 166.213C289.061 166.213 288.666 166.306 288.317 166.492C287.971 166.678 287.697 166.95 287.496 167.307C287.298 167.664 287.2 168.097 287.2 168.607Z" fill="#89949F"/>
<path d="M254.031 222.965V221.609H261.152V222.965H258.393V230.534H256.789V222.965H254.031ZM270.104 226.072C270.104 227.034 269.924 227.857 269.563 228.543C269.206 229.226 268.718 229.749 268.099 230.112C267.483 230.475 266.785 230.656 266.003 230.656C265.221 230.656 264.521 230.475 263.903 230.112C263.287 229.746 262.798 229.221 262.438 228.539C262.081 227.853 261.902 227.031 261.902 226.072C261.902 225.11 262.081 224.288 262.438 223.605C262.798 222.92 263.287 222.395 263.903 222.032C264.521 221.669 265.221 221.487 266.003 221.487C266.785 221.487 267.483 221.669 268.099 222.032C268.718 222.395 269.206 222.92 269.563 223.605C269.924 224.288 270.104 225.11 270.104 226.072ZM268.478 226.072C268.478 225.395 268.372 224.824 268.16 224.359C267.951 223.892 267.66 223.539 267.289 223.3C266.917 223.059 266.488 222.939 266.003 222.939C265.518 222.939 265.089 223.059 264.717 223.3C264.346 223.539 264.054 223.892 263.841 224.359C263.632 224.824 263.528 225.395 263.528 226.072C263.528 226.749 263.632 227.321 263.841 227.789C264.054 228.254 264.346 228.607 264.717 228.848C265.089 229.086 265.518 229.205 266.003 229.205C266.488 229.205 266.917 229.086 267.289 228.848C267.66 228.607 267.951 228.254 268.16 227.789C268.372 227.321 268.478 226.749 268.478 226.072ZM270.845 222.965V221.609H277.965V222.965H275.207V230.534H273.603V222.965H270.845ZM279.406 230.534H277.68L280.822 221.609H282.818L285.964 230.534H284.239L281.855 223.44H281.785L279.406 230.534ZM279.462 227.035H284.169V228.334H279.462V227.035ZM287.14 230.534V221.609H288.757V229.179H292.688V230.534H287.14ZM298.281 230.534H296.555L299.697 221.609H301.693L304.84 230.534H303.114L300.73 223.44H300.66L298.281 230.534ZM298.338 227.035H303.044V228.334H298.338V227.035ZM306.015 221.609H307.994L310.643 228.077H310.748L313.397 221.609H315.376V230.534H313.825V224.403H313.742L311.275 230.508H310.116L307.649 224.39H307.567V230.534H306.015V221.609ZM325.112 226.072C325.112 227.034 324.931 227.857 324.571 228.543C324.214 229.226 323.726 229.749 323.107 230.112C322.491 230.475 321.792 230.656 321.011 230.656C320.229 230.656 319.529 230.475 318.91 230.112C318.294 229.746 317.806 229.221 317.446 228.539C317.089 227.853 316.91 227.031 316.91 226.072C316.91 225.11 317.089 224.288 317.446 223.605C317.806 222.92 318.294 222.395 318.91 222.032C319.529 221.669 320.229 221.487 321.011 221.487C321.792 221.487 322.491 221.669 323.107 222.032C323.726 222.395 324.214 222.92 324.571 223.605C324.931 224.288 325.112 225.11 325.112 226.072ZM323.486 226.072C323.486 225.395 323.38 224.824 323.168 224.359C322.959 223.892 322.668 223.539 322.296 223.3C321.924 223.059 321.496 222.939 321.011 222.939C320.526 222.939 320.097 223.059 319.725 223.3C319.353 223.539 319.061 223.892 318.849 224.359C318.64 224.824 318.535 225.395 318.535 226.072C318.535 226.749 318.64 227.321 318.849 227.789C319.061 228.254 319.353 228.607 319.725 228.848C320.097 229.086 320.526 229.205 321.011 229.205C321.496 229.205 321.924 229.086 322.296 228.848C322.668 228.607 322.959 228.254 323.168 227.789C323.38 227.321 323.486 226.749 323.486 226.072ZM332.266 221.609H333.883V227.44C333.883 228.079 333.732 228.642 333.43 229.127C333.13 229.612 332.709 229.991 332.166 230.264C331.623 230.534 330.988 230.67 330.261 230.67C329.532 230.67 328.896 230.534 328.353 230.264C327.809 229.991 327.388 229.612 327.089 229.127C326.79 228.642 326.64 228.079 326.64 227.44V221.609H328.257V227.305C328.257 227.677 328.338 228.008 328.501 228.299C328.666 228.589 328.899 228.817 329.198 228.983C329.497 229.146 329.852 229.227 330.261 229.227C330.671 229.227 331.026 229.146 331.325 228.983C331.627 228.817 331.859 228.589 332.022 228.299C332.185 228.008 332.266 227.677 332.266 227.305V221.609ZM342.975 221.609V230.534H341.536L337.331 224.455H337.257V230.534H335.64V221.609H337.087L341.288 227.693H341.367V221.609H342.975ZM344.344 222.965V221.609H351.465V222.965H348.706V230.534H347.103V222.965H344.344Z" fill="#89949F"/>
<path d="M272.389 242.589L271.812 243.855H263.927L264.396 242.589H272.389ZM271.29 245.043L270.677 246.327H263.927L264.396 245.043H271.29ZM273.886 239.35L273.054 241.121C272.864 240.971 272.648 240.824 272.407 240.682C272.165 240.539 271.898 240.42 271.604 240.325C271.311 240.23 270.99 240.182 270.642 240.182C270.051 240.182 269.531 240.339 269.079 240.652C268.627 240.961 268.273 241.432 268.015 242.066C267.762 242.696 267.635 243.494 267.635 244.461C267.635 245.428 267.762 246.226 268.015 246.856C268.273 247.486 268.627 247.953 269.079 248.258C269.531 248.563 270.051 248.716 270.642 248.716C270.99 248.716 271.311 248.67 271.604 248.579C271.898 248.488 272.161 248.373 272.395 248.235C272.633 248.096 272.837 247.957 273.007 247.819L273.851 249.59C273.427 249.958 272.938 250.235 272.383 250.422C271.832 250.608 271.252 250.701 270.642 250.701C269.628 250.701 268.728 250.453 267.944 249.958C267.163 249.459 266.551 248.744 266.108 247.813C265.664 246.878 265.442 245.761 265.442 244.461C265.442 243.158 265.664 242.038 266.108 241.104C266.551 240.169 267.163 239.451 267.944 238.952C268.728 238.449 269.628 238.198 270.642 238.198C271.276 238.198 271.864 238.299 272.407 238.501C272.953 238.699 273.447 238.982 273.886 239.35ZM276.264 250.534L281.441 240.289V240.206H275.433V238.364H283.722V240.248L278.552 250.534H276.264ZM286.014 248.87L285.937 249.524C285.882 250.023 285.783 250.53 285.64 251.045C285.501 251.564 285.355 252.042 285.2 252.478C285.046 252.913 284.921 253.256 284.826 253.506H283.376C283.431 253.264 283.507 252.935 283.602 252.519C283.701 252.103 283.796 251.636 283.887 251.117C283.978 250.598 284.039 250.071 284.071 249.536L284.113 248.87H286.014ZM288.37 250.534L293.546 240.289V240.206H287.538V238.364H295.828V240.248L290.658 250.534H288.37ZM296.972 246.618C296.979 246.206 297.037 245.792 297.144 245.376C297.255 244.956 297.429 244.513 297.667 244.045C297.905 243.574 298.216 243.055 298.6 242.488L301.393 238.364H303.651L300.614 242.809C300.761 242.769 300.913 242.738 301.072 242.714C301.23 242.686 301.393 242.672 301.559 242.672C302.3 242.672 302.96 242.841 303.538 243.177C304.121 243.514 304.578 243.98 304.911 244.574C305.244 245.168 305.41 245.852 305.41 246.624C305.41 247.428 305.228 248.138 304.863 248.752C304.503 249.362 304.006 249.839 303.372 250.184C302.742 250.528 302.025 250.701 301.221 250.701C300.432 250.701 299.715 250.534 299.069 250.202C298.427 249.869 297.916 249.397 297.536 248.787C297.156 248.177 296.968 247.454 296.972 246.618ZM299.117 246.666C299.117 247.106 299.204 247.496 299.378 247.836C299.557 248.177 299.802 248.445 300.115 248.639C300.432 248.833 300.797 248.93 301.209 248.93C301.617 248.93 301.977 248.835 302.29 248.645C302.603 248.451 302.849 248.185 303.027 247.848C303.205 247.508 303.294 247.117 303.294 246.678C303.294 246.238 303.205 245.85 303.027 245.513C302.849 245.172 302.603 244.907 302.29 244.717C301.977 244.522 301.617 244.425 301.209 244.425C300.797 244.425 300.432 244.521 300.115 244.711C299.802 244.901 299.557 245.164 299.378 245.501C299.204 245.838 299.117 246.226 299.117 246.666ZM311.484 250.701C310.692 250.701 309.983 250.552 309.357 250.255C308.731 249.954 308.234 249.542 307.865 249.019C307.501 248.496 307.307 247.898 307.283 247.224H309.422C309.462 247.724 309.678 248.132 310.07 248.449C310.462 248.762 310.934 248.918 311.484 248.918C311.916 248.918 312.301 248.819 312.637 248.621C312.974 248.423 313.239 248.147 313.434 247.795C313.628 247.442 313.723 247.04 313.719 246.589C313.723 246.129 313.626 245.721 313.428 245.364C313.23 245.008 312.958 244.728 312.614 244.526C312.269 244.32 311.873 244.217 311.425 244.217C311.061 244.213 310.702 244.281 310.349 244.419C309.997 244.558 309.717 244.74 309.511 244.966L307.521 244.639L308.157 238.364H315.216V240.206H309.981L309.63 243.433H309.702C309.927 243.168 310.246 242.948 310.658 242.773C311.07 242.595 311.522 242.506 312.013 242.506C312.75 242.506 313.408 242.68 313.986 243.029C314.565 243.374 315.02 243.849 315.353 244.455C315.686 245.061 315.852 245.755 315.852 246.535C315.852 247.339 315.666 248.056 315.294 248.686C314.925 249.312 314.412 249.805 313.754 250.166C313.101 250.523 312.344 250.701 311.484 250.701ZM318.7 250.665C318.339 250.665 318.03 250.538 317.773 250.285C317.515 250.031 317.388 249.722 317.392 249.358C317.388 249.001 317.515 248.696 317.773 248.443C318.03 248.189 318.339 248.062 318.7 248.062C319.048 248.062 319.351 248.189 319.609 248.443C319.87 248.696 320.003 249.001 320.007 249.358C320.003 249.599 319.94 249.819 319.817 250.017C319.698 250.216 319.54 250.374 319.342 250.493C319.147 250.608 318.933 250.665 318.7 250.665ZM326.145 250.766C325.167 250.766 324.327 250.519 323.626 250.023C322.928 249.524 322.392 248.805 322.015 247.866C321.643 246.923 321.457 245.788 321.457 244.461C321.461 243.134 321.649 242.005 322.021 241.074C322.398 240.139 322.934 239.426 323.632 238.934C324.333 238.443 325.171 238.198 326.145 238.198C327.12 238.198 327.958 238.443 328.659 238.934C329.36 239.426 329.897 240.139 330.27 241.074C330.646 242.009 330.834 243.138 330.834 244.461C330.834 245.792 330.646 246.929 330.27 247.872C329.897 248.811 329.36 249.528 328.659 250.023C327.962 250.519 327.124 250.766 326.145 250.766ZM326.145 248.906C326.906 248.906 327.506 248.532 327.946 247.783C328.39 247.03 328.612 245.923 328.612 244.461C328.612 243.494 328.511 242.682 328.308 242.025C328.106 241.367 327.821 240.872 327.453 240.539C327.084 240.202 326.648 240.034 326.145 240.034C325.389 240.034 324.79 240.41 324.351 241.163C323.911 241.912 323.689 243.011 323.685 244.461C323.681 245.432 323.778 246.248 323.976 246.909C324.178 247.571 324.464 248.07 324.832 248.407C325.2 248.74 325.638 248.906 326.145 248.906ZM332.725 250.534V248.942L336.95 244.8C337.354 244.392 337.691 244.029 337.96 243.712C338.23 243.395 338.432 243.088 338.566 242.791C338.701 242.494 338.768 242.177 338.768 241.84C338.768 241.456 338.681 241.127 338.507 240.854C338.333 240.577 338.093 240.363 337.788 240.212C337.483 240.062 337.136 239.986 336.748 239.986C336.348 239.986 335.997 240.069 335.696 240.236C335.395 240.398 335.161 240.63 334.995 240.931C334.832 241.232 334.751 241.591 334.751 242.007H332.654C332.654 241.234 332.83 240.563 333.182 239.992C333.535 239.422 334.02 238.98 334.638 238.667C335.26 238.354 335.973 238.198 336.778 238.198C337.594 238.198 338.311 238.35 338.929 238.655C339.547 238.96 340.026 239.378 340.367 239.909C340.712 240.44 340.884 241.046 340.884 241.727C340.884 242.183 340.797 242.631 340.623 243.071C340.448 243.51 340.141 243.998 339.701 244.532C339.266 245.067 338.654 245.715 337.865 246.476L335.767 248.609V248.692H341.068V250.534H332.725Z" fill="black"/>
<path d="M219.218 266.869V260.593H220.283V266.869H219.218ZM216.613 264.264V263.199H222.889V264.264H216.613ZM234.908 261.24L234.471 262.191H228.271L228.614 261.24H234.908ZM234.09 263.142L233.653 264.092H228.271L228.614 263.142H234.09ZM236.03 258.673L235.574 259.662C235.371 259.478 235.157 259.319 234.932 259.186C234.707 259.053 234.471 258.95 234.223 258.877C233.976 258.804 233.716 258.768 233.444 258.768C232.905 258.768 232.42 258.917 231.989 259.215C231.558 259.513 231.217 259.952 230.967 260.532C230.717 261.112 230.591 261.823 230.591 262.666C230.591 263.509 230.717 264.221 230.967 264.801C231.217 265.381 231.558 265.82 231.989 266.118C232.42 266.416 232.905 266.565 233.444 266.565C233.723 266.565 233.986 266.528 234.233 266.455C234.483 266.382 234.716 266.283 234.932 266.156C235.15 266.029 235.352 265.886 235.536 265.728L236.011 266.717C235.678 267.03 235.288 267.268 234.841 267.43C234.395 267.588 233.929 267.668 233.444 267.668C232.664 267.668 231.973 267.465 231.371 267.059C230.772 266.653 230.301 266.077 229.959 265.329C229.62 264.581 229.45 263.693 229.45 262.666C229.45 261.639 229.62 260.752 229.959 260.004C230.301 259.256 230.772 258.679 231.371 258.273C231.973 257.868 232.664 257.665 233.444 257.665C233.948 257.665 234.418 257.752 234.856 257.926C235.296 258.101 235.688 258.35 236.03 258.673ZM237.612 265.538V264.568L241.51 257.798H242.67L238.867 264.416V264.492H244.648V265.538H237.612ZM242.195 267.534V265.252V264.791V261.449H243.317V267.534H242.195ZM249.472 267.668C248.914 267.668 248.412 267.557 247.965 267.335C247.518 267.113 247.16 266.809 246.891 266.422C246.621 266.035 246.474 265.595 246.449 265.1H247.59C247.634 265.541 247.834 265.905 248.189 266.194C248.547 266.479 248.975 266.622 249.472 266.622C249.872 266.622 250.226 266.528 250.537 266.341C250.851 266.154 251.096 265.897 251.274 265.571C251.455 265.241 251.545 264.869 251.545 264.454C251.545 264.029 251.451 263.65 251.264 263.318C251.081 262.982 250.827 262.717 250.504 262.524C250.181 262.33 249.811 262.232 249.396 262.229C249.098 262.226 248.792 262.272 248.479 262.367C248.165 262.459 247.906 262.577 247.704 262.723L246.601 262.59L247.19 257.798H252.249V258.844H248.179L247.837 261.715H247.894C248.093 261.557 248.344 261.425 248.645 261.321C248.946 261.216 249.26 261.164 249.586 261.164C250.182 261.164 250.713 261.307 251.179 261.592C251.648 261.874 252.016 262.261 252.282 262.752C252.551 263.243 252.686 263.804 252.686 264.435C252.686 265.056 252.546 265.611 252.268 266.099C251.992 266.584 251.612 266.967 251.127 267.249C250.642 267.528 250.09 267.668 249.472 267.668ZM254.346 264.454C254.353 264.15 254.399 263.834 254.484 263.508C254.57 263.181 254.714 262.818 254.917 262.419C255.12 262.02 255.399 261.557 255.754 261.031L257.94 257.798H259.233L256.666 261.544C256.78 261.506 256.898 261.475 257.018 261.449C257.142 261.424 257.265 261.411 257.389 261.411C257.978 261.411 258.505 261.547 258.967 261.82C259.433 262.093 259.799 262.465 260.065 262.937C260.335 263.409 260.47 263.947 260.47 264.549C260.47 265.151 260.336 265.687 260.07 266.156C259.807 266.625 259.444 266.994 258.982 267.263C258.522 267.533 257.997 267.668 257.408 267.668C256.812 267.668 256.283 267.53 255.82 267.254C255.357 266.975 254.994 266.595 254.731 266.113C254.468 265.628 254.34 265.075 254.346 264.454ZM255.468 264.53C255.468 264.942 255.551 265.306 255.715 265.623C255.88 265.94 256.108 266.189 256.4 266.37C256.692 266.55 257.028 266.641 257.408 266.641C257.788 266.641 258.124 266.552 258.416 266.374C258.707 266.194 258.936 265.947 259.1 265.633C259.265 265.316 259.348 264.955 259.348 264.549C259.348 264.137 259.265 263.774 259.1 263.46C258.936 263.146 258.707 262.901 258.416 262.723C258.124 262.546 257.788 262.457 257.408 262.457C257.028 262.457 256.692 262.546 256.4 262.723C256.108 262.898 255.88 263.142 255.715 263.455C255.551 263.766 255.468 264.124 255.468 264.53ZM263.099 267.61C262.864 267.61 262.663 267.527 262.495 267.359C262.327 267.191 262.243 266.989 262.243 266.755C262.243 266.52 262.327 266.319 262.495 266.151C262.663 265.983 262.864 265.899 263.099 265.899C263.333 265.899 263.534 265.983 263.702 266.151C263.87 266.319 263.954 266.52 263.954 266.755C263.954 266.91 263.915 267.053 263.835 267.183C263.759 267.313 263.656 267.417 263.526 267.496C263.4 267.572 263.257 267.61 263.099 267.61ZM265.43 265.1H266.628C266.663 265.43 266.776 265.709 266.966 265.937C267.159 266.162 267.41 266.333 267.717 266.45C268.025 266.565 268.365 266.622 268.739 266.622C269.145 266.622 269.509 266.553 269.833 266.417C270.156 266.281 270.413 266.078 270.603 265.809C270.793 265.536 270.888 265.199 270.888 264.796C270.888 264.444 270.806 264.118 270.641 263.817C270.476 263.512 270.211 263.267 269.847 263.08C269.483 262.893 268.999 262.799 268.397 262.799H267.617V261.849L270.051 258.92V258.844H265.906V257.798H271.668V258.654L269.063 261.811V261.887C269.481 261.906 269.871 261.991 270.232 262.143C270.597 262.295 270.913 262.501 271.183 262.761C271.455 263.021 271.668 263.324 271.82 263.669C271.972 264.015 272.048 264.39 272.048 264.796C272.048 265.351 271.906 265.845 271.62 266.279C271.338 266.71 270.947 267.05 270.446 267.297C269.948 267.544 269.373 267.668 268.72 267.668C268.143 267.668 267.613 267.566 267.128 267.363C266.643 267.16 266.248 266.867 265.944 266.484C265.64 266.1 265.468 265.639 265.43 265.1ZM273.761 265.538V264.568L277.659 257.798H278.819L275.016 264.416V264.492H280.797V265.538H273.761ZM278.344 267.534V265.252V264.791V261.449H279.466V267.534H278.344ZM291.535 261.868L290.527 262.153C290.464 261.985 290.37 261.822 290.247 261.663C290.126 261.501 289.962 261.368 289.752 261.264C289.543 261.159 289.275 261.107 288.949 261.107C288.502 261.107 288.13 261.21 287.832 261.416C287.537 261.619 287.39 261.877 287.39 262.191C287.39 262.47 287.491 262.69 287.694 262.852C287.897 263.013 288.214 263.148 288.645 263.256L289.729 263.522C290.381 263.68 290.868 263.923 291.188 264.249C291.508 264.573 291.668 264.989 291.668 265.5C291.668 265.918 291.548 266.292 291.307 266.622C291.069 266.951 290.736 267.211 290.309 267.401C289.881 267.591 289.383 267.687 288.816 267.687C288.071 267.687 287.455 267.525 286.966 267.202C286.478 266.878 286.169 266.406 286.039 265.785L287.104 265.519C287.206 265.912 287.397 266.206 287.68 266.403C287.965 266.599 288.337 266.698 288.797 266.698C289.32 266.698 289.735 266.587 290.042 266.365C290.353 266.14 290.508 265.87 290.508 265.557C290.508 265.303 290.419 265.091 290.242 264.92C290.065 264.745 289.792 264.615 289.424 264.53L288.207 264.245C287.539 264.086 287.047 263.841 286.733 263.508C286.423 263.172 286.268 262.752 286.268 262.248C286.268 261.836 286.383 261.471 286.615 261.154C286.849 260.838 287.168 260.589 287.57 260.408C287.976 260.227 288.435 260.137 288.949 260.137C289.672 260.137 290.239 260.296 290.651 260.612C291.066 260.929 291.361 261.348 291.535 261.868ZM293.357 267.534V260.232H294.479V267.534H293.357ZM293.928 259.015C293.709 259.015 293.52 258.941 293.362 258.792C293.207 258.643 293.129 258.464 293.129 258.254C293.129 258.045 293.207 257.866 293.362 257.717C293.52 257.568 293.709 257.494 293.928 257.494C294.146 257.494 294.333 257.568 294.489 257.717C294.647 257.866 294.726 258.045 294.726 258.254C294.726 258.464 294.647 258.643 294.489 258.792C294.333 258.941 294.146 259.015 293.928 259.015ZM297.656 263.142V267.534H296.534V260.232H297.618V261.373H297.713C297.884 261.002 298.144 260.704 298.493 260.479C298.841 260.251 299.291 260.137 299.843 260.137C300.337 260.137 300.77 260.238 301.141 260.441C301.512 260.641 301.8 260.945 302.006 261.354C302.212 261.76 302.315 262.273 302.315 262.894V267.534H301.193V262.971C301.193 262.397 301.044 261.95 300.746 261.63C300.448 261.307 300.039 261.145 299.52 261.145C299.161 261.145 298.841 261.223 298.559 261.378C298.28 261.533 298.06 261.76 297.898 262.058C297.737 262.356 297.656 262.717 297.656 263.142ZM307.332 267.687C306.647 267.687 306.058 267.525 305.563 267.202C305.069 266.878 304.688 266.433 304.422 265.866C304.156 265.298 304.023 264.65 304.023 263.921C304.023 263.18 304.159 262.525 304.432 261.958C304.707 261.387 305.091 260.942 305.582 260.622C306.077 260.299 306.653 260.137 307.313 260.137C307.826 260.137 308.289 260.232 308.701 260.422C309.113 260.612 309.45 260.879 309.714 261.221C309.977 261.563 310.14 261.963 310.203 262.419H309.081C308.996 262.086 308.806 261.791 308.511 261.535C308.219 261.275 307.826 261.145 307.332 261.145C306.894 261.145 306.511 261.259 306.181 261.487C305.855 261.712 305.6 262.031 305.416 262.443C305.235 262.852 305.145 263.332 305.145 263.883C305.145 264.447 305.234 264.939 305.411 265.357C305.592 265.775 305.845 266.1 306.172 266.332C306.501 266.563 306.888 266.679 307.332 266.679C307.623 266.679 307.888 266.628 308.126 266.527C308.363 266.425 308.565 266.279 308.729 266.089C308.894 265.899 309.012 265.671 309.081 265.405H310.203C310.14 265.836 309.983 266.224 309.733 266.569C309.485 266.912 309.157 267.184 308.748 267.387C308.343 267.587 307.871 267.687 307.332 267.687ZM314.905 267.687C314.201 267.687 313.594 267.531 313.084 267.221C312.577 266.907 312.186 266.47 311.91 265.909C311.637 265.344 311.501 264.688 311.501 263.94C311.501 263.192 311.637 262.533 311.91 261.963C312.186 261.389 312.569 260.942 313.06 260.622C313.555 260.299 314.132 260.137 314.791 260.137C315.171 260.137 315.547 260.2 315.918 260.327C316.288 260.454 316.626 260.66 316.93 260.945C317.235 261.227 317.477 261.601 317.658 262.067C317.838 262.533 317.929 263.107 317.929 263.788V264.264H312.3V263.294H316.788C316.788 262.882 316.705 262.514 316.54 262.191C316.379 261.868 316.147 261.612 315.846 261.425C315.548 261.238 315.197 261.145 314.791 261.145C314.344 261.145 313.957 261.256 313.631 261.478C313.308 261.696 313.059 261.982 312.885 262.333C312.71 262.685 312.623 263.062 312.623 263.465V264.111C312.623 264.663 312.718 265.13 312.908 265.514C313.102 265.894 313.369 266.184 313.712 266.384C314.054 266.58 314.452 266.679 314.905 266.679C315.2 266.679 315.466 266.637 315.704 266.555C315.945 266.47 316.152 266.343 316.326 266.175C316.501 266.004 316.635 265.791 316.731 265.538L317.815 265.842C317.7 266.21 317.509 266.533 317.239 266.812C316.97 267.088 316.637 267.303 316.241 267.458C315.845 267.61 315.399 267.687 314.905 267.687ZM323.401 257.798H324.523V265.633C324.523 265.988 324.562 266.237 324.641 266.379C324.721 266.522 324.884 266.59 325.131 266.584C325.264 266.577 325.362 266.568 325.426 266.555C325.492 266.539 325.553 266.523 325.606 266.508L325.835 267.477C325.736 267.506 325.613 267.531 325.464 267.553C325.315 267.579 325.16 267.591 324.998 267.591C324.465 267.591 324.066 267.446 323.8 267.154C323.534 266.863 323.401 266.457 323.401 265.937V257.798ZM329.622 267.687C329.014 267.687 328.477 267.533 328.011 267.225C327.545 266.915 327.18 266.477 326.917 265.913C326.654 265.346 326.523 264.676 326.523 263.902C326.523 263.135 326.654 262.47 326.917 261.906C327.18 261.341 327.547 260.906 328.016 260.598C328.485 260.291 329.027 260.137 329.641 260.137C330.117 260.137 330.492 260.216 330.768 260.375C331.047 260.53 331.259 260.708 331.405 260.907C331.554 261.104 331.67 261.265 331.752 261.392H331.847V260.232H332.969V267.534H331.885V266.412H331.752C331.67 266.546 331.553 266.714 331.4 266.916C331.248 267.116 331.031 267.295 330.749 267.454C330.467 267.609 330.092 267.687 329.622 267.687ZM329.775 266.679C330.225 266.679 330.605 266.561 330.916 266.327C331.226 266.089 331.462 265.761 331.624 265.343C331.786 264.921 331.866 264.435 331.866 263.883C331.866 263.338 331.787 262.861 331.629 262.452C331.47 262.04 331.236 261.72 330.925 261.492C330.614 261.261 330.231 261.145 329.775 261.145C329.299 261.145 328.903 261.267 328.586 261.511C328.272 261.752 328.036 262.08 327.878 262.495C327.722 262.907 327.645 263.37 327.645 263.883C327.645 264.403 327.724 264.875 327.882 265.3C328.044 265.722 328.282 266.057 328.596 266.308C328.913 266.555 329.306 266.679 329.775 266.679ZM340.352 261.868L339.345 262.153C339.281 261.985 339.188 261.822 339.064 261.663C338.944 261.501 338.779 261.368 338.57 261.264C338.36 261.159 338.093 261.107 337.766 261.107C337.319 261.107 336.947 261.21 336.649 261.416C336.354 261.619 336.207 261.877 336.207 262.191C336.207 262.47 336.308 262.69 336.511 262.852C336.714 263.013 337.031 263.148 337.462 263.256L338.546 263.522C339.199 263.68 339.685 263.923 340.005 264.249C340.325 264.573 340.486 264.989 340.486 265.5C340.486 265.918 340.365 266.292 340.124 266.622C339.887 266.951 339.554 267.211 339.126 267.401C338.698 267.591 338.2 267.687 337.633 267.687C336.888 267.687 336.272 267.525 335.784 267.202C335.296 266.878 334.987 266.406 334.857 265.785L335.922 265.519C336.023 265.912 336.215 266.206 336.497 266.403C336.782 266.599 337.155 266.698 337.614 266.698C338.137 266.698 338.552 266.587 338.86 266.365C339.17 266.14 339.326 265.87 339.326 265.557C339.326 265.303 339.237 265.091 339.059 264.92C338.882 264.745 338.609 264.615 338.242 264.53L337.025 264.245C336.356 264.086 335.865 263.841 335.551 263.508C335.24 263.172 335.085 262.752 335.085 262.248C335.085 261.836 335.201 261.471 335.432 261.154C335.666 260.838 335.985 260.589 336.388 260.408C336.793 260.227 337.253 260.137 337.766 260.137C338.489 260.137 339.056 260.296 339.468 260.612C339.883 260.929 340.178 261.348 340.352 261.868ZM345.35 260.232V261.183H341.566V260.232H345.35ZM342.669 258.483H343.791V265.443C343.791 265.76 343.837 265.997 343.929 266.156C344.024 266.311 344.144 266.416 344.29 266.47C344.439 266.52 344.596 266.546 344.761 266.546C344.884 266.546 344.986 266.539 345.065 266.527C345.144 266.511 345.208 266.498 345.255 266.489L345.483 267.496C345.407 267.525 345.301 267.553 345.165 267.582C345.028 267.614 344.856 267.63 344.647 267.63C344.33 267.63 344.019 267.561 343.715 267.425C343.414 267.289 343.163 267.081 342.964 266.802C342.767 266.523 342.669 266.172 342.669 265.747V258.483ZM350.803 267.534V260.232H351.887V261.373H351.982C352.134 260.983 352.38 260.681 352.719 260.465C353.058 260.246 353.465 260.137 353.941 260.137C354.423 260.137 354.823 260.246 355.144 260.465C355.467 260.681 355.719 260.983 355.899 261.373H355.976C356.163 260.996 356.443 260.696 356.817 260.475C357.191 260.25 357.639 260.137 358.162 260.137C358.815 260.137 359.349 260.341 359.765 260.75C360.18 261.156 360.387 261.788 360.387 262.647V267.534H359.265V262.647C359.265 262.108 359.118 261.723 358.823 261.492C358.528 261.261 358.181 261.145 357.782 261.145C357.269 261.145 356.871 261.3 356.589 261.611C356.307 261.918 356.166 262.308 356.166 262.78V267.534H355.025V262.533C355.025 262.118 354.89 261.784 354.621 261.53C354.351 261.273 354.004 261.145 353.579 261.145C353.288 261.145 353.015 261.223 352.762 261.378C352.511 261.533 352.309 261.749 352.153 262.024C352.001 262.297 351.925 262.612 351.925 262.971V267.534H350.803ZM365.405 267.687C364.746 267.687 364.168 267.53 363.67 267.216C363.176 266.902 362.789 266.463 362.51 265.899C362.234 265.335 362.096 264.676 362.096 263.921C362.096 263.161 362.234 262.497 362.51 261.929C362.789 261.362 363.176 260.921 363.67 260.608C364.168 260.294 364.746 260.137 365.405 260.137C366.064 260.137 366.641 260.294 367.136 260.608C367.633 260.921 368.02 261.362 368.296 261.929C368.575 262.497 368.714 263.161 368.714 263.921C368.714 264.676 368.575 265.335 368.296 265.899C368.02 266.463 367.633 266.902 367.136 267.216C366.641 267.53 366.064 267.687 365.405 267.687ZM365.405 266.679C365.906 266.679 366.318 266.55 366.641 266.294C366.965 266.037 367.204 265.699 367.359 265.281C367.514 264.863 367.592 264.409 367.592 263.921C367.592 263.433 367.514 262.978 367.359 262.557C367.204 262.135 366.965 261.795 366.641 261.535C366.318 261.275 365.906 261.145 365.405 261.145C364.905 261.145 364.492 261.275 364.169 261.535C363.846 261.795 363.607 262.135 363.451 262.557C363.296 262.978 363.218 263.433 363.218 263.921C363.218 264.409 363.296 264.863 363.451 265.281C363.607 265.699 363.846 266.037 364.169 266.294C364.492 266.55 364.905 266.679 365.405 266.679ZM371.549 263.142V267.534H370.427V260.232H371.511V261.373H371.606C371.777 261.002 372.037 260.704 372.385 260.479C372.734 260.251 373.184 260.137 373.736 260.137C374.23 260.137 374.663 260.238 375.033 260.441C375.404 260.641 375.693 260.945 375.899 261.354C376.105 261.76 376.208 262.273 376.208 262.894V267.534H375.086V262.971C375.086 262.397 374.937 261.95 374.639 261.63C374.341 261.307 373.932 261.145 373.412 261.145C373.054 261.145 372.734 261.223 372.452 261.378C372.173 261.533 371.953 261.76 371.791 262.058C371.63 262.356 371.549 262.717 371.549 263.142ZM381.434 260.232V261.183H377.649V260.232H381.434ZM378.752 258.483H379.874V265.443C379.874 265.76 379.92 265.997 380.012 266.156C380.107 266.311 380.228 266.416 380.373 266.47C380.522 266.52 380.679 266.546 380.844 266.546C380.968 266.546 381.069 266.539 381.148 266.527C381.228 266.511 381.291 266.498 381.339 266.489L381.567 267.496C381.491 267.525 381.385 267.553 381.248 267.582C381.112 267.614 380.939 267.63 380.73 267.63C380.413 267.63 380.103 267.561 379.798 267.425C379.497 267.289 379.247 267.081 379.047 266.802C378.851 266.523 378.752 266.172 378.752 265.747V258.483ZM384.4 263.142V267.534H383.278V257.798H384.4V261.373H384.495C384.666 260.996 384.923 260.696 385.265 260.475C385.611 260.25 386.07 260.137 386.644 260.137C387.142 260.137 387.578 260.237 387.951 260.437C388.325 260.633 388.615 260.936 388.821 261.345C389.031 261.75 389.135 262.267 389.135 262.894V267.534H388.013V262.971C388.013 262.391 387.863 261.942 387.562 261.625C387.264 261.305 386.85 261.145 386.321 261.145C385.953 261.145 385.624 261.223 385.332 261.378C385.044 261.533 384.815 261.76 384.647 262.058C384.483 262.356 384.4 262.717 384.4 263.142Z" fill="#89949F"/>
<path d="M350.346 131.244V122.319H351.963V129.889H355.894V131.244H350.346ZM358.779 131.244H357.053L360.195 122.319H362.191L365.337 131.244H363.612L361.228 124.149H361.158L358.779 131.244ZM358.835 127.744H363.542V129.043H358.835V127.744ZM371.219 124.772C371.179 124.392 371.007 124.095 370.705 123.883C370.406 123.671 370.017 123.565 369.537 123.565C369.2 123.565 368.911 123.616 368.67 123.718C368.429 123.819 368.244 123.957 368.117 124.132C367.989 124.306 367.923 124.505 367.92 124.729C367.92 124.915 367.963 125.076 368.047 125.213C368.134 125.349 368.252 125.465 368.4 125.561C368.548 125.654 368.712 125.733 368.892 125.797C369.072 125.86 369.254 125.914 369.437 125.958L370.274 126.167C370.611 126.245 370.935 126.351 371.246 126.485C371.559 126.619 371.84 126.787 372.087 126.991C372.336 127.194 372.534 127.439 372.679 127.727C372.825 128.015 372.897 128.352 372.897 128.738C372.897 129.261 372.764 129.722 372.496 130.12C372.229 130.515 371.843 130.824 371.337 131.048C370.834 131.269 370.226 131.379 369.511 131.379C368.817 131.379 368.214 131.271 367.703 131.057C367.194 130.842 366.796 130.528 366.509 130.115C366.224 129.703 366.07 129.2 366.047 128.607H367.637C367.66 128.918 367.756 129.177 367.925 129.383C368.093 129.589 368.313 129.743 368.583 129.845C368.856 129.947 369.161 129.998 369.498 129.998C369.85 129.998 370.158 129.945 370.422 129.841C370.689 129.733 370.898 129.585 371.049 129.396C371.201 129.204 371.278 128.981 371.28 128.725C371.278 128.493 371.209 128.301 371.076 128.15C370.942 127.996 370.755 127.868 370.513 127.766C370.275 127.662 369.996 127.569 369.677 127.487L368.661 127.226C367.926 127.037 367.345 126.751 366.918 126.367C366.494 125.981 366.282 125.468 366.282 124.829C366.282 124.303 366.424 123.843 366.709 123.448C366.997 123.052 367.387 122.746 367.881 122.528C368.375 122.307 368.934 122.197 369.559 122.197C370.192 122.197 370.747 122.307 371.224 122.528C371.703 122.746 372.079 123.05 372.352 123.439C372.626 123.825 372.766 124.27 372.775 124.772H371.219ZM373.946 123.674V122.319H381.067V123.674H378.309V131.244H376.705V123.674H373.946ZM388.813 122.319V131.244H387.192V124.385H387.118C387.06 124.475 386.95 124.572 386.787 124.677C386.624 124.778 386.415 124.865 386.159 124.938C385.907 125.011 385.612 125.047 385.275 125.047V123.74C385.583 123.74 385.857 123.686 386.098 123.578C386.34 123.471 386.544 123.337 386.713 123.177C386.884 123.018 387.016 122.859 387.109 122.702C387.202 122.546 387.253 122.418 387.262 122.319H388.813ZM391.089 131.244V130.076L394.188 127.039C394.484 126.739 394.731 126.473 394.929 126.241C395.126 126.009 395.274 125.783 395.373 125.566C395.472 125.348 395.521 125.115 395.521 124.868C395.521 124.586 395.457 124.345 395.33 124.145C395.202 123.941 395.026 123.785 394.802 123.674C394.579 123.564 394.324 123.509 394.04 123.509C393.746 123.509 393.489 123.57 393.268 123.692C393.047 123.811 392.876 123.981 392.754 124.202C392.635 124.422 392.575 124.685 392.575 124.99H391.037C391.037 124.424 391.166 123.931 391.425 123.513C391.683 123.095 392.039 122.771 392.493 122.541C392.949 122.312 393.472 122.197 394.061 122.197C394.66 122.197 395.186 122.309 395.639 122.532C396.092 122.756 396.444 123.063 396.694 123.452C396.946 123.841 397.073 124.286 397.073 124.785C397.073 125.12 397.009 125.448 396.881 125.77C396.753 126.093 396.528 126.45 396.205 126.842C395.886 127.235 395.437 127.71 394.859 128.267L393.321 129.832V129.893H397.208V131.244H391.089ZM401.842 122.319H403.821L406.471 128.786H406.575L409.225 122.319H411.203V131.244H409.652V125.112H409.569L407.102 131.218H405.943L403.477 125.099H403.394V131.244H401.842V122.319ZM420.939 126.781C420.939 127.743 420.759 128.567 420.398 129.252C420.041 129.935 419.553 130.458 418.934 130.821C418.318 131.184 417.62 131.366 416.838 131.366C416.056 131.366 415.356 131.184 414.738 130.821C414.122 130.455 413.634 129.931 413.273 129.248C412.916 128.562 412.737 127.74 412.737 126.781C412.737 125.82 412.916 124.998 413.273 124.315C413.634 123.629 414.122 123.105 414.738 122.742C415.356 122.378 416.056 122.197 416.838 122.197C417.62 122.197 418.318 122.378 418.934 122.742C419.553 123.105 420.041 123.629 420.398 124.315C420.759 124.998 420.939 125.82 420.939 126.781ZM419.313 126.781C419.313 126.104 419.207 125.534 418.995 125.069C418.786 124.601 418.495 124.248 418.124 124.01C417.752 123.769 417.323 123.648 416.838 123.648C416.353 123.648 415.924 123.769 415.552 124.01C415.181 124.248 414.889 124.601 414.676 125.069C414.467 125.534 414.363 126.104 414.363 126.781C414.363 127.458 414.467 128.031 414.676 128.498C414.889 128.963 415.181 129.316 415.552 129.557C415.924 129.796 416.353 129.915 416.838 129.915C417.323 129.915 417.752 129.796 418.124 129.557C418.495 129.316 418.786 128.963 418.995 128.498C419.207 128.031 419.313 127.458 419.313 126.781ZM429.802 122.319V131.244H428.364L424.158 125.165H424.084V131.244H422.467V122.319H423.914L428.115 128.403H428.194V122.319H429.802ZM431.171 123.674V122.319H438.292V123.674H435.533V131.244H433.93V123.674H431.171ZM439.665 131.244V122.319H441.282V126.097H445.417V122.319H447.038V131.244H445.417V127.453H441.282V131.244H439.665ZM453.647 124.772C453.606 124.392 453.435 124.095 453.133 123.883C452.834 123.671 452.444 123.565 451.965 123.565C451.628 123.565 451.339 123.616 451.098 123.718C450.857 123.819 450.672 123.957 450.544 124.132C450.416 124.306 450.351 124.505 450.348 124.729C450.348 124.915 450.39 125.076 450.475 125.213C450.562 125.349 450.679 125.465 450.828 125.561C450.976 125.654 451.14 125.733 451.32 125.797C451.5 125.86 451.682 125.914 451.865 125.958L452.701 126.167C453.038 126.245 453.362 126.351 453.673 126.485C453.987 126.619 454.267 126.787 454.514 126.991C454.764 127.194 454.962 127.439 455.107 127.727C455.252 128.015 455.325 128.352 455.325 128.738C455.325 129.261 455.191 129.722 454.924 130.12C454.657 130.515 454.27 130.824 453.765 131.048C453.262 131.269 452.653 131.379 451.939 131.379C451.244 131.379 450.642 131.271 450.13 131.057C449.622 130.842 449.224 130.528 448.936 130.115C448.651 129.703 448.498 129.2 448.474 128.607H450.065C450.088 128.918 450.184 129.177 450.353 129.383C450.521 129.589 450.74 129.743 451.011 129.845C451.284 129.947 451.589 129.998 451.926 129.998C452.277 129.998 452.585 129.945 452.85 129.841C453.117 129.733 453.326 129.585 453.477 129.396C453.628 129.204 453.705 128.981 453.708 128.725C453.705 128.493 453.637 128.301 453.503 128.15C453.37 127.996 453.182 127.868 452.941 127.766C452.703 127.662 452.424 127.569 452.104 127.487L451.089 127.226C450.354 127.037 449.773 126.751 449.346 126.367C448.922 125.981 448.71 125.468 448.71 124.829C448.71 124.303 448.852 123.843 449.137 123.448C449.424 123.052 449.815 122.746 450.309 122.528C450.803 122.307 451.362 122.197 451.987 122.197C452.62 122.197 453.175 122.307 453.651 122.528C454.131 122.746 454.507 123.05 454.78 123.439C455.053 123.825 455.194 124.27 455.203 124.772H453.647Z" fill="#89949F"/>
<rect x="351.647" y="150.747" width="5.57812" height="21.1969" fill="#BEC6D1"/>
<rect x="360.572" y="148.516" width="5.57812" height="23.4281" fill="#BEC6D1"/>
<rect x="369.497" y="148.516" width="5.57812" height="23.4281" fill="#BEC6D1"/>
<rect x="378.423" y="149.632" width="5.57812" height="22.3125" fill="#BEC6D1"/>
<rect x="387.348" y="148.516" width="5.57812" height="23.4281" fill="#BEC6D1"/>
<rect x="396.272" y="148.516" width="5.57812" height="23.4281" fill="#BEC6D1"/>
<rect x="405.197" y="148.516" width="5.57812" height="23.4281" fill="#BEC6D1"/>
<rect x="414.122" y="147.4" width="5.57812" height="24.5438" fill="#BEC6D1"/>
<rect x="423.048" y="147.4" width="5.57812" height="24.5438" fill="#BEC6D1"/>
<rect x="431.973" y="146.285" width="5.57812" height="25.6594" fill="#BEC6D1"/>
<rect x="440.897" y="145.169" width="5.57812" height="26.775" fill="#BEC6D1"/>
<rect x="449.822" y="144.053" width="5.57812" height="27.8906" fill="#BEC6D1"/>
<path d="M195.666 321.458V320.987C195.666 320.642 195.738 320.323 195.884 320.033C196.032 319.742 196.247 319.508 196.529 319.331C196.81 319.154 197.152 319.065 197.553 319.065C197.965 319.065 198.311 319.154 198.59 319.331C198.869 319.506 199.079 319.738 199.222 320.029C199.367 320.319 199.44 320.639 199.44 320.987V321.458C199.44 321.804 199.367 322.122 199.222 322.412C199.077 322.703 198.863 322.937 198.581 323.114C198.302 323.291 197.959 323.38 197.553 323.38C197.146 323.38 196.802 323.291 196.52 323.114C196.238 322.937 196.025 322.703 195.879 322.412C195.737 322.122 195.666 321.804 195.666 321.458ZM196.803 320.987V321.458C196.803 321.687 196.858 321.898 196.969 322.09C197.079 322.282 197.274 322.377 197.553 322.377C197.835 322.377 198.028 322.283 198.132 322.094C198.24 321.902 198.294 321.69 198.294 321.458V320.987C198.294 320.755 198.243 320.543 198.141 320.351C198.039 320.156 197.843 320.059 197.553 320.059C197.28 320.059 197.086 320.156 196.973 320.351C196.86 320.543 196.803 320.755 196.803 320.987ZM191.129 316.35V315.88C191.129 315.531 191.203 315.212 191.351 314.921C191.5 314.631 191.715 314.398 191.996 314.224C192.278 314.047 192.62 313.958 193.021 313.958C193.43 313.958 193.774 314.047 194.053 314.224C194.335 314.398 194.547 314.631 194.69 314.921C194.832 315.212 194.903 315.531 194.903 315.88V316.35C194.903 316.699 194.831 317.019 194.685 317.309C194.543 317.597 194.331 317.828 194.049 318.002C193.767 318.176 193.424 318.264 193.021 318.264C192.611 318.264 192.265 318.176 191.983 318.002C191.704 317.828 191.492 317.595 191.347 317.305C191.202 317.014 191.129 316.696 191.129 316.35ZM192.275 315.88V316.35C192.275 316.583 192.329 316.795 192.437 316.987C192.547 317.176 192.742 317.27 193.021 317.27C193.299 317.27 193.491 317.176 193.596 316.987C193.703 316.795 193.757 316.583 193.757 316.35V315.88C193.757 315.647 193.706 315.435 193.604 315.244C193.503 315.049 193.308 314.952 193.021 314.952C192.745 314.952 192.551 315.049 192.441 315.244C192.331 315.438 192.275 315.65 192.275 315.88ZM191.626 323.131L197.762 314.206H198.851L192.715 323.131H191.626ZM212.019 317.218H210.389C210.342 316.95 210.257 316.714 210.132 316.507C210.007 316.298 209.851 316.121 209.666 315.976C209.48 315.83 209.268 315.721 209.029 315.649C208.794 315.573 208.54 315.536 208.267 315.536C207.781 315.536 207.352 315.658 206.977 315.902C206.602 316.143 206.309 316.497 206.096 316.965C205.884 317.43 205.778 317.998 205.778 318.669C205.778 319.352 205.884 319.927 206.096 320.395C206.311 320.859 206.605 321.211 206.977 321.449C207.352 321.685 207.78 321.802 208.262 321.802C208.53 321.802 208.779 321.767 209.012 321.698C209.247 321.625 209.458 321.519 209.644 321.379C209.833 321.24 209.991 321.069 210.119 320.865C210.25 320.662 210.34 320.429 210.389 320.168L212.019 320.177C211.958 320.601 211.826 320.999 211.622 321.371C211.422 321.743 211.159 322.071 210.833 322.356C210.508 322.637 210.127 322.858 209.692 323.018C209.256 323.175 208.772 323.253 208.241 323.253C207.456 323.253 206.756 323.072 206.14 322.709C205.524 322.345 205.039 321.821 204.684 321.135C204.33 320.45 204.153 319.628 204.153 318.669C204.153 317.707 204.331 316.885 204.689 316.202C205.046 315.517 205.533 314.992 206.149 314.629C206.765 314.266 207.462 314.084 208.241 314.084C208.737 314.084 209.199 314.154 209.626 314.294C210.053 314.433 210.434 314.638 210.768 314.908C211.102 315.175 211.377 315.504 211.592 315.893C211.81 316.279 211.952 316.721 212.019 317.218ZM213.499 323.131V314.206H215.116V317.985H219.252V314.206H220.873V323.131H219.252V319.34H215.116V323.131H213.499ZM223.778 323.131H222.052L225.194 314.206H227.19L230.336 323.131H228.61L226.227 316.037H226.157L223.778 323.131ZM223.834 319.632H228.541V320.931H223.834V319.632ZM238.846 314.206V323.131H237.408L233.203 317.052H233.129V323.131H231.512V314.206H232.959L237.16 320.29H237.238V314.206H238.846ZM244.517 323.253C243.698 323.253 242.977 323.069 242.355 322.7C241.737 322.328 241.253 321.801 240.904 321.118C240.556 320.432 240.381 319.619 240.381 318.678C240.381 317.957 240.486 317.314 240.695 316.747C240.904 316.18 241.196 315.7 241.571 315.305C241.946 314.907 242.383 314.604 242.883 314.398C243.382 314.189 243.924 314.084 244.508 314.084C245.002 314.084 245.464 314.157 245.894 314.302C246.327 314.445 246.713 314.648 247.053 314.912C247.393 315.177 247.672 315.49 247.89 315.854C248.111 316.217 248.254 316.618 248.321 317.056H246.674C246.607 316.821 246.508 316.609 246.378 316.42C246.247 316.231 246.089 316.072 245.903 315.941C245.717 315.807 245.508 315.707 245.275 315.64C245.046 315.57 244.797 315.536 244.53 315.536C244.048 315.536 243.616 315.656 243.236 315.897C242.855 316.138 242.554 316.493 242.334 316.961C242.116 317.425 242.007 317.992 242.007 318.66C242.007 319.334 242.113 319.905 242.325 320.373C242.54 320.841 242.836 321.196 243.214 321.44C243.592 321.682 244.029 321.802 244.526 321.802C244.99 321.802 245.393 321.711 245.733 321.528C246.073 321.345 246.334 321.09 246.517 320.765C246.703 320.44 246.796 320.065 246.796 319.641L247.084 319.723H244.687V318.46H248.387V323.131H247.227L247.11 322.085H247.062C246.748 322.46 246.386 322.749 245.977 322.953C245.567 323.153 245.08 323.253 244.517 323.253ZM249.956 323.131V314.206H255.76V315.562H251.572V317.985H255.46V319.34H251.572V321.776H255.795V323.131H249.956Z" fill="#89949F"/>
<path d="M213.145 340.992V333.148H214.476V340.992H213.145ZM209.888 337.735V336.404H217.733V337.735H209.888ZM224.306 343.298C223.609 343.298 222.981 343.159 222.422 342.882C221.864 342.604 221.416 342.224 221.079 341.741C220.742 341.257 220.558 340.707 220.527 340.089H221.953C222.008 340.639 222.258 341.095 222.702 341.456C223.149 341.812 223.684 341.99 224.306 341.99C224.805 341.99 225.249 341.873 225.637 341.64C226.029 341.406 226.336 341.085 226.558 340.677C226.784 340.265 226.897 339.8 226.897 339.281C226.897 338.75 226.78 338.276 226.546 337.86C226.317 337.44 226 337.11 225.596 336.868C225.191 336.626 224.73 336.503 224.211 336.499C223.839 336.495 223.456 336.553 223.064 336.672C222.672 336.787 222.349 336.935 222.095 337.117L220.717 336.951L221.454 330.961H227.777V332.268H222.69L222.262 335.858H222.333C222.583 335.66 222.896 335.495 223.272 335.364C223.648 335.234 224.041 335.168 224.449 335.168C225.193 335.168 225.857 335.347 226.439 335.703C227.026 336.056 227.485 336.539 227.818 337.153C228.155 337.767 228.323 338.468 228.323 339.257C228.323 340.033 228.149 340.727 227.8 341.337C227.456 341.943 226.98 342.422 226.374 342.775C225.768 343.123 225.079 343.298 224.306 343.298ZM231.189 343.226C230.895 343.226 230.644 343.121 230.434 342.911C230.224 342.701 230.119 342.45 230.119 342.157C230.119 341.864 230.224 341.612 230.434 341.402C230.644 341.192 230.895 341.087 231.189 341.087C231.482 341.087 231.733 341.192 231.943 341.402C232.153 341.612 232.258 341.864 232.258 342.157C232.258 342.351 232.209 342.529 232.11 342.692C232.015 342.854 231.886 342.985 231.723 343.084C231.565 343.179 231.387 343.226 231.189 343.226ZM234.382 339.281C234.39 338.9 234.448 338.506 234.555 338.098C234.662 337.69 234.842 337.236 235.095 336.737C235.349 336.238 235.698 335.66 236.141 335.002L238.875 330.961H240.491L237.282 335.644C237.425 335.596 237.571 335.557 237.722 335.525C237.877 335.493 238.031 335.477 238.186 335.477C238.922 335.477 239.58 335.648 240.158 335.988C240.741 336.329 241.198 336.795 241.531 337.385C241.868 337.975 242.036 338.647 242.036 339.399C242.036 340.152 241.87 340.822 241.537 341.408C241.208 341.994 240.755 342.456 240.176 342.793C239.602 343.129 238.946 343.298 238.209 343.298C237.465 343.298 236.803 343.125 236.224 342.781C235.646 342.432 235.192 341.957 234.864 341.355C234.535 340.748 234.374 340.057 234.382 339.281ZM235.785 339.376C235.785 339.891 235.888 340.346 236.094 340.742C236.3 341.139 236.585 341.45 236.949 341.675C237.314 341.901 237.734 342.014 238.209 342.014C238.685 342.014 239.105 341.903 239.469 341.681C239.834 341.456 240.119 341.147 240.325 340.754C240.531 340.358 240.634 339.906 240.634 339.399C240.634 338.884 240.531 338.431 240.325 338.039C240.119 337.646 239.834 337.339 239.469 337.117C239.105 336.896 238.685 336.785 238.209 336.785C237.734 336.785 237.314 336.896 236.949 337.117C236.585 337.335 236.3 337.64 236.094 338.033C235.888 338.421 235.785 338.869 235.785 339.376ZM250.397 340.849V340.208C250.397 339.764 250.488 339.358 250.67 338.989C250.857 338.617 251.126 338.32 251.479 338.098C251.835 337.872 252.267 337.759 252.774 337.759C253.289 337.759 253.721 337.872 254.07 338.098C254.418 338.32 254.682 338.617 254.86 338.989C255.038 339.358 255.127 339.764 255.127 340.208V340.849C255.127 341.293 255.036 341.701 254.854 342.074C254.676 342.442 254.41 342.739 254.058 342.965C253.709 343.187 253.281 343.298 252.774 343.298C252.259 343.298 251.825 343.187 251.473 342.965C251.12 342.739 250.853 342.442 250.67 342.074C250.488 341.701 250.397 341.293 250.397 340.849ZM251.609 340.208V340.849C251.609 341.218 251.697 341.549 251.871 341.842C252.045 342.131 252.346 342.276 252.774 342.276C253.19 342.276 253.483 342.131 253.654 341.842C253.828 341.549 253.915 341.218 253.915 340.849V340.208C253.915 339.839 253.832 339.51 253.666 339.221C253.499 338.928 253.202 338.781 252.774 338.781C252.358 338.781 252.059 338.928 251.877 339.221C251.699 339.51 251.609 339.839 251.609 340.208ZM244.336 333.885V333.243C244.336 332.799 244.427 332.393 244.609 332.025C244.795 331.652 245.065 331.355 245.417 331.133C245.774 330.907 246.206 330.794 246.713 330.794C247.228 330.794 247.66 330.907 248.008 331.133C248.357 331.355 248.62 331.652 248.799 332.025C248.977 332.393 249.066 332.799 249.066 333.243V333.885C249.066 334.328 248.975 334.736 248.793 335.109C248.614 335.477 248.349 335.774 247.996 336C247.648 336.222 247.22 336.333 246.713 336.333C246.198 336.333 245.764 336.222 245.411 336C245.059 335.774 244.791 335.477 244.609 335.109C244.427 334.736 244.336 334.328 244.336 333.885ZM245.548 333.243V333.885C245.548 334.253 245.635 334.584 245.809 334.877C245.984 335.166 246.285 335.311 246.713 335.311C247.129 335.311 247.422 335.166 247.592 334.877C247.767 334.584 247.854 334.253 247.854 333.885V333.243C247.854 332.874 247.77 332.546 247.604 332.256C247.438 331.963 247.141 331.817 246.713 331.817C246.297 331.817 245.998 331.963 245.815 332.256C245.637 332.546 245.548 332.874 245.548 333.243ZM244.787 343.131L253.154 330.961H254.509L246.142 343.131H244.787Z" fill="#FF4C56"/>
<path d="M293.384 314.206H295.001V320.037C295.001 320.676 294.85 321.239 294.548 321.724C294.249 322.209 293.827 322.588 293.284 322.861C292.741 323.131 292.106 323.266 291.38 323.266C290.65 323.266 290.014 323.131 289.471 322.861C288.928 322.588 288.506 322.209 288.207 321.724C287.908 321.239 287.758 320.676 287.758 320.037V314.206H289.375V319.902C289.375 320.274 289.456 320.605 289.619 320.896C289.785 321.186 290.017 321.414 290.316 321.58C290.616 321.743 290.97 321.824 291.38 321.824C291.789 321.824 292.144 321.743 292.443 321.58C292.745 321.414 292.978 321.186 293.14 320.896C293.303 320.605 293.384 320.274 293.384 319.902V314.206ZM296.758 323.131V314.206H300.105C300.791 314.206 301.366 314.334 301.831 314.59C302.299 314.846 302.652 315.197 302.89 315.644C303.131 316.089 303.252 316.594 303.252 317.161C303.252 317.733 303.131 318.242 302.89 318.686C302.649 319.131 302.293 319.481 301.822 319.737C301.352 319.989 300.772 320.116 300.083 320.116H297.865V318.787H299.866C300.267 318.787 300.595 318.717 300.85 318.577C301.106 318.438 301.295 318.246 301.417 318.002C301.542 317.758 301.604 317.478 301.604 317.161C301.604 316.844 301.542 316.565 301.417 316.324C301.295 316.083 301.105 315.896 300.846 315.762C300.59 315.626 300.261 315.557 299.857 315.557H298.375V323.131H296.758ZM312.295 317.218H310.666C310.619 316.95 310.533 316.714 310.408 316.507C310.284 316.298 310.128 316.121 309.942 315.976C309.756 315.83 309.544 315.721 309.306 315.649C309.071 315.573 308.816 315.536 308.543 315.536C308.058 315.536 307.628 315.658 307.253 315.902C306.879 316.143 306.585 316.497 306.373 316.965C306.161 317.43 306.055 317.998 306.055 318.669C306.055 319.352 306.161 319.927 306.373 320.395C306.588 320.859 306.881 321.211 307.253 321.449C307.628 321.685 308.057 321.802 308.539 321.802C308.806 321.802 309.056 321.767 309.288 321.698C309.524 321.625 309.734 321.519 309.92 321.379C310.109 321.24 310.268 321.069 310.395 320.865C310.526 320.662 310.616 320.429 310.666 320.168L312.295 320.177C312.234 320.601 312.102 320.999 311.899 321.371C311.698 321.743 311.435 322.071 311.11 322.356C310.785 322.637 310.404 322.858 309.968 323.018C309.533 323.175 309.049 323.253 308.517 323.253C307.733 323.253 307.033 323.072 306.417 322.709C305.801 322.345 305.316 321.821 304.961 321.135C304.607 320.45 304.429 319.628 304.429 318.669C304.429 317.707 304.608 316.885 304.965 316.202C305.323 315.517 305.809 314.992 306.425 314.629C307.041 314.266 307.739 314.084 308.517 314.084C309.014 314.084 309.476 314.154 309.903 314.294C310.33 314.433 310.711 314.638 311.045 314.908C311.379 315.175 311.653 315.504 311.868 315.893C312.086 316.279 312.229 316.721 312.295 317.218ZM321.751 318.669C321.751 319.63 321.571 320.454 321.211 321.14C320.853 321.823 320.365 322.345 319.746 322.709C319.13 323.072 318.432 323.253 317.65 323.253C316.869 323.253 316.169 323.072 315.55 322.709C314.934 322.343 314.446 321.818 314.085 321.135C313.728 320.45 313.549 319.628 313.549 318.669C313.549 317.707 313.728 316.885 314.085 316.202C314.446 315.517 314.934 314.992 315.55 314.629C316.169 314.266 316.869 314.084 317.65 314.084C318.432 314.084 319.13 314.266 319.746 314.629C320.365 314.992 320.853 315.517 321.211 316.202C321.571 316.885 321.751 317.707 321.751 318.669ZM320.126 318.669C320.126 317.992 320.019 317.421 319.807 316.956C319.598 316.488 319.308 316.135 318.936 315.897C318.564 315.656 318.135 315.536 317.65 315.536C317.165 315.536 316.737 315.656 316.365 315.897C315.993 316.135 315.701 316.488 315.489 316.956C315.28 317.421 315.175 317.992 315.175 318.669C315.175 319.346 315.28 319.918 315.489 320.386C315.701 320.851 315.993 321.204 316.365 321.445C316.737 321.683 317.165 321.802 317.65 321.802C318.135 321.802 318.564 321.683 318.936 321.445C319.308 321.204 319.598 320.851 319.807 320.386C320.019 319.918 320.126 319.346 320.126 318.669ZM323.28 314.206H325.258L327.908 320.673H328.012L330.662 314.206H332.64V323.131H331.089V317H331.006L328.54 323.105H327.38L324.914 316.987H324.831V323.131H323.28V314.206ZM336.018 314.206V323.131H334.401V314.206H336.018ZM345.103 314.206V323.131H343.665L339.459 317.052H339.385V323.131H337.769V314.206H339.215L343.416 320.29H343.495V314.206H345.103ZM350.774 323.253C349.954 323.253 349.234 323.069 348.612 322.7C347.993 322.328 347.51 321.801 347.161 321.118C346.812 320.432 346.638 319.619 346.638 318.678C346.638 317.957 346.743 317.314 346.952 316.747C347.161 316.18 347.453 315.7 347.828 315.305C348.202 314.907 348.64 314.604 349.139 314.398C349.639 314.189 350.181 314.084 350.765 314.084C351.259 314.084 351.721 314.157 352.151 314.302C352.584 314.445 352.97 314.648 353.31 314.912C353.65 315.177 353.929 315.49 354.147 315.854C354.367 316.217 354.511 316.618 354.578 317.056H352.931C352.864 316.821 352.765 316.609 352.634 316.42C352.504 316.231 352.345 316.072 352.159 315.941C351.973 315.807 351.764 315.707 351.532 315.64C351.302 315.57 351.054 315.536 350.787 315.536C350.304 315.536 349.873 315.656 349.492 315.897C349.112 316.138 348.811 316.493 348.59 316.961C348.372 317.425 348.263 317.992 348.263 318.66C348.263 319.334 348.369 319.905 348.582 320.373C348.797 320.841 349.093 321.196 349.471 321.44C349.848 321.682 350.286 321.802 350.782 321.802C351.247 321.802 351.65 321.711 351.989 321.528C352.329 321.345 352.591 321.09 352.774 320.765C352.96 320.44 353.053 320.065 353.053 319.641L353.34 319.723H350.944V318.46H354.643V323.131H353.484L353.367 322.085H353.319C353.005 322.46 352.643 322.749 352.234 322.953C351.824 323.153 351.337 323.253 350.774 323.253ZM359.256 323.131V314.206H362.603C363.289 314.206 363.864 314.334 364.329 314.59C364.797 314.846 365.15 315.197 365.388 315.644C365.629 316.089 365.75 316.594 365.75 317.161C365.75 317.733 365.629 318.242 365.388 318.686C365.147 319.131 364.791 319.481 364.32 319.737C363.85 319.989 363.27 320.116 362.581 320.116H360.363V318.787H362.363C362.764 318.787 363.093 318.717 363.348 318.577C363.604 318.438 363.793 318.246 363.915 318.002C364.04 317.758 364.102 317.478 364.102 317.161C364.102 316.844 364.04 316.565 363.915 316.324C363.793 316.083 363.603 315.896 363.344 315.762C363.088 315.626 362.759 315.557 362.355 315.557H360.873V323.131H359.256ZM367.305 323.131H365.58L368.722 314.206H370.718L373.864 323.131H372.138L369.754 316.037H369.685L367.305 323.131ZM367.362 319.632H372.069V320.931H367.362V319.632ZM373.519 314.206H375.345L377.528 318.155H377.615L379.798 314.206H381.624L378.378 319.802V323.131H376.765V319.802L373.519 314.206ZM382.769 314.206H384.748L387.397 320.673H387.502L390.152 314.206H392.13V323.131H390.579V317H390.496L388.029 323.105H386.87L384.404 316.987H384.321V323.131H382.769V314.206ZM393.891 323.131V314.206H399.696V315.562H395.508V317.985H399.395V319.34H395.508V321.776H399.73V323.131H393.891ZM408.679 314.206V323.131H407.241L403.036 317.052H402.962V323.131H401.345V314.206H402.792L406.993 320.29H407.071V314.206H408.679ZM410.049 315.562V314.206H417.17V315.562H414.411V323.131H412.807V315.562H410.049ZM423.393 316.66C423.352 316.279 423.181 315.983 422.878 315.771C422.579 315.559 422.19 315.453 421.711 315.453C421.374 315.453 421.084 315.504 420.843 315.605C420.602 315.707 420.418 315.845 420.29 316.019C420.162 316.194 420.097 316.393 420.094 316.616C420.094 316.802 420.136 316.963 420.22 317.1C420.307 317.237 420.425 317.353 420.573 317.449C420.721 317.542 420.885 317.62 421.066 317.684C421.246 317.748 421.427 317.802 421.61 317.845L422.447 318.054C422.784 318.133 423.108 318.239 423.419 318.373C423.733 318.506 424.013 318.675 424.26 318.878C424.51 319.081 424.707 319.327 424.853 319.615C424.998 319.902 425.071 320.239 425.071 320.626C425.071 321.148 424.937 321.609 424.67 322.007C424.402 322.402 424.016 322.712 423.51 322.935C423.008 323.156 422.399 323.266 421.684 323.266C420.99 323.266 420.387 323.159 419.876 322.944C419.367 322.729 418.969 322.415 418.682 322.003C418.397 321.59 418.243 321.087 418.22 320.495H419.811C419.834 320.806 419.93 321.064 420.098 321.271C420.267 321.477 420.486 321.631 420.756 321.732C421.029 321.834 421.334 321.885 421.671 321.885C422.023 321.885 422.331 321.833 422.595 321.728C422.863 321.621 423.072 321.472 423.223 321.284C423.374 321.092 423.451 320.868 423.454 320.612C423.451 320.38 423.383 320.188 423.249 320.037C423.115 319.883 422.928 319.755 422.687 319.654C422.449 319.549 422.17 319.456 421.85 319.375L420.835 319.113C420.1 318.925 419.519 318.638 419.091 318.255C418.667 317.868 418.455 317.356 418.455 316.717C418.455 316.191 418.598 315.73 418.882 315.335C419.17 314.94 419.561 314.633 420.055 314.416C420.548 314.195 421.108 314.084 421.732 314.084C422.366 314.084 422.921 314.195 423.397 314.416C423.876 314.633 424.253 314.937 424.526 315.326C424.799 315.713 424.94 316.157 424.949 316.66H423.393Z" fill="#89949F"/>
<path d="M295.804 335.186L295.227 336.452H287.341L287.811 335.186H295.804ZM294.704 337.64L294.092 338.924H287.341L287.811 337.64H294.704ZM297.301 331.947L296.469 333.718C296.279 333.568 296.063 333.421 295.822 333.279C295.58 333.136 295.312 333.017 295.019 332.922C294.726 332.827 294.405 332.779 294.057 332.779C293.466 332.779 292.945 332.936 292.494 333.249C292.042 333.558 291.687 334.029 291.43 334.663C291.176 335.293 291.05 336.091 291.05 337.058C291.05 338.025 291.176 338.823 291.43 339.453C291.687 340.083 292.042 340.55 292.494 340.855C292.945 341.16 293.466 341.313 294.057 341.313C294.405 341.313 294.726 341.267 295.019 341.176C295.312 341.085 295.576 340.97 295.81 340.832C296.047 340.693 296.251 340.554 296.422 340.416L297.266 342.186C296.842 342.555 296.352 342.832 295.798 343.018C295.247 343.205 294.667 343.298 294.057 343.298C293.042 343.298 292.143 343.05 291.359 342.555C290.578 342.056 289.966 341.341 289.522 340.41C289.079 339.475 288.857 338.357 288.857 337.058C288.857 335.755 289.079 334.635 289.522 333.7C289.966 332.765 290.578 332.048 291.359 331.549C292.143 331.046 293.042 330.794 294.057 330.794C294.69 330.794 295.279 330.896 295.822 331.098C296.368 331.296 296.862 331.579 297.301 331.947ZM299.014 340.873V339.12L303.667 330.961H305.8L301.254 338.966V339.061H308.48V340.873H299.014ZM304.82 343.131V340.356L304.867 339.554V335.525H306.894V343.131H304.82ZM312.273 341.467L312.195 342.121C312.14 342.62 312.041 343.127 311.898 343.642C311.76 344.161 311.613 344.639 311.459 345.075C311.304 345.51 311.179 345.853 311.084 346.103H309.634C309.69 345.861 309.765 345.532 309.86 345.116C309.959 344.7 310.054 344.233 310.145 343.714C310.236 343.195 310.298 342.668 310.329 342.133L310.371 341.467H312.273ZM318.6 343.363C317.621 343.363 316.781 343.116 316.08 342.62C315.383 342.121 314.846 341.402 314.47 340.463C314.097 339.52 313.911 338.385 313.911 337.058C313.915 335.731 314.103 334.602 314.475 333.671C314.852 332.736 315.389 332.023 316.086 331.531C316.787 331.04 317.625 330.794 318.6 330.794C319.574 330.794 320.412 331.04 321.113 331.531C321.815 332.023 322.351 332.736 322.724 333.671C323.1 334.606 323.288 335.735 323.288 337.058C323.288 338.389 323.1 339.526 322.724 340.469C322.351 341.408 321.815 342.125 321.113 342.62C320.416 343.116 319.578 343.363 318.6 343.363ZM318.6 341.503C319.36 341.503 319.96 341.129 320.4 340.38C320.844 339.627 321.066 338.52 321.066 337.058C321.066 336.091 320.965 335.279 320.763 334.622C320.561 333.964 320.275 333.469 319.907 333.136C319.539 332.799 319.103 332.631 318.6 332.631C317.843 332.631 317.245 333.007 316.805 333.76C316.365 334.509 316.143 335.608 316.139 337.058C316.135 338.029 316.232 338.845 316.431 339.506C316.633 340.168 316.918 340.667 317.286 341.004C317.655 341.337 318.093 341.503 318.6 341.503ZM329.678 343.363C328.699 343.363 327.859 343.116 327.158 342.62C326.461 342.121 325.924 341.402 325.548 340.463C325.175 339.52 324.989 338.385 324.989 337.058C324.993 335.731 325.181 334.602 325.553 333.671C325.93 332.736 326.467 332.023 327.164 331.531C327.865 331.04 328.703 330.794 329.678 330.794C330.652 330.794 331.49 331.04 332.191 331.531C332.893 332.023 333.429 332.736 333.802 333.671C334.178 334.606 334.366 335.735 334.366 337.058C334.366 338.389 334.178 339.526 333.802 340.469C333.429 341.408 332.893 342.125 332.191 342.62C331.494 343.116 330.656 343.363 329.678 343.363ZM329.678 341.503C330.438 341.503 331.038 341.129 331.478 340.38C331.922 339.627 332.144 338.52 332.144 337.058C332.144 336.091 332.043 335.279 331.841 334.622C331.639 333.964 331.353 333.469 330.985 333.136C330.617 332.799 330.181 332.631 329.678 332.631C328.921 332.631 328.323 333.007 327.883 333.76C327.443 334.509 327.221 335.608 327.217 337.058C327.213 338.029 327.311 338.845 327.509 339.506C327.711 340.168 327.996 340.667 328.364 341.004C328.733 341.337 329.171 341.503 329.678 341.503ZM340.488 343.298C339.696 343.298 338.987 343.149 338.361 342.852C337.735 342.551 337.238 342.139 336.869 341.616C336.505 341.093 336.311 340.495 336.287 339.821H338.426C338.466 340.32 338.682 340.729 339.074 341.045C339.466 341.358 339.938 341.515 340.488 341.515C340.92 341.515 341.304 341.416 341.641 341.218C341.978 341.02 342.243 340.744 342.437 340.392C342.632 340.039 342.727 339.637 342.723 339.185C342.727 338.726 342.63 338.318 342.431 337.961C342.233 337.605 341.962 337.325 341.617 337.123C341.273 336.917 340.876 336.814 340.429 336.814C340.064 336.81 339.706 336.878 339.353 337.016C339.001 337.155 338.721 337.337 338.515 337.563L336.525 337.236L337.16 330.961H344.22V332.803H338.985L338.634 336.03H338.705C338.931 335.764 339.25 335.545 339.662 335.37C340.074 335.192 340.526 335.103 341.017 335.103C341.754 335.103 342.412 335.277 342.99 335.626C343.568 335.971 344.024 336.446 344.357 337.052C344.69 337.658 344.856 338.352 344.856 339.132C344.856 339.936 344.67 340.653 344.297 341.283C343.929 341.909 343.416 342.402 342.758 342.763C342.105 343.119 341.348 343.298 340.488 343.298ZM347.704 343.262C347.343 343.262 347.034 343.135 346.777 342.882C346.519 342.628 346.392 342.319 346.396 341.955C346.392 341.598 346.519 341.293 346.777 341.04C347.034 340.786 347.343 340.659 347.704 340.659C348.052 340.659 348.355 340.786 348.613 341.04C348.874 341.293 349.007 341.598 349.011 341.955C349.007 342.196 348.944 342.416 348.821 342.614C348.702 342.812 348.543 342.971 348.345 343.09C348.151 343.205 347.937 343.262 347.704 343.262ZM355.149 343.363C354.171 343.363 353.331 343.116 352.63 342.62C351.932 342.121 351.395 341.402 351.019 340.463C350.647 339.52 350.46 338.385 350.46 337.058C350.464 335.731 350.653 334.602 351.025 333.671C351.401 332.736 351.938 332.023 352.635 331.531C353.337 331.04 354.175 330.794 355.149 330.794C356.124 330.794 356.962 331.04 357.663 331.531C358.364 332.023 358.901 332.736 359.273 333.671C359.65 334.606 359.838 335.735 359.838 337.058C359.838 338.389 359.65 339.526 359.273 340.469C358.901 341.408 358.364 342.125 357.663 342.62C356.966 343.116 356.128 343.363 355.149 343.363ZM355.149 341.503C355.91 341.503 356.51 341.129 356.95 340.38C357.394 339.627 357.615 338.52 357.615 337.058C357.615 336.091 357.514 335.279 357.312 334.622C357.11 333.964 356.825 333.469 356.457 333.136C356.088 332.799 355.652 332.631 355.149 332.631C354.392 332.631 353.794 333.007 353.355 333.76C352.915 334.509 352.693 335.608 352.689 337.058C352.685 338.029 352.782 338.845 352.98 339.506C353.182 340.168 353.467 340.667 353.836 341.004C354.204 341.337 354.642 341.503 355.149 341.503ZM361.729 343.131V341.539L365.954 337.397C366.358 336.989 366.695 336.626 366.964 336.309C367.233 335.992 367.436 335.685 367.57 335.388C367.705 335.091 367.772 334.774 367.772 334.437C367.772 334.053 367.685 333.724 367.511 333.451C367.337 333.174 367.097 332.96 366.792 332.809C366.487 332.658 366.14 332.583 365.752 332.583C365.352 332.583 365.001 332.666 364.7 332.833C364.399 332.995 364.165 333.227 363.999 333.528C363.836 333.829 363.755 334.188 363.755 334.604H361.657C361.657 333.831 361.834 333.16 362.186 332.589C362.539 332.019 363.024 331.577 363.642 331.264C364.264 330.951 364.977 330.794 365.782 330.794C366.598 330.794 367.315 330.947 367.933 331.252C368.551 331.557 369.03 331.975 369.371 332.506C369.716 333.037 369.888 333.643 369.888 334.324C369.888 334.78 369.801 335.228 369.626 335.667C369.452 336.107 369.145 336.594 368.705 337.129C368.269 337.664 367.657 338.312 366.869 339.073L364.771 341.206V341.289H370.072V343.131H361.729Z" fill="black"/>
<path opacity="0.3" d="M170.625 292.839H439.491" stroke="#89949F" stroke-width="1.11563"/>
<path opacity="0.3" d="M268.8 293.397L268.8 362.566" stroke="#89949F" stroke-width="1.11563"/>
<defs>
<filter id="filter0_dd_623_45558" x="138.524" y="173.935" width="331.953" height="202.54" filterUnits="userSpaceOnUse" color-interpolation-filters="sRGB">
<feFlood flood-opacity="0" result="BackgroundImageFix"/>
<feColorMatrix in="SourceAlpha" type="matrix" values="0 0 0 0 0 0 0 0 0 0 0 0 0 0 0 0 0 0 127 0" result="hardAlpha"/>
<feOffset dy="0.773799"/>
<feGaussianBlur stdDeviation="1.5476"/>
<feColorMatrix type="matrix" values="0 0 0 0 0 0 0 0 0 0 0 0 0 0 0 0 0 0 0.1 0"/>
<feBlend mode="normal" in2="BackgroundImageFix" result="effect1_dropShadow_623_45558"/>
<feColorMatrix in="SourceAlpha" type="matrix" values="0 0 0 0 0 0 0 0 0 0 0 0 0 0 0 0 0 0 127 0" result="hardAlpha"/>
<feOffset/>
<feGaussianBlur stdDeviation="0.128967"/>
<feColorMatrix type="matrix" values="0 0 0 0 0 0 0 0 0 0 0 0 0 0 0 0 0 0 0.4 0"/>
<feBlend mode="normal" in2="effect1_dropShadow_623_45558" result="effect2_dropShadow_623_45558"/>
<feBlend mode="normal" in="SourceGraphic" in2="effect2_dropShadow_623_45558" result="shape"/>
</filter>
<filter id="filter1_dd_623_45558" x="112.613" y="83.6596" width="383.775" height="129.412" filterUnits="userSpaceOnUse" color-interpolation-filters="sRGB">
<feFlood flood-opacity="0" result="BackgroundImageFix"/>
<feColorMatrix in="SourceAlpha" type="matrix" values="0 0 0 0 0 0 0 0 0 0 0 0 0 0 0 0 0 0 127 0" result="hardAlpha"/>
<feOffset dy="3.34687"/>
<feGaussianBlur stdDeviation="6.69375"/>
<feColorMatrix type="matrix" values="0 0 0 0 0 0 0 0 0 0 0 0 0 0 0 0 0 0 0.1 0"/>
<feBlend mode="normal" in2="BackgroundImageFix" result="effect1_dropShadow_623_45558"/>
<feColorMatrix in="SourceAlpha" type="matrix" values="0 0 0 0 0 0 0 0 0 0 0 0 0 0 0 0 0 0 127 0" result="hardAlpha"/>
<feOffset/>
<feGaussianBlur stdDeviation="0.557813"/>
<feColorMatrix type="matrix" values="0 0 0 0 0 0 0 0 0 0 0 0 0 0 0 0 0 0 0.4 0"/>
<feBlend mode="normal" in2="effect1_dropShadow_623_45558" result="effect2_dropShadow_623_45558"/>
<feBlend mode="normal" in="SourceGraphic" in2="effect2_dropShadow_623_45558" result="shape"/>
</filter>
</defs>
</svg>
