<svg width="131" height="26" viewBox="0 0 131 26" fill="none" xmlns="http://www.w3.org/2000/svg">
<path fill-rule="evenodd" clip-rule="evenodd" d="M99.2376 17.1139C97.0253 17.1139 95.9981 15.1393 95.9981 13.3291C95.9981 11.519 97.0253 9.62659 99.2376 9.62659C101.45 9.62659 102.477 11.519 102.477 13.3291C102.477 15.1393 101.45 17.1139 99.2376 17.1139ZM99.2376 6.66456C95.3661 6.66456 92.5217 9.46203 92.5217 13.3291C92.5217 17.3608 95.3661 20.1583 99.2376 20.1583C103.03 20.1583 105.954 17.3608 105.954 13.3291C105.874 9.46203 103.109 6.66456 99.2376 6.66456ZM61.3914 6.99368H56.9668L52.5422 12.2595H52.4632V0H49.0657V19.7468H52.4632V13.4937H52.5422L57.1248 19.7468H61.6284L56.3347 12.7532L61.3914 6.99368ZM69.2925 17.1139C67.2382 17.1139 66.053 15.2216 66.053 13.4114C66.053 11.6012 67.3173 9.62659 69.2925 9.62659C71.5048 9.62659 72.611 11.519 72.611 13.3291C72.532 15.2216 71.3467 17.1139 69.2925 17.1139ZM69.9246 6.66456C68.3443 6.66456 67.2382 7.40507 66.132 8.39242H66.053V0H62.6556V19.7468H65.895V17.9367H65.974C66.7641 19.2532 68.2653 20.076 69.8455 20.076C73.3221 20.076 76.0084 17.1962 76.0084 13.3291C76.0084 9.46203 73.4011 6.66456 69.9246 6.66456ZM120.334 6.99368H115.909L111.484 12.2595H111.406V0H108.008V19.7468H111.406V13.4937H111.484L116.146 19.7468H120.649L115.356 12.7532L120.334 6.99368ZM126.812 11.9304C125.074 11.519 124.442 11.2722 124.442 10.5317C124.442 9.54431 125.706 9.29748 126.26 9.29748C127.287 9.29748 128.472 9.95571 128.946 10.5317L130.921 8.55697C129.973 7.32279 128.156 6.66456 126.26 6.66456C123.81 6.66456 121.203 7.98102 121.203 10.7785C121.203 13.2468 123.099 13.9873 124.916 14.3988C126.812 14.8924 127.523 15.2216 127.523 15.9621C127.523 17.1139 126.26 17.3608 125.785 17.3608C124.679 17.3608 123.415 16.7026 122.704 15.8798L120.649 18.019C121.755 19.3355 123.731 20.076 125.706 20.076C129.025 20.076 131 18.4304 131 15.7152C130.921 13.2468 128.472 12.3417 126.812 11.9304ZM84.3045 17.1139C82.0922 17.1139 81.0651 15.1393 81.0651 13.3291C81.0651 11.519 82.0922 9.62659 84.3045 9.62659C86.5168 9.62659 87.544 11.519 87.544 13.3291C87.4649 15.1393 86.5168 17.1139 84.3045 17.1139ZM84.3045 6.66456C80.433 6.66456 77.5886 9.46203 77.5886 13.3291C77.5886 17.3608 80.433 20.1583 84.3045 20.1583C88.097 20.1583 91.0205 17.3608 91.0205 13.3291C90.9415 9.46203 88.176 6.66456 84.3045 6.66456ZM6.79493 17.1139C4.66164 17.1139 3.47648 15.2216 3.47648 13.3291C3.47648 11.519 4.58262 9.62659 6.79493 9.62659C8.84921 9.62659 10.0343 11.6012 10.0343 13.4114C10.1133 15.2216 8.84921 17.1139 6.79493 17.1139ZM10.1133 8.63924C9.5603 8.0633 8.21713 6.66456 6.16285 6.66456C2.68637 6.66456 0 9.46203 0 13.3291C0 17.2785 2.44933 20.076 6.00483 20.076C7.58504 20.076 9.08624 19.1709 9.9554 18.1836H10.0343V26H13.4318V6.99368H10.1924V8.63924H10.1133ZM24.4144 13.9873C24.4144 15.4683 23.4662 17.1139 21.728 17.1139C20.3848 17.1139 19.6737 16.1266 19.6737 14.0696V6.99368H16.2762V14.8924C16.2762 17.5253 17.5404 20.076 20.9378 20.076C22.5181 20.076 23.8612 18.7595 24.5723 17.7722H24.6513V19.7468H27.8908V6.99368H24.4934V13.9873H24.4144ZM30.5772 19.7468H33.9746V6.99368H30.5772V19.7468ZM42.9029 17.1139C40.8486 17.1139 39.8215 15.2216 39.8215 13.3291C39.8215 11.519 40.9276 9.62659 42.8239 9.62659C43.6929 9.62659 44.7991 10.1203 45.2732 10.6962L47.4856 8.4747C46.4584 7.32279 44.7201 6.66456 42.8239 6.66456C39.0314 6.66456 36.2659 9.46203 36.2659 13.4114C36.2659 17.3608 39.0314 20.1583 42.9029 20.1583C44.7991 20.1583 46.4584 19.5823 47.4856 18.4304L45.3522 16.0443C44.7991 16.7026 43.772 17.1139 42.9029 17.1139Z" fill="black"/>
</svg>
