<svg width="83" height="24" viewBox="0 0 83 24" fill="none" xmlns="http://www.w3.org/2000/svg">
<path fill-rule="evenodd" clip-rule="evenodd" d="M72.6697 3.85742C69.4838 3.85742 66.5293 5.2217 66.5293 8.04449H78.7275C78.7275 5.24509 75.8551 3.85742 72.6697 3.85742ZM61.3642 9.41189C61.3642 4.09301 65.6139 0.868164 72.1062 0.868164C85.4627 0.868164 82.6471 10.8959 82.6471 10.8959H66.5221C66.5221 12.9924 68.9613 14.5249 72.58 14.5249C75.3204 14.5249 77.1609 13.9074 78.7478 12.8755L81.7389 15.0467C81.7389 15.0467 78.3868 17.9082 72.5063 17.9082C67.8641 17.9082 61.3642 16.0141 61.3642 9.41189ZM12.104 7.67914C12.6573 7.70433 13.1431 7.72645 13.5051 7.76009C18.1742 8.19358 20.4541 9.69441 20.4541 12.2154C20.4541 16.0183 16.2414 17.9083 10.4792 17.9083C6.75822 17.9083 2.98138 16.9659 0 14.8264L3.25044 12.4077C5.26447 13.7535 7.32312 14.5925 10.7586 14.5925C12.8665 14.5925 15.5897 13.8575 15.5897 12.5364C15.5897 11.1438 13.8789 11.0203 11.9751 10.8828L11.8593 10.8744C11.577 10.8539 11.2602 10.8352 10.9172 10.815C7.34723 10.6043 0.930237 10.2257 0.930237 5.89317C0.930237 2.79803 5.39783 0.868282 10.3636 0.868282C15.8141 0.868282 19.1434 2.6141 20.0375 3.15055L17.0172 5.39546C16.3283 5.04051 13.9587 3.97215 10.3636 3.97215C8.1139 3.97215 5.67395 4.60108 5.67395 5.76996C5.67395 7.38636 9.58684 7.56452 12.104 7.67914ZM35.2403 11.6215C35.2403 14.6242 32.4916 14.6159 29.8894 14.6081C29.7568 14.6077 29.6246 14.6073 29.4932 14.6073C26.7489 14.6073 24.9963 14.066 24.9963 12.651C24.9963 11.3325 26.4239 10.8956 29.373 10.8956H35.2403V11.6215ZM30.1674 0.868164C25.1396 0.868164 21.8804 2.76433 21.2741 3.14684L24.3217 5.40458C24.9285 5.0479 26.9967 3.9911 30.2054 3.9911C34.0563 3.9911 35.2059 5.12852 35.2059 6.41496V8.01691L28.3417 8.02006C25.8039 8.02006 20.8115 8.49366 20.8115 12.6315C20.8115 15.6711 23.1646 17.9082 28.7823 17.9082C31.6023 17.9082 33.7346 17.2311 35.2059 15.9254V17.5752H40.1889V6.65962C40.1889 2.84216 37.0291 0.868164 30.1674 0.868164ZM55.649 11.7311C55.7911 11.2661 55.8202 10.3529 55.8202 9.11949C55.8202 7.88611 55.7791 6.84864 55.6591 6.38067C55.4866 5.70425 54.3077 3.95417 50.6373 3.95417C47.6399 3.95417 45.9137 5.31275 45.6463 6.23652C45.512 6.70246 45.4041 7.28549 45.4041 9.11949C45.4041 10.3529 45.4708 10.9775 45.5588 11.4493C45.994 13.8044 49.8791 14.1089 50.6373 14.1089C53.6661 14.1089 55.3347 12.7584 55.649 11.7311ZM55.8202 2.9837V1.20789H61.0031V16.0024C61.0031 18.2598 59.7063 20.3874 57.6498 21.5194C55.5015 22.7013 53.0495 23.3472 50.0029 23.3296C47.1279 23.313 44.4636 22.4519 42.2355 21.1874L45.6725 18.7825C46.5955 19.2316 48.2153 19.8765 49.9052 19.8765C51.7682 19.8765 53.1105 19.504 54.1806 18.8959C55.2482 18.2895 55.8202 17.5224 55.8202 16.3543V15.3602C54.2144 16.6474 51.8944 17.3891 49.1606 17.3891C46.3392 17.3891 42.9614 16.2948 41.5702 14.3356C40.5752 12.9354 40.549 11.1145 40.549 9.11241C40.549 6.98738 40.6573 5.54961 40.9711 4.79672C41.8163 2.77086 44.3128 0.868164 49.1606 0.868164C51.9994 0.868164 54.0785 1.56759 55.8202 2.9837Z" fill="black"/>
</svg>
