<svg width="113" height="22" viewBox="0 0 113 22" fill="none" xmlns="http://www.w3.org/2000/svg">
<path d="M0 7.12849V11.3073H17.2555V7.12849H0ZM0 14.257V18.4358H17.2555V14.257H0ZM76.0048 17.8827H69.2234C68.0819 17.8827 67.4106 17.3296 67.4106 16.3464C67.4106 15.3631 68.0819 14.8101 69.2234 14.8101H76.0048V17.8827ZM72.8491 3.50279H63.785V7.68156H66.5377H72.5806C75.2662 7.68156 76.0048 8.60335 76.0048 10.8156H68.9548C64.792 10.8156 62.5092 12.7821 62.5092 16.4078C62.5092 20.0335 64.792 22 68.9548 22H80.839V10.6313C80.9061 5.83799 78.8918 3.50279 72.8491 3.50279ZM92.656 17.7598C89.5675 17.7598 88.426 16.4078 88.426 12.7207C88.426 9.03352 89.5675 7.68156 92.656 7.68156H99.1688V3.50279H92.1188C85.8747 3.50279 83.4575 6.32961 83.4575 12.7207C83.4575 19.0503 85.8747 21.9385 92.1188 21.9385H99.2359V17.7598H92.656ZM30.8853 17.7598C28.334 17.7598 27.1253 16.8994 26.7896 14.8101H37.5324V11.4916V11.4302V10.6927H26.7896C27.1253 8.5419 28.2668 7.62011 30.8853 7.62011H38.9423V3.50279H36.5253H30.3481C24.104 3.50279 21.6869 6.32961 21.6869 12.7207C21.6869 19.0503 24.104 21.9385 30.3481 21.9385H39.0095V17.7598H30.8853ZM108.233 17.7598C107.293 17.7598 106.689 17.1453 106.689 16.0391V7.68156H112.597V3.50279H106.689V0H101.787V16.4078C101.787 20.2179 103.734 21.9385 107.763 21.9385H113V17.7598H108.233ZM54.1836 12.4134L61.5693 3.50279H55.795L51.2965 8.97207L46.798 3.50279H40.8224L48.3423 12.5978L40.621 21.9385H46.3951L51.2965 16.0391L56.1979 21.9385H62.1735L54.1836 12.4134Z" fill="black"/>
</svg>
