<svg width="103" height="30" viewBox="0 0 103 30" fill="none" xmlns="http://www.w3.org/2000/svg">
<path d="M17.7348 28.0359C22.6468 27.1684 26.7055 26.4502 26.7506 26.4389L26.8351 26.422L22.1962 20.9044C19.6444 17.871 17.5573 15.3755 17.5573 15.3614C17.5573 15.3332 22.3455 2.14609 22.3736 2.09821C22.3821 2.08131 25.6408 7.7088 30.2741 15.7388C34.6116 23.2562 38.1858 29.4526 38.2196 29.5118L38.2788 29.616H23.5397L8.80063 29.6132L17.7319 28.0359H17.7348ZM74.2603 26.7009C72.0155 26.5572 70.7114 25.2785 70.365 22.8872C70.2721 22.2507 70.2721 22.2338 70.2636 18.1047L70.2552 14.108H72.2408L72.2493 17.9752C72.2577 21.4592 72.2606 21.8677 72.2944 22.1127C72.4295 23.1069 72.6999 23.7773 73.1562 24.2561C73.5224 24.6391 73.9533 24.8645 74.5476 24.9856C74.8293 25.0419 75.6263 25.0419 75.8798 24.9856C76.4826 24.8532 76.9642 24.5913 77.3923 24.166C77.8768 23.6815 78.2373 22.9915 78.4119 22.2141L78.4711 21.9521L78.4767 18.054L78.4823 14.1559H80.5103V26.4136H78.5049V25.4419C78.5049 24.78 78.4964 24.473 78.4823 24.4758C78.4711 24.4786 78.4176 24.5575 78.3669 24.6504C78.0204 25.2813 77.4458 25.8587 76.8149 26.2052C76.0573 26.622 75.2996 26.7685 74.2631 26.7037L74.2603 26.7009ZM97.035 26.6896C96.2436 26.6305 95.4099 26.3572 94.7283 25.9348C93.2918 25.0447 92.4412 23.5801 92.1934 21.5663C92.106 20.8678 92.0976 19.9327 92.168 19.3384C92.3285 18.0146 92.8496 16.7133 93.5904 15.7867C93.7791 15.5501 94.21 15.1164 94.4494 14.9276C95.0916 14.415 95.8436 14.0545 96.6407 13.8827C97.1054 13.7813 97.9251 13.7334 98.418 13.7785C99.6601 13.894 100.795 14.477 101.57 15.398C102.356 16.3331 102.786 17.6372 102.843 19.2454C102.851 19.4961 102.854 19.9383 102.848 20.2256L102.837 20.7495L98.4912 20.7551L94.1452 20.7607V20.9551C94.1452 21.5466 94.2889 22.2169 94.5367 22.7915C94.7508 23.2844 95.1198 23.8223 95.4211 24.0843C96.0408 24.6194 96.7956 24.9377 97.6237 25.0166C97.9307 25.0447 98.7137 25.0166 99.0629 24.9602C100.06 24.8081 101.009 24.4138 101.778 23.8392C101.868 23.7716 101.956 23.7097 101.97 23.6984C101.992 23.6843 101.998 23.8618 101.998 24.6025V25.5264L101.792 25.6531C100.925 26.1883 99.9305 26.5347 98.8799 26.6614C98.5672 26.7009 97.4153 26.7178 97.0378 26.6896H97.035ZM100.818 18.9074C100.818 17.9188 100.401 16.8204 99.8122 16.2542C99.3925 15.8515 98.8827 15.6036 98.2771 15.5107C97.9898 15.4656 97.3871 15.4825 97.0857 15.5445C96.4492 15.674 95.9197 15.9529 95.4606 16.4092C94.9761 16.888 94.6128 17.4682 94.3846 18.1301C94.303 18.3695 94.2072 18.7582 94.1762 18.9779L94.1621 19.0821H100.818V18.9103V18.9074ZM41.8642 26.3826C41.8699 26.3685 43.3457 22.4901 45.1427 17.7667L48.4127 9.17904H49.4633H50.5139L50.6012 9.40155C50.8688 10.086 57.1469 26.391 57.1469 26.3995C57.1469 26.4051 56.6427 26.4108 56.0287 26.4108H54.9105L54.0064 23.9998L53.1023 21.5888H49.4577H45.8131L45.7821 21.6705C45.7652 21.7156 45.3793 22.7999 44.923 24.0815L44.095 26.4108H42.974C42.0867 26.4108 41.8558 26.4051 41.8642 26.3854V26.3826ZM52.4376 19.7496C52.4376 19.7496 51.8292 18.0935 51.0828 16.0796C49.6886 12.3111 49.6126 12.0829 49.5028 11.4774C49.4521 11.1929 49.4239 11.1844 49.3957 11.4436C49.3732 11.6295 49.2802 12.0435 49.207 12.2716C49.1704 12.3843 48.5423 14.108 47.8128 16.0965C47.0833 18.085 46.4862 19.7242 46.4862 19.7327C46.4862 19.7411 47.8269 19.7524 49.4633 19.7524C51.0997 19.7524 52.4404 19.7496 52.4404 19.7468L52.4376 19.7496ZM57.8257 26.0953V25.7827L61.4562 20.7917L65.0868 15.8008L61.7999 15.7895L58.5129 15.7782L58.5073 14.9445L58.5017 14.1108H68.0132V14.6742L64.3826 19.6933C62.3857 22.4535 60.7521 24.718 60.7521 24.7236C60.7521 24.7293 62.366 24.7349 64.3404 24.7349H67.9287V26.4136H57.8285V26.1009L57.8257 26.0953ZM84.4732 26.3939C84.4732 26.3939 84.4591 23.6167 84.4591 20.2425V14.1052H86.4448V15.3698C86.4448 16.0655 86.4532 16.6345 86.4645 16.6345C86.4757 16.6345 86.5236 16.5218 86.5715 16.381C86.794 15.7444 87.1827 15.1473 87.6812 14.6742C88.1291 14.246 88.6445 13.9925 89.2501 13.894C89.419 13.8658 89.5655 13.8602 89.9035 13.8714C90.3316 13.8827 90.5541 13.9137 90.8132 13.9982L90.8949 14.0235V16.0853L90.6612 15.967C90.2471 15.7585 89.8387 15.6768 89.3458 15.7022C89.0247 15.7191 88.8163 15.7585 88.56 15.8571C88.0333 16.0543 87.608 16.4035 87.3094 16.8795C86.8785 17.5668 86.5715 18.454 86.4786 19.2651C86.4617 19.4116 86.4532 20.6002 86.4476 22.9436L86.4419 26.4051H85.4646C84.9266 26.4051 84.4816 26.3995 84.4732 26.391V26.3939ZM0.0439453 26.3544C0.0439453 26.3544 2.2296 22.5521 4.8997 17.9245L9.75545 9.50858L15.4139 4.75986C18.529 2.14328 21.0837 0.00269074 21.0949 -0.000125824C21.1062 -0.00294238 21.0639 0.0984538 21.0048 0.228016C20.9456 0.357577 18.1798 6.28925 14.8591 13.4095L8.82316 26.3544L4.43496 26.3601C2.02117 26.3629 0.0467619 26.3601 0.0467619 26.3516L0.0439453 26.3544Z" fill="black"/>
</svg>
