<svg width="83" height="41" viewBox="0 0 83 41" fill="none" xmlns="http://www.w3.org/2000/svg">
<path d="M0 0.355469V40.2018H41.8919L82.8947 0.360167H0V0.355469Z" fill="url(#paint0_linear_1488_48543)"/>
<path d="M47.336 19.8087H45.5834V13.4359H47.336C49.6753 13.4359 51.5382 14.2022 51.5382 16.5835C51.5382 19.0425 49.6753 19.8113 47.336 19.8113V19.8087ZM28.4734 24.3725C27.6036 24.3763 26.7403 24.2252 25.925 23.9254L28.4487 16.0047H28.5006L30.9737 23.9512C30.1714 24.2355 29.325 24.3776 28.4759 24.3776L28.4734 24.3725ZM46.8712 8.25712H38.9108V27.0963L31.9577 8.25712H25.0721L19.1342 24.0029C18.5059 20.0387 14.3777 18.6626 11.1296 17.6353C8.99019 16.9505 6.71058 15.9556 6.73135 14.8276C6.74952 13.9153 7.95554 13.0703 10.3325 13.1943C11.9345 13.2744 13.3612 13.4011 16.1549 14.7539L18.9304 9.96013C16.3691 8.65897 12.8211 7.84106 9.9158 7.83459H9.88983C6.50157 7.83459 3.68187 8.9329 1.93191 10.7328C0.722005 11.9733 0.039159 13.6272 0.0261771 15.3547C-0.0192594 17.7813 0.879085 19.5025 2.75886 20.8811C4.34913 22.0415 6.37824 22.787 8.16974 23.3491C10.3805 24.0249 12.185 24.6205 12.1643 25.8855C12.1513 26.347 11.964 26.7867 11.6398 27.1169C11.0894 27.6816 10.2442 27.8987 9.07327 27.9258C6.81703 27.971 5.14622 27.6221 2.48105 26.0548L0.0170898 30.908C2.76145 32.4586 5.86286 33.2803 9.01875 33.292H9.43417C12.2253 33.2403 14.4815 32.4456 16.2834 31.0049L16.5755 30.7542L15.7875 32.8733H23.0119L24.2257 29.1985C26.9519 30.0772 29.8858 30.0901 32.6211 29.2334L33.7894 32.8772H45.5769V25.2821H48.1512C54.3644 25.2821 58.0434 22.1345 58.0434 16.8523C58.0434 10.9732 54.4669 8.27262 46.8634 8.27262" fill="#D2FAE6"/>
<defs>
<linearGradient id="paint0_linear_1488_48543" x1="41.0311" y1="0.48249" x2="41.0311" y2="40.6976" gradientUnits="userSpaceOnUse">
<stop/>
</linearGradient>
</defs>
</svg>
