<svg width="93" height="30" viewBox="0 0 93 30" fill="none" xmlns="http://www.w3.org/2000/svg">
<path d="M12.0224 0.492462C12.1584 0.492462 12.3258 0.492462 12.5246 0.492462C12.5246 6.60895 12.5246 12.6941 12.5246 18.8315C9.98233 18.9883 7.56565 19.5738 5.28497 20.703C7.77488 19.8038 10.338 19.2602 13.0476 19.3856C13.0581 19.1661 13.079 18.9779 13.079 18.8001C13.079 17.1481 13.0686 15.4857 13.0895 13.8337C13.0895 13.5933 13.215 13.29 13.3824 13.1123C15.7573 10.6866 17.6299 7.95772 18.697 4.7165C18.833 4.29828 19.0632 4.3401 19.398 4.41329C19.398 9.85017 19.398 15.2766 19.398 20.6507C17.1487 20.5462 14.9203 20.358 12.7024 20.3475C10.5054 20.3371 8.30844 20.5253 6.16376 21.1212C10.746 20.358 15.3179 20.6507 19.942 21.4035C19.9525 21.1526 19.9734 20.954 19.9734 20.7553C19.9734 18.3192 19.9838 15.8726 19.9629 13.4364C19.9629 13.0077 20.0675 12.7464 20.4232 12.4954C21.9716 11.3871 23.3944 10.1325 24.5347 8.58505C24.6603 8.40731 24.9637 8.36548 25.2775 8.21911C25.2775 13.4782 25.2775 18.5805 25.2775 23.7142C17.0441 21.5604 8.80014 20.6298 0.462066 23.5574C0.493451 22.585 0.273753 21.7172 1.06885 20.8389C5.28497 16.2176 8.63275 11.0316 10.6937 5.08244C11.2273 3.60821 11.583 2.06079 12.0224 0.492462Z" fill="black"/>
<path d="M32.4548 2.62539C32.4548 5.60522 32.4548 8.54322 32.4548 11.5021C32.0677 11.5021 31.712 11.5021 31.3145 11.5021C31.3145 7.9368 31.3145 4.39237 31.3145 0.785211C31.8062 0.785211 32.2874 0.753844 32.7686 0.806122C32.8942 0.816578 33.0511 1.03614 33.1139 1.19298C34.3379 3.9637 35.5515 6.73441 36.8069 9.56787C36.9429 9.23329 37.058 8.93008 37.1835 8.63732C38.3134 6.12799 39.4328 3.61866 40.5836 1.13024C40.6569 0.973411 40.8975 0.837489 41.0753 0.806122C41.452 0.753844 41.8286 0.795667 42.2471 0.795667C42.2471 4.40283 42.2471 7.94726 42.2471 11.5231C41.86 11.5231 41.5043 11.5231 41.0963 11.5231C41.0963 8.55368 41.0963 5.59476 41.0963 2.57311C39.935 5.17654 38.8051 7.72769 37.6648 10.2788C37.5288 10.5821 37.4242 10.8957 37.2463 11.178C37.1522 11.3349 36.9429 11.5231 36.786 11.5231C36.6291 11.5231 36.3884 11.3453 36.3257 11.178C35.0807 8.38639 33.8462 5.5843 32.6117 2.78222C32.5803 2.71949 32.528 2.69858 32.4548 2.62539Z" fill="black"/>
<path d="M30.9062 15.3293C32.6115 15.4443 34.3168 15.4129 35.9593 15.6952C38.0831 16.0612 39.1397 17.4413 39.4745 19.8043C39.8511 22.4181 38.6585 24.7706 36.4092 25.6907C35.7605 25.9521 35.0387 26.1089 34.3377 26.1612C33.2079 26.2344 32.078 26.1821 30.9062 26.1821C30.9062 22.6063 30.9062 19.0619 30.9062 15.3293ZM32.1198 16.4689C32.1198 19.4279 32.1198 22.2195 32.1198 25.1366C33.1765 25.0634 34.2122 25.0843 35.2061 24.8961C36.5347 24.6347 37.4763 23.7983 37.9366 22.4913C38.2714 21.5294 38.2818 20.5466 38.104 19.5533C37.832 18.0477 36.9532 17.044 35.4362 16.7617C34.3691 16.563 33.2706 16.563 32.1198 16.4689Z" fill="black"/>
<path d="M64.625 26.1606C64.625 23.599 64.625 21.1001 64.625 18.5699C65.0121 18.5699 65.3678 18.5699 65.7653 18.5699C65.7863 18.9254 65.8072 19.26 65.8177 19.6259C67.8159 17.8276 69.2387 17.8903 70.4418 19.8246C70.5255 19.7305 70.5987 19.6468 70.6615 19.5632C71.352 18.5699 72.3249 18.2353 73.4862 18.3817C74.637 18.5281 75.3798 19.26 75.453 20.6506C75.5576 22.4698 75.4739 24.2995 75.4739 26.1606C75.0973 26.1606 74.7416 26.1606 74.3022 26.1606C74.3022 25.9515 74.3022 25.7529 74.3022 25.5437C74.2917 24.08 74.3127 22.6162 74.2708 21.1524C74.229 19.8559 73.4443 19.1868 72.2935 19.375C71.4775 19.5109 70.7347 20.4101 70.6929 21.4661C70.6406 22.8044 70.6719 24.1427 70.6615 25.4915C70.6615 25.7006 70.6615 25.8992 70.6615 26.1502C70.2535 26.1502 69.8978 26.1502 69.4793 26.1502C69.4688 25.9724 69.4584 25.7947 69.4584 25.6065C69.4584 24.2995 69.4688 22.9926 69.4479 21.6857C69.4479 21.3406 69.4061 20.9851 69.3328 20.6506C69.1864 20.0128 68.8202 19.5423 68.1506 19.3959C67.4497 19.2495 66.8324 19.4168 66.3721 19.9919C65.9223 20.546 65.7967 21.2047 65.7863 21.9052C65.7758 23.1285 65.7863 24.3414 65.7863 25.5647C65.7863 25.7529 65.7863 25.9411 65.7863 26.1606C65.3783 26.1606 65.0225 26.1606 64.625 26.1606Z" fill="black"/>
<path d="M59.2166 7.72651C59.2061 5.53084 60.2628 4.09843 62.2296 3.77431C65.138 3.29336 66.7072 4.98716 66.7491 7.45466C66.7595 8.30156 66.6759 9.12755 66.2678 9.88035C65.4623 11.3755 63.7779 12.0446 61.8948 11.6264C60.3988 11.2918 59.3212 9.9849 59.2166 8.35384C59.2061 8.14473 59.2166 7.92516 59.2166 7.72651ZM60.3778 7.82061C60.4615 8.20746 60.5138 8.71978 60.6812 9.17983C61.0683 10.2254 62.0308 10.7795 63.213 10.7063C64.2801 10.6436 65.1066 10.0267 65.3263 8.94981C65.4727 8.24928 65.4937 7.49649 65.389 6.78551C65.2007 5.4472 64.3638 4.74668 63.1188 4.70486C61.7902 4.66303 60.8695 5.36355 60.5452 6.6705C60.472 7.00508 60.4511 7.36056 60.3778 7.82061Z" fill="black"/>
<path d="M81.7001 7.69541C81.7001 9.67151 80.769 11.083 79.1369 11.564C76.4273 12.369 74.178 10.7066 74.1571 7.89407C74.1466 6.6394 74.3663 5.46838 75.3602 4.63194C76.6679 3.51319 78.1849 3.42955 79.7333 4.02552C81.0514 4.53784 81.7001 5.84478 81.7001 7.69541ZM80.497 7.69541C80.4551 7.35038 80.4237 6.97398 80.3505 6.59758C80.1099 5.48929 79.3252 4.78877 78.2686 4.71558C76.9713 4.62148 75.967 5.16517 75.6531 6.30482C75.4544 7.03671 75.3916 7.8627 75.4962 8.60504C75.6845 9.94335 76.7098 10.7171 78.007 10.7066C79.3252 10.6962 80.1308 9.97472 80.3923 8.55277C80.4447 8.29138 80.4551 8.01953 80.497 7.69541Z" fill="black"/>
<path d="M62.5749 26.1608C62.1564 26.1608 61.8112 26.1608 61.4241 26.1608C61.4032 25.8157 61.3927 25.4916 61.3718 25.1675C61.33 25.1361 61.2776 25.0943 61.2358 25.0629C61.1835 25.1675 61.1521 25.2825 61.0789 25.3766C60.2628 26.3594 58.9447 26.6731 57.7729 26.1712C56.9046 25.7948 56.5175 25.0943 56.5071 24.1847C56.4966 23.2018 56.8628 22.3654 57.8357 22.0204C58.6099 21.7485 59.4573 21.6544 60.2733 21.4871C60.3884 21.4662 60.5139 21.4662 60.6395 21.4453C61.4869 21.3094 61.5287 21.2153 61.2463 20.3684C61.0161 19.6992 60.5872 19.396 59.8862 19.3647C58.9342 19.3228 58.1182 19.6574 57.3649 20.2116C57.0825 19.1869 57.1975 18.9778 58.1286 18.6432C58.9656 18.34 59.8234 18.2459 60.7022 18.4237C61.7798 18.6432 62.3971 19.3228 62.5435 20.4207C62.5854 20.6925 62.5749 20.9748 62.5854 21.2571C62.5749 22.8673 62.5749 24.4774 62.5749 26.1608ZM61.2986 22.2818C60.4198 22.4386 59.5305 22.5536 58.6622 22.7732C57.9717 22.9509 57.6683 23.526 57.7625 24.216C57.8462 24.8538 58.3693 25.3139 59.0597 25.3557C60.6395 25.4602 61.717 24.0278 61.2986 22.2818Z" fill="black"/>
<path d="M47.4991 18.5284C47.4363 18.7479 47.3945 18.8943 47.3422 19.0407C46.2227 21.8637 45.1033 24.6971 43.963 27.5097C43.7747 27.9697 43.5236 28.4193 43.2307 28.8271C42.7494 29.4962 42.0799 29.8622 41.222 29.8308C40.5838 29.8099 40.5524 29.789 40.5733 29.1407C40.5733 29.0048 40.5943 28.8689 40.6152 28.733C41.9229 28.848 42.2159 28.618 42.8017 27.4365C43.2202 26.6 43.2411 25.8681 42.854 24.9899C42.0171 23.0765 41.3161 21.1213 40.5524 19.1766C40.4792 18.9884 40.4164 18.7897 40.3223 18.5284C40.657 18.5284 40.9395 18.5493 41.2115 18.5179C41.5463 18.4865 41.7032 18.6329 41.8078 18.9466C42.4565 20.8495 43.1365 22.7524 43.7956 24.6553C43.8165 24.7285 43.8479 24.8017 43.9107 24.969C44.3291 23.8398 44.7162 22.8047 45.0929 21.7696C45.4172 20.8913 45.7624 20.013 46.0449 19.1243C46.2018 18.6434 46.4424 18.4447 46.9341 18.5284C47.1015 18.5493 47.2794 18.5284 47.4991 18.5284Z" fill="black"/>
<path d="M49.9047 26.1395C48.6807 26.2754 48.6807 26.2754 48.6807 25.1776C48.6807 23.212 48.6807 21.2359 48.6807 19.2702C48.6807 18.507 48.6807 18.507 49.4444 18.5279C49.5699 18.5279 49.685 18.5488 49.8733 18.5593C49.8942 18.9043 49.9047 19.2389 49.9361 19.7198C50.1244 19.5107 50.229 19.3748 50.3546 19.2493C51.1915 18.3501 52.2377 18.1515 53.3676 18.4652C54.4451 18.7684 54.9578 19.6257 54.9996 20.6608C55.0728 22.4801 55.0205 24.3098 55.0205 26.1604C54.6648 26.1604 54.3091 26.1604 53.8802 26.1604C53.8802 25.9095 53.8802 25.6899 53.8802 25.4704C53.8593 24.0275 53.9116 22.5742 53.807 21.1418C53.7128 19.9498 53.1165 19.3957 52.1958 19.3643C51.1287 19.3225 50.2499 20.0021 50.0093 21.0686C49.9465 21.3404 49.9256 21.6227 49.9256 21.8946C49.9152 23.1179 49.9256 24.3307 49.9256 25.554C49.9047 25.7422 49.9047 25.9304 49.9047 26.1395Z" fill="black"/>
<path d="M83.7383 4.9044C83.2779 4.9044 82.8908 4.9044 82.4619 4.9044C82.4619 4.55937 82.4619 4.26661 82.4619 3.91112C82.8699 3.89021 83.2779 3.8693 83.7383 3.84839C83.7383 3.40926 83.7383 3.01195 83.7383 2.61464C83.7487 0.920839 84.7426 -0.0306148 86.427 0.000751777C86.9187 0.0112073 87.1384 0.16804 87.0651 0.669906C87.0442 0.805828 87.0442 0.941751 87.0442 1.06722C86.9919 1.08813 86.9605 1.11949 86.9396 1.11949C85.5691 0.805828 84.9518 1.28678 84.9518 2.69828C84.9518 3.06423 84.9518 3.41971 84.9518 3.84839C85.5482 3.84839 86.1026 3.84839 86.699 3.84839C86.699 4.21433 86.699 4.50709 86.699 4.88349C86.134 4.88349 85.5691 4.88349 84.9623 4.88349C84.9623 7.11052 84.9623 9.26436 84.9623 11.4705C84.5438 11.4705 84.1777 11.4705 83.7383 11.4705C83.7383 9.30618 83.7383 7.14189 83.7383 4.9044Z" fill="black"/>
<path d="M67.9081 9.99579C68.7241 10.5081 69.4983 10.78 70.3666 10.7172C70.5758 10.6963 70.7851 10.6649 70.9838 10.6127C71.4023 10.4977 71.6952 10.2467 71.7685 9.79713C71.8417 9.358 71.6638 9.00251 71.3081 8.76203C71.0675 8.59474 70.7955 8.47973 70.5235 8.35427C70.0318 8.12425 69.5296 7.93605 69.0484 7.69557C68.3161 7.32962 67.929 6.7232 67.9394 5.88676C67.9604 5.06077 68.3893 4.4648 69.1112 4.09886C70.1573 3.57608 71.2663 3.57608 72.3648 3.93157C72.5008 3.97339 72.6263 4.18251 72.6577 4.32888C72.71 4.59027 72.6682 4.87257 72.6682 5.03986C71.894 4.9353 71.1617 4.76802 70.4398 4.76802C70.0946 4.76802 69.6656 5.00849 69.4041 5.26988C68.9542 5.72993 69.1844 6.48272 69.854 6.82776C70.4398 7.13097 71.078 7.34008 71.6743 7.62238C72.4171 7.97787 72.982 8.47973 73.0239 9.38937C73.0657 10.2885 72.6786 10.9577 71.8835 11.3341C70.67 11.9196 69.425 11.8882 68.1801 11.4177C68.065 11.3759 67.9394 11.1773 67.929 11.0413C67.8871 10.7068 67.9081 10.3931 67.9081 9.99579Z" fill="black"/>
<path d="M87.2974 24.6342C88.1238 25.1674 88.9085 25.4184 89.7664 25.3452C89.9861 25.3243 90.2162 25.3034 90.4255 25.2302C91.2519 24.9374 91.4193 24.0069 90.7393 23.4527C90.5196 23.2645 90.2371 23.1391 89.9756 23.0241C89.442 22.7731 88.8666 22.5849 88.3645 22.2922C86.9626 21.4766 86.9417 19.6783 88.3331 18.8418C89.442 18.1831 90.6242 18.2145 91.8169 18.5909C91.911 18.6223 92.0261 18.7791 92.0366 18.8837C92.068 19.1869 92.047 19.5005 92.047 19.7201C91.3461 19.5946 90.6765 19.4587 89.9965 19.3751C89.7559 19.3437 89.4734 19.4378 89.2433 19.5319C88.4063 19.8978 88.3226 20.8493 89.0863 21.3616C89.3688 21.5498 89.714 21.6648 90.0279 21.8112C90.5301 22.0517 91.0636 22.2294 91.524 22.5326C92.7061 23.3064 92.7585 24.9479 91.5867 25.7425C90.3208 26.6103 88.9294 26.5371 87.538 26.0248C87.4334 25.983 87.3183 25.8052 87.3078 25.6693C87.2764 25.3765 87.2974 25.0629 87.2974 24.6342Z" fill="black"/>
<path d="M88.7614 4.89392C88.2906 4.89392 87.8931 4.89392 87.4746 4.89392C87.4746 4.54888 87.4746 4.25613 87.4746 3.94246C87.5792 3.92155 87.6629 3.90064 87.7466 3.89018C88.7614 3.84836 88.7614 3.84836 88.7614 2.85509C88.7614 1.85135 88.7614 1.85135 89.9645 1.64224C89.9645 2.25912 89.975 2.85508 89.9541 3.46151C89.9436 3.77517 90.0587 3.90064 90.3725 3.89018C90.8747 3.86927 91.3769 3.89018 91.9 3.89018C91.9 4.24567 91.9 4.52797 91.9 4.90437C91.2723 4.90437 90.6445 4.90437 89.9541 4.90437C89.9541 6.0022 89.9541 7.02685 89.9541 8.05149C89.9541 8.57427 89.9331 9.09704 89.9959 9.61982C90.1005 10.5399 90.6969 10.9059 91.5861 10.634C91.6803 10.6026 91.7849 10.5713 91.879 10.5399C91.9 10.5817 91.9314 10.6131 91.9314 10.634C91.9732 11.6064 91.8895 11.69 90.927 11.7318C89.6611 11.7841 88.9079 11.2091 88.8242 9.94394C88.73 8.57427 88.7719 7.19413 88.7614 5.82446C88.751 5.54216 88.7614 5.27031 88.7614 4.89392Z" fill="black"/>
<path d="M53.1468 5.17608C50.9394 4.50693 49.9665 4.67421 49.1714 5.82432C48.4181 6.93261 48.4286 8.76233 49.2132 9.76606C50.0292 10.8116 51.0859 10.9266 53.0945 10.1738C53.2515 11.3448 53.2305 11.3448 52.1007 11.6062C48.8994 12.3381 46.6605 9.78697 47.5602 6.49348C48.303 3.79595 50.9289 3.31499 52.8435 3.93187C52.969 3.97369 53.105 4.15144 53.1259 4.28736C53.1782 4.58011 53.1468 4.87287 53.1468 5.17608Z" fill="black"/>
<path d="M86.0723 19.8349C84.2415 19.103 83.1011 19.2599 82.2537 20.3368C81.4168 21.4033 81.3645 23.2643 82.1596 24.3622C82.9337 25.4495 84.0008 25.575 86.0618 24.8327C86.2292 25.8364 86.0932 26.0664 85.1098 26.2546C83.5824 26.5578 82.1491 26.3801 81.1552 25.0418C80.0881 23.6094 80.109 21.9992 80.81 20.4309C81.4691 18.9671 82.735 18.3398 84.3147 18.3293C84.5449 18.3293 84.775 18.3084 84.9947 18.3607C86.2711 18.6534 86.156 18.4966 86.0723 19.8349Z" fill="black"/>
<path d="M58.556 3.82816C58.556 4.24638 58.556 4.61233 58.556 4.84235C57.9806 4.91554 57.3843 4.86326 56.9135 5.09328C56.5264 5.28148 56.2125 5.77289 56.0347 6.20157C55.8359 6.68253 55.7941 7.24713 55.7732 7.78036C55.7313 8.82591 55.7627 9.87147 55.7627 10.9066C55.7627 11.0948 55.7627 11.283 55.7627 11.5025C55.3651 11.5025 55.0199 11.5025 54.6328 11.5025C54.6328 8.9932 54.6328 6.48387 54.6328 3.94317C54.9885 3.94317 55.3442 3.94317 55.7627 3.94317C55.7627 4.39276 55.7627 4.81098 55.7627 5.22921C56.4113 4.13137 57.2064 3.48313 58.556 3.82816Z" fill="black"/>
<path d="M45.729 11.5236C45.3419 11.5236 44.9862 11.5236 44.5991 11.5236C44.5991 8.98286 44.5991 6.47353 44.5991 3.93283C44.9862 3.93283 45.3419 3.93283 45.729 3.93283C45.729 6.46307 45.729 8.9724 45.729 11.5236Z" fill="black"/>
<path d="M78.7153 26.1926C78.4328 26.1926 78.1922 26.1926 77.9515 26.1926C77.8365 26.1926 77.7109 26.1717 77.5645 26.1508C77.5645 23.631 77.5645 21.1321 77.5645 18.581C77.9306 18.581 78.3072 18.581 78.7153 18.581C78.7153 21.0799 78.7153 23.5997 78.7153 26.1926Z" fill="black"/>
<path d="M78.9573 15.7366C78.9573 16.1653 78.5912 16.5312 78.1622 16.5312C77.7228 16.5417 77.3671 16.1862 77.3567 15.7471C77.3462 15.3079 77.6915 14.9734 78.1518 14.9734C78.6226 14.9734 78.9573 15.2975 78.9573 15.7366Z" fill="black"/>
<path d="M45.2078 1.89365C44.7789 1.91457 44.4023 1.54862 44.3918 1.11994C44.3814 0.680812 44.7371 0.314868 45.166 0.293957C45.5949 0.283501 45.9716 0.63899 45.9925 1.06767C46.0029 1.48589 45.6368 1.8832 45.2078 1.89365Z" fill="black"/>
</svg>
