<svg width="83" height="29" viewBox="0 0 83 29" fill="none" xmlns="http://www.w3.org/2000/svg">
<path d="M10.424 7.12335C4.66283 7.12335 0 11.7862 0 17.5474C0 23.3085 4.66283 27.9714 10.424 27.9714C16.1852 27.9714 20.848 23.3085 20.848 17.5474C20.848 11.7862 16.1852 7.12335 10.424 7.12335V7.12335ZM10.424 22.7697C7.54342 22.7697 5.20164 20.428 5.20164 17.5474C5.20164 14.6668 7.54342 12.325 10.424 12.325C13.3046 12.325 15.6464 14.6668 15.6464 17.5474C15.6464 20.428 13.3046 22.7697 10.424 22.7697Z" fill="black"/>
<path d="M28.7437 21.0495C28.7437 20.2206 29.7385 19.8268 30.3187 20.4071C32.9299 23.0597 37.2405 27.6189 37.2612 27.6396C37.3233 27.7018 37.3855 27.8054 37.6342 27.8883C37.7378 27.9298 37.9036 27.9298 38.0901 27.9298H42.7944C43.6441 27.9298 43.8928 26.9558 43.499 26.4584L35.7069 18.4798L35.2924 18.0653C34.4013 17.0084 34.5049 16.5939 35.5204 15.5163L41.696 8.6153C42.0898 8.11793 41.8411 7.16464 40.9707 7.16464H36.7016C36.5358 7.16464 36.4115 7.16464 36.2872 7.20609C36.0385 7.28899 35.9349 7.37188 35.8727 7.45478C35.852 7.4755 32.4326 11.1643 30.3187 13.4232C29.7385 14.0449 28.7023 13.6304 28.7023 12.7808V0.947539C28.7023 0.346552 28.2049 0.118591 27.8112 0.118591H24.3296C23.7286 0.118591 23.4385 0.512341 23.4385 0.864644V27.1008C23.4385 27.7018 23.9358 27.8676 24.3503 27.8676H27.8319C28.3707 27.8676 28.723 27.4739 28.723 27.0801V21.0495H28.7437V21.0495Z" fill="black"/>
<path d="M57.1764 26.9765L56.8034 23.4949C56.762 23.0183 56.306 22.6867 55.8294 22.7696C55.56 22.811 55.2906 22.8317 55.0212 22.8317C52.2442 22.8317 49.9853 20.6558 49.8195 17.8995V13.3403C49.8195 12.7808 50.234 12.3248 50.7936 12.3248H55.4564C55.788 12.3248 56.2853 12.0347 56.2853 11.4337V8.13866C56.2853 7.49622 55.8709 7.16464 55.4978 7.16464H50.7936C50.2547 7.16464 49.8195 6.77089 49.7988 6.23208V0.947539C49.7988 0.61596 49.5501 0.118591 48.9077 0.118591H45.4468C45.0116 0.118591 44.5972 0.387999 44.5972 0.926815V17.8995C44.7422 23.5364 49.3636 28.0334 55.0212 28.0334C55.4978 28.0334 55.9538 27.9919 56.4097 27.9298C56.907 27.8676 57.2386 27.4531 57.1764 26.9765Z" fill="black"/>
<path d="M82.2938 22.6039C79.351 22.6039 78.8951 21.5469 78.8951 17.5887V8.0351C78.8951 7.70353 78.6464 7.14399 77.9833 7.14399H74.5017C74.0665 7.14399 73.5899 7.49629 73.5899 8.0351V8.4703C72.077 7.59991 70.3155 7.10254 68.4504 7.10254C62.6892 7.10254 58.0264 11.7654 58.0264 17.5266C58.0264 23.2877 62.6892 27.9506 68.4504 27.9506C71.0408 27.9506 73.4033 26.9973 75.227 25.443C76.201 26.9351 77.776 27.9298 80.2422 27.9506C80.6566 27.9506 82.8948 28.0335 82.8948 26.9766V23.267C82.8948 22.9562 82.6461 22.6039 82.2938 22.6039V22.6039ZM68.4711 22.7696C65.5905 22.7696 63.2487 20.4279 63.2487 17.5473C63.2487 14.6667 65.5905 12.3249 68.4711 12.3249C71.3517 12.3249 73.6935 14.6667 73.6935 17.5473C73.6727 20.4279 71.331 22.7696 68.4711 22.7696Z" fill="black"/>
</svg>
