<svg width="139" height="19" viewBox="0 0 139 19" fill="none" xmlns="http://www.w3.org/2000/svg">
<path d="M11.6258 7.75231C11.6258 8.79377 11.4763 9.73106 11.1771 10.5642C10.878 11.3974 10.4496 12.1069 9.89215 12.6927C9.33465 13.2785 8.66158 13.7309 7.87293 14.0498C7.08428 14.3688 6.20726 14.5283 5.24182 14.5283H0V0.976364H5.24182C6.22085 0.976364 7.10467 1.13258 7.89333 1.44502C8.68197 1.75746 9.35165 2.20657 9.90236 2.7924C10.453 3.37821 10.878 4.09095 11.1771 4.93062C11.4763 5.7703 11.6258 6.71084 11.6258 7.75231ZM8.93353 7.73279C8.93353 7.23809 8.88254 6.73364 8.78055 6.21943C8.67858 5.70521 8.49161 5.23656 8.21967 4.81346C7.94772 4.39037 7.57378 4.04539 7.09788 3.77852C6.62197 3.51165 6.00329 3.37821 5.24182 3.37821H2.69229V12.1264H5.24182C6.04408 12.1264 6.68656 11.9735 7.16926 11.6676C7.65197 11.3616 8.0259 10.9873 8.29105 10.5447C8.5562 10.1021 8.72957 9.62692 8.81116 9.11922C8.89274 8.6115 8.93353 8.14937 8.93353 7.73279ZM22.2522 12.7708L22.1502 12.9075C21.6879 13.4934 21.0965 13.9489 20.3758 14.2744C19.6552 14.5998 18.8257 14.7626 17.8875 14.7626C17.1532 14.7626 16.4597 14.6259 15.807 14.3525C15.1543 14.0791 14.5832 13.7048 14.0937 13.2297C13.6042 12.7546 13.2167 12.198 12.9312 11.5602C12.6456 10.9222 12.5029 10.2388 12.5029 9.50977C12.5029 8.78075 12.6456 8.09403 12.9312 7.44964C13.2167 6.80524 13.6042 6.24546 14.0937 5.7703C14.5832 5.29513 15.1543 4.9176 15.807 4.63772C16.4597 4.35783 17.1532 4.21788 17.8875 4.21788C18.6625 4.21788 19.3933 4.35783 20.0801 4.63772C20.7667 4.9176 21.3548 5.32768 21.8443 5.86793C22.3338 6.40819 22.7009 7.06886 22.9457 7.84994C23.1904 8.63103 23.2652 9.51626 23.1701 10.5057H15.2359C15.4127 11.1305 15.7357 11.6187 16.2047 11.9702C16.6739 12.3217 17.2279 12.4974 17.8671 12.4974C18.275 12.4974 18.6659 12.4225 19.0398 12.2729C19.4138 12.1231 19.7163 11.879 19.9474 11.5406L22.2522 12.7708ZM20.4982 8.39671C20.3349 7.81089 20.0188 7.34549 19.5497 7.00051C19.0806 6.65553 18.5198 6.48303 17.8671 6.48303C17.2551 6.48303 16.7181 6.65553 16.2558 7.00051C15.7935 7.34549 15.4671 7.81089 15.2768 8.39671H20.4982ZM30.3088 14.5283H27.4124L23.4352 4.47174H26.2499L28.8606 11.9702L31.4917 4.47174H34.2656L30.3088 14.5283ZM44.2394 12.7708L44.1374 12.9075C43.6751 13.4934 43.0835 13.9489 42.3629 14.2744C41.6422 14.5998 40.8128 14.7626 39.8745 14.7626C39.1403 14.7626 38.4468 14.6259 37.7942 14.3525C37.1415 14.0791 36.5704 13.7048 36.0809 13.2297C35.5914 12.7546 35.2039 12.198 34.9183 11.5602C34.6328 10.9222 34.4899 10.2388 34.4899 9.50977C34.4899 8.78075 34.6328 8.09403 34.9183 7.44964C35.2039 6.80524 35.5914 6.24546 36.0809 5.7703C36.5704 5.29513 37.1415 4.9176 37.7942 4.63772C38.4468 4.35783 39.1403 4.21788 39.8745 4.21788C40.6496 4.21788 41.3805 4.35783 42.0671 4.63772C42.7539 4.9176 43.3419 5.32768 43.8315 5.86793C44.321 6.40819 44.6881 7.06886 44.9328 7.84994C45.1776 8.63103 45.2524 9.51626 45.1571 10.5057H37.2231C37.3998 11.1305 37.7228 11.6187 38.1919 11.9702C38.661 12.3217 39.2151 12.4974 39.8541 12.4974C40.262 12.4974 40.653 12.4225 41.0269 12.2729C41.4009 12.1231 41.7034 11.879 41.9346 11.5406L44.2394 12.7708ZM42.4853 8.39671C42.3221 7.81089 42.006 7.34549 41.5369 7.00051C41.0678 6.65553 40.5068 6.48303 39.8541 6.48303C39.2423 6.48303 38.7051 6.65553 38.2428 7.00051C37.7805 7.34549 37.4542 7.81089 37.2638 8.39671H42.4853ZM49.3791 14.5283H46.6868V0H49.3791V14.5283ZM56.1303 4.21788C56.8646 4.21788 57.5513 4.35132 58.1903 4.6182C58.8295 4.88507 59.3904 5.25608 59.873 5.73124C60.3557 6.20641 60.7365 6.76619 61.0152 7.41058C61.2939 8.05498 61.4333 8.75471 61.4333 9.50977C61.4333 10.2648 61.2939 10.9613 61.0152 11.5992C60.7365 12.2371 60.3557 12.7904 59.873 13.259C59.3904 13.7276 58.8295 14.0954 58.1903 14.3623C57.5513 14.6291 56.8646 14.7626 56.1303 14.7626C55.396 14.7626 54.7094 14.6291 54.0703 14.3623C53.4312 14.0954 52.8738 13.7276 52.3978 13.259C51.9219 12.7904 51.5445 12.2371 51.2658 11.5992C50.9871 10.9613 50.8477 10.2648 50.8477 9.50977C50.8477 8.75471 50.9871 8.05498 51.2658 7.41058C51.5445 6.76619 51.9219 6.20641 52.3978 5.73124C52.8738 5.25608 53.4312 4.88507 54.0703 4.6182C54.7094 4.35132 55.396 4.21788 56.1303 4.21788ZM56.1303 12.3998C56.4838 12.3998 56.8169 12.3314 57.1297 12.1948C57.4424 12.0581 57.7178 11.8628 57.9558 11.6089C58.1938 11.3551 58.3807 11.0524 58.5167 10.7009C58.6527 10.3494 58.7206 9.95889 58.7206 9.52929C58.7206 9.09969 58.6527 8.70264 58.5167 8.33813C58.3807 7.97362 58.1938 7.66118 57.9558 7.40082C57.7178 7.14046 57.4424 6.93868 57.1297 6.79547C56.8169 6.65228 56.4838 6.58067 56.1303 6.58067C55.7768 6.58067 55.4402 6.65228 55.1207 6.79547C54.8012 6.93868 54.5258 7.14046 54.2947 7.40082C54.0635 7.66118 53.88 7.97362 53.744 8.33813C53.608 8.70264 53.54 9.09969 53.54 9.52929C53.54 9.95889 53.608 10.3494 53.744 10.7009C53.88 11.0524 54.0635 11.3551 54.2947 11.6089C54.5258 11.8628 54.8012 12.0581 55.1207 12.1948C55.4402 12.3314 55.7768 12.3998 56.1303 12.3998ZM73.6507 9.47071C73.6507 10.2127 73.518 10.906 73.253 11.5503C72.9878 12.1948 72.6308 12.7546 72.1821 13.2297C71.7335 13.7048 71.2064 14.0759 70.6014 14.3428C69.9963 14.6097 69.3471 14.7431 68.6536 14.7431C68.0417 14.7431 67.4741 14.6389 66.9505 14.4306C66.427 14.2223 65.9681 13.9295 65.5737 13.5519V19H62.8611V4.47174H65.4514V5.52621C65.8593 5.12265 66.3352 4.80696 66.8791 4.57913C67.423 4.35131 68.0145 4.23741 68.6536 4.23741C69.3471 4.23741 69.9963 4.37084 70.6014 4.63772C71.2064 4.90459 71.7335 5.27235 72.1821 5.74101C72.6308 6.20966 72.9878 6.76293 73.253 7.40082C73.518 8.03871 73.6507 8.72868 73.6507 9.47071ZM70.9584 9.47071C70.9584 9.06715 70.887 8.69287 70.7442 8.3479C70.6014 8.00291 70.4077 7.70349 70.1629 7.44964C69.9182 7.19578 69.6326 6.99725 69.3062 6.85406C68.9799 6.71086 68.6331 6.63926 68.266 6.63926C67.899 6.63926 67.5522 6.71411 67.2259 6.86382C66.8995 7.01353 66.6139 7.21531 66.3692 7.46917C66.1244 7.72302 65.9307 8.02244 65.788 8.36742C65.6451 8.71239 65.5737 9.08017 65.5737 9.47071C65.5737 9.86126 65.6451 10.2323 65.788 10.5838C65.9307 10.9352 66.1244 11.2412 66.3692 11.5016C66.6139 11.7619 66.8995 11.967 67.2259 12.1166C67.5522 12.2664 67.899 12.3412 68.266 12.3412C68.6331 12.3412 68.9799 12.2696 69.3062 12.1264C69.6326 11.9832 69.9182 11.7815 70.1629 11.521C70.4077 11.2607 70.6014 10.958 70.7442 10.6131C70.887 10.2681 70.9584 9.88729 70.9584 9.47071ZM84.2159 12.7708L84.1139 12.9075C83.6516 13.4934 83.06 13.9489 82.3394 14.2744C81.6188 14.5998 80.7893 14.7626 79.8511 14.7626C79.1169 14.7626 78.4233 14.6259 77.7707 14.3525C77.118 14.0791 76.5469 13.7048 76.0574 13.2297C75.5679 12.7546 75.1804 12.198 74.8949 11.5602C74.6093 10.9222 74.4665 10.2388 74.4665 9.50977C74.4665 8.78075 74.6093 8.09403 74.8949 7.44964C75.1804 6.80524 75.5679 6.24546 76.0574 5.7703C76.5469 5.29513 77.118 4.9176 77.7707 4.63772C78.4233 4.35783 79.1169 4.21788 79.8511 4.21788C80.6261 4.21788 81.357 4.35783 82.0437 4.63772C82.7304 4.9176 83.3184 5.32768 83.808 5.86793C84.2975 6.40819 84.6646 7.06886 84.9093 7.84994C85.1541 8.63103 85.2289 9.51626 85.1337 10.5057H77.1996C77.3764 11.1305 77.6993 11.6187 78.1684 11.9702C78.6376 12.3217 79.1916 12.4974 79.8307 12.4974C80.2386 12.4974 80.6296 12.4225 81.0034 12.2729C81.3774 12.1231 81.68 11.879 81.9111 11.5406L84.2159 12.7708ZM82.4619 8.39671C82.2986 7.81089 81.9825 7.34549 81.5134 7.00051C81.0443 6.65553 80.4834 6.48303 79.8307 6.48303C79.2188 6.48303 78.6817 6.65553 78.2194 7.00051C77.7571 7.34549 77.4308 7.81089 77.2404 8.39671H82.4619ZM92.5579 6.77595C92.014 6.71087 91.5245 6.72062 91.0894 6.80524C90.6542 6.88986 90.2804 7.08839 89.9676 7.40082C89.6821 7.68722 89.4985 8.02244 89.4169 8.40647C89.3353 8.79051 89.2945 9.18431 89.2945 9.58787V14.5283H86.6023V4.47174H89.1722V5.46763C89.6073 4.95992 90.1206 4.60843 90.7121 4.41316C91.3036 4.21789 91.9189 4.17232 92.5579 4.27646V6.77595ZM102.613 11.814L101.655 14.5283H98.7992L103.735 0.976364H107.141L112.077 14.5283H109.222L108.263 11.814H102.613ZM105.428 3.84686L103.449 9.41212H107.406L105.428 3.84686ZM123.805 5.35046C123.805 5.97533 123.696 6.55464 123.479 7.08839C123.261 7.62213 122.951 8.08101 122.55 8.46505C122.15 8.84908 121.663 9.1485 121.092 9.3633C120.521 9.5781 119.889 9.68551 119.195 9.68551H115.871V14.5283H113.178V0.976364H119.134C119.868 0.976364 120.527 1.0805 121.112 1.28879C121.697 1.49709 122.187 1.79 122.581 2.16752C122.975 2.54505 123.277 3.00393 123.488 3.54419C123.699 4.08444 123.805 4.68653 123.805 5.35046ZM115.871 3.37821V7.32271H119.114C119.739 7.32271 120.229 7.16649 120.583 6.85406C120.936 6.54162 121.112 6.04042 121.112 5.35046C121.112 4.6605 120.936 4.1593 120.583 3.84686C120.229 3.53444 119.739 3.37821 119.114 3.37821H115.871ZM127.966 14.5283H125.274V0.976364H127.966V14.5283ZM139 11.3649C139 11.8596 138.885 12.3151 138.654 12.7318C138.422 13.1483 138.102 13.5063 137.695 13.8057C137.286 14.1052 136.801 14.3395 136.237 14.5087C135.672 14.6779 135.056 14.7626 134.39 14.7626C133.779 14.7626 133.204 14.6943 132.667 14.5576C132.13 14.4209 131.651 14.2223 131.229 13.962C130.807 13.7016 130.45 13.3859 130.158 13.0149C129.866 12.6438 129.652 12.224 129.516 11.7554L132.167 11.3062C132.262 11.5146 132.395 11.6903 132.565 11.8335C132.735 11.9767 132.922 12.0906 133.126 12.1752C133.33 12.2598 133.544 12.3217 133.768 12.3607C133.992 12.3998 134.2 12.4193 134.39 12.4193C134.934 12.4193 135.386 12.3444 135.747 12.1948C136.107 12.045 136.287 11.8205 136.287 11.521C136.287 11.3779 136.261 11.2541 136.206 11.15C136.152 11.0459 136.043 10.9548 135.88 10.8767C135.717 10.7986 135.491 10.7237 135.206 10.6521C134.921 10.5805 134.547 10.5122 134.085 10.4471C133.609 10.382 133.115 10.2941 132.606 10.1835C132.096 10.0728 131.623 9.90681 131.188 9.68551C130.753 9.4642 130.396 9.17454 130.117 8.81655C129.839 8.45854 129.699 7.99966 129.699 7.43987C129.699 7.04934 129.791 6.65878 129.975 6.26825C130.158 5.87769 130.434 5.53272 130.8 5.2333C131.168 4.93389 131.634 4.68979 132.197 4.50102C132.762 4.31226 133.426 4.21788 134.187 4.21788C135.288 4.21788 136.233 4.45872 137.022 4.94039C137.81 5.42206 138.341 6.07296 138.613 6.89311L135.92 7.32271C135.825 7.10141 135.632 6.91264 135.339 6.75642C135.047 6.60021 134.662 6.5221 134.187 6.5221C133.561 6.5221 133.113 6.60997 132.841 6.78572C132.569 6.96145 132.432 7.14046 132.432 7.32271C132.432 7.58308 132.616 7.77184 132.983 7.889C133.35 8.00616 133.861 8.11682 134.512 8.22096C135.166 8.32511 135.767 8.44553 136.318 8.58222C136.868 8.71891 137.342 8.90116 137.736 9.12897C138.13 9.3568 138.439 9.64971 138.663 10.0077C138.887 10.3657 139 10.8181 139 11.3649Z" fill="black"/>
</svg>
