
<svg width="49" height="32" viewBox="0 0 49 32" fill="none" xmlns="http://www.w3.org/2000/svg">
<g clip-path="url(#clip0)">
<path d="M44.4244 0H4.36974C4.20292 0 4.0358 0 3.86927 0.00097281C3.72851 0.0019751 3.58807 0.00353749 3.44763 0.00736977C3.14134 0.0156534 2.83243 0.0337241 2.52998 0.0880835C2.22269 0.143386 1.93674 0.233592 1.65778 0.375623C1.38354 0.515088 1.13246 0.697505 0.91488 0.915179C0.697203 1.13285 0.514786 1.38351 0.37535 1.65805C0.23329 1.93701 0.143025 2.22305 0.0881059 2.53057C0.0334547 2.83312 0.0152631 3.14197 0.00700895 3.44793C0.00323563 3.58837 0.00161722 3.72881 0.000700423 3.86922C-0.000272387 4.0361 5.18832e-05 4.20286 5.18832e-05 4.37004V26.8678C5.18832e-05 27.035 -0.000272387 27.2015 0.000700423 27.3687C0.00161722 27.5091 0.00323563 27.6495 0.00700895 27.79C0.0152631 28.0957 0.0334547 28.4045 0.0881059 28.707C0.143025 29.0146 0.23329 29.3005 0.37535 29.5795C0.514786 29.8541 0.697203 30.1051 0.91488 30.3224C1.13246 30.5404 1.38354 30.7228 1.65778 30.8619C1.93674 31.0043 2.22269 31.0946 2.52998 31.1499C2.83243 31.2039 3.14134 31.2223 3.44763 31.2305C3.58807 31.2337 3.72851 31.2356 3.86927 31.2363C4.0358 31.2376 4.20292 31.2376 4.36974 31.2376H44.4244C44.591 31.2376 44.7581 31.2376 44.9246 31.2363C45.065 31.2356 45.2055 31.2337 45.3465 31.2305C45.6522 31.2223 45.961 31.2039 46.2642 31.1499C46.5711 31.0946 46.8571 31.0043 47.1361 30.8619C47.4106 30.7228 47.661 30.5404 47.879 30.3224C48.0963 30.1051 48.2787 29.8541 48.4185 29.5795C48.5609 29.3005 48.6511 29.0146 48.7057 28.707C48.7604 28.4045 48.7782 28.0957 48.7864 27.79C48.7903 27.6495 48.7922 27.5091 48.7928 27.3687C48.7941 27.2015 48.7941 27.035 48.7941 26.8678V4.37004C48.7941 4.20286 48.7941 4.0361 48.7928 3.86922C48.7922 3.72881 48.7903 3.58837 48.7864 3.44793C48.7782 3.14197 48.7604 2.83312 48.7057 2.53057C48.6511 2.22305 48.5609 1.93701 48.4185 1.65805C48.2787 1.38351 48.0963 1.13285 47.879 0.915179C47.661 0.697505 47.4106 0.515088 47.1361 0.375623C46.8571 0.233592 46.5711 0.143386 46.2642 0.0880835C45.961 0.0337241 45.6522 0.0156534 45.3465 0.00736977C45.2055 0.00353749 45.065 0.0019751 44.9246 0.00097281C44.7581 0 44.591 0 44.4244 0Z" fill="black"/>
<path d="M44.4245 1.04053L44.9172 1.04147C45.0507 1.04241 45.1842 1.04386 45.3184 1.04751C45.5519 1.05382 45.825 1.06647 46.0796 1.1121C46.3009 1.15196 46.4865 1.21257 46.6646 1.30325C46.8404 1.3926 47.0015 1.50969 47.1422 1.65016C47.2834 1.79157 47.4006 1.95293 47.4912 2.13072C47.5814 2.30745 47.6416 2.49217 47.6812 2.71509C47.7267 2.9669 47.7393 3.24076 47.7457 3.47568C47.7493 3.60827 47.7511 3.74087 47.7517 3.87662C47.753 4.04079 47.753 4.20487 47.753 4.36937V26.8672C47.753 27.0317 47.753 27.1954 47.7517 27.3631C47.7511 27.4957 47.7493 27.6283 47.7457 27.7611C47.7393 27.9957 47.7267 28.2694 47.6806 28.5242C47.6416 28.744 47.5814 28.9288 47.4907 29.1064C47.4004 29.2837 47.2834 29.4449 47.1428 29.5855C47.0013 29.727 46.8408 29.8437 46.6628 29.9339C46.486 30.0241 46.3008 30.0847 46.0816 30.1241C45.8219 30.1704 45.5373 30.1831 45.323 30.1889C45.1882 30.192 45.054 30.1938 44.9165 30.1944C44.7527 30.1957 44.5883 30.1957 44.4245 30.1957H4.36977C4.36759 30.1957 4.36547 30.1957 4.36326 30.1957C4.2013 30.1957 4.03902 30.1957 3.87411 30.1944C3.73966 30.1938 3.6055 30.192 3.47579 30.189C3.25658 30.1831 2.97185 30.1704 2.71423 30.1244C2.49323 30.0847 2.30795 30.0241 2.12883 29.9327C1.95258 29.8433 1.79212 29.7267 1.65059 29.5849C1.51015 29.4447 1.39345 29.284 1.30321 29.1064C1.21289 28.929 1.15245 28.7437 1.11272 28.5212C1.06679 28.2669 1.05417 27.9943 1.04787 27.7613C1.04427 27.6279 1.04276 27.4946 1.04191 27.362L1.04126 26.9705L1.04129 26.8672V4.36937L1.04126 4.26601L1.04188 3.87539C1.04276 3.74199 1.04427 3.60863 1.04787 3.47535C1.05417 3.24214 1.06679 2.9694 1.1131 2.71299C1.15248 2.49252 1.21289 2.30721 1.30368 2.1289C1.39321 1.95264 1.51012 1.79174 1.6513 1.6506C1.79192 1.50992 1.9529 1.39298 2.13028 1.30277C2.30748 1.21254 2.49311 1.15196 2.71411 1.11219C2.96875 1.06644 3.24205 1.05382 3.47612 1.04748C3.60954 1.04386 3.74296 1.04241 3.87538 1.0415L4.36977 1.04053H44.4245" fill="white"/>
<path d="M13.3204 10.5064C13.7382 9.98384 14.0217 9.28219 13.9469 8.56519C13.3353 8.5956 12.589 8.96867 12.1569 9.49164C11.7689 9.93949 11.4256 10.6705 11.5151 11.3575C12.2016 11.417 12.8875 11.0143 13.3204 10.5064Z" fill="black"/>
<path d="M13.9392 11.491C12.9422 11.4316 12.0945 12.0569 11.6184 12.0569C11.142 12.0569 10.4129 11.521 9.62429 11.5354C8.5979 11.5505 7.64552 12.1308 7.12467 13.0538C6.05337 14.9003 6.84196 17.6392 7.88374 19.143C8.38966 19.887 8.99937 20.7062 9.80276 20.6768C10.5618 20.647 10.8594 20.1853 11.782 20.1853C12.704 20.1853 12.972 20.6768 13.7756 20.6619C14.6088 20.647 15.1298 19.9175 15.6357 19.1728C16.2161 18.3247 16.4537 17.5058 16.4686 17.4608C16.4536 17.4459 14.8618 16.8353 14.8471 15.0042C14.832 13.471 16.0968 12.7417 16.1563 12.6964C15.4421 11.6401 14.3261 11.521 13.9392 11.491Z" fill="black"/>
<path d="M22.6204 9.41675C24.7874 9.41675 26.2964 10.9105 26.2964 13.0852C26.2964 15.2678 24.7564 16.7693 22.5661 16.7693H20.1668V20.5848H18.4333V9.41675H22.6204V9.41675ZM20.1668 15.3142H22.1559C23.6651 15.3142 24.5241 14.5016 24.5241 13.093C24.5241 11.6845 23.6651 10.8796 22.1636 10.8796H20.1668V15.3142V15.3142Z" fill="black"/>
<path d="M26.7496 18.2703C26.7496 16.8462 27.8409 15.9717 29.7759 15.8633L32.0047 15.7318V15.1049C32.0047 14.1994 31.3932 13.6576 30.3718 13.6576C29.4042 13.6576 28.8005 14.1219 28.6536 14.8495H27.0748C27.1676 13.3789 28.4213 12.2954 30.4336 12.2954C32.4072 12.2954 33.6686 13.3402 33.6686 14.9733V20.5844H32.0665V19.2454H32.028C31.556 20.151 30.5265 20.7236 29.4585 20.7236C27.8642 20.7236 26.7496 19.733 26.7496 18.2703ZM32.0047 17.5351V16.8927L30.0001 17.0165C29.0017 17.0862 28.4368 17.5273 28.4368 18.2239C28.4368 18.9358 29.025 19.4003 29.9228 19.4003C31.0914 19.4003 32.0047 18.5953 32.0047 17.5351Z" fill="black"/>
<path d="M35.1812 23.5798V22.2253C35.3048 22.2562 35.5833 22.2562 35.7228 22.2562C36.4966 22.2562 36.9146 21.9312 37.1699 21.0954C37.1699 21.0799 37.3171 20.6001 37.3171 20.5923L34.3762 12.4426H36.187L38.2459 19.0677H38.2767L40.3356 12.4426H42.1001L39.0506 21.0101C38.3543 22.9838 37.5494 23.6184 35.8622 23.6184C35.7228 23.6184 35.3048 23.6029 35.1812 23.5798Z" fill="black"/>
</g>
<defs>
<clipPath id="clip0">
<rect width="48.7941" height="31.2376" fill="white"/>
</clipPath>
</defs>
</svg>