
<svg width="49" height="32" viewBox="0 0 49 32" fill="none" xmlns="http://www.w3.org/2000/svg">
<path d="M44.4244 0H4.36974C4.20292 0 4.0358 0 3.86927 0.00097281C3.72851 0.0019751 3.58807 0.00353749 3.44763 0.00736977C3.14134 0.0156534 2.83243 0.0337241 2.52998 0.0880835C2.22269 0.143386 1.93674 0.233592 1.65778 0.375623C1.38354 0.515088 1.13246 0.697505 0.91488 0.915179C0.697203 1.13285 0.514786 1.38351 0.37535 1.65805C0.23329 1.93701 0.143025 2.22305 0.0881059 2.53057C0.0334547 2.83312 0.0152631 3.14197 0.00700895 3.44793C0.00323563 3.58837 0.00161722 3.72881 0.000700423 3.86922C-0.000272387 4.0361 5.18832e-05 4.20286 5.18832e-05 4.37004V26.8678C5.18832e-05 27.035 -0.000272387 27.2015 0.000700423 27.3687C0.00161722 27.5091 0.00323563 27.6495 0.00700895 27.79C0.0152631 28.0957 0.0334547 28.4045 0.0881059 28.707C0.143025 29.0146 0.23329 29.3005 0.37535 29.5795C0.514786 29.8541 0.697203 30.1051 0.91488 30.3224C1.13246 30.5404 1.38354 30.7228 1.65778 30.8619C1.93674 31.0043 2.22269 31.0946 2.52998 31.1499C2.83243 31.2039 3.14134 31.2223 3.44763 31.2305C3.58807 31.2337 3.72851 31.2356 3.86927 31.2363C4.0358 31.2376 4.20292 31.2376 4.36974 31.2376H44.4244C44.591 31.2376 44.7581 31.2376 44.9246 31.2363C45.065 31.2356 45.2055 31.2337 45.3465 31.2305C45.6522 31.2223 45.961 31.2039 46.2642 31.1499C46.5711 31.0946 46.8571 31.0043 47.1361 30.8619C47.4106 30.7228 47.661 30.5404 47.879 30.3224C48.0963 30.1051 48.2787 29.8541 48.4185 29.5795C48.5609 29.3005 48.6511 29.0146 48.7057 28.707C48.7604 28.4045 48.7782 28.0957 48.7864 27.79C48.7903 27.6495 48.7922 27.5091 48.7928 27.3687C48.7941 27.2015 48.7941 27.035 48.7941 26.8678V4.37004C48.7941 4.20286 48.7941 4.0361 48.7928 3.86922C48.7922 3.72881 48.7903 3.58837 48.7864 3.44793C48.7782 3.14197 48.7604 2.83312 48.7057 2.53057C48.6511 2.22305 48.5609 1.93701 48.4185 1.65805C48.2787 1.38351 48.0963 1.13285 47.879 0.915179C47.661 0.697505 47.4106 0.515088 47.1361 0.375623C46.8571 0.233592 46.5711 0.143386 46.2642 0.0880835C45.961 0.0337241 45.6522 0.0156534 45.3465 0.00736977C45.2055 0.00353749 45.065 0.0019751 44.9246 0.00097281C44.7581 0 44.591 0 44.4244 0Z" fill="#151719"/>
<path d="M44.4243 1.04102L44.9171 1.04196C45.0506 1.0429 45.1841 1.04435 45.3183 1.048C45.5518 1.05431 45.8249 1.06696 46.0795 1.11259C46.3008 1.15245 46.4863 1.21306 46.6645 1.30373C46.8403 1.39308 47.0014 1.51018 47.1421 1.65064C47.2833 1.79205 47.4005 1.95342 47.4911 2.13121C47.5812 2.30794 47.6415 2.49265 47.6811 2.71558C47.7266 2.96739 47.7392 3.24125 47.7456 3.47617C47.7492 3.60876 47.7509 3.74136 47.7516 3.87711C47.7529 4.04128 47.7528 4.20536 47.7528 4.36985V26.8677C47.7528 27.0321 47.7529 27.1959 47.7516 27.3636C47.7509 27.4962 47.7492 27.6288 47.7456 27.7616C47.7392 27.9962 47.7266 28.2699 47.6805 28.5247C47.6415 28.7445 47.5813 28.9293 47.4906 29.1069C47.4003 29.2842 47.2833 29.4454 47.1427 29.586C47.0012 29.7275 46.8406 29.8442 46.6627 29.9344C46.4859 30.0246 46.3006 30.0852 46.0815 30.1246C45.8218 30.1709 45.5372 30.1836 45.3229 30.1894C45.1881 30.1925 45.0539 30.1943 44.9164 30.1949C44.7526 30.1962 44.5882 30.1962 44.4243 30.1962H4.36965C4.36747 30.1962 4.36535 30.1962 4.36314 30.1962C4.20118 30.1962 4.0389 30.1962 3.87399 30.1949C3.73954 30.1943 3.60538 30.1925 3.47567 30.1895C3.25646 30.1836 2.97172 30.1709 2.71411 30.1249C2.4931 30.0852 2.30783 30.0246 2.12871 29.9332C1.95246 29.8438 1.792 29.7272 1.65047 29.5854C1.51003 29.4452 1.39332 29.2845 1.30309 29.1069C1.21277 28.9295 1.15233 28.7442 1.1126 28.5217C1.06667 28.2674 1.05405 27.9948 1.04774 27.7618C1.04414 27.6284 1.04264 27.4951 1.04179 27.3625L1.04114 26.971L1.04117 26.8677V4.36985L1.04114 4.2665L1.04176 3.87587C1.04264 3.74248 1.04414 3.60912 1.04774 3.47584C1.05405 3.24263 1.06667 2.96989 1.11298 2.71348C1.15236 2.49301 1.21276 2.3077 1.30356 2.12938C1.39309 1.95313 1.51 1.79223 1.65118 1.65109C1.7918 1.51041 1.95278 1.39347 2.13015 1.30326C2.30735 1.21303 2.49298 1.15245 2.71399 1.11268C2.96863 1.06693 3.24193 1.05431 3.47599 1.04797C3.60942 1.04435 3.74284 1.0429 3.87526 1.04199L4.36965 1.04102H44.4243" fill="white"/>
<path d="M23.1813 15.6068V19.8263H21.8431V9.40698H25.3899C26.2889 9.40698 27.0553 9.70676 27.6828 10.3067C28.3242 10.9066 28.6441 11.6389 28.6441 12.5032C28.6441 13.3887 28.3234 14.1214 27.6828 14.714C27.0626 15.3066 26.2962 15.5995 25.3899 15.5995H23.1809V15.6068H23.1813ZM23.1813 10.6903V14.3238H25.418C25.9475 14.3238 26.3935 14.1425 26.7419 13.787C27.0972 13.4314 27.2783 12.9985 27.2783 12.5105C27.2783 12.0291 27.0972 11.6035 26.7419 11.248C26.3932 10.8785 25.954 10.6973 25.418 10.6973H23.1813V10.6903Z" fill="#5F6368"/>
<path d="M32.1428 12.4624C33.1322 12.4624 33.9128 12.7275 34.4842 13.2574C35.0556 13.7873 35.3413 14.5127 35.3413 15.4336V19.8274H34.0658V18.8372H34.0101C33.4598 19.6531 32.7208 20.0579 31.801 20.0579C31.0132 20.0579 30.3587 19.8274 29.8288 19.3606C29.2994 18.893 29.0344 18.3146 29.0344 17.6173C29.0344 16.8781 29.3132 16.2924 29.8707 15.8602C30.4283 15.4208 31.1742 15.2045 32.1009 15.2045C32.8954 15.2045 33.5506 15.3511 34.0589 15.644V15.3369C34.0589 14.8694 33.8778 14.4792 33.5087 14.1509C33.1395 13.8234 32.707 13.663 32.2124 13.663C31.4665 13.663 30.8743 13.9766 30.4425 14.6112L29.2647 13.8719C29.9134 12.9292 30.8747 12.4624 32.1428 12.4624ZM30.4148 17.6367C30.4148 17.9857 30.5613 18.2785 30.8605 18.5083C31.1531 18.7388 31.5018 18.8573 31.8991 18.8573C32.4632 18.8573 32.965 18.6483 33.4041 18.2293C33.8432 17.811 34.0662 17.3223 34.0662 16.7578C33.6482 16.4303 33.0695 16.2625 32.3243 16.2625C31.7806 16.2625 31.3277 16.3949 30.9658 16.6535C30.5959 16.9255 30.4148 17.2534 30.4148 17.6367Z" fill="#5F6368"/>
<path d="M42.617 12.6914L38.1574 22.9575H36.7774L38.4361 19.366L35.4954 12.6914H36.9519L39.0702 17.8106H39.0983L41.1601 12.6914H42.617V12.6914Z" fill="#5F6368"/>
<path d="M17.8644 14.7565C17.8644 14.32 17.8254 13.902 17.7529 13.5005H12.1447V15.8021L15.3748 15.8028C15.2436 16.5687 14.8223 17.2215 14.1762 17.6565V18.871C14.1762 19.0249 14.3009 19.1496 14.4546 19.1496H16.0989C17.2212 18.1095 17.8644 16.5723 17.8644 14.7565Z" fill="#4285F4"/>
<path d="M14.1765 17.6559C13.6412 18.0173 12.9521 18.2285 12.1456 18.2285C10.5881 18.2285 9.26679 17.1782 8.79379 15.7625H7.08908C6.9353 15.7625 6.8103 15.8872 6.8103 16.0414V17.3025C7.79275 19.254 9.81231 20.5928 12.1456 20.5928C13.7581 20.5928 15.113 20.0622 16.0991 19.1486L14.1765 17.6559Z" fill="#34A853"/>
<path d="M8.60737 14.6198C8.60737 14.2223 8.67369 13.8379 8.79431 13.4769V12.2161C8.79431 12.0619 8.66932 11.9368 8.51517 11.9368H6.81083C6.40451 12.7438 6.17603 13.6545 6.17603 14.6198C6.17603 15.5852 6.40524 16.4958 6.81083 17.3029L8.79431 15.7631C8.67332 15.4014 8.60737 15.0173 8.60737 14.6198Z" fill="#FBBC04"/>
<path d="M12.1456 11.0108C13.0257 11.0108 13.8139 11.3142 14.4363 11.9068L16.1403 10.203C15.1054 9.23838 13.7563 8.64648 12.1456 8.64648C9.81304 8.64648 7.79275 9.98564 6.8103 11.9367L8.79379 13.4765C9.26716 12.0611 10.5881 11.0108 12.1456 11.0108Z" fill="#EA4335"/>
</svg>
