
<svg width="26" height="26" viewBox="0 0 26 26" fill="none" xmlns="http://www.w3.org/2000/svg">
<rect x="0.0279541" width="25.958" height="25.958" rx="8" fill="#151719"/>
<path d="M21.5104 10.8078C21.5104 8.79218 19.9294 7.16101 17.9758 7.16101H8.93304C6.97948 7.16101 5.3985 8.79218 5.3985 10.8078V15.1506C5.3985 17.1662 6.97948 18.7974 8.93304 18.7974H17.9758C19.9294 18.7974 21.5104 17.1662 21.5104 15.1506V10.8078Z" fill="white"/>
<path d="M11.6641 11.0191V14.9388C11.6641 15.1444 11.8899 15.2789 12.0819 15.1877L15.9785 13.2163C16.1882 13.1173 16.1946 12.8328 15.9898 12.7246L12.0931 10.7763C11.9012 10.6743 11.6641 10.8072 11.6641 11.0191Z" fill="#151719"/>
</svg>
