
<svg width="26" height="23" viewBox="0 0 26 23" fill="none" xmlns="http://www.w3.org/2000/svg">
<path d="M24.0341 1H2.04696C1.46874 1 1 1.5138 1 2.1476V17.6902C1 18.324 1.46874 18.8378 2.04696 18.8378H24.0341C24.6123 18.8378 25.0811 18.324 25.0811 17.6902V2.1476C25.0811 1.5138 24.6123 1 24.0341 1Z" stroke="#151719" stroke-linecap="round" stroke-linejoin="round"/>
<path d="M6.81323 22.4053H19.269" stroke="#151719" stroke-linecap="round" stroke-linejoin="round"/>
<path d="M8.47339 22.4054V20.6216" stroke="#151719" stroke-linecap="round" stroke-linejoin="round"/>
<path d="M14.2869 4.56787H21.7604" stroke="#151719" stroke-linecap="round" stroke-linejoin="round"/>
<path d="M14.2869 7.24316H21.7604" stroke="#151719" stroke-linecap="round" stroke-linejoin="round"/>
<path d="M14.2869 9.91895H21.7604" stroke="#151719" stroke-linecap="round" stroke-linejoin="round"/>
<path d="M14.2869 12.5947H21.7604" stroke="#151719" stroke-linecap="round" stroke-linejoin="round"/>
<path d="M16.7774 20.6216V22.4054" stroke="#151719" stroke-linecap="round" stroke-linejoin="round"/>
<path d="M1.00012 15.2705H25.0812" stroke="#151719" stroke-linecap="round" stroke-linejoin="round"/>
<path d="M7.24402 12.5949V4.56787" stroke="#151719" stroke-linecap="round" stroke-linejoin="round"/>
<path d="M3.492 6.35165V4.56787H10.9654V6.35165" stroke="#151719" stroke-linecap="round" stroke-linejoin="round"/>
</svg>
