
<svg width="25" height="25" viewBox="0 0 25 25" fill="none" xmlns="http://www.w3.org/2000/svg">
<path d="M12.5977 19.8025L15.67 18.3103L14.7483 17.3886L11.0967 18.1347L9.01626 15.8261L11.9481 14.3075L12.7118 15.0712L13.7564 14.5357L12.9927 13.772L15.6086 12.4202L14.1777 10.9894L10.807 11.5863L9.29716 10.0765C9.07771 9.85703 8.72659 9.85703 8.50714 10.0765C8.28769 10.2959 8.28769 10.6471 8.50714 10.8665L9.46394 11.8233L5.97029 12.4466L4.90814 11.2615C4.37269 10.6734 1.66905 8.87389 1.10726 9.43569C0.545464 9.99748 2.34496 12.7011 2.93309 13.2366L4.11812 14.2987L3.49488 17.7924L2.53808 16.8356C2.31863 16.6161 1.96751 16.6161 1.74805 16.8356C1.5286 17.055 1.5286 17.4061 1.74805 17.6256L3.25788 19.1354L2.66097 22.5062L4.09179 23.937L5.4436 21.3211L6.20729 22.0848L6.74275 21.0402L5.97906 20.2766L7.49766 17.3447L9.80629 19.4251L9.06015 23.0767L9.98185 23.9984L11.4829 20.9261L12.3519 21.7074C12.6416 21.9707 13.0893 21.9619 13.3702 21.681C13.6511 21.4001 13.6598 20.9525 13.3965 20.6628L12.6153 19.7938L12.5977 19.8025Z" stroke="black" stroke-width="0.877803" stroke-linecap="round" stroke-linejoin="round"/>
<path d="M17.6448 18.3191C18.5489 16.5547 19.0493 14.6499 19.0493 12.6573H17.4429" stroke="black" stroke-width="0.877803" stroke-linecap="round" stroke-linejoin="round"/>
<path d="M12.3428 8.28575C10.3677 8.28575 8.52433 7.78541 6.90039 6.91638" stroke="black" stroke-width="0.877803" stroke-linecap="round" stroke-linejoin="round"/>
<path d="M17.6447 6.98662C16.486 4.73944 14.6602 2.72927 12.3428 1.09656V8.28576C14.2564 8.28576 16.0559 7.81175 17.6447 6.98662Z" stroke="black" stroke-width="0.877803" stroke-linecap="round" stroke-linejoin="round"/>
<path d="M12.3428 1.09659C12.3428 1.09659 12.2813 1.0527 12.255 1.02637C9.92003 2.65908 8.07665 4.66047 6.90039 6.90765C8.52433 7.77667 10.3765 8.27702 12.3428 8.27702V1.09659V1.09659Z" stroke="black" stroke-width="0.877803" stroke-linecap="round" stroke-linejoin="round"/>
<path d="M6.42655 7.93471C6.567 7.59236 6.73379 7.25002 6.90935 6.91645C5.78576 6.31955 4.77628 5.55586 3.90726 4.64294C3.32791 5.24863 2.81878 5.92454 2.37988 6.64434" stroke="black" stroke-width="0.877803" stroke-linecap="round" stroke-linejoin="round"/>
<path d="M18.1361 22.7696C21.6385 20.7594 23.9998 16.9849 23.9998 12.6573H19.0578C19.0578 14.6499 18.5575 16.5635 17.6533 18.3191C18.8296 18.9248 19.9005 19.7148 20.7959 20.6629C19.8917 19.7148 18.8296 18.9248 17.6533 18.3191" stroke="black" stroke-width="0.877803" stroke-linecap="round" stroke-linejoin="round"/>
<path d="M17.6447 6.98662C18.821 6.38093 19.8919 5.59091 20.7872 4.64288C19.8831 5.59091 18.821 6.38093 17.6447 6.98662ZM17.6447 6.98662C18.5488 8.751 19.0492 10.6558 19.0492 12.6484H23.9912C24 6.21415 18.7858 1 12.3428 1V1.09656C14.6602 2.72927 16.486 4.73944 17.6447 6.98662Z" stroke="black" stroke-width="0.877803" stroke-linecap="round" stroke-linejoin="round"/>
<path d="M19.0492 12.6485C19.0492 10.6558 18.5488 8.74224 17.6447 6.98663C16.0559 7.80299 14.2564 8.28578 12.3428 8.28578" stroke="black" stroke-width="0.877803" stroke-linecap="round" stroke-linejoin="round"/>
<path d="M12.2551 1.02633C12.2551 1.02633 12.3166 1.07022 12.3429 1.09656V1C9.01603 1 6.02272 2.40448 3.89844 4.64288C4.76746 5.5558 5.78571 6.31949 6.90052 6.91639C8.07678 4.66922 9.92017 2.65905 12.2551 1.03511V1.02633Z" stroke="black" stroke-width="0.877803" stroke-linecap="round" stroke-linejoin="round"/>
</svg>
