
<svg width="26" height="26" viewBox="0 0 26 26" fill="none" xmlns="http://www.w3.org/2000/svg">
<rect width="25.958" height="25.958" rx="8" fill="#151719"/>
<path d="M7.35775 10.3117H9.8909V18.4572H7.35775V10.3117V10.3117ZM8.6288 6.26587C9.44335 6.26587 10.0968 6.9193 10.0968 7.73384C10.0968 8.53943 9.44335 9.20181 8.6288 9.20181C7.81425 9.20181 7.16083 8.53943 7.16083 7.73384C7.16083 6.9193 7.81425 6.26587 8.6288 6.26587Z" fill="white"/>
<path d="M11.4842 10.3121H13.9099V11.422H13.9457C14.2858 10.7775 15.1093 10.1062 16.3446 10.1062C18.9046 10.1062 19.379 11.789 19.379 13.982V18.4486H16.8458V14.4922C16.8458 13.5434 16.8279 12.335 15.53 12.335C14.2142 12.335 14.0084 13.3644 14.0084 14.4296V18.4575H11.4752V10.3121H11.4842Z" fill="white"/>
</svg>