<svg width="26" height="24" viewBox="0 0 26 24" fill="none" xmlns="http://www.w3.org/2000/svg">
<path d="M21.8705 5.99463H22.6637C22.8791 5.99463 23.0857 6.10665 23.238 6.30604C23.3903 6.50543 23.4759 6.77583 23.4759 7.05781V17.6487" stroke="#151719" stroke-linecap="round" stroke-linejoin="round"/>
<path d="M2.60468 17.6487V7.05781C2.60468 6.77583 2.73303 6.50543 2.9615 6.30604C3.18997 6.10665 3.49985 5.99463 3.82296 5.99463H5.01278" stroke="#151719" stroke-linecap="round" stroke-linejoin="round"/>
<path d="M16.2511 20.8594H9.02679" stroke="#151719" stroke-linecap="round" stroke-linejoin="round"/>
<path d="M7.7728 19.1948H1C1 20.5267 2.14009 22.5246 3.60659 22.5246H22.4745C23.941 22.5246 25.0811 20.5267 25.0811 19.1948H18.3083" stroke="#151719" stroke-linecap="round" stroke-linejoin="round"/>
<path d="M21.067 1H8.16509C7.96194 0.999873 7.76075 1.04166 7.57303 1.12296C7.38532 1.20426 7.21476 1.32349 7.07111 1.47382C6.92746 1.62416 6.81353 1.80264 6.73584 1.99909C6.65815 2.19553 6.61823 2.40607 6.61835 2.61868V15.1513" stroke="#151719" stroke-linecap="round" stroke-linejoin="round"/>
<path d="M9.82959 8.4917H16.2512" stroke="#151719" stroke-linecap="round" stroke-linejoin="round"/>
<path d="M9.82959 10.9893H13.8431" stroke="#151719" stroke-linecap="round" stroke-linejoin="round"/>
<path d="M9.82959 5.99463H16.2512" stroke="#151719" stroke-linecap="round" stroke-linejoin="round"/>
<path d="M21.6026 3.6079H22.1309C22.2746 3.6079 22.4125 3.55325 22.5141 3.45596C22.6158 3.35867 22.6728 3.2267 22.6728 3.08911V2.57127C22.6636 2.15525 22.4859 1.75892 22.1774 1.46581C21.8688 1.1727 21.4534 1.0057 21.0188 1V1C20.1363 1 19.462 1.71625 19.462 2.57127V14.3189" stroke="#151719" stroke-linecap="round" stroke-linejoin="round"/>
</svg>
