<svg width="110" height="34" viewBox="0 0 110 34" fill="none" xmlns="http://www.w3.org/2000/svg">
<path d="M35.3951 16.6519C34.3985 16.2843 31.9928 15.786 31.9928 14.426C31.9928 12.8576 33.7695 12.1755 34.9744 12.1755C36.4407 12.1755 37.2248 13.1721 37.0411 14.6261C37.0182 14.7947 37.0337 14.9664 37.0864 15.1282C37.1391 15.29 37.2276 15.4379 37.3454 15.5608C37.4632 15.6837 37.6071 15.7784 37.7666 15.8379C37.9261 15.8974 38.0969 15.9202 38.2664 15.9045C39.3405 15.8555 39.6019 14.7527 39.3936 14.0216C39.0791 13.0005 38.1112 11.571 35.44 11.5097C32.3032 11.4035 30.2079 13.1067 30.2079 15.1203C30.2079 16.9787 31.8049 18.2326 34.3168 19.0454C36.3835 19.7274 37.8498 20.43 37.8498 21.496C37.8498 23.1297 36.0445 23.9466 34.8927 23.9466C33.2181 23.9466 31.9601 22.901 32.197 20.4136C32.2209 20.2452 32.2071 20.0735 32.1565 19.9111C32.1059 19.7486 32.0199 19.5995 31.9045 19.4744C31.7892 19.3493 31.6475 19.2514 31.4897 19.1878C31.3319 19.1242 31.1619 19.0965 30.9921 19.1066C30.1303 19.1066 29.5789 19.7356 29.7137 20.7812C30.0241 23.2931 32.4829 24.5225 34.3944 24.6001C37.8743 24.7308 39.655 23.0072 39.655 21.0181C39.655 18.8697 38.295 17.7506 35.391 16.6478" fill="#777777"/>
<path d="M67.3593 22.5661V6.40839C67.3593 4.60311 66.0237 4.57451 63.3811 4.6031V5.28111H64.7412V22.4844C64.7412 23.2196 64.5329 23.6362 64.1122 23.6362H61.8168V15.6309C61.8168 14.5077 61.2409 11.522 56.9523 11.522C54.9347 11.522 52.9211 12.1755 51.7979 14.1115C51.222 15.1081 51.561 16.5213 52.868 16.5213C53.056 16.5351 53.2448 16.5078 53.4212 16.4413C53.5976 16.3748 53.7575 16.2708 53.8896 16.1363C54.0217 16.0018 54.123 15.8402 54.1864 15.6626C54.2498 15.4851 54.2738 15.2958 54.2567 15.1081C54.2812 13.3028 55.3268 12.151 56.9238 12.1755C58.8352 12.2286 59.1497 13.7194 59.1497 16.362C55.7842 16.2354 52.8231 17.1788 51.7979 19.1843L51.7529 19.27C50.4296 22.1618 48.0443 23.6893 46.3657 23.6893C45.7806 23.6972 45.2031 23.5566 44.687 23.2809C43.5883 22.5498 43.0941 21.398 43.0941 18.5961V16.5049C43.0941 13.1558 43.8007 12.1592 45.2956 12.1592C46.6271 12.1592 47.9096 13.2334 47.7789 15.1448C47.7258 16.0597 48.3017 16.6356 48.9838 16.6356C49.1814 16.6438 49.3782 16.6062 49.559 16.5259C49.7398 16.4456 49.8996 16.3246 50.026 16.1725C50.1525 16.0204 50.2421 15.8412 50.288 15.6488C50.3339 15.4564 50.3349 15.256 50.2907 15.0632C49.8823 12.5799 47.3868 11.4567 45.1894 11.5057C42.3875 11.5833 40.2391 13.3886 40.2391 18.204C40.2391 22.3374 42.8817 24.6165 45.8143 24.6124C48.9797 24.6124 50.5481 23.6648 51.5324 22.0025C52.2267 24.3959 55.1797 24.5348 56.4622 24.5348C57.3526 24.5348 58.6596 24.2203 59.3907 23.2809C59.7991 24.5552 61.3961 24.3469 63.9652 24.3265H68.6091V23.6199H67.8249C67.4818 23.6199 67.3797 23.1216 67.3797 22.5498L67.3593 22.5661ZM59.1579 22.076C58.9361 22.6047 58.5604 23.0544 58.0797 23.3669C57.599 23.6794 57.0354 23.8401 56.4622 23.8282C55.4656 23.8282 54.1872 23.044 54.1872 20.8466C54.1872 18.1264 56.3846 16.9991 59.1579 16.9746V22.076Z" fill="#777777"/>
<path d="M87.8546 11.522C87.3122 11.5383 86.7789 11.6652 86.2873 11.8949C85.7957 12.1245 85.3561 12.4521 84.9956 12.8576V4.17425C84.9956 2.39755 83.7703 2.39755 81.046 2.42206V3.10006H82.4061V23.6362H80.0739V15.6309C80.0739 14.5077 79.498 11.522 75.2054 11.522C73.1918 11.522 71.1782 12.1755 70.0509 14.1115C69.475 15.1081 69.8181 16.5213 71.1251 16.5213C71.3131 16.5351 71.5019 16.5078 71.6783 16.4413C71.8547 16.3748 72.0146 16.2707 72.1467 16.1363C72.2788 16.0018 72.3801 15.8402 72.4435 15.6626C72.5069 15.4851 72.5309 15.2958 72.5138 15.1081C72.5383 13.3028 73.5839 12.151 75.1808 12.1755C77.0882 12.2286 77.4027 13.7194 77.4027 16.362C73.2163 16.2068 69.6425 17.8038 69.6425 20.8548C69.6425 24.3592 73.253 24.5307 74.7193 24.5307C75.6056 24.5307 76.9167 24.2162 77.6478 23.2768C78.0562 24.3224 78.5219 24.3306 81.3646 24.3224H82.6307C83.6804 24.3224 84.7505 24.3755 84.9098 23.6158C85.7269 24.2209 86.7195 24.5422 87.7362 24.5307C90.3257 24.5307 93.1765 22.8561 93.1765 18.0937C93.1765 13.6459 90.4809 11.5016 87.8669 11.5016L87.8546 11.522ZM77.4027 22.0923C77.1809 22.621 76.8052 23.0708 76.3245 23.3832C75.8438 23.6957 75.2803 23.8564 74.7071 23.8445C73.7146 23.8445 72.4321 23.0603 72.4321 20.8629C72.4321 18.1428 74.6295 17.0155 77.4027 16.991V22.0923ZM90.3175 19.5805C90.3175 22.513 89.0595 23.53 87.5156 23.6117C86.76 23.6362 85.9717 23.3993 84.9792 22.513V13.9359C85.9717 12.682 86.9928 12.3675 87.8056 12.3675C89.4802 12.392 90.3175 13.9604 90.3175 16.8153V19.56V19.5805Z" fill="#777777"/>
<path d="M98.6576 23.6362H97.8735C97.5344 23.6362 97.4283 23.1379 97.4283 22.5661V1.80934C97.4283 0.00405022 96.0927 -0.0204551 93.4542 0.00405109V0.686139H94.8143V22.4844C94.8143 23.2196 94.6019 23.6362 94.1853 23.6362H93.3684V24.3428H98.6576V23.6362Z" fill="#777777"/>
<path d="M104.551 24.6042C107.002 24.6042 108.583 23.6362 109.551 21.3612H108.583C108.296 22.0573 107.804 22.65 107.174 23.0612C106.543 23.4724 105.802 23.6829 105.05 23.6648C104.467 23.6652 103.892 23.5251 103.375 23.2564C102.432 22.6805 101.843 21.5695 101.843 19.2945V18.2204H107.835C108.13 18.2411 108.426 18.1975 108.703 18.0925C108.98 17.9875 109.23 17.8237 109.437 17.6124C109.644 17.4011 109.803 17.1473 109.902 16.8687C110.001 16.59 110.039 16.2931 110.012 15.9985C109.906 13.748 108.154 11.5057 104.988 11.5057C100.863 11.522 98.9844 15.1612 98.9844 18.1877C98.9844 22.3211 101.782 24.596 104.556 24.596L104.551 24.6042ZM101.843 15.9454C101.843 13.4049 103.179 12.1755 104.956 12.1755C106.732 12.1755 107.284 14.2422 107.284 15.5533C107.284 16.3375 106.998 17.4893 105.899 17.4893H101.843V15.9454Z" fill="#777777"/>
<path d="M75.0174 32.1358C74.762 32.1555 74.5054 32.1202 74.2647 32.0324C74.0241 31.9446 73.8051 31.8063 73.6224 31.6267C73.4397 31.4471 73.2977 31.2305 73.2058 30.9914C73.1139 30.7523 73.0742 30.4963 73.0896 30.2406C73.0743 29.9827 73.1136 29.7245 73.2049 29.4828C73.2961 29.2411 73.4373 29.0214 73.6192 28.8379C73.8011 28.6545 74.0197 28.5114 74.2606 28.4181C74.5015 28.3248 74.7594 28.2834 75.0174 28.2965C75.5191 28.2889 76.0035 28.4797 76.3652 28.8274L77.0718 28.1453C76.8044 27.8756 76.4864 27.6613 76.1359 27.5148C75.7855 27.3683 75.4095 27.2925 75.0297 27.2917C74.6358 27.2701 74.2418 27.3314 73.8731 27.4717C73.5044 27.612 73.1693 27.8281 72.8894 28.106C72.6095 28.384 72.3911 28.7176 72.2483 29.0853C72.1055 29.453 72.0414 29.8466 72.0603 30.2406C72.0603 31.6946 72.9507 33.1283 75.0297 33.1283C75.4201 33.1396 75.809 33.0732 76.1736 32.9329C76.5382 32.7927 76.8713 32.5814 77.1535 32.3114L76.4347 31.5844C76.0565 31.9468 75.5535 32.15 75.0297 32.1521" fill="#777777"/>
<path d="M80.2209 27.402L77.709 32.9976H78.8527L79.3346 31.9438H82.259L82.7287 32.9976H83.8723L81.3645 27.402H80.2209ZM79.7553 30.9595L80.7968 28.5783L81.8302 30.9595H79.7553Z" fill="#777777"/>
<path d="M87.7116 27.3938H85.0731V32.9894H86.1269V31.3556H87.7116C87.979 31.3678 88.2462 31.3256 88.4968 31.2316C88.7475 31.1377 88.9765 30.9939 89.1701 30.8089C89.3636 30.624 89.5177 30.4017 89.6229 30.1555C89.7282 29.9094 89.7824 29.6445 89.7824 29.3768C89.7824 29.109 89.7282 28.8441 89.6229 28.598C89.5177 28.3518 89.3636 28.1295 89.1701 27.9446C88.9765 27.7596 88.7475 27.6158 88.4968 27.5219C88.2462 27.4279 87.979 27.3857 87.7116 27.3979V27.3938ZM87.7116 30.3876H86.1269V28.3986H87.7116C87.847 28.3899 87.9828 28.409 88.1105 28.4549C88.2382 28.5007 88.3552 28.5722 88.4542 28.6651C88.5532 28.7579 88.6321 28.87 88.686 28.9945C88.7399 29.1191 88.7677 29.2533 88.7677 29.389C88.7677 29.5247 88.7399 29.659 88.686 29.7835C88.6321 29.908 88.5532 30.0201 88.4542 30.113C88.3552 30.2058 88.2382 30.2773 88.1105 30.3232C87.9828 30.369 87.847 30.3882 87.7116 30.3795" fill="#777777"/>
<path d="M92.2126 27.402H91.163V32.9976H92.2126V27.402Z" fill="#777777"/>
<path d="M93.6993 28.3618H95.476V33.0016H96.5298V28.3618H98.3024V27.402H93.6993V28.3618Z" fill="#777777"/>
<path d="M101.067 27.402L98.576 32.9976H99.7196L100.197 31.9438H103.126L103.596 32.9976H104.747L102.236 27.402H101.067ZM100.618 30.9595L101.66 28.5783L102.697 30.9595H100.618Z" fill="#777777"/>
<path d="M107.002 32.0255V27.402H105.944V33.0016H109.877V32.0255H107.002Z" fill="#777777"/>
<path d="M-5.03441e-05 22.027C-0.00329524 22.3265 0.0529723 22.6237 0.165488 22.9014C0.278003 23.179 0.444526 23.4315 0.655398 23.6443C0.86627 23.8571 1.11729 24.0258 1.3939 24.1408C1.67051 24.2558 1.96721 24.3148 2.26677 24.3142H9.30412L-5.03441e-05 14.9896V22.027Z" fill="#777777"/>
<path d="M11.9223 3.15314L21.1407 12.3715V5.42813C21.1412 5.13029 21.083 4.83528 20.9692 4.56002C20.8555 4.28475 20.6886 4.03464 20.478 3.82404C20.2674 3.61344 20.0173 3.44649 19.742 3.33276C19.4667 3.21903 19.1717 3.16077 18.8739 3.1613L11.9223 3.15314Z" fill="#777777"/>
<path d="M4.48462 3.15314C3.29305 3.15314 2.15029 3.62648 1.30773 4.46905C0.465169 5.31161 -0.00817846 6.45437 -0.00817846 7.64593C-0.0085752 8.83565 0.462927 9.97695 1.3029 10.8195L13.4743 22.9909C13.8915 23.41 14.3872 23.7426 14.9332 23.9697C15.4792 24.1968 16.0647 24.3139 16.656 24.3142C17.8476 24.3142 18.9903 23.8409 19.8329 22.9983C20.6755 22.1557 21.1488 21.013 21.1488 19.8214V19.7397C21.1495 19.148 21.0334 18.5619 20.807 18.0152C20.5806 17.4685 20.2484 16.9719 19.8296 16.5539L7.73985 4.46422C6.89732 3.62424 5.75602 3.15274 4.56631 3.15314H4.48462Z" fill="#777777"/>
<path d="M70.5287 32.4829C70.5292 32.5653 70.5135 32.647 70.4823 32.7233C70.4511 32.7996 70.4052 32.869 70.3471 32.9275C70.289 32.9859 70.2199 33.0323 70.1439 33.064C70.0678 33.0956 69.9862 33.1119 69.9038 33.1119C69.8212 33.1119 69.7394 33.0957 69.6631 33.064C69.5868 33.0324 69.5174 32.9861 69.459 32.9277C69.4006 32.8693 69.3543 32.8 69.3227 32.7236C69.2911 32.6473 69.2748 32.5655 69.2748 32.4829C69.2759 32.3168 69.3426 32.1579 69.4604 32.0408C69.5783 31.9237 69.7377 31.858 69.9038 31.858C69.9858 31.858 70.0671 31.8742 70.1429 31.9056C70.2187 31.937 70.2876 31.983 70.3456 32.0411C70.4037 32.0991 70.4497 32.168 70.4811 32.2438C70.5125 32.3196 70.5287 32.4009 70.5287 32.4829Z" fill="#777777"/>
</svg>
