<svg width="117" height="20" viewBox="0 0 117 20" fill="none" xmlns="http://www.w3.org/2000/svg">
<path d="M37.0166 16.1608C36.2563 16.2112 34.5709 16.3075 33.4855 16.312C32.3909 16.312 31.3833 16.2754 30.9665 16.2341C29.1071 16.0416 28.4842 15.2943 28.4842 13.4008V2.46652C28.4842 1.46708 28.301 1.1324 27.1469 1.1324H23.3089V14.4003C23.3089 18.2284 24.2799 19.8009 31.0169 19.8009C36.2197 19.8009 38.2028 19.5396 38.2028 19.5396C38.2028 19.5396 38.2165 17.7379 38.2165 17.0502C38.2119 16.1332 38.1112 16.0874 37.0166 16.1608ZM74.4939 4.72215H69.74C69.3232 4.72215 69.0118 4.86427 68.7782 5.22187L66.3646 8.80704H66.2684L63.9373 5.22187C63.7083 4.86886 63.4106 4.72215 62.9938 4.72215H57.7498L62.9663 11.9796L57.1498 19.4571H61.9221C62.3709 19.4571 62.6961 19.2508 62.8885 18.9528L65.783 14.6295H65.902L68.6133 18.7877C68.8973 19.2875 69.2225 19.4571 69.685 19.4571H75.071L69.1721 11.677L74.4939 4.72215ZM54.095 4.72215H50.1609V16.555C49.4327 16.8164 48.1778 16.8989 47.3351 16.8989C45.4161 16.8989 44.5734 16.1745 44.5734 14.9642V5.50612C44.5734 5.07058 44.2299 4.72215 43.804 4.72215H39.8699V14.6616C39.8699 18.2284 42.3934 19.7964 47.4313 19.7964C50.4723 19.7964 53.4081 19.3012 54.8736 18.641V5.50612C54.8691 5.066 54.5256 4.72215 54.095 4.72215ZM99.285 0H95.6394V3.19547H100.352V1.10948C100.352 0.119199 100.187 0 99.285 0ZM116.675 4.63963C115.548 4.48833 114 4.38289 112.214 4.38289C109.613 4.39664 106.796 4.62587 105.056 5.25855V19.4525H109.764V9.43513C109.764 8.45861 110.318 7.75716 111.275 7.61504C111.939 7.51418 112.915 7.46833 113.556 7.4775C114.875 7.49126 116.121 7.61045 116.776 7.79842C116.776 7.79842 116.89 7.82593 116.954 7.77092L117 7.62879V5.01098C117 4.77258 116.931 4.6763 116.675 4.63963ZM99.285 4.72215H95.6394V19.4571H100.352V5.90498C100.352 4.96055 100.119 4.72215 99.285 4.72215ZM83.9744 4.39206C82.0142 4.39206 79.5868 4.7084 77.8235 5.28606C77.7594 5.3044 77.7365 5.35483 77.7365 5.42818V7.88553C77.7365 8.24772 77.8648 8.41735 78.0892 8.41735C78.2312 8.42193 78.4098 8.33482 78.6388 8.23855C80.0677 7.61504 81.6569 7.32162 83.5896 7.32162C85.9483 7.32162 86.2323 7.70215 86.2323 8.49987C86.2323 9.16464 86.1864 9.18298 85.2338 9.43971C83.0721 10.0586 80.5348 10.6225 78.4968 11.7549C77.0724 12.5435 76.5595 13.951 76.5595 15.4501C76.5595 18.7006 78.5472 19.7964 82.953 19.7964C86.6582 19.7964 89.342 19.3196 90.9358 18.6777V8.82079C90.9404 5.1256 87.2994 4.39206 83.9744 4.39206ZM86.2323 14.9871C86.2323 16.2158 85.9804 17.1556 83.7957 17.1556C82.005 17.1556 81.3592 16.4542 81.3592 14.9779C81.3592 14.0106 81.9226 13.4421 83.3881 12.8644C84.3316 12.4839 85.2613 12.163 86.2277 11.8145L86.2323 14.9871Z" fill="#777777"/>
<path d="M11.7245 2.16854L2.62425 13.1258C2.53265 13.2266 2.49602 13.355 2.53723 13.4513C2.57845 13.5521 2.67463 13.6163 2.80287 13.6163H16.8632C16.9914 13.6163 17.0784 13.5063 17.0784 13.3871C17.0784 13.2633 17.0189 13.1899 16.8952 13.1624C16.3915 13.0432 13.6298 12.4426 11.6467 11.8467C10.4193 11.4753 9.93836 10.4163 10.259 9.00419C10.6116 7.44084 12.1092 2.41611 12.1138 2.40235C12.1505 2.30149 12.1276 2.16854 12.0176 2.11811C11.9031 2.04934 11.8024 2.08143 11.7245 2.16854Z" fill="#777777"/>
<path d="M9.91092 0C15.3519 0 19.7852 4.4379 19.7852 9.93026C19.7852 15.3722 15.3564 19.8147 9.91092 19.8147C4.42877 19.8147 0 15.3722 0 9.93026C0 4.4379 4.42877 0 9.91092 0ZM9.91092 1.21034C5.1066 1.21034 1.2091 5.11184 1.2091 9.93026C1.2091 14.7349 5.1066 18.6364 9.91092 18.6364C14.7152 18.6364 18.6127 14.7349 18.6127 9.93026C18.6265 5.13018 14.7565 1.22867 9.9613 1.21034C9.94298 1.21034 9.92466 1.21034 9.91092 1.21034Z" fill="#777777"/>
</svg>
