<svg width="107" height="22" viewBox="0 0 107 22" fill="none" xmlns="http://www.w3.org/2000/svg">
<path d="M40.0349 9.53201C40.0349 4.41269 35.8943 0.497925 30.6997 0.497925C24.3758 0.497925 20.7622 5.01497 20.7622 10.9624C20.7622 16.8346 24.0747 21.4269 30.8503 21.4269C35.9696 21.4269 39.3574 18.3402 39.8844 14.8772H35.1415C34.6145 16.3076 33.2594 17.5121 30.8503 17.5121C26.9355 17.5121 25.6557 15.1783 25.4298 12.3175H39.8091C39.9596 11.4894 40.0349 10.5107 40.0349 9.53201ZM25.4298 9.00502C25.4298 5.76781 27.9895 4.11156 30.5491 4.11156C33.1841 4.11156 35.4426 5.99366 35.4426 9.00502H25.4298Z" fill="#777777"/>
<path d="M78.7305 1.10021C78.1282 0.874356 77.526 0.799072 76.8484 0.799072C74.1382 0.799072 71.5032 2.45532 70.5998 4.26214V1.02492H65.8569V20.9752H70.5998V12.3928C70.5998 7.42407 72.7831 5.16555 76.8484 5.16555C77.4507 5.16555 78.1282 5.24083 78.7305 5.3914V1.10021Z" fill="#777777"/>
<path d="M95.2931 3.58448C93.7875 1.6271 91.3784 0.57312 89.0446 0.57312C82.8713 0.57312 78.7307 5.3913 78.7307 11.0376C78.7307 16.6839 82.9466 21.5021 89.0446 21.5021C91.3784 21.5021 93.8627 20.5234 95.2931 18.4907V20.9751H100.036V1.02482H95.2931V3.58448ZM89.3457 17.3615C85.8074 17.3615 83.4735 14.4254 83.4735 11.0376C83.4735 7.57454 85.8074 4.71374 89.3457 4.71374C92.9593 4.71374 95.2931 7.64982 95.2931 11.0376C95.2931 14.4254 92.9593 17.3615 89.3457 17.3615Z" fill="#777777"/>
<path d="M52.9835 17.2863C49.5957 17.2863 47.3372 14.5008 47.3372 11.1883H42.8201C42.7448 16.6087 47.036 21.1258 52.5318 21.2764C52.6823 21.2764 52.8329 21.2764 52.9835 21.2764C59.2321 21.2764 63.2221 16.6087 63.2221 11.1883H58.7051C58.7051 14.5008 56.4465 17.2863 52.9835 17.2863Z" fill="#777777"/>
<path d="M14.2876 9.0114H5.10294V0.57959H0.360046V21.0568H5.10294V13.0767H14.2876V21.0568H19.0305V0.57959H14.2876V9.0114Z" fill="#777777"/>
<path d="M46.9609 7.27351C48.7072 7.27351 50.1228 5.85786 50.1228 4.11158C50.1228 2.36529 48.7072 0.949646 46.9609 0.949646C45.2146 0.949646 43.799 2.36529 43.799 4.11158C43.799 5.85786 45.2146 7.27351 46.9609 7.27351Z" fill="#777777"/>
<path d="M59.0063 7.27351C60.7526 7.27351 62.1682 5.85786 62.1682 4.11158C62.1682 2.36529 60.7526 0.949646 59.0063 0.949646C57.26 0.949646 55.8444 2.36529 55.8444 4.11158C55.8444 5.85786 57.26 7.27351 59.0063 7.27351Z" fill="#777777"/>
<path d="M105.23 2.38003C105.23 1.92833 104.854 1.55191 104.402 1.62719H103.348V3.73515H104.026V3.20816H104.177L104.553 3.73515H105.306L104.929 3.05759C105.08 2.90702 105.23 2.68117 105.23 2.38003ZM104.327 2.68117H104.026V2.0789H104.327C104.478 2.0789 104.553 2.22947 104.553 2.38003C104.553 2.5306 104.478 2.68117 104.327 2.68117Z" fill="#777777"/>
<path d="M104.252 4.78903C103.048 4.78903 102.144 3.81034 102.144 2.68107C102.144 1.55181 103.123 0.57312 104.252 0.57312C105.457 0.57312 106.36 1.55181 106.36 2.68107C106.36 3.81034 105.457 4.78903 104.252 4.78903ZM104.252 1.10011C103.349 1.10011 102.671 1.77767 102.671 2.68107C102.671 3.58448 103.349 4.26204 104.252 4.26204C105.156 4.26204 105.833 3.58448 105.833 2.68107C105.833 1.77767 105.08 1.10011 104.252 1.10011Z" fill="#777777"/>
</svg>
