<svg width="88" height="88" viewBox="0 0 88 88" fill="none" xmlns="http://www.w3.org/2000/svg">
<g clip-path="url(#clip0_272_19901)">
<path d="M12.3745 5.50116H9.62393V82.4678H12.3745V5.50116Z" fill="#1FE290"/>
<path d="M10.9992 49.5012C14.0374 49.5012 16.5004 47.0382 16.5004 44C16.5004 40.9618 14.0374 38.4988 10.9992 38.4988C7.96102 38.4988 5.49806 40.9618 5.49806 44C5.49806 47.0382 7.96102 49.5012 10.9992 49.5012Z" fill="#143230"/>
<path d="M28.8749 5.50116H26.1243V82.4678H28.8749V5.50116Z" fill="#1FE290"/>
<path d="M27.4996 60.5035C30.5378 60.5035 33.0008 58.0405 33.0008 55.0023C33.0008 51.9641 30.5378 49.5012 27.4996 49.5012C24.4614 49.5012 21.9984 51.9641 21.9984 55.0023C21.9984 58.0405 24.4614 60.5035 27.4996 60.5035Z" fill="#143230"/>
<path d="M61.8757 5.50116H59.1251V82.4678H61.8757V5.50116Z" fill="#1FE290"/>
<path d="M60.5004 38.5019C63.5386 38.5019 66.0016 36.039 66.0016 33.0008C66.0016 29.9626 63.5386 27.4996 60.5004 27.4996C57.4622 27.4996 54.9992 29.9626 54.9992 33.0008C54.9992 36.039 57.4622 38.5019 60.5004 38.5019Z" fill="#143230"/>
<path d="M45.3753 5.50116H42.6247V82.4678H45.3753V5.50116Z" fill="#1FE290"/>
<path d="M44 49.5012C47.0382 49.5012 49.5012 47.0382 49.5012 44C49.5012 40.9618 47.0382 38.4988 44 38.4988C40.9618 38.4988 38.4988 40.9618 38.4988 44C38.4988 47.0382 40.9618 49.5012 44 49.5012Z" fill="#143230"/>
<path d="M78.3761 5.50116H75.6255V82.4678H78.3761V5.50116Z" fill="#1FE290"/>
<path d="M77.0008 56.3776C80.039 56.3776 82.5019 53.9147 82.5019 50.8765C82.5019 47.8383 80.039 45.3753 77.0008 45.3753C73.9626 45.3753 71.4996 47.8383 71.4996 50.8765C71.4996 53.9147 73.9626 56.3776 77.0008 56.3776Z" fill="#143230"/>
</g>
<defs>
<clipPath id="clip0_272_19901">
<rect width="88" height="88" fill="white"/>
</clipPath>
</defs>
</svg>
