<svg width="60" height="60" viewBox="0 0 60 60" fill="none" xmlns="http://www.w3.org/2000/svg">
<path d="M50.625 1.875L58.125 9.375L50.625 16.875M58.125 9.375H5.625C3.5625 9.375 1.875 11.0625 1.875 13.125V30M9.375 43.125L1.875 50.625L9.375 58.125M1.875 50.625H54.375C56.4375 50.625 58.125 48.9375 58.125 46.875V30" stroke="#1FE290" stroke-width="2" stroke-miterlimit="10" stroke-linejoin="round"/>
<path d="M30 39.375C35.1777 39.375 39.375 35.1777 39.375 30C39.375 24.8223 35.1777 20.625 30 20.625C24.8223 20.625 20.625 24.8223 20.625 30C20.625 35.1777 24.8223 39.375 30 39.375Z" stroke="#1FE290" stroke-width="2" stroke-miterlimit="10" stroke-linejoin="round"/>
</svg>
