<svg width="60" height="60" viewBox="0 0 60 60" fill="none" xmlns="http://www.w3.org/2000/svg">
<g clip-path="url(#clip0_1709_48691)">
<path d="M58.125 7.5H1.875V46.875H58.125V7.5Z" stroke="#1FE290" stroke-width="2" stroke-miterlimit="10" stroke-linejoin="round"/>
<path d="M58.125 37.5H1.875" stroke="#1FE290" stroke-width="2" stroke-miterlimit="10" stroke-linejoin="round"/>
<path d="M41.25 56.25H18.75" stroke="#1FE290" stroke-width="2" stroke-miterlimit="10" stroke-linejoin="round"/>
<path d="M30 46.875V56.25" stroke="#1FE290" stroke-width="2" stroke-miterlimit="10" stroke-linejoin="round"/>
<path d="M15 32.8125C16.5533 32.8125 17.8125 31.5533 17.8125 30C17.8125 28.4467 16.5533 27.1875 15 27.1875C13.4467 27.1875 12.1875 28.4467 12.1875 30C12.1875 31.5533 13.4467 32.8125 15 32.8125Z" stroke="#1FE290" stroke-width="2" stroke-miterlimit="10" stroke-linejoin="round"/>
<path d="M26.25 21.5625C27.8033 21.5625 29.0625 20.3033 29.0625 18.75C29.0625 17.1967 27.8033 15.9375 26.25 15.9375C24.6967 15.9375 23.4375 17.1967 23.4375 18.75C23.4375 20.3033 24.6967 21.5625 26.25 21.5625Z" stroke="#1FE290" stroke-width="2" stroke-miterlimit="10" stroke-linejoin="round"/>
<path d="M33.75 29.0625C35.3033 29.0625 36.5625 27.8033 36.5625 26.25C36.5625 24.6967 35.3033 23.4375 33.75 23.4375C32.1967 23.4375 30.9375 24.6967 30.9375 26.25C30.9375 27.8033 32.1967 29.0625 33.75 29.0625Z" stroke="#1FE290" stroke-width="2" stroke-miterlimit="10" stroke-linejoin="round"/>
<path d="M45 17.8125C46.5533 17.8125 47.8125 16.5533 47.8125 15C47.8125 13.4467 46.5533 12.1875 45 12.1875C43.4467 12.1875 42.1875 13.4467 42.1875 15C42.1875 16.5533 43.4467 17.8125 45 17.8125Z" stroke="#1FE290" stroke-width="2" stroke-miterlimit="10" stroke-linejoin="round"/>
<path d="M24.375 20.625L17.0625 27.9375" stroke="#1FE290" stroke-width="2" stroke-miterlimit="10" stroke-linejoin="round"/>
<path d="M28.125 20.625L31.875 24.375" stroke="#1FE290" stroke-width="2" stroke-miterlimit="10" stroke-linejoin="round"/>
<path d="M42.9375 17.0625L35.8125 24.1875" stroke="#1FE290" stroke-width="2" stroke-miterlimit="10" stroke-linejoin="round"/>
</g>
<defs>
<clipPath id="clip0_1709_48691">
<rect width="60" height="60" fill="white"/>
</clipPath>
</defs>
</svg>
