<svg width="74" height="74" viewBox="0 0 74 74" fill="none" xmlns="http://www.w3.org/2000/svg">
<path d="M68.0048 13.4701L38.5361 2L9.06738 13.4701V21.2453H68.0048V13.4701Z" stroke="#1FE290" stroke-width="2" stroke-linejoin="round"/>
<path d="M13.6006 21.2458V55.4522" stroke="#1FE290" stroke-width="2" stroke-linejoin="round"/>
<path d="M29.4678 21.3367V55.4524" stroke="#1FE290" stroke-width="2" stroke-linejoin="round"/>
<path d="M47.6036 61.9128H6.80078" stroke="#1FE290" stroke-width="2" stroke-linejoin="round"/>
<path d="M0 71.3198H47.6033" stroke="#1FE290" stroke-width="2" stroke-linejoin="round"/>
<path d="M47.6045 21.2458V50.9186" stroke="#1FE290" stroke-width="2" stroke-linejoin="round"/>
<path d="M63.4707 21.2458V41.8513" stroke="#1FE290" stroke-width="2" stroke-linejoin="round"/>
<path d="M70.8678 50.8906H59.6923C57.1081 50.8906 55 52.9988 55 55.583C55 58.1671 57.1081 59.9126 59.6923 59.9126H66.1754C68.7596 59.9126 70.8678 62.0207 70.8678 64.6049C70.8678 67.1891 68.7596 69.2972 66.1754 69.2972H55" stroke="#1FE290" stroke-width="2" stroke-linejoin="round"/>
<path d="M63.4707 51.185V46.6514" stroke="#1FE290" stroke-width="2" stroke-linejoin="round"/>
<path d="M63.4707 73.8535V69.3198" stroke="#1FE290" stroke-width="2" stroke-linejoin="round"/>
<path d="M38.5355 16.9156C41.0894 16.9156 43.1598 14.8453 43.1598 12.2913C43.1598 9.73737 41.0894 7.66699 38.5355 7.66699C35.9815 7.66699 33.9111 9.73737 33.9111 12.2913C33.9111 14.8453 35.9815 16.9156 38.5355 16.9156Z" stroke="#1FE290" stroke-width="2" stroke-linejoin="round"/>
</svg>
