<svg width="74" height="74" viewBox="0 0 74 74" fill="none" xmlns="http://www.w3.org/2000/svg">
<path d="M40.33 37V71.6142H1V2H40.33V12.7117" stroke="#1FE290" stroke-width="2" stroke-linejoin="round"/>
<path d="M1 59.8384H40.33" stroke="#1FE290" stroke-width="2" stroke-linejoin="round"/>
<path d="M20.6642 67.3342C21.6097 67.3342 22.3762 66.5677 22.3762 65.6222C22.3762 64.6767 21.6097 63.9102 20.6642 63.9102C19.7186 63.9102 18.9521 64.6767 18.9521 65.6222C18.9521 66.5677 19.7186 67.3342 20.6642 67.3342Z" stroke="#1FE290" stroke-width="2" stroke-linejoin="round"/>
<path d="M53.5869 12.7114H20.0225C18.6898 12.7114 17.6094 13.7918 17.6094 15.1246V34.2924C17.6094 35.6252 18.6898 36.7056 20.0225 36.7056H53.5869C54.9196 36.7056 56 35.6252 56 34.2924V15.1246C56 13.7918 54.9196 12.7114 53.5869 12.7114Z" stroke="#1FE290" stroke-width="2" stroke-linejoin="round"/>
<path d="M56 31.9067H17.6094" stroke="#1FE290" stroke-width="2" stroke-linejoin="round"/>
<path d="M56 27.1082H17.6094" stroke="#1FE290" stroke-width="2" stroke-linejoin="round"/>
</svg>
