<svg width="74" height="74" viewBox="0 0 74 74" fill="none" xmlns="http://www.w3.org/2000/svg">
<path d="M46.0067 24.5037H67.6133C70.04 24.5037 71.9767 26.4637 71.9767 28.867V63.867C71.9767 66.2937 70.0167 68.2303 67.6133 68.2303H6.36333C3.93667 68.2303 2 66.2703 2 63.867V28.867C2 26.4403 3.96 24.5037 6.36333 24.5037H9" stroke="#1FE290" stroke-width="2" stroke-linejoin="round"/>
<path d="M72 59.5037H2" stroke="#1FE290" stroke-width="2" stroke-linejoin="round"/>
<path d="M72 50.7539H2" stroke="#1FE290" stroke-width="2" stroke-linejoin="round"/>
<path d="M19.9424 32.11L35.1091 16.9434" stroke="#1FE290" stroke-width="2" stroke-linejoin="round"/>
<path d="M21.8331 23.1966C24.2429 23.1966 26.1964 21.2431 26.1964 18.8333C26.1964 16.4235 24.2429 14.47 21.8331 14.47C19.4233 14.47 17.4697 16.4235 17.4697 18.8333C17.4697 21.2431 19.4233 23.1966 21.8331 23.1966Z" stroke="#1FE290" stroke-width="2" stroke-linejoin="round"/>
<path d="M33.1739 34.537C35.5837 34.537 37.5372 32.5834 37.5372 30.1736C37.5372 27.7638 35.5837 25.8103 33.1739 25.8103C30.7641 25.8103 28.8105 27.7638 28.8105 30.1736C28.8105 32.5834 30.7641 34.537 33.1739 34.537Z" stroke="#1FE290" stroke-width="2" stroke-linejoin="round"/>
<path d="M27.5033 43.0067C37.7224 43.0067 46.0067 34.7224 46.0067 24.5033C46.0067 14.2842 37.7224 6 27.5033 6C17.2842 6 9 14.2842 9 24.5033C9 34.7224 17.2842 43.0067 27.5033 43.0067Z" stroke="#1FE290" stroke-width="2" stroke-linejoin="round"/>
</svg>
