<svg width="74" height="74" viewBox="0 0 74 74" fill="none" xmlns="http://www.w3.org/2000/svg">
<g clip-path="url(#clip0_743_30797)">
<path d="M69.3718 55.7686H58.2239C56.9304 55.7686 55.8818 56.8152 55.8818 58.1063V69.7952C55.8818 71.0863 56.9304 72.1329 58.2239 72.1329H69.3718C70.6653 72.1329 71.7139 71.0863 71.7139 69.7952V58.1063C71.7139 56.8152 70.6653 55.7686 69.3718 55.7686Z" stroke="#1FE290" stroke-width="2" stroke-linejoin="round"/>
<path d="M14.9431 2H3.79514C2.50168 2 1.45312 3.04665 1.45312 4.33777V16.0266C1.45312 17.3177 2.50168 18.3644 3.79514 18.3644H14.9431C16.2366 18.3644 17.2851 17.3177 17.2851 16.0266V4.33777C17.2851 3.04665 16.2366 2 14.9431 2Z" stroke="#1FE290" stroke-width="2" stroke-linejoin="round"/>
<path d="M22.5312 10.1824H57.9425C61.1745 10.1824 63.7976 12.8007 63.7976 16.0268V50.3452" stroke="#1FE290" stroke-width="2" stroke-linejoin="round"/>
<path d="M73.1648 38.6562L63.7968 50.3451L54.4287 38.6562" stroke="#1FE290" stroke-width="2" stroke-linejoin="round"/>
<path d="M50.6345 63.9509H15.2232C11.9912 63.9509 9.36816 61.3326 9.36816 58.1065V23.7881" stroke="#1FE290" stroke-width="2" stroke-linejoin="round"/>
<path d="M0 35.4769L9.36806 23.7881L18.7361 35.4769" stroke="#1FE290" stroke-width="2" stroke-linejoin="round"/>
<path d="M46.1391 25.7986H32.6726C29.5577 25.7986 27.0049 28.3234 27.0049 31.456C27.0049 34.5652 29.5343 37.0432 32.6726 37.0432H40.8462C43.7737 37.0432 46.1391 39.4044 46.1391 42.3266C46.1391 45.4358 43.6098 47.984 40.4715 47.984H27.0049" stroke="#1FE290" stroke-width="2" stroke-linejoin="round"/>
<path d="M36.584 26.1491V20.7021" stroke="#1FE290" stroke-width="2" stroke-linejoin="round"/>
<path d="M36.584 53.4309V47.9839" stroke="#1FE290" stroke-width="2" stroke-linejoin="round"/>
</g>
<defs>
<clipPath id="clip0_743_30797">
<rect width="74" height="74" fill="white"/>
</clipPath>
</defs>
</svg>
