<svg width="74" height="74" viewBox="0 0 74 74" fill="none" xmlns="http://www.w3.org/2000/svg">
<g clip-path="url(#clip0_743_30815)">
<path d="M52.5371 4L63.0847 13.3943L73.8725 4" stroke="#1FE290" stroke-width="2" stroke-linejoin="round"/>
<path d="M63.084 13.3945V30.6695" stroke="#1FE290" stroke-width="2" stroke-linejoin="round"/>
<path d="M55.2021 20.002H71.2037" stroke="#1FE290" stroke-width="2" stroke-linejoin="round"/>
<path d="M45.4742 44.1482H32.8844C29.9532 44.1482 27.5986 46.5268 27.5986 49.434C27.5986 52.3652 29.9772 54.6717 32.8844 54.6717H40.5248C43.2638 54.6717 45.4742 56.8822 45.4742 59.6212C45.4742 62.5524 43.0956 64.907 40.1884 64.907H27.5986" stroke="#1FE290" stroke-width="2" stroke-linejoin="round"/>
<path d="M36.5352 44.4605V39.3669" stroke="#1FE290" stroke-width="2" stroke-linejoin="round"/>
<path d="M36.5352 70.0003V64.9067" stroke="#1FE290" stroke-width="2" stroke-linejoin="round"/>
<path d="M18.7078 6.66687C14.8396 1.8616 6.09401 4.48047 6.09401 11.5682C6.09401 16.9501 9.07328 16.5897 9.07328 22.3801C9.07328 28.1704 2.29785 30.6692 2.29785 30.6692H20.5098" stroke="#1FE290" stroke-width="2" stroke-linejoin="round"/>
<path d="M1 20.002H18.2029" stroke="#1FE290" stroke-width="2" stroke-linejoin="round"/>
<path d="M23.1777 14.6675H49.871" stroke="#1FE290" stroke-width="2" stroke-linejoin="round"/>
<path d="M52 54.6952H58.0836C60.845 54.6952 63.0836 52.4566 63.0836 49.6952V36.0027" stroke="#1FE290" stroke-width="2" stroke-linejoin="round"/>
<path d="M21 54.6952H14.8408C12.0794 54.6952 9.84082 52.4566 9.84082 49.6952V36.0027" stroke="#1FE290" stroke-width="2" stroke-linejoin="round"/>
</g>
<defs>
<clipPath id="clip0_743_30815">
<rect width="74" height="74" fill="white"/>
</clipPath>
</defs>
</svg>
