<svg width="70" height="70" viewBox="0 0 70 70" fill="none" xmlns="http://www.w3.org/2000/svg">
<circle cx="35" cy="35" r="35" fill="#9D84F0"/>
<path d="M37.5184 55.3H36.5436V45.8241C36.5436 45.6197 36.6736 45.4356 36.8658 45.3652C38.0194 44.9483 39.2515 43.998 39.2515 42.5752V37.1374C39.2515 34.6899 37.3844 32.7731 35 32.7731C32.6157 32.7731 30.7486 34.6953 30.7486 37.1496V42.5874C30.7486 44.0007 31.9821 44.9483 33.1343 45.3652C33.3279 45.4356 33.4565 45.6197 33.4565 45.8241V55.3H32.4817V46.1558C30.8028 45.441 29.7737 44.0968 29.7737 42.5874V37.1496C29.7737 34.1498 32.0687 31.7984 35 31.7984C37.93 31.7984 40.2264 34.143 40.2264 37.1374V42.5752C40.2264 44.0927 39.1973 45.4397 37.5184 46.1558V55.3ZM53.2 45.4924L52.0072 41.097L51.0662 41.3528L51.8217 44.136L46.9691 41.342L46.483 42.1854L51.337 44.9808L48.5397 45.728L48.7915 46.6688L53.2 45.4924ZM21.4604 45.728L18.6645 44.9808L23.5184 42.1854L23.031 41.3407L18.1784 44.1347L18.9339 41.3515L17.9929 41.0956L16.8014 45.4911L21.2099 46.6675L21.4604 45.728ZM38.1954 26.8723C38.1954 25.1112 36.7616 23.6776 35 23.6776C33.2385 23.6776 31.8047 25.1112 31.8047 26.8723C31.8047 28.6335 33.2385 30.0671 35 30.0671C36.7629 30.0671 38.1954 28.6335 38.1954 26.8723ZM37.2206 26.8723C37.2206 28.0961 36.2254 29.0924 35 29.0924C33.7747 29.0924 32.7795 28.0961 32.7795 26.8723C32.7795 25.6486 33.7761 24.6523 35 24.6523C36.224 24.6523 37.2206 25.6486 37.2206 26.8723ZM53.2 24.4979L48.7902 23.3202L48.5397 24.261L51.3356 25.0083L46.4817 27.8037L46.9677 28.6484L51.8217 25.853L51.0648 28.6375L52.0059 28.892L53.2 24.4979ZM18.9339 28.6375L18.1784 25.853L23.031 28.6484L23.5171 27.8037L18.6645 25.0083L21.4604 24.261L21.2086 23.3202L16.8 24.4979L17.9915 28.8934L18.9339 28.6375ZM35.4875 15.8654L37.5265 17.9041L38.2171 17.215L35 14L31.7844 17.2164L32.4736 17.9054L34.514 15.8668V21.4575H35.4888L35.4875 15.8654Z" fill="white" stroke="white"/>
</svg>
