<svg width="70" height="70" viewBox="0 0 70 70" fill="none" xmlns="http://www.w3.org/2000/svg">
<circle cx="35" cy="35" r="35" fill="#9D84F0"/>
<path d="M48.545 55.2433H47.6V46.0558C47.6 45.8576 47.726 45.6791 47.9124 45.6109C49.0306 45.2066 50.225 44.2826 50.225 42.9045V37.6322C50.225 35.2605 48.415 33.402 46.1037 33.402C43.7924 33.402 41.9825 35.2657 41.9825 37.6453V42.9163C41.9825 44.2866 43.1769 45.2066 44.2951 45.6109C44.4828 45.6791 44.6075 45.8576 44.6075 46.0558V55.2433H43.6625V46.3774C42.035 45.6831 41.0375 44.3811 41.0375 42.9163V37.6453C41.0375 34.7368 43.2635 32.457 46.1037 32.457C48.944 32.457 51.17 34.7302 51.17 37.6322V42.9058C51.17 44.3758 50.1725 45.6831 48.545 46.3787V55.2433ZM26.2325 55.2433H25.2875V46.0558C25.2875 45.8576 25.4122 45.6791 25.5985 45.6109C26.7168 45.2066 27.9125 44.2826 27.9125 42.9045V37.6322C27.9125 35.2605 26.1025 33.402 23.7912 33.402C21.4799 33.402 19.67 35.2657 19.67 37.6453V42.9163C19.67 44.2852 20.8657 45.2066 21.9839 45.6109C22.1703 45.6791 22.295 45.8576 22.295 46.0558V55.2433H21.35V46.3774C19.7212 45.6831 18.725 44.3811 18.725 42.9163V37.6453C18.725 34.7368 20.9497 32.457 23.7912 32.457C26.6328 32.457 28.8575 34.7302 28.8575 37.6322V42.9058C28.8575 44.3758 27.8613 45.6817 26.2325 46.3787V55.2433ZM45.7113 31.3978C43.6428 31.3978 41.573 30.6182 39.9967 29.0602L34.9475 24.0636L29.8983 29.0602C26.7457 32.1761 21.619 32.1748 18.469 29.0602C16.9413 27.5482 16.1 25.5388 16.1 23.4007C16.1 21.2614 16.9413 19.2506 18.4677 17.7386C21.619 14.6227 26.747 14.6227 29.897 17.7386L34.9475 22.734L39.998 17.7373C43.1493 14.6201 48.2772 14.6214 51.4259 17.7373C52.955 19.2493 53.7963 21.2614 53.7963 23.3994C53.7963 25.5375 52.9537 27.5469 51.4259 29.0589C49.8496 30.6182 47.7811 31.3978 45.7113 31.3978ZM35.6195 23.3981L40.6608 28.3882C43.4485 31.1432 47.978 31.1419 50.7605 28.3882C52.1071 27.0547 52.8487 25.2842 52.85 23.3994C52.85 21.5147 52.1084 19.7428 50.7605 18.4093C47.9767 15.6557 43.4472 15.6544 40.6608 18.4093L35.6195 23.3981ZM24.1837 16.3447C22.354 16.3447 20.5257 17.0325 19.1319 18.4093C17.7865 19.7428 17.045 21.516 17.045 23.3994C17.045 25.2842 17.7865 27.0547 19.1332 28.3882C21.917 31.1419 26.449 31.1419 29.2342 28.3882L34.2755 23.3981L29.2329 18.4093C27.8416 17.0325 26.012 16.3447 24.1837 16.3447ZM46.1037 26.8172C44.3949 26.8172 43.0062 25.4272 43.0062 23.7197C43.0062 22.0121 44.3962 20.6222 46.1037 20.6222C47.8113 20.6222 49.2012 22.0121 49.2012 23.7197C49.2012 25.4272 47.8126 26.8172 46.1037 26.8172ZM46.1037 21.5672C44.9172 21.5672 43.9512 22.5332 43.9512 23.7197C43.9512 24.9062 44.9159 25.8722 46.1037 25.8722C47.2915 25.8722 48.2562 24.9062 48.2562 23.7197C48.2562 22.5332 47.2902 21.5672 46.1037 21.5672ZM23.7912 26.8172C22.0837 26.8172 20.6937 25.4272 20.6937 23.7197C20.6937 22.0121 22.0837 20.6222 23.7912 20.6222C25.4988 20.6222 26.8887 22.0121 26.8887 23.7197C26.8887 25.4272 25.4988 26.8172 23.7912 26.8172ZM23.7912 21.5672C22.6047 21.5672 21.6387 22.5332 21.6387 23.7197C21.6387 24.9062 22.6047 25.8722 23.7912 25.8722C24.9777 25.8722 25.9437 24.9062 25.9437 23.7197C25.9437 22.5332 24.9777 21.5672 23.7912 21.5672Z" fill="white" stroke="white"/>
</svg>
