<svg width="70" height="70" viewBox="0 0 70 70" fill="none" xmlns="http://www.w3.org/2000/svg">
<circle cx="35" cy="35" r="35" fill="#9D84F0"/>
<path d="M35 55.8498C34.9197 55.8498 34.8407 55.8293 34.7671 55.7912L17.0575 46.2553C16.8995 46.1695 16.8 46.0046 16.8 45.8234V24.027C16.8 23.8472 16.8995 23.681 17.0575 23.5952L34.7671 14.0593C34.9129 13.9802 35.0859 13.9802 35.233 14.0593L52.9426 23.5952C53.1006 23.681 53.2001 23.8472 53.2001 24.027V45.8234C53.2001 46.0046 53.1006 46.1695 52.9426 46.2553L35.233 55.7912C35.1594 55.8307 35.0804 55.8498 35 55.8498ZM17.7809 45.5305L35 54.8022L52.2192 45.5305V24.3199L35 15.0483L17.7809 24.3199V45.5305ZM43.6641 45.8234H42.6833V40.3743C42.6833 37.1961 40.6794 34.3081 37.6974 33.1883C37.523 33.1229 37.4004 32.9636 37.3827 32.7783C37.365 32.593 37.4535 32.4118 37.6115 32.3137C39.0814 31.3969 39.9601 29.8276 39.9601 28.1152C39.9601 25.3811 37.7355 23.1565 35.0014 23.1565C32.2673 23.1565 30.0427 25.3811 30.0427 28.1152C30.0427 29.8276 30.9214 31.3969 32.3913 32.3137C32.5493 32.4132 32.6379 32.593 32.6202 32.7783C32.6011 32.9636 32.4785 33.1229 32.3041 33.1883C29.3221 34.3081 27.3182 37.1961 27.3182 40.3743V45.8234H26.336V40.3743C26.336 37.0844 28.2391 34.0711 31.1516 32.6203C29.8289 31.4991 29.0605 29.8698 29.0605 28.1139C29.0605 24.8389 31.7251 22.1743 35 22.1743C38.275 22.1743 40.9396 24.8389 40.9396 28.1139C40.9396 29.8698 40.1712 31.4991 38.8485 32.6203C41.761 34.0697 43.6641 37.0844 43.6641 40.3743V45.8234Z" fill="white" stroke="white"/>
</svg>
