<?xml version="1.0" encoding="UTF-8"?>
<svg width="58" height="58" viewBox="0 0 58 58" fill="none" xmlns="http://www.w3.org/2000/svg">
<path fill-rule="evenodd" clip-rule="evenodd" d="M29 0C12.9867 0 0 12.9867 0 29C0 45.0133 12.9867 58 29 58C45.0133 58 58 45.0133 58 29C58 12.9867 45.0207 0 29 0ZM18.1962 35.3861C17.952 35.3861 17.73 35.2899 17.5524 35.1049L12.6093 30.1692L7.65144 35.1197C7.48125 35.2899 7.25925 35.3787 7.02246 35.3787C6.53407 35.3787 6.13447 34.9791 6.13447 34.4907C6.13447 34.2539 6.23067 34.0245 6.40087 33.8543L11.344 28.8964L6.39347 23.9459C6.22327 23.7757 6.12707 23.5537 6.12707 23.3169C6.12707 22.8285 6.52667 22.4289 7.01506 22.4289C7.25185 22.4289 7.47385 22.5177 7.64404 22.6879L12.6093 27.6384L17.5524 22.6953C17.7226 22.5251 17.9446 22.4289 18.1814 22.4289C18.6698 22.4289 19.0694 22.8285 19.0694 23.3169C19.0694 23.5537 18.9806 23.7757 18.8104 23.9385L13.8599 28.8964L18.803 33.8543C18.9658 34.0245 19.062 34.2465 19.062 34.4759C19.0842 34.9865 18.692 35.3861 18.1962 35.3861ZM30.1026 29.6216H20.8454C20.8454 29.666 20.8528 29.7104 20.8602 29.7548C20.9046 30.0138 20.9712 30.258 21.06 30.5022C21.5484 31.7897 22.9321 33.5879 25.5073 33.6175C26.2917 33.6101 27.039 33.4177 27.6902 33.0699C28.2008 32.7813 28.63 32.4187 28.9704 32.0339C29.0814 31.9007 29.185 31.7601 29.2812 31.6269C29.7104 31.072 30.2654 31.1756 30.591 31.4272C30.9758 31.7231 31.0424 32.3447 30.6946 32.7887C30.6909 32.7961 30.6853 32.8017 30.6798 32.8072C30.6742 32.8128 30.6687 32.8183 30.665 32.8257C30.1544 33.4621 29.629 33.9949 29 34.4019C28.3932 34.7867 27.7346 35.0679 27.0538 35.2307C26.2621 35.4379 25.4999 35.4823 24.7155 35.3861C22.0737 35.0605 19.8538 33.1069 19.1952 30.5318C19.062 30.0138 19.0028 29.4884 19.0028 28.963C19.0028 26.8836 20.0092 24.8561 21.7408 23.6203C23.8719 22.1033 26.78 22.0293 28.9852 23.4279C30.4948 24.3825 31.4864 25.8699 31.8637 27.6754C32.0561 28.704 31.3754 29.5994 30.1026 29.6216ZM37.569 24.3011C35.6451 24.5379 35.4379 25.4481 35.4379 27.6902V34.4241C35.4379 34.9125 35.0383 35.3121 34.5499 35.3121C34.0615 35.3121 33.6619 34.9125 33.6619 34.4315V23.4797C33.6619 22.9913 34.0541 22.5991 34.5425 22.5991C34.9643 22.5991 35.3195 22.8951 35.4083 23.2947C36.0669 22.7841 36.8586 22.5251 37.68 22.5251H37.9538C38.4422 22.5251 38.8418 22.9247 38.8418 23.4131C38.8418 23.9015 38.4644 24.2641 37.939 24.2789C37.939 24.2789 37.7466 24.2789 37.569 24.3011ZM44.9171 35.4157C41.3281 35.4157 38.4126 32.5001 38.4126 28.9112C38.4126 25.3223 41.3281 22.4067 44.9171 22.4067C48.506 22.4067 51.4215 25.3223 51.4215 28.9112C51.4215 32.5001 48.4986 35.4157 44.9171 35.4157ZM25.4791 24.227C23.2814 24.227 21.4388 25.7366 20.9282 27.7716V27.8456H30.0522C29.5638 25.7736 27.7065 24.227 25.4791 24.227ZM40.2466 28.9184C40.2466 26.3433 42.3408 24.2491 44.9159 24.2491C47.4837 24.2491 49.5778 26.3433 49.5852 28.9184C49.5852 31.4862 47.4911 33.5804 44.9159 33.5804C42.3408 33.5804 40.2466 31.4936 40.2466 28.9184ZM43.3028 28.911C43.3028 29.799 44.028 30.5242 44.9159 30.5242C45.8039 30.5242 46.5291 29.8064 46.5291 28.911C46.5291 28.0231 45.8039 27.2979 44.9159 27.2979C44.028 27.2979 43.3028 28.0231 43.3028 28.911Z" fill="#00B7DB"/>
</svg>
