<svg width="83" height="15" viewBox="0 0 83 15" fill="none" xmlns="http://www.w3.org/2000/svg">
<path d="M0.610352 0.256369H4.35715L8.81962 7.33608C8.87566 7.44134 8.95986 7.59245 9.07221 7.78965C9.19851 7.98686 9.3177 8.18406 9.43005 8.38127C9.5703 8.61792 9.7108 8.86763 9.85104 9.13066H9.89314C9.87919 8.81513 9.87209 8.51266 9.87209 8.22351C9.85814 7.97379 9.85104 7.73049 9.85104 7.49384C9.85104 7.2572 9.85104 7.07305 9.85104 6.94166V0.256369H13.4926V14.3566H9.74579L5.32542 7.37552C5.25517 7.28357 5.15702 7.13887 5.03073 6.94166C4.91838 6.73139 4.80629 6.51446 4.69394 6.29088C4.5537 6.04117 4.40635 5.77149 4.2519 5.48234H4.2098C4.2098 5.82424 4.2169 6.14618 4.23085 6.44865C4.23085 6.71167 4.23085 6.97445 4.23085 7.23747C4.2448 7.48719 4.2519 7.67133 4.2519 7.78965V14.3566H0.610352V0.256369ZM20.6065 14.6524C19.7224 14.6524 18.9225 14.521 18.2069 14.258C17.4912 13.9819 16.8879 13.6072 16.3966 13.1339C15.9054 12.6476 15.5265 12.0757 15.2599 11.4182C14.9934 10.7608 14.86 10.0509 14.86 9.28842C14.86 8.53904 14.9934 7.84216 15.2599 7.19803C15.5265 6.5406 15.9054 5.97535 16.3966 5.50206C16.8879 5.0157 17.4701 4.64101 18.1437 4.37798C18.8173 4.10189 19.568 3.96385 20.396 3.96385C21.1677 3.96385 21.8555 4.07552 22.4588 4.2991C23.0764 4.52268 23.6166 4.83156 24.0797 5.22597C24.7251 5.77815 25.2024 6.48144 25.511 7.33608C25.8339 8.17741 25.988 9.11093 25.9741 10.1364H18.2279C18.3403 10.82 18.5929 11.3591 18.9857 11.7535C19.3785 12.1479 19.9329 12.3451 20.6486 12.3451C21.0977 12.3451 21.4695 12.2596 21.7642 12.0888C22.0589 11.9046 22.2833 11.6549 22.4378 11.3394H25.7847C25.6723 11.7996 25.4618 12.2399 25.1532 12.6606C24.8445 13.0681 24.4514 13.4231 23.9744 13.7256C23.5253 14.028 23.0201 14.258 22.4588 14.4158C21.9116 14.5735 21.294 14.6524 20.6065 14.6524ZM22.5009 8.22351C22.4307 7.61882 22.2134 7.13887 21.8484 6.7839C21.4835 6.42893 21.0204 6.25144 20.4592 6.25144C19.7995 6.25144 19.2943 6.42893 18.9436 6.7839C18.5929 7.13887 18.3613 7.61882 18.249 8.22351H22.5009ZM31.1901 14.4749C30.685 14.4749 30.2219 14.4355 29.8009 14.3566C29.3941 14.2647 29.0363 14.1133 28.7274 13.903C28.4187 13.6928 28.1801 13.41 28.0117 13.0551C27.8433 12.687 27.7591 12.2334 27.7591 11.6943V6.27116H26.3277V4.25966H27.7591V1.06491H31.1059V4.25966H33.0635V6.27116H31.1059V11.0041C31.1059 11.3985 31.2112 11.6616 31.4217 11.7929C31.6464 11.9243 31.9411 11.9901 32.3058 11.9901C32.4602 11.9901 32.6076 11.9901 32.7478 11.9901C32.8883 11.9771 32.9935 11.9704 33.0635 11.9704V14.3172C32.9094 14.3566 32.6707 14.3894 32.3479 14.4158C32.0392 14.4552 31.6532 14.4749 31.1901 14.4749ZM40.5063 14.6919C39.5099 14.6919 38.598 14.5866 37.7699 14.3763C36.9561 14.1791 36.2544 13.8833 35.665 13.4889C35.0895 13.0814 34.6336 12.5818 34.2968 11.9901C33.9739 11.3855 33.8055 10.6952 33.7916 9.91948H37.5384C37.6226 10.6294 37.9102 11.1422 38.4014 11.4577C38.8926 11.7732 39.5873 11.931 40.4853 11.931C40.7939 11.931 41.0886 11.9046 41.3694 11.8521C41.6641 11.7996 41.9238 11.7141 42.1482 11.5957C42.3726 11.4774 42.5552 11.3263 42.6955 11.1422C42.8357 10.945 42.906 10.715 42.906 10.4519C42.906 10.1758 42.8289 9.94586 42.6744 9.76171C42.5342 9.57757 42.3237 9.41981 42.0429 9.28842C41.7622 9.15703 41.4186 9.04512 41.0115 8.95317C40.6045 8.84791 40.1414 8.73624 39.6223 8.61792C38.9626 8.47322 38.3101 8.30904 37.6647 8.1249C37.0332 7.94076 36.4649 7.69105 35.9597 7.37552C35.4545 7.05999 35.0406 6.65892 34.7178 6.17256C34.4091 5.6862 34.2547 5.07486 34.2547 4.33854C34.2547 3.58916 34.4091 2.94503 34.7178 2.40592C35.0264 1.85374 35.4474 1.40017 35.9807 1.04519C36.5141 0.690223 37.1455 0.427199 37.8752 0.256369C38.6048 0.0855386 39.3907 0 40.2327 0C41.0465 0 41.8043 0.0919492 42.506 0.276091C43.2217 0.446921 43.8393 0.709943 44.3584 1.06491C44.8917 1.41989 45.3127 1.87346 45.6214 2.42564C45.9442 2.96475 46.1265 3.60222 46.1686 4.33854H42.5271C42.4568 3.78636 42.2113 3.36558 41.7904 3.07642C41.3694 2.78727 40.8081 2.64256 40.1064 2.64256C39.4468 2.64256 38.9205 2.76755 38.5277 3.01726C38.1349 3.25391 37.9383 3.56944 37.9383 3.96385C37.9383 4.21356 38.0086 4.42408 38.1488 4.59491C38.3033 4.75267 38.5206 4.89072 38.8013 5.00904C39.0821 5.12737 39.4328 5.23903 39.8538 5.34429C40.2887 5.43624 40.7871 5.5415 41.3483 5.65982C42.0501 5.81759 42.7165 5.99508 43.348 6.19228C43.9934 6.38949 44.5618 6.65251 45.053 6.98111C45.5443 7.3097 45.9371 7.72383 46.2318 8.22351C46.5265 8.72318 46.6738 9.34758 46.6738 10.097C46.6738 10.8333 46.5125 11.4905 46.1897 12.069C45.881 12.6343 45.4458 13.1142 44.8846 13.5086C44.3373 13.89 43.6848 14.1791 42.927 14.3763C42.1832 14.5866 41.3765 14.6919 40.5063 14.6919ZM51.6917 14.6524C50.443 14.6524 49.4958 14.3105 48.8501 13.627C48.2186 12.9301 47.9028 12.0165 47.9028 10.8858V4.25966H51.3128V10.2153C51.3128 10.7675 51.4462 11.1947 51.7128 11.4971C51.9796 11.7863 52.3864 11.931 52.9336 11.931C53.523 11.931 53.9861 11.7468 54.3229 11.3788C54.6597 10.9975 54.8281 10.5044 54.8281 9.89976V4.25966H58.2592V14.3566H54.9754V13.1142H54.9123C54.5195 13.6139 54.0703 13.995 53.5651 14.258C53.0742 14.521 52.4495 14.6524 51.6917 14.6524ZM59.9097 4.25966H63.3407V14.3566H59.9097V4.25966ZM59.9097 0.256369H63.3407V2.85949H59.9097V0.256369ZM69.2601 14.4749C68.7549 14.4749 68.2918 14.4355 67.8708 14.3566C67.4638 14.2647 67.1059 14.1133 66.7973 13.903C66.4884 13.6928 66.25 13.41 66.0816 13.0551C65.9132 12.687 65.829 12.2334 65.829 11.6943V6.27116H64.3977V4.25966H65.829V1.06491H69.1759V4.25966H71.1335V6.27116H69.1759V11.0041C69.1759 11.3985 69.2811 11.6616 69.4916 11.7929C69.7161 11.9243 70.0108 11.9901 70.3757 11.9901C70.5299 11.9901 70.6772 11.9901 70.8177 11.9901C70.958 11.9771 71.0632 11.9704 71.1335 11.9704V14.3172C70.979 14.3566 70.7404 14.3894 70.4178 14.4158C70.1089 14.4552 69.7232 14.4749 69.2601 14.4749ZM77.5262 14.6524C76.6421 14.6524 75.8422 14.521 75.1266 14.258C74.4109 13.9819 73.8076 13.6072 73.3163 13.1339C72.8251 12.6476 72.4462 12.0757 72.1796 11.4182C71.9131 10.7608 71.7797 10.0509 71.7797 9.28842C71.7797 8.53904 71.9131 7.84216 72.1796 7.19803C72.4462 6.5406 72.8251 5.97535 73.3163 5.50206C73.8076 5.0157 74.3898 4.64101 75.0634 4.37798C75.737 4.10189 76.4877 3.96385 77.3157 3.96385C78.0874 3.96385 78.7752 4.07552 79.3785 4.2991C79.9961 4.52268 80.5363 4.83156 80.9994 5.22597C81.6448 5.77815 82.1221 6.48144 82.4307 7.33608C82.7536 8.17741 82.9077 9.11093 82.8938 10.1364H75.1476C75.26 10.82 75.5126 11.3591 75.9054 11.7535C76.2982 12.1479 76.8526 12.3451 77.5683 12.3451C78.0174 12.3451 78.3892 12.2596 78.6839 12.0888C78.9786 11.9046 79.203 11.6549 79.3575 11.3394H82.7043C82.592 11.7996 82.3815 12.2399 82.0729 12.6606C81.7642 13.0681 81.3711 13.4231 80.8941 13.7256C80.445 14.028 79.9398 14.258 79.3785 14.4158C78.8313 14.5735 78.2137 14.6524 77.5262 14.6524ZM79.4206 8.22351C79.3504 7.61882 79.133 7.13887 78.7681 6.7839C78.4032 6.42893 77.9401 6.25144 77.3788 6.25144C76.7192 6.25144 76.214 6.42893 75.8633 6.7839C75.5126 7.13887 75.281 7.61882 75.1687 8.22351H79.4206Z" fill="black"/>
</svg>
