<?xml version="1.0" encoding="UTF-8"?>
<svg width="85" height="18" viewBox="0 0 85 18" fill="none" xmlns="http://www.w3.org/2000/svg">
<path d="M0 5.8324V9.2514H12.9218V5.8324H0V5.8324ZM0 11.6648V15.0838H12.9218V11.6648H0ZM56.9162 14.6313H51.838C50.9832 14.6313 50.4804 14.1788 50.4804 13.3743C50.4804 12.5698 50.9832 12.1173 51.838 12.1173H56.9162V14.6313ZM54.5531 2.86592H47.7654V6.28492H49.8268H54.352C56.3631 6.28492 56.9162 7.03911 56.9162 8.84916H51.6369C48.5196 8.84916 46.8101 10.4581 46.8101 13.4246C46.8101 16.3911 48.5196 18 51.6369 18H60.5363V8.69832C60.5866 4.77654 59.0782 2.86592 54.5531 2.86592ZM69.3855 14.5307C67.0726 14.5307 66.2179 13.4246 66.2179 10.4078C66.2179 7.39106 67.0726 6.28492 69.3855 6.28492H74.2626V2.86592H68.9832C64.3073 2.86592 62.4972 5.17877 62.4972 10.4078C62.4972 15.5866 64.3073 17.9497 68.9832 17.9497H74.3129V14.5307H69.3855ZM23.1285 14.5307C21.2179 14.5307 20.3129 13.8268 20.0615 12.1173H28.1061V9.40224V9.35196V8.7486H20.0615C20.3129 6.98883 21.1676 6.23464 23.1285 6.23464H29.162V2.86592H27.352H22.7263C18.0503 2.86592 16.2402 5.17877 16.2402 10.4078C16.2402 15.5866 18.0503 17.9497 22.7263 17.9497H29.2123V14.5307H23.1285ZM81.0503 14.5307C80.3464 14.5307 79.8939 14.0279 79.8939 13.1229V6.28492H84.3184V2.86592H79.8939V0H76.2235V13.4246C76.2235 16.5419 77.6816 17.9497 80.6983 17.9497H84.6201V14.5307H81.0503V14.5307ZM40.5754 10.1564L46.1061 2.86592H41.7821L38.4134 7.34078L35.0447 2.86592H30.5698L36.2011 10.3073L30.419 17.9497H34.743L38.4134 13.1229L42.0838 17.9497H46.5587L40.5754 10.1564Z" fill="#ED031F"/>
</svg>
