<?xml version="1.0" encoding="UTF-8"?>
<svg width="42" height="42" viewBox="0 0 42 42" fill="none" xmlns="http://www.w3.org/2000/svg">
<path fill-rule="evenodd" clip-rule="evenodd" d="M40.4112 35.3159H24.9258L24.9004 32.4782H28.6303V29.1741H24.8713L24.8539 27.2204H28.6303V23.9164H24.8244L24.8071 21.9627H28.6303V18.6586H24.7947V16.7049H28.6303V13.4008H24.7947V11.4471H28.6303V8.14307H24.7947V5.14104H40.4112V35.3159ZM40.1711 3.58619H24.9771V0L0 3.86051V37.6933L24.9771 42V36.6875H40.1711C41.1812 36.6875 42 35.9505 42 35.0416V5.23212C42 4.32302 41.1812 3.58619 40.1711 3.58619ZM6.05082 12.9444L9.38576 12.7624L11.4821 18.2661L13.9595 12.535L17.2944 12.353L13.2448 20.1669L17.2944 28.0001L13.7688 27.7727L11.3868 21.8016L9.00467 27.5452L5.76498 27.2723L9.52868 20.3532L6.05082 12.9444ZM37.0583 11.5293H30.47V8.23521H37.0583V11.5293ZM37.0583 16.4706H30.47V13.1765H37.0583V16.4706ZM30.47 22.2352H37.0583V18.9411H30.47V22.2352ZM37.0583 27.1764H30.47V23.8823H37.0583V27.1764ZM30.47 32.1177H37.0583V28.8235H30.47V32.1177Z" fill="#007233"/>
</svg>
